<?xml version="1.0" encoding="UTF-8"?>
<svg xmlns="http://www.w3.org/2000/svg" xmlns:xlink="http://www.w3.org/1999/xlink" width="500" zoomAndPan="magnify" viewBox="0 0 375 374.999991" height="500" preserveAspectRatio="xMidYMid meet" version="1.0">
  <defs>
    <g></g>
    <clipPath id="7c1b3d1317">
      <path d="M 46 31.285156 L 329 31.285156 L 329 345 L 46 345 Z M 46 31.285156 " clip-rule="nonzero"></path>
    </clipPath>
    <clipPath id="4bea55edcb">
      <path d="M 45 31.285156 L 330 31.285156 L 330 345.535156 L 45 345.535156 Z M 45 31.285156 " clip-rule="nonzero"></path>
    </clipPath>
    <clipPath id="5da94efa8d">
      <path d="M 55 42.425781 L 320 42.425781 L 320 334.175781 L 55 334.175781 Z M 55 42.425781 " clip-rule="nonzero"></path>
    </clipPath>
    <clipPath id="b2d65fe4eb">
      <path d="M 63 49.105469 L 312 49.105469 L 312 325.855469 L 63 325.855469 Z M 63 49.105469 " clip-rule="nonzero"></path>
    </clipPath>
    <clipPath id="6a8e220ad6">
      <path d="M 62 49.105469 L 313 49.105469 L 313 325.855469 L 62 325.855469 Z M 62 49.105469 " clip-rule="nonzero"></path>
    </clipPath>
    <clipPath id="1827f3c1d1">
      <path d="M 68 55 L 307 55 L 307 318.496094 L 68 318.496094 Z M 68 55 " clip-rule="nonzero"></path>
    </clipPath>
    <clipPath id="4f52d4161a">
      <path d="M 68 54.496094 L 307 54.496094 L 307 318.496094 L 68 318.496094 Z M 68 54.496094 " clip-rule="nonzero"></path>
    </clipPath>
    <clipPath id="581f57d591">
      <path d="M 63 242.921875 L 312 242.921875 L 312 325.855469 L 63 325.855469 Z M 63 242.921875 " clip-rule="nonzero"></path>
    </clipPath>
    <clipPath id="aac77dad14">
      <path d="M 62 242.921875 L 313 242.921875 L 313 325.855469 L 62 325.855469 Z M 62 242.921875 " clip-rule="nonzero"></path>
    </clipPath>
    <clipPath id="5f1a8d7089">
      <path d="M 227.007812 118.710938 L 272 118.710938 L 272 234.960938 L 227.007812 234.960938 Z M 227.007812 118.710938 " clip-rule="nonzero"></path>
    </clipPath>
    <clipPath id="95f5a1d168">
      <path d="M 103 118.710938 L 147.984375 118.710938 L 147.984375 234.960938 L 103 234.960938 Z M 103 118.710938 " clip-rule="nonzero"></path>
    </clipPath>
    <clipPath id="b773112309">
      <path d="M 131 122 L 245.871094 122 L 245.871094 238 L 131 238 Z M 131 122 " clip-rule="nonzero"></path>
    </clipPath>
    <clipPath id="4f5401ec1f">
      <path d="M 131 125 L 245.871094 125 L 245.871094 237 L 131 237 Z M 131 125 " clip-rule="nonzero"></path>
    </clipPath>
  </defs>
  <g clip-path="url(#7c1b3d1317)">
    <path fill="#20282d" d="M 325.839844 74.984375 L 187.527344 31.976562 L 49.214844 74.984375 C 49.214844 74.984375 15.5625 290.710938 187.527344 344.515625 C 359.429688 290.710938 325.839844 74.984375 325.839844 74.984375 Z M 325.839844 74.984375 " fill-opacity="1" fill-rule="nonzero"></path>
  </g>
  <g clip-path="url(#4bea55edcb)">
    <path fill="#20282d" d="M 187.527344 345.207031 L 187.339844 345.144531 C 147.972656 332.839844 116.203125 310.925781 92.847656 280.097656 C 74.203125 255.425781 60.890625 225.039062 53.230469 189.691406 C 46.449219 158.296875 45.570312 128.726562 45.949219 109.515625 C 46.386719 88.671875 48.523438 74.984375 48.523438 74.859375 L 48.585938 74.417969 L 187.527344 31.285156 L 326.40625 74.480469 L 326.46875 74.921875 C 326.46875 75.046875 328.605469 88.671875 329.042969 109.578125 C 329.484375 128.851562 328.539062 158.359375 321.761719 189.753906 C 314.164062 225.039062 300.789062 255.488281 282.144531 280.164062 C 258.789062 310.988281 227.019531 332.902344 187.652344 345.207031 Z M 49.839844 75.484375 C 49.464844 77.933594 47.769531 90.804688 47.328125 109.578125 C 46.890625 128.789062 47.832031 158.171875 54.550781 189.4375 C 62.148438 224.597656 75.394531 254.796875 93.914062 279.285156 C 117.019531 309.859375 148.539062 331.519531 187.527344 343.761719 C 226.515625 331.519531 257.972656 309.859375 281.136719 279.285156 C 299.660156 254.796875 312.90625 224.535156 320.503906 189.4375 C 327.222656 158.171875 328.164062 128.726562 327.726562 109.578125 C 327.285156 90.804688 325.589844 77.933594 325.214844 75.484375 L 187.527344 32.667969 Z M 49.839844 75.484375 " fill-opacity="1" fill-rule="nonzero"></path>
  </g>
  <path fill="#ededed" d="M 316.027344 83.023438 L 187.527344 43.066406 L 59.027344 83.023438 C 59.027344 83.023438 27.765625 283.441406 187.527344 333.429688 C 347.230469 283.441406 316.027344 83.023438 316.027344 83.023438 Z M 316.027344 83.023438 " fill-opacity="1" fill-rule="nonzero"></path>
  <g clip-path="url(#5da94efa8d)">
    <path fill="#ededed" d="M 187.527344 334.070312 L 187.351562 334.011719 C 150.78125 322.578125 121.265625 302.222656 99.566406 273.582031 C 82.242188 250.660156 69.878906 222.429688 62.761719 189.589844 C 56.460938 160.425781 55.644531 132.953125 55.996094 115.105469 C 56.402344 95.738281 58.386719 83.023438 58.386719 82.90625 L 58.445312 82.5 L 187.527344 42.425781 L 316.550781 82.558594 L 316.609375 82.964844 C 316.609375 83.082031 318.59375 95.738281 319 115.164062 C 319.410156 133.070312 318.535156 160.484375 312.234375 189.648438 C 305.175781 222.429688 292.753906 250.71875 275.429688 273.640625 C 253.730469 302.28125 224.214844 322.636719 187.644531 334.070312 Z M 59.613281 83.488281 C 59.261719 85.765625 57.6875 97.722656 57.277344 115.164062 C 56.871094 133.011719 57.746094 160.308594 63.988281 189.355469 C 71.042969 222.019531 83.351562 250.078125 100.558594 272.824219 C 122.023438 301.230469 151.304688 321.355469 187.527344 332.730469 C 223.75 321.355469 252.972656 301.230469 274.496094 272.824219 C 291.703125 250.078125 304.011719 221.960938 311.066406 189.355469 C 317.308594 160.308594 318.183594 132.953125 317.777344 115.164062 C 317.367188 97.722656 315.792969 85.765625 315.441406 83.488281 L 187.527344 43.710938 Z M 59.613281 83.488281 " fill-opacity="1" fill-rule="nonzero"></path>
  </g>
  <g clip-path="url(#b2d65fe4eb)">
    <path fill="#20282d" d="M 309.476562 87.632812 L 187.523438 49.714844 L 65.574219 87.632812 C 65.574219 87.632812 35.902344 277.839844 187.523438 325.28125 C 339.089844 277.839844 309.476562 87.632812 309.476562 87.632812 Z M 309.476562 87.632812 " fill-opacity="1" fill-rule="nonzero"></path>
  </g>
  <g clip-path="url(#6a8e220ad6)">
    <path fill="#20282d" d="M 187.523438 325.890625 L 187.359375 325.835938 C 152.648438 314.984375 124.636719 295.664062 104.046875 268.484375 C 87.605469 246.730469 75.867188 219.9375 69.117188 188.769531 C 63.136719 161.09375 62.363281 135.019531 62.695312 118.078125 C 63.082031 99.699219 64.964844 87.632812 64.964844 87.523438 L 65.019531 87.136719 L 187.523438 49.105469 L 309.972656 87.191406 L 310.027344 87.578125 C 310.027344 87.6875 311.910156 99.699219 312.300781 118.136719 C 312.6875 135.128906 311.855469 161.148438 305.878906 188.824219 C 299.179688 219.9375 287.386719 246.785156 270.945312 268.539062 C 250.355469 295.71875 222.34375 315.039062 187.636719 325.890625 Z M 66.125 88.074219 C 65.792969 90.234375 64.300781 101.582031 63.910156 118.136719 C 63.523438 135.074219 64.355469 160.980469 70.277344 188.550781 C 76.976562 219.550781 88.65625 246.175781 104.988281 267.765625 C 125.359375 294.722656 153.148438 313.820312 187.523438 324.617188 C 221.902344 313.820312 249.632812 294.722656 270.0625 267.765625 C 286.390625 246.175781 298.070312 219.492188 304.769531 188.550781 C 310.695312 160.980469 311.523438 135.019531 311.136719 118.136719 C 310.75 101.582031 309.253906 90.234375 308.921875 88.074219 L 187.523438 50.324219 Z M 66.125 88.074219 " fill-opacity="1" fill-rule="nonzero"></path>
  </g>
  <g clip-path="url(#1827f3c1d1)">
    <path fill="#ff3131" d="M 303.984375 91.289062 L 187.523438 55.078125 L 71.058594 91.289062 C 71.058594 91.289062 42.722656 272.933594 187.523438 318.242188 C 332.269531 272.933594 303.984375 91.289062 303.984375 91.289062 Z M 303.984375 91.289062 " fill-opacity="1" fill-rule="nonzero"></path>
  </g>
  <g clip-path="url(#4f52d4161a)">
    <path fill="#ff3131" d="M 187.523438 318.824219 L 187.363281 318.769531 C 154.214844 308.410156 127.464844 289.957031 107.800781 264 C 92.097656 243.226562 80.890625 217.636719 74.441406 187.875 C 68.734375 161.441406 67.992188 136.542969 68.308594 120.367188 C 68.679688 102.8125 70.476562 91.289062 70.476562 91.183594 L 70.53125 90.8125 L 187.523438 54.496094 L 304.460938 90.867188 L 304.511719 91.234375 C 304.511719 91.34375 306.3125 102.8125 306.679688 120.417969 C 307.050781 136.648438 306.257812 161.496094 300.546875 187.925781 C 294.152344 217.636719 282.890625 243.277344 267.191406 264.054688 C 247.523438 290.011719 220.773438 308.460938 187.628906 318.824219 Z M 71.585938 91.710938 C 71.269531 93.773438 69.84375 104.609375 69.472656 120.417969 C 69.101562 136.59375 69.894531 161.335938 75.550781 187.664062 C 81.949219 217.269531 93.105469 242.695312 108.699219 263.3125 C 128.152344 289.058594 154.691406 307.296875 187.523438 317.605469 C 220.351562 307.296875 246.835938 289.058594 266.34375 263.3125 C 281.941406 242.695312 293.09375 217.214844 299.492188 187.664062 C 305.148438 161.335938 305.941406 136.542969 305.570312 120.417969 C 305.199219 104.609375 303.773438 93.773438 303.457031 91.710938 L 187.523438 55.65625 Z M 71.585938 91.710938 " fill-opacity="1" fill-rule="nonzero"></path>
  </g>
  <g clip-path="url(#581f57d591)">
    <path fill="#20282d" d="M 309.476562 87.632812 L 187.523438 49.714844 L 65.574219 87.632812 C 65.574219 87.632812 35.902344 277.839844 187.523438 325.28125 C 339.089844 277.839844 309.476562 87.632812 309.476562 87.632812 Z M 309.476562 87.632812 " fill-opacity="1" fill-rule="nonzero"></path>
  </g>
  <g clip-path="url(#aac77dad14)">
    <path fill="#20282d" d="M 187.523438 325.890625 L 187.359375 325.835938 C 152.648438 314.984375 124.636719 295.664062 104.046875 268.484375 C 87.605469 246.730469 75.867188 219.9375 69.117188 188.769531 C 63.136719 161.09375 62.363281 135.019531 62.695312 118.078125 C 63.082031 99.699219 64.964844 87.632812 64.964844 87.523438 L 65.019531 87.136719 L 187.523438 49.105469 L 309.972656 87.191406 L 310.027344 87.578125 C 310.027344 87.6875 311.910156 99.699219 312.300781 118.136719 C 312.6875 135.128906 311.855469 161.148438 305.878906 188.824219 C 299.179688 219.9375 287.386719 246.785156 270.945312 268.539062 C 250.355469 295.71875 222.34375 315.039062 187.636719 325.890625 Z M 66.125 88.074219 C 65.792969 90.234375 64.300781 101.582031 63.910156 118.136719 C 63.523438 135.074219 64.355469 160.980469 70.277344 188.550781 C 76.976562 219.550781 88.65625 246.175781 104.988281 267.765625 C 125.359375 294.722656 153.148438 313.820312 187.523438 324.617188 C 221.902344 313.820312 249.632812 294.722656 270.0625 267.765625 C 286.390625 246.175781 298.070312 219.492188 304.769531 188.550781 C 310.695312 160.980469 311.523438 135.019531 311.136719 118.136719 C 310.75 101.582031 309.253906 90.234375 308.921875 88.074219 L 187.523438 50.324219 Z M 66.125 88.074219 " fill-opacity="1" fill-rule="nonzero"></path>
  </g>
  <path stroke-linecap="round" transform="matrix(0.75, 0, 0, 0.75, 152.925052, 299.195724)" fill="none" stroke-linejoin="miter" d="M 2.000972 1.999452 L 90.198895 1.999452 " stroke="#ededed" stroke-width="4" stroke-opacity="1" stroke-miterlimit="4"></path>
  <g fill="#20282d" fill-opacity="1">
    <g transform="translate(88.803188, 135.08017)">
      <g>
        <path d="M -5.265625 -21.71875 L -2.109375 -17.15625 L 5.671875 -22.53125 L 8.28125 -18.734375 L 0.5 -13.359375 L 6.59375 -4.546875 L 2.28125 -1.578125 L -12.296875 -22.6875 L 1.28125 -32.0625 L 4 -28.125 Z M -5.265625 -21.71875 "></path>
      </g>
    </g>
  </g>
  <g fill="#20282d" fill-opacity="1">
    <g transform="translate(105.339738, 123.450592)">
      <g>
        <path d="M 19.3125 -14.3125 C 19.050781 -12.34375 18.375 -10.660156 17.28125 -9.265625 C 16.195312 -7.867188 14.609375 -6.648438 12.515625 -5.609375 C 5.390625 -2.085938 -0.144531 -4.316406 -4.09375 -12.296875 C -6.125 -16.378906 -6.71875 -19.84375 -5.875 -22.6875 C -5.03125 -25.53125 -2.910156 -27.796875 0.484375 -29.484375 C 2.734375 -30.597656 4.753906 -31.125 6.546875 -31.0625 C 8.347656 -31.007812 9.921875 -30.546875 11.265625 -29.671875 L 9.015625 -25.046875 C 8.085938 -25.578125 7.3125 -25.910156 6.6875 -26.046875 C 6.070312 -26.191406 5.441406 -26.210938 4.796875 -26.109375 C 4.148438 -26.003906 3.429688 -25.757812 2.640625 -25.375 C 0.753906 -24.4375 -0.378906 -23.117188 -0.765625 -21.421875 C -1.160156 -19.734375 -0.660156 -17.488281 0.734375 -14.6875 C 2.023438 -12.0625 3.457031 -10.328125 5.03125 -9.484375 C 6.601562 -8.648438 8.398438 -8.734375 10.421875 -9.734375 C 11.785156 -10.410156 12.71875 -11.195312 13.21875 -12.09375 C 13.71875 -12.988281 14.0625 -14.019531 14.25 -15.1875 Z M 19.3125 -14.3125 "></path>
      </g>
    </g>
  </g>
  <g fill="#20282d" fill-opacity="1">
    <g transform="translate(127.847147, 112.799575)">
      <g></g>
    </g>
  </g>
  <g fill="#20282d" fill-opacity="1">
    <g transform="translate(136.525908, 109.223035)">
      <g>
        <path d="M 20.03125 -12.546875 C 20.644531 -10.046875 20.234375 -8.003906 18.796875 -6.421875 C 17.359375 -4.847656 15.113281 -3.691406 12.0625 -2.953125 L 2.703125 -0.65625 L -3.390625 -25.578125 L 5.40625 -27.734375 C 8.601562 -28.515625 11.003906 -28.609375 12.609375 -28.015625 C 14.222656 -27.421875 15.273438 -26.117188 15.765625 -24.109375 C 16.140625 -22.554688 16.066406 -21.207031 15.546875 -20.0625 C 15.035156 -18.925781 14.023438 -18 12.515625 -17.28125 C 14.671875 -17.5 16.351562 -17.207031 17.5625 -16.40625 C 18.769531 -15.601562 19.59375 -14.316406 20.03125 -12.546875 Z M 10.90625 -21.734375 C 10.675781 -22.679688 10.164062 -23.25 9.375 -23.4375 C 8.59375 -23.632812 7.46875 -23.550781 6 -23.1875 L 2.765625 -22.40625 L 4.078125 -17.0625 L 7.171875 -17.8125 C 8.671875 -18.175781 9.734375 -18.660156 10.359375 -19.265625 C 10.984375 -19.867188 11.164062 -20.691406 10.90625 -21.734375 Z M 14.734375 -11.734375 C 14.460938 -12.847656 13.890625 -13.539062 13.015625 -13.8125 C 12.140625 -14.09375 10.664062 -13.984375 8.59375 -13.484375 L 5.15625 -12.640625 L 6.671875 -6.40625 L 9.234375 -7.03125 C 11.222656 -7.519531 12.566406 -7.953125 13.265625 -8.328125 C 13.972656 -8.703125 14.441406 -9.160156 14.671875 -9.703125 C 14.910156 -10.242188 14.929688 -10.921875 14.734375 -11.734375 Z M 14.734375 -11.734375 "></path>
      </g>
    </g>
  </g>
  <g fill="#20282d" fill-opacity="1">
    <g transform="translate(159.886999, 103.76837)">
      <g>
        <path d="M 14.1875 -1.5625 L 1.875 -0.203125 L 1.4375 -4.1875 L 5 -4.578125 L 3.0625 -22.109375 L -0.5 -21.71875 L -0.9375 -25.703125 L 11.375 -27.0625 L 11.8125 -23.078125 L 8.28125 -22.6875 L 10.21875 -5.15625 L 13.75 -5.546875 Z M 14.1875 -1.5625 "></path>
      </g>
    </g>
  </g>
  <g fill="#20282d" fill-opacity="1">
    <g transform="translate(175.792054, 101.657254)">
      <g>
        <path d="M 20.234375 -17.9375 C 19.609375 -19.007812 18.828125 -19.8125 17.890625 -20.34375 C 16.960938 -20.875 15.789062 -21.160156 14.375 -21.203125 C 12.039062 -21.265625 10.332031 -20.554688 9.25 -19.078125 C 8.164062 -17.609375 7.582031 -15.390625 7.5 -12.421875 C 7.425781 -9.472656 7.882812 -7.300781 8.875 -5.90625 C 9.875 -4.519531 11.519531 -3.796875 13.8125 -3.734375 C 15.539062 -3.691406 17.144531 -4.007812 18.625 -4.6875 L 18.71875 -8.671875 L 13.71875 -8.796875 L 13.84375 -13.421875 L 24.078125 -13.15625 L 23.78125 -1.796875 C 22.582031 -0.941406 21.09375 -0.269531 19.3125 0.21875 C 17.539062 0.71875 15.722656 0.941406 13.859375 0.890625 C 9.847656 0.785156 6.859375 -0.332031 4.890625 -2.46875 C 2.921875 -4.613281 1.992188 -7.976562 2.109375 -12.5625 C 2.347656 -21.613281 6.453125 -26.035156 14.421875 -25.828125 C 16.742188 -25.765625 18.757812 -25.316406 20.46875 -24.484375 C 22.175781 -23.660156 23.457031 -22.488281 24.3125 -20.96875 Z M 20.234375 -17.9375 "></path>
      </g>
    </g>
  </g>
  <g fill="#20282d" fill-opacity="1">
    <g transform="translate(201.670219, 102.527592)">
      <g>
        <path d="M 11.53125 -19.171875 L 10.5625 -13.703125 L 19.875 -12.046875 L 19.078125 -7.5 L 9.765625 -9.15625 L 7.890625 1.390625 L 2.734375 0.484375 L 7.203125 -24.78125 L 23.453125 -21.90625 L 22.625 -17.203125 Z M 11.53125 -19.171875 "></path>
      </g>
    </g>
  </g>
  <g fill="#20282d" fill-opacity="1">
    <g transform="translate(221.588616, 105.856757)">
      <g>
        <path d="M 26.515625 -4.6875 C 25.109375 -0.457031 23.160156 2.410156 20.671875 3.921875 C 18.179688 5.441406 15.234375 5.632812 11.828125 4.5 C 8.222656 3.300781 5.941406 1.3125 4.984375 -1.46875 C 4.035156 -4.257812 4.226562 -7.660156 5.5625 -11.671875 C 6.90625 -15.703125 8.789062 -18.539062 11.21875 -20.1875 C 13.65625 -21.832031 16.675781 -22.054688 20.28125 -20.859375 C 23.90625 -19.648438 26.1875 -17.660156 27.125 -14.890625 C 28.0625 -12.117188 27.859375 -8.71875 26.515625 -4.6875 Z M 21.40625 -6.390625 C 22.375 -9.273438 22.664062 -11.507812 22.28125 -13.09375 C 21.90625 -14.6875 20.75 -15.804688 18.8125 -16.453125 C 16.863281 -17.109375 15.257812 -16.910156 14 -15.859375 C 12.75 -14.816406 11.640625 -12.851562 10.671875 -9.96875 C 9.710938 -7.082031 9.425781 -4.84375 9.8125 -3.25 C 10.207031 -1.65625 11.367188 -0.535156 13.296875 0.109375 C 15.234375 0.753906 16.828125 0.554688 18.078125 -0.484375 C 19.335938 -1.535156 20.445312 -3.503906 21.40625 -6.390625 Z M 21.40625 -6.390625 "></path>
      </g>
    </g>
  </g>
  <g fill="#20282d" fill-opacity="1">
    <g transform="translate(245.1352, 113.659716)">
      <g>
        <path d="M 26.9375 -0.375 C 24.863281 3.570312 22.472656 6.09375 19.765625 7.1875 C 17.066406 8.28125 14.128906 7.992188 10.953125 6.328125 C 7.585938 4.566406 5.65625 2.238281 5.15625 -0.65625 C 4.65625 -3.5625 5.390625 -6.882812 7.359375 -10.625 C 9.328125 -14.394531 11.640625 -16.898438 14.296875 -18.140625 C 16.960938 -19.378906 19.976562 -19.117188 23.34375 -17.359375 C 26.726562 -15.585938 28.664062 -13.253906 29.15625 -10.359375 C 29.644531 -7.472656 28.90625 -4.144531 26.9375 -0.375 Z M 22.171875 -2.875 C 23.578125 -5.570312 24.21875 -7.738281 24.09375 -9.375 C 23.976562 -11.007812 23.015625 -12.300781 21.203125 -13.25 C 19.378906 -14.195312 17.765625 -14.253906 16.359375 -13.421875 C 14.953125 -12.585938 13.546875 -10.820312 12.140625 -8.125 C 10.722656 -5.4375 10.078125 -3.269531 10.203125 -1.625 C 10.335938 0.0078125 11.300781 1.296875 13.09375 2.234375 C 14.90625 3.179688 16.515625 3.238281 17.921875 2.40625 C 19.335938 1.570312 20.753906 -0.1875 22.171875 -2.875 Z M 22.171875 -2.875 "></path>
      </g>
    </g>
  </g>
  <g fill="#20282d" fill-opacity="1">
    <g transform="translate(267.173784, 125.285794)">
      <g>
        <path d="M 23.46875 -8.671875 L 11.109375 8.15625 L 6.890625 5.0625 L 19.25 -11.765625 L 12.890625 -16.4375 L 15.71875 -20.28125 L 32.65625 -7.84375 L 29.828125 -4 Z M 23.46875 -8.671875 "></path>
      </g>
    </g>
  </g>
  <g clip-path="url(#5f1a8d7089)">
    <path fill="#20282d" d="M 105.824219 192.457031 L 105.722656 192.457031 L 105.722656 192.558594 C 105.964844 195.480469 107.292969 198.160156 109.46875 200.136719 C 111.648438 202.089844 114.46875 203.136719 117.390625 203.078125 L 117.410156 203.078125 C 118.097656 205.253906 118.882812 207.429688 119.789062 209.566406 C 119.003906 208.519531 118.054688 207.652344 116.949219 206.925781 C 114.488281 205.335938 111.546875 204.730469 108.664062 205.253906 L 108.5625 205.273438 L 108.582031 205.375 C 109.269531 208.21875 111.003906 210.675781 113.460938 212.269531 C 115.921875 213.859375 118.863281 214.464844 121.746094 213.941406 L 121.765625 213.941406 C 121.886719 214.203125 122.027344 214.445312 122.148438 214.707031 C 123.054688 216.480469 124.0625 218.253906 125.171875 220.027344 C 124.222656 219.101562 123.113281 218.355469 121.90625 217.832031 C 119.226562 216.640625 116.242188 216.519531 113.460938 217.488281 L 113.378906 217.527344 L 113.421875 217.609375 C 114.550781 220.308594 116.644531 222.464844 119.324219 223.65625 C 122.007812 224.84375 124.988281 224.964844 127.769531 223.996094 L 127.8125 223.976562 C 129.160156 225.871094 130.613281 227.726562 132.125 229.480469 C 131.035156 228.714844 129.828125 228.128906 128.535156 227.785156 C 125.714844 227.019531 122.730469 227.363281 120.152344 228.753906 L 120.070312 228.792969 L 120.113281 228.875 C 121.664062 231.375 124.0625 233.167969 126.882812 233.914062 C 129.707031 234.679688 132.6875 234.335938 135.269531 232.945312 L 135.308594 232.925781 C 137.988281 235.667969 140.871094 238.1875 143.875 240.445312 L 143.953125 240.503906 L 144.882812 239.273438 L 144.800781 239.214844 C 141.859375 236.996094 139.078125 234.558594 136.496094 231.917969 C 138.332031 229.660156 139.238281 226.820312 139.035156 223.917969 C 138.835938 220.996094 137.546875 218.292969 135.390625 216.300781 L 135.328125 216.238281 L 135.269531 216.320312 C 133.414062 218.597656 132.507812 221.4375 132.707031 224.359375 C 132.851562 226.335938 133.496094 228.210938 134.5625 229.84375 C 132.628906 227.707031 130.8125 225.46875 129.160156 223.132812 C 131.316406 221.175781 132.667969 218.515625 132.910156 215.632812 C 133.171875 212.710938 132.304688 209.847656 130.492188 207.53125 L 130.429688 207.453125 L 130.371094 207.511719 C 128.175781 209.464844 126.824219 212.148438 126.582031 215.050781 C 126.398438 217.066406 126.761719 219.039062 127.589844 220.832031 C 126.117188 218.617188 124.789062 216.320312 123.578125 213.960938 C 123.476562 213.738281 123.378906 213.539062 123.257812 213.316406 C 125.695312 211.742188 127.449219 209.304688 128.152344 206.484375 C 128.859375 203.640625 128.476562 200.660156 127.046875 198.121094 L 127.003906 198.039062 L 126.925781 198.097656 C 124.464844 199.691406 122.710938 202.109375 121.988281 204.953125 C 121.503906 206.925781 121.542969 208.960938 122.105469 210.878906 C 120.898438 208.195312 119.851562 205.476562 118.984375 202.714844 C 121.644531 201.527344 123.761719 199.410156 124.890625 196.730469 C 126.039062 194.027344 126.097656 191.027344 125.089844 188.285156 L 125.050781 188.203125 L 124.96875 188.242188 C 122.289062 189.414062 120.171875 191.550781 119.023438 194.25 C 118.21875 196.144531 117.957031 198.179688 118.21875 200.195312 C 117.429688 197.375 116.828125 194.492188 116.402344 191.570312 C 119.226562 190.824219 121.625 189.050781 123.175781 186.589844 C 124.726562 184.113281 125.273438 181.148438 124.707031 178.289062 L 124.6875 178.1875 L 124.585938 178.207031 C 121.746094 178.953125 119.324219 180.726562 117.773438 183.207031 C 116.726562 184.878906 116.140625 186.792969 116.0625 188.726562 C 115.777344 186.128906 115.636719 183.488281 115.636719 180.847656 C 115.636719 180.6875 115.636719 180.523438 115.636719 180.363281 L 115.636719 180.140625 C 118.519531 179.839844 121.160156 178.46875 123.054688 176.273438 C 124.988281 174.054688 125.976562 171.234375 125.855469 168.3125 L 125.855469 168.210938 L 125.753906 168.210938 C 122.832031 168.492188 120.171875 169.882812 118.257812 172.082031 C 116.988281 173.550781 116.121094 175.265625 115.71875 177.140625 C 115.859375 174.296875 116.160156 171.496094 116.625 168.714844 C 116.828125 168.734375 117.046875 168.734375 117.25 168.734375 C 119.929688 168.734375 122.511719 167.808594 124.585938 166.074219 C 126.824219 164.199219 128.253906 161.558594 128.597656 158.636719 L 128.617188 158.535156 L 128.515625 158.535156 C 125.59375 158.375 122.730469 159.300781 120.496094 161.195312 C 118.964844 162.488281 117.816406 164.140625 117.128906 165.972656 C 117.714844 163.132812 118.460938 160.351562 119.386719 157.609375 C 120.191406 157.789062 121 157.871094 121.804688 157.871094 C 123.859375 157.871094 125.875 157.328125 127.691406 156.238281 C 130.210938 154.726562 132.023438 152.347656 132.808594 149.527344 L 132.828125 149.445312 L 132.730469 149.425781 C 129.867188 148.800781 126.902344 149.285156 124.386719 150.796875 C 122.671875 151.824219 121.28125 153.277344 120.3125 154.988281 C 121.339844 152.308594 122.511719 149.667969 123.859375 147.089844 C 126.582031 148.136719 129.542969 148.117188 132.246094 147.027344 C 134.964844 145.941406 137.140625 143.863281 138.351562 141.203125 L 138.390625 141.125 L 138.3125 141.082031 C 135.589844 140.015625 132.585938 140.035156 129.867188 141.125 C 128.074219 141.847656 126.542969 142.976562 125.332031 144.449219 C 126.761719 141.988281 128.316406 139.632812 129.96875 137.394531 C 132.488281 138.84375 135.410156 139.269531 138.230469 138.625 C 141.09375 137.957031 143.550781 136.265625 145.183594 133.828125 L 145.246094 133.746094 L 145.164062 133.707031 C 142.625 132.234375 139.660156 131.773438 136.820312 132.4375 C 135.007812 132.859375 133.332031 133.707031 131.921875 134.914062 C 132.992188 133.605469 134.121094 132.316406 135.246094 131.105469 C 138.269531 130.863281 141.011719 129.636719 143.1875 127.558594 C 145.585938 125.261719 146.996094 122.179688 147.160156 118.851562 L 147.160156 118.75 L 147.058594 118.75 C 143.734375 118.773438 140.589844 120.0625 138.191406 122.359375 C 136.09375 124.375 134.765625 126.933594 134.339844 129.796875 C 133.414062 130.785156 132.488281 131.8125 131.578125 132.878906 C 132.226562 131.628906 132.628906 130.28125 132.789062 128.871094 C 133.089844 125.96875 132.285156 123.066406 130.511719 120.726562 L 130.453125 120.644531 L 130.371094 120.707031 C 128.132812 122.621094 126.742188 125.28125 126.441406 128.183594 C 126.136719 131.085938 126.945312 133.988281 128.71875 136.328125 L 128.757812 136.386719 C 127.367188 138.261719 126.039062 140.214844 124.808594 142.210938 C 125.210938 140.921875 125.390625 139.570312 125.3125 138.222656 C 125.171875 135.296875 123.921875 132.558594 121.785156 130.542969 L 121.722656 130.480469 L 121.664062 130.5625 C 119.769531 132.800781 118.800781 135.640625 118.964844 138.5625 C 119.105469 141.484375 120.355469 144.207031 122.46875 146.242188 L 122.511719 146.28125 C 121.421875 148.339844 120.433594 150.453125 119.566406 152.570312 C 119.75 151.261719 119.710938 149.949219 119.425781 148.660156 C 118.820312 145.800781 117.167969 143.300781 114.75 141.628906 L 114.671875 141.566406 L 114.628906 141.648438 C 113.097656 144.144531 112.59375 147.109375 113.199219 149.972656 C 113.804688 152.832031 115.457031 155.332031 117.875 157.003906 L 117.894531 157.023438 C 117.148438 159.222656 116.523438 161.480469 115.980469 163.757812 C 115.960938 162.425781 115.71875 161.117188 115.234375 159.867188 C 114.1875 157.125 112.152344 154.929688 109.511719 153.660156 L 109.429688 153.617188 L 109.390625 153.699219 C 108.28125 156.421875 108.242188 159.402344 109.289062 162.144531 C 110.335938 164.886719 112.371094 167.082031 115.011719 168.351562 L 115.054688 168.371094 C 114.671875 170.667969 114.386719 173.027344 114.226562 175.386719 C 114.003906 174.035156 113.542969 172.765625 112.875 171.578125 C 111.425781 169.035156 109.066406 167.183594 106.265625 166.335938 L 106.183594 166.316406 L 106.164062 166.417969 C 105.480469 169.277344 105.921875 172.242188 107.375 174.78125 C 108.824219 177.320312 111.183594 179.175781 113.984375 180.019531 L 114.046875 180.042969 C 114.046875 180.34375 114.046875 180.605469 114.046875 180.867188 C 114.046875 182.902344 114.125 184.980469 114.308594 187.054688 C 113.882812 185.785156 113.238281 184.597656 112.394531 183.546875 C 110.558594 181.269531 107.9375 179.800781 105.035156 179.394531 L 104.9375 179.375 L 104.9375 179.476562 C 104.714844 182.398438 105.601562 185.261719 107.457031 187.539062 C 109.289062 189.816406 111.910156 191.289062 114.8125 191.691406 L 114.851562 191.691406 C 115.175781 193.96875 115.617188 196.246094 116.160156 198.484375 C 115.535156 197.332031 114.730469 196.304688 113.761719 195.417969 C 111.648438 193.523438 108.945312 192.476562 106.105469 192.476562 C 106.003906 192.457031 105.902344 192.457031 105.824219 192.457031 Z M 238.480469 122.320312 C 240.574219 124.335938 241.90625 126.894531 242.328125 129.757812 C 243.253906 130.742188 244.183594 131.773438 245.089844 132.839844 C 244.445312 131.589844 244.042969 130.238281 243.878906 128.828125 C 243.578125 125.925781 244.382812 123.023438 246.15625 120.6875 L 246.21875 120.605469 L 246.296875 120.667969 C 248.515625 122.582031 249.925781 125.242188 250.230469 128.144531 C 250.53125 131.046875 249.726562 133.949219 247.953125 136.285156 L 247.910156 136.347656 C 249.300781 138.222656 250.632812 140.175781 251.863281 142.171875 C 251.457031 140.882812 251.277344 139.53125 251.359375 138.179688 C 251.5 135.257812 252.75 132.539062 254.863281 130.5 L 254.925781 130.441406 L 254.984375 130.523438 C 256.878906 132.757812 257.847656 135.601562 257.6875 138.523438 C 257.542969 141.445312 256.296875 144.167969 254.179688 146.203125 L 254.140625 146.242188 C 255.226562 148.296875 256.214844 150.414062 257.082031 152.53125 C 256.898438 151.21875 256.941406 149.910156 257.222656 148.621094 C 257.828125 145.757812 259.480469 143.257812 261.898438 141.585938 L 261.980469 141.527344 L 262.019531 141.605469 C 263.550781 144.105469 264.054688 147.070312 263.449219 149.929688 C 262.84375 152.792969 261.191406 155.292969 258.773438 156.964844 L 258.753906 156.984375 C 259.5 159.179688 260.125 161.4375 260.667969 163.714844 C 260.6875 162.386719 260.929688 161.074219 261.414062 159.828125 C 262.460938 157.085938 264.5 154.886719 267.136719 153.617188 L 267.21875 153.578125 L 267.257812 153.660156 C 268.367188 156.359375 268.40625 159.363281 267.359375 162.105469 C 266.3125 164.84375 264.277344 167.042969 261.636719 168.3125 L 261.597656 168.332031 C 261.980469 170.628906 262.261719 172.988281 262.421875 175.34375 C 262.644531 173.996094 263.109375 172.726562 263.773438 171.535156 C 265.222656 168.996094 267.582031 167.140625 270.382812 166.296875 L 270.464844 166.277344 L 270.484375 166.375 C 271.167969 169.238281 270.726562 172.203125 269.273438 174.742188 C 267.824219 177.28125 265.464844 179.132812 262.664062 179.980469 L 262.605469 180 C 262.605469 180.304688 262.605469 180.566406 262.605469 180.828125 C 262.605469 182.863281 262.523438 184.9375 262.339844 187.015625 C 262.765625 185.726562 263.410156 184.554688 264.257812 183.507812 C 266.109375 181.230469 268.710938 179.757812 271.613281 179.375 L 271.714844 179.355469 L 271.714844 179.457031 C 271.933594 182.378906 271.046875 185.242188 269.195312 187.519531 C 267.359375 189.796875 264.738281 191.265625 261.835938 191.671875 L 261.796875 191.671875 C 261.476562 193.949219 261.03125 196.226562 260.488281 198.460938 C 261.113281 197.3125 261.917969 196.285156 262.886719 195.398438 C 265.0625 193.445312 267.863281 192.375 270.804688 192.457031 L 270.90625 192.457031 L 270.90625 192.558594 C 270.664062 195.480469 269.335938 198.160156 267.160156 200.136719 C 264.980469 202.089844 262.179688 203.136719 259.238281 203.078125 L 259.21875 203.078125 C 258.53125 205.253906 257.746094 207.429688 256.839844 209.566406 C 257.625 208.519531 258.59375 207.652344 259.679688 206.925781 C 262.140625 205.335938 265.082031 204.730469 267.964844 205.253906 L 268.066406 205.273438 L 268.046875 205.375 C 267.359375 208.21875 265.625 210.675781 263.167969 212.269531 C 260.710938 213.859375 257.765625 214.464844 254.882812 213.941406 L 254.863281 213.941406 C 254.742188 214.203125 254.621094 214.445312 254.480469 214.707031 C 253.574219 216.480469 252.566406 218.273438 251.457031 220.027344 C 252.40625 219.101562 253.515625 218.355469 254.722656 217.832031 C 257.402344 216.640625 260.386719 216.519531 263.167969 217.488281 L 263.25 217.527344 L 263.207031 217.609375 C 262.078125 220.308594 259.984375 222.464844 257.304688 223.65625 C 254.621094 224.84375 251.640625 224.964844 248.859375 223.996094 L 248.816406 223.976562 C 247.46875 225.871094 246.015625 227.726562 244.503906 229.480469 C 245.59375 228.714844 246.800781 228.128906 248.09375 227.785156 C 250.914062 227.019531 253.898438 227.363281 256.476562 228.753906 L 256.558594 228.792969 L 256.515625 228.875 C 254.964844 231.375 252.566406 233.167969 249.746094 233.914062 C 246.921875 234.679688 243.941406 234.335938 241.359375 232.945312 L 241.320312 232.925781 C 238.640625 235.667969 235.757812 238.207031 232.753906 240.445312 L 232.675781 240.503906 L 231.746094 239.273438 L 231.828125 239.214844 C 234.769531 236.996094 237.550781 234.558594 240.132812 231.917969 C 238.296875 229.660156 237.390625 226.820312 237.59375 223.917969 C 237.792969 220.996094 239.082031 218.292969 241.238281 216.300781 L 241.300781 216.238281 L 241.359375 216.320312 C 243.214844 218.597656 244.140625 221.4375 243.921875 224.359375 C 243.78125 226.335938 243.132812 228.210938 242.066406 229.84375 C 244 227.707031 245.816406 225.46875 247.488281 223.132812 C 245.332031 221.175781 243.980469 218.515625 243.738281 215.632812 C 243.476562 212.710938 244.34375 209.847656 246.15625 207.53125 L 246.21875 207.453125 L 246.277344 207.511719 C 248.476562 209.464844 249.824219 212.148438 250.066406 215.050781 C 250.25 217.066406 249.886719 219.039062 249.058594 220.832031 C 250.53125 218.617188 251.863281 216.320312 253.070312 213.960938 C 253.171875 213.738281 253.273438 213.539062 253.394531 213.316406 C 250.953125 211.742188 249.199219 209.304688 248.496094 206.484375 C 247.789062 203.640625 248.171875 200.679688 249.625 198.121094 L 249.664062 198.039062 L 249.746094 198.097656 C 252.203125 199.691406 253.957031 202.109375 254.683594 204.953125 C 255.167969 206.925781 255.125 208.960938 254.582031 210.878906 C 255.792969 208.195312 256.839844 205.476562 257.707031 202.714844 C 255.046875 201.527344 252.929688 199.410156 251.800781 196.730469 C 250.652344 194.027344 250.589844 191.027344 251.597656 188.285156 L 251.640625 188.203125 L 251.71875 188.242188 C 254.402344 189.414062 256.515625 191.550781 257.664062 194.25 C 258.472656 196.144531 258.734375 198.179688 258.472656 200.175781 C 259.257812 197.355469 259.863281 194.472656 260.285156 191.550781 C 257.464844 190.804688 255.066406 189.03125 253.515625 186.570312 C 251.960938 184.09375 251.417969 181.128906 252.003906 178.269531 L 252.003906 178.167969 L 252.101562 178.1875 C 254.945312 178.933594 257.363281 180.707031 258.914062 183.183594 C 259.964844 184.859375 260.546875 186.773438 260.628906 188.707031 C 260.910156 186.109375 261.050781 183.488281 261.050781 180.828125 C 261.050781 180.667969 261.050781 180.503906 261.050781 180.34375 L 261.050781 180.121094 C 258.167969 179.820312 255.53125 178.449219 253.613281 176.253906 C 251.699219 174.035156 250.691406 171.214844 250.8125 168.292969 L 250.8125 168.191406 L 250.914062 168.191406 C 253.835938 168.472656 256.496094 169.863281 258.410156 172.058594 C 259.679688 173.53125 260.546875 175.246094 260.949219 177.117188 C 260.808594 174.277344 260.507812 171.476562 260.042969 168.695312 C 259.84375 168.714844 259.640625 168.714844 259.417969 168.714844 C 256.738281 168.714844 254.160156 167.789062 252.082031 166.054688 C 249.847656 164.179688 248.414062 161.539062 248.074219 158.617188 L 248.050781 158.515625 L 248.152344 158.515625 C 251.074219 158.355469 253.9375 159.28125 256.175781 161.175781 C 257.707031 162.464844 258.855469 164.121094 259.539062 165.953125 C 258.957031 163.113281 258.210938 160.332031 257.28125 157.589844 C 256.476562 157.769531 255.671875 157.851562 254.863281 157.851562 C 252.808594 157.851562 250.792969 157.308594 248.980469 156.21875 C 246.460938 154.707031 244.644531 152.328125 243.859375 149.507812 L 243.839844 149.425781 L 243.941406 149.40625 C 246.800781 148.78125 249.765625 149.265625 252.285156 150.777344 C 253.996094 151.804688 255.386719 153.257812 256.355469 154.988281 C 255.328125 152.289062 254.160156 149.667969 252.808594 147.089844 C 250.085938 148.136719 247.125 148.117188 244.425781 147.027344 C 241.703125 145.941406 239.527344 143.863281 238.316406 141.203125 L 238.277344 141.125 L 238.359375 141.082031 C 241.078125 140.015625 244.082031 140.035156 246.800781 141.125 C 248.597656 141.847656 250.128906 142.976562 251.335938 144.449219 C 249.925781 141.988281 248.355469 139.632812 246.703125 137.394531 C 244.183594 138.84375 241.261719 139.269531 238.4375 138.625 C 235.578125 137.957031 233.117188 136.265625 231.484375 133.828125 L 231.425781 133.746094 L 231.503906 133.707031 C 234.042969 132.234375 237.007812 131.769531 239.847656 132.4375 C 241.664062 132.859375 243.335938 133.707031 244.746094 134.9375 C 243.679688 133.625 242.550781 132.335938 241.421875 131.125 C 238.398438 130.882812 235.65625 129.65625 233.480469 127.578125 C 231.082031 125.28125 229.671875 122.199219 229.511719 118.871094 L 229.511719 118.773438 L 229.632812 118.710938 C 232.9375 118.730469 236.101562 120.019531 238.480469 122.320312 Z M 238.480469 122.320312 " fill-opacity="1" fill-rule="nonzero"></path>
  </g>
  <g clip-path="url(#95f5a1d168)">
    <path fill="#20282d" d="M 269.167969 192.457031 L 269.269531 192.457031 L 269.269531 192.558594 C 269.027344 195.480469 267.699219 198.160156 265.519531 200.136719 C 263.34375 202.089844 260.523438 203.136719 257.601562 203.078125 L 257.578125 203.078125 C 256.894531 205.253906 256.109375 207.429688 255.203125 209.566406 C 255.988281 208.519531 256.933594 207.652344 258.042969 206.925781 C 260.503906 205.335938 263.445312 204.730469 266.328125 205.253906 L 266.429688 205.273438 L 266.40625 205.375 C 265.722656 208.21875 263.988281 210.675781 261.53125 212.269531 C 259.070312 213.859375 256.128906 214.464844 253.246094 213.941406 L 253.226562 213.941406 C 253.105469 214.203125 252.964844 214.445312 252.84375 214.707031 C 251.9375 216.480469 250.929688 218.253906 249.820312 220.027344 C 250.769531 219.101562 251.875 218.355469 253.085938 217.832031 C 255.765625 216.640625 258.75 216.519531 261.53125 217.488281 L 261.609375 217.527344 L 261.570312 217.609375 C 260.441406 220.308594 258.347656 222.464844 255.664062 223.65625 C 252.984375 224.84375 250.003906 224.964844 247.21875 223.996094 L 247.179688 223.976562 C 245.828125 225.871094 244.378906 227.726562 242.867188 229.480469 C 243.957031 228.714844 245.164062 228.128906 246.453125 227.785156 C 249.277344 227.019531 252.257812 227.363281 254.839844 228.753906 L 254.917969 228.792969 L 254.878906 228.875 C 253.328125 231.375 250.929688 233.167969 248.109375 233.914062 C 245.285156 234.679688 242.304688 234.335938 239.722656 232.945312 L 239.683594 232.925781 C 237.003906 235.667969 234.121094 238.1875 231.117188 240.445312 L 231.035156 240.503906 L 230.109375 239.273438 L 230.191406 239.214844 C 233.132812 236.996094 235.914062 234.558594 238.492188 231.917969 C 236.660156 229.660156 235.753906 226.820312 235.953125 223.917969 C 236.15625 220.996094 237.445312 218.292969 239.601562 216.300781 L 239.664062 216.238281 L 239.722656 216.320312 C 241.578125 218.597656 242.484375 221.4375 242.28125 224.359375 C 242.140625 226.335938 241.496094 228.210938 240.429688 229.84375 C 242.363281 227.707031 244.175781 225.46875 245.828125 223.132812 C 243.671875 221.175781 242.324219 218.515625 242.082031 215.632812 C 241.820312 212.710938 242.6875 209.847656 244.5 207.53125 L 244.558594 207.453125 L 244.621094 207.511719 C 246.816406 209.464844 248.167969 212.148438 248.410156 215.050781 C 248.589844 217.066406 248.226562 219.039062 247.402344 220.832031 C 248.875 218.617188 250.203125 216.320312 251.414062 213.960938 C 251.511719 213.738281 251.613281 213.539062 251.734375 213.316406 C 249.296875 211.742188 247.542969 209.304688 246.835938 206.484375 C 246.132812 203.640625 246.515625 200.660156 247.945312 198.121094 L 247.988281 198.039062 L 248.066406 198.097656 C 250.527344 199.691406 252.28125 202.109375 253.003906 204.953125 C 253.488281 206.925781 253.449219 208.960938 252.882812 210.878906 C 254.09375 208.195312 255.140625 205.476562 256.007812 202.714844 C 253.347656 201.527344 251.230469 199.410156 250.101562 196.730469 C 248.953125 194.027344 248.894531 191.027344 249.902344 188.285156 L 249.941406 188.203125 L 250.023438 188.242188 C 252.703125 189.414062 254.820312 191.550781 255.96875 194.25 C 256.773438 196.144531 257.035156 198.179688 256.773438 200.195312 C 257.558594 197.375 258.164062 194.492188 258.585938 191.570312 C 255.765625 190.824219 253.367188 189.050781 251.816406 186.589844 C 250.265625 184.113281 249.71875 181.148438 250.285156 178.289062 L 250.304688 178.1875 L 250.40625 178.207031 C 253.246094 178.953125 255.664062 180.726562 257.21875 183.207031 C 258.265625 184.878906 258.851562 186.792969 258.929688 188.726562 C 259.210938 186.128906 259.355469 183.488281 259.355469 180.847656 C 259.355469 180.6875 259.355469 180.523438 259.355469 180.363281 L 259.355469 180.140625 C 256.472656 179.839844 253.832031 178.46875 251.9375 176.273438 C 250.003906 174.054688 249.015625 171.234375 249.136719 168.3125 L 249.136719 168.210938 L 249.234375 168.210938 C 252.160156 168.492188 254.820312 169.882812 256.734375 172.082031 C 258.003906 173.550781 258.871094 175.265625 259.273438 177.140625 C 259.132812 174.296875 258.828125 171.496094 258.367188 168.714844 C 258.164062 168.734375 257.941406 168.734375 257.742188 168.734375 C 255.0625 168.734375 252.480469 167.808594 250.40625 166.074219 C 248.167969 164.199219 246.738281 161.558594 246.394531 158.636719 L 246.375 158.535156 L 246.476562 158.535156 C 249.398438 158.375 252.257812 159.300781 254.496094 161.195312 C 256.027344 162.488281 257.175781 164.140625 257.863281 165.972656 C 257.277344 163.132812 256.53125 160.351562 255.605469 157.609375 C 254.796875 157.789062 253.992188 157.871094 253.1875 157.871094 C 251.128906 157.871094 249.113281 157.328125 247.300781 156.238281 C 244.78125 154.726562 242.96875 152.347656 242.183594 149.527344 L 242.160156 149.445312 L 242.261719 149.425781 C 245.125 148.800781 248.085938 149.285156 250.605469 150.796875 C 252.320312 151.824219 253.710938 153.277344 254.679688 154.988281 C 253.648438 152.308594 252.480469 149.667969 251.128906 147.089844 C 248.410156 148.136719 245.445312 148.117188 242.746094 147.027344 C 240.027344 145.941406 237.847656 143.863281 236.640625 141.203125 L 236.597656 141.125 L 236.679688 141.082031 C 239.402344 140.015625 242.402344 140.035156 245.125 141.125 C 246.917969 141.847656 248.449219 142.976562 249.660156 144.449219 C 248.226562 141.988281 246.675781 139.632812 245.023438 137.394531 C 242.503906 138.84375 239.582031 139.269531 236.761719 138.625 C 233.898438 137.957031 231.441406 136.265625 229.808594 133.828125 L 229.746094 133.746094 L 229.828125 133.707031 C 232.367188 132.234375 235.328125 131.773438 238.171875 132.4375 C 239.984375 132.859375 241.65625 133.707031 243.070312 134.914062 C 242 133.605469 240.871094 132.316406 239.742188 131.105469 C 236.71875 130.863281 233.980469 129.636719 231.800781 127.558594 C 229.402344 125.261719 227.992188 122.179688 227.832031 118.851562 L 227.832031 118.75 L 227.933594 118.75 C 231.257812 118.773438 234.402344 120.0625 236.800781 122.359375 C 238.898438 124.375 240.226562 126.933594 240.648438 129.796875 C 241.578125 130.785156 242.503906 131.8125 243.410156 132.878906 C 242.765625 131.628906 242.363281 130.28125 242.203125 128.871094 C 241.898438 125.96875 242.707031 123.066406 244.480469 120.726562 L 244.539062 120.644531 L 244.621094 120.707031 C 246.859375 122.621094 248.25 125.28125 248.550781 128.183594 C 248.851562 131.085938 248.046875 133.988281 246.273438 136.328125 L 246.234375 136.386719 C 247.625 138.261719 248.953125 140.214844 250.183594 142.210938 C 249.78125 140.921875 249.597656 139.570312 249.679688 138.222656 C 249.820312 135.296875 251.070312 132.558594 253.207031 130.542969 L 253.265625 130.480469 L 253.328125 130.5625 C 255.222656 132.800781 256.1875 135.640625 256.027344 138.5625 C 255.886719 141.484375 254.636719 144.207031 252.519531 146.242188 L 252.480469 146.28125 C 253.570312 148.339844 254.558594 150.453125 255.421875 152.570312 C 255.242188 151.261719 255.28125 149.949219 255.566406 148.660156 C 256.167969 145.800781 257.820312 143.300781 260.242188 141.628906 L 260.320312 141.566406 L 260.363281 141.648438 C 261.894531 144.144531 262.398438 147.109375 261.792969 149.972656 C 261.1875 152.832031 259.535156 155.332031 257.117188 157.003906 L 257.097656 157.023438 C 257.84375 159.222656 258.46875 161.480469 259.011719 163.757812 C 259.03125 162.425781 259.273438 161.117188 259.757812 159.867188 C 260.804688 157.125 262.839844 154.929688 265.480469 153.660156 L 265.5625 153.617188 L 265.601562 153.699219 C 266.710938 156.421875 266.75 159.402344 265.703125 162.144531 C 264.652344 164.886719 262.617188 167.082031 259.976562 168.351562 L 259.9375 168.371094 C 260.320312 170.667969 260.601562 173.027344 260.765625 175.386719 C 260.984375 174.035156 261.449219 172.765625 262.113281 171.578125 C 263.566406 169.035156 265.925781 167.183594 268.726562 166.335938 L 268.804688 166.316406 L 268.828125 166.417969 C 269.511719 169.277344 269.066406 172.242188 267.617188 174.78125 C 266.164062 177.320312 263.808594 179.175781 261.007812 180.019531 L 260.945312 180.042969 C 260.945312 180.34375 260.945312 180.605469 260.945312 180.867188 C 260.945312 182.902344 260.863281 184.980469 260.683594 187.054688 C 261.105469 185.785156 261.753906 184.597656 262.597656 183.546875 C 264.433594 181.269531 267.050781 179.800781 269.953125 179.394531 L 270.054688 179.375 L 270.054688 179.476562 C 270.277344 182.398438 269.390625 185.261719 267.535156 187.539062 C 265.703125 189.816406 263.082031 191.289062 260.179688 191.691406 L 260.140625 191.691406 C 259.816406 193.96875 259.375 196.246094 258.828125 198.484375 C 259.453125 197.332031 260.261719 196.304688 261.226562 195.417969 C 263.34375 193.523438 266.042969 192.476562 268.886719 192.476562 C 268.988281 192.457031 269.089844 192.457031 269.167969 192.457031 Z M 136.511719 122.320312 C 134.417969 124.335938 133.085938 126.894531 132.664062 129.757812 C 131.734375 130.742188 130.808594 131.773438 129.902344 132.839844 C 130.546875 131.589844 130.949219 130.238281 131.109375 128.828125 C 131.414062 125.925781 130.605469 123.023438 128.832031 120.6875 L 128.773438 120.605469 L 128.691406 120.667969 C 126.476562 122.582031 125.066406 125.242188 124.761719 128.144531 C 124.460938 131.046875 125.265625 133.949219 127.039062 136.285156 L 127.082031 136.347656 C 125.691406 138.222656 124.359375 140.175781 123.128906 142.171875 C 123.53125 140.882812 123.714844 139.53125 123.632812 138.179688 C 123.492188 135.257812 122.242188 132.539062 120.128906 130.5 L 120.066406 130.441406 L 120.007812 130.523438 C 118.113281 132.757812 117.144531 135.601562 117.304688 138.523438 C 117.445312 141.445312 118.695312 144.167969 120.8125 146.203125 L 120.851562 146.242188 C 119.765625 148.296875 118.777344 150.414062 117.910156 152.53125 C 118.089844 151.21875 118.050781 149.910156 117.769531 148.621094 C 117.164062 145.757812 115.511719 143.257812 113.09375 141.585938 L 113.011719 141.527344 L 112.972656 141.605469 C 111.441406 144.105469 110.9375 147.070312 111.542969 149.929688 C 112.144531 152.792969 113.796875 155.292969 116.21875 156.964844 L 116.238281 156.984375 C 115.492188 159.179688 114.867188 161.4375 114.324219 163.714844 C 114.300781 162.386719 114.0625 161.074219 113.578125 159.828125 C 112.527344 157.085938 110.492188 154.886719 107.851562 153.617188 L 107.773438 153.578125 L 107.730469 153.660156 C 106.625 156.359375 106.582031 159.363281 107.632812 162.105469 C 108.679688 164.84375 110.714844 167.042969 113.355469 168.3125 L 113.394531 168.332031 C 113.011719 170.628906 112.730469 172.988281 112.570312 175.34375 C 112.347656 173.996094 111.882812 172.726562 111.21875 171.535156 C 109.769531 168.996094 107.410156 167.140625 104.609375 166.296875 L 104.527344 166.277344 L 104.507812 166.375 C 103.820312 169.238281 104.265625 172.203125 105.714844 174.742188 C 107.167969 177.28125 109.527344 179.132812 112.328125 179.980469 L 112.386719 180 C 112.386719 180.304688 112.386719 180.566406 112.386719 180.828125 C 112.386719 182.863281 112.46875 184.9375 112.648438 187.015625 C 112.226562 185.726562 111.582031 184.554688 110.734375 183.507812 C 108.882812 181.230469 106.28125 179.757812 103.378906 179.375 L 103.277344 179.355469 L 103.277344 179.457031 C 103.054688 182.378906 103.941406 185.242188 105.796875 187.519531 C 107.632812 189.796875 110.25 191.265625 113.152344 191.671875 L 113.195312 191.671875 C 113.515625 193.949219 113.960938 196.226562 114.503906 198.460938 C 113.878906 197.3125 113.074219 196.285156 112.105469 195.398438 C 109.929688 193.445312 107.128906 192.375 104.183594 192.457031 L 104.085938 192.457031 L 104.085938 192.558594 C 104.324219 195.480469 105.65625 198.160156 107.832031 200.136719 C 110.007812 202.089844 112.8125 203.136719 115.753906 203.078125 L 115.773438 203.078125 C 116.457031 205.253906 117.246094 207.429688 118.152344 209.566406 C 117.367188 208.519531 116.398438 207.652344 115.308594 206.925781 C 112.851562 205.335938 109.910156 204.730469 107.027344 205.253906 L 106.925781 205.273438 L 106.945312 205.375 C 107.632812 208.21875 109.363281 210.675781 111.824219 212.269531 C 114.28125 213.859375 117.226562 214.464844 120.105469 213.941406 L 120.128906 213.941406 C 120.246094 214.203125 120.367188 214.445312 120.511719 214.707031 C 121.417969 216.480469 122.425781 218.273438 123.53125 220.027344 C 122.585938 219.101562 121.476562 218.355469 120.269531 217.832031 C 117.585938 216.640625 114.605469 216.519531 111.824219 217.488281 L 111.742188 217.527344 L 111.78125 217.609375 C 112.910156 220.308594 115.007812 222.464844 117.6875 223.65625 C 120.367188 224.84375 123.351562 224.964844 126.132812 223.996094 L 126.171875 223.976562 C 127.523438 225.871094 128.976562 227.726562 130.488281 229.480469 C 129.398438 228.714844 128.1875 228.128906 126.898438 227.785156 C 124.078125 227.019531 121.09375 227.363281 118.515625 228.753906 L 118.433594 228.792969 L 118.472656 228.875 C 120.027344 231.375 122.425781 233.167969 125.246094 233.914062 C 128.066406 234.679688 131.050781 234.335938 133.628906 232.945312 L 133.671875 232.925781 C 136.351562 235.667969 139.234375 238.207031 142.238281 240.445312 L 142.316406 240.503906 L 143.246094 239.273438 L 143.164062 239.214844 C 140.222656 236.996094 137.441406 234.558594 134.859375 231.917969 C 136.695312 229.660156 137.601562 226.820312 137.398438 223.917969 C 137.199219 220.996094 135.90625 218.292969 133.75 216.300781 L 133.691406 216.238281 L 133.628906 216.320312 C 131.777344 218.597656 130.847656 221.4375 131.070312 224.359375 C 131.210938 226.335938 131.855469 228.210938 132.925781 229.84375 C 130.992188 227.707031 129.175781 225.46875 127.503906 223.132812 C 129.660156 221.175781 131.011719 218.515625 131.253906 215.632812 C 131.515625 212.710938 130.648438 209.847656 128.832031 207.53125 L 128.773438 207.453125 L 128.710938 207.511719 C 126.515625 209.464844 125.164062 212.148438 124.921875 215.050781 C 124.742188 217.066406 125.105469 219.039062 125.929688 220.832031 C 124.460938 218.617188 123.128906 216.320312 121.921875 213.960938 C 121.820312 213.738281 121.71875 213.539062 121.597656 213.316406 C 124.035156 211.742188 125.789062 209.304688 126.496094 206.484375 C 127.203125 203.640625 126.816406 200.679688 125.367188 198.121094 L 125.328125 198.039062 L 125.246094 198.097656 C 122.789062 199.691406 121.035156 202.109375 120.308594 204.953125 C 119.824219 206.925781 119.863281 208.960938 120.410156 210.878906 C 119.199219 208.195312 118.152344 205.476562 117.285156 202.714844 C 119.945312 201.527344 122.0625 199.410156 123.191406 196.730469 C 124.339844 194.027344 124.398438 191.027344 123.390625 188.285156 L 123.351562 188.203125 L 123.269531 188.242188 C 120.589844 189.414062 118.472656 191.550781 117.324219 194.25 C 116.519531 196.144531 116.257812 198.179688 116.519531 200.175781 C 115.734375 197.355469 115.128906 194.472656 114.707031 191.550781 C 117.527344 190.804688 119.925781 189.03125 121.476562 186.570312 C 123.027344 184.09375 123.574219 181.128906 122.988281 178.269531 L 122.988281 178.167969 L 122.886719 178.1875 C 120.046875 178.933594 117.628906 180.707031 116.074219 183.183594 C 115.027344 184.859375 114.445312 186.773438 114.363281 188.707031 C 114.082031 186.109375 113.941406 183.488281 113.941406 180.828125 C 113.941406 180.667969 113.941406 180.503906 113.941406 180.34375 L 113.941406 180.121094 C 116.820312 179.820312 119.460938 178.449219 121.375 176.253906 C 123.292969 174.035156 124.300781 171.214844 124.179688 168.292969 L 124.179688 168.191406 L 124.078125 168.191406 C 121.15625 168.472656 118.496094 169.863281 116.578125 172.058594 C 115.308594 173.53125 114.445312 175.246094 114.039062 177.117188 C 114.179688 174.277344 114.484375 171.476562 114.949219 168.695312 C 115.148438 168.714844 115.351562 168.714844 115.570312 168.714844 C 118.253906 168.714844 120.832031 167.789062 122.910156 166.054688 C 125.144531 164.179688 126.578125 161.539062 126.917969 158.617188 L 126.9375 158.515625 L 126.839844 158.515625 C 123.917969 158.355469 121.054688 159.28125 118.816406 161.175781 C 117.285156 162.464844 116.136719 164.121094 115.453125 165.953125 C 116.035156 163.113281 116.78125 160.332031 117.707031 157.589844 C 118.515625 157.769531 119.320312 157.851562 120.128906 157.851562 C 122.183594 157.851562 124.199219 157.308594 126.011719 156.21875 C 128.53125 154.707031 130.34375 152.328125 131.132812 149.507812 L 131.152344 149.425781 L 131.050781 149.40625 C 128.1875 148.78125 125.226562 149.265625 122.707031 150.777344 C 120.992188 151.804688 119.601562 153.257812 118.636719 154.988281 C 119.664062 152.289062 120.832031 149.667969 122.183594 147.089844 C 124.902344 148.136719 127.867188 148.117188 130.566406 147.027344 C 133.289062 145.941406 135.464844 143.863281 136.671875 141.203125 L 136.714844 141.125 L 136.632812 141.082031 C 133.914062 140.015625 130.910156 140.035156 128.1875 141.125 C 126.394531 141.847656 124.863281 142.976562 123.652344 144.449219 C 125.066406 141.988281 126.636719 139.632812 128.289062 137.394531 C 130.808594 138.84375 133.730469 139.269531 136.554688 138.625 C 139.414062 137.957031 141.875 136.265625 143.507812 133.828125 L 143.566406 133.746094 L 143.484375 133.707031 C 140.945312 132.234375 137.984375 131.769531 135.140625 132.4375 C 133.328125 132.859375 131.65625 133.707031 130.246094 134.9375 C 131.3125 133.625 132.441406 132.335938 133.570312 131.125 C 136.59375 130.882812 139.335938 129.65625 141.511719 127.578125 C 143.910156 125.28125 145.320312 122.199219 145.480469 118.871094 L 145.480469 118.773438 L 145.359375 118.710938 C 142.054688 118.730469 138.890625 120.019531 136.511719 122.320312 Z M 136.511719 122.320312 " fill-opacity="1" fill-rule="nonzero"></path>
  </g>
  <g clip-path="url(#b773112309)">
    <path fill="#ffffff" d="M 245.609375 186.503906 C 245.285156 188.671875 244.757812 189.886719 244.351562 190.539062 C 244.300781 190.765625 244.246094 190.996094 244.1875 191.222656 L 244.105469 190.886719 C 244.09375 190.90625 244.078125 190.921875 244.066406 190.941406 C 243.972656 191.429688 243.875 191.921875 243.769531 192.410156 C 243.757812 192.460938 243.746094 192.511719 243.738281 192.566406 C 243.726562 192.625 243.710938 192.683594 243.699219 192.742188 C 243.652344 192.949219 243.605469 193.15625 243.558594 193.359375 L 243.769531 192.734375 C 243.769531 192.734375 242.03125 202.40625 239.328125 205.796875 L 239.945312 203.988281 C 239.941406 203.988281 239.941406 203.992188 239.941406 203.992188 C 239.824219 204.253906 239.699219 204.519531 239.574219 204.78125 C 230.457031 224 210.878906 237.289062 188.195312 237.289062 C 156.804688 237.289062 131.355469 211.839844 131.355469 180.453125 C 131.355469 169.398438 134.515625 159.082031 139.976562 150.355469 C 139.109375 149.714844 140.734375 147.660156 140.734375 147.660156 C 149.984375 131.21875 167.09375 126.847656 168.109375 126.316406 C 169.121094 125.785156 170.832031 126.316406 170.832031 126.316406 L 170.824219 126.320312 C 170.976562 126.273438 171.132812 126.21875 171.285156 126.171875 C 171.4375 125.160156 172.859375 124.652344 172.859375 124.652344 C 196.753906 117.21875 218.667969 130.179688 219.835938 131.558594 C 220.867188 132.773438 219.953125 133.097656 219.722656 133.15625 C 219.953125 133.3125 220.1875 133.46875 220.417969 133.625 C 220.425781 133.632812 220.433594 133.640625 220.445312 133.644531 C 221.207031 133.703125 222.878906 134.273438 226.402344 136.859375 C 232.101562 141.039062 233.195312 144.679688 233.664062 146.34375 C 233.664062 146.34375 233.664062 146.34375 233.667969 146.34375 C 234.054688 145.96875 234.84375 145.582031 236.035156 146.710938 C 237.359375 147.964844 244.296875 159.84375 245.457031 174.953125 C 246.078125 180.394531 245.972656 184.058594 245.609375 186.503906 Z M 245.609375 186.503906 " fill-opacity="1" fill-rule="nonzero"></path>
  </g>
  <g clip-path="url(#4f5401ec1f)">
    <path fill="#ededed" d="M 193.0625 136.222656 L 193.5625 136.351562 C 193.5625 136.351562 181.03125 142.269531 193.0625 136.222656 Z M 171.179688 189.957031 L 172.808594 192.046875 C 172.808594 192.046875 174.792969 195.5625 182.492188 195.089844 C 190.191406 194.613281 214.332031 188.722656 214.332031 188.722656 L 216.613281 183.492188 C 210.339844 187.867188 184.296875 188.148438 184.296875 188.148438 L 183.996094 188.175781 C 182.390625 187.074219 180.5 185.394531 178.308594 182.828125 C 178.242188 182.75 178.175781 182.667969 178.113281 182.589844 C 171.746094 174.613281 176.21875 154.027344 176.21875 154.027344 C 172.132812 157.546875 171.605469 179.5 171.605469 179.5 L 171.941406 183.492188 L 171.269531 187.867188 L 177.746094 188.703125 L 170.515625 189.3125 C 170.800781 189.621094 171.179688 189.957031 171.179688 189.957031 Z M 181.253906 133.167969 L 193.0625 136.222656 C 193.226562 136.140625 193.390625 136.058594 193.5625 135.96875 C 206.441406 129.507812 219.328125 133.636719 219.328125 133.636719 C 220.429688 133.015625 220.316406 131.597656 220.316406 131.597656 C 205.300781 128.082031 196.28125 131.597656 196.28125 131.597656 L 182.964844 129.792969 C 179.070312 125.800781 171.859375 125.234375 171.859375 125.234375 L 170.832031 126.316406 C 172.6875 126.539062 179.828125 131.121094 179.828125 131.121094 Z M 221.554688 167.527344 C 215.320312 154.164062 204.15625 148.5 199.566406 146.660156 C 199.300781 143.691406 197.984375 134.539062 197.984375 134.539062 L 192.945312 143.097656 C 193.328125 143.953125 192.945312 144.238281 192.945312 144.238281 C 192.945312 144.238281 193.933594 145.398438 195.109375 146.640625 L 192.945312 147.28125 C 194.179688 147.386719 195.5 147.78125 196.867188 148.394531 C 197.359375 148.839844 197.773438 149.007812 198.121094 149.007812 C 207.457031 153.929688 218.324219 167.523438 218.324219 167.523438 L 221.554688 167.523438 Z M 245.164062 186.128906 C 245.039062 186.035156 244.910156 185.941406 244.777344 185.855469 C 244.574219 185.71875 244.363281 185.589844 244.144531 185.464844 C 243.65625 185.191406 243.136719 184.953125 242.613281 184.742188 C 240.09375 183.734375 237.425781 183.433594 237.425781 183.433594 L 236.097656 187.199219 C 241.875 186.457031 243.40625 191.179688 243.707031 192.433594 C 243.726562 192.425781 243.75 192.417969 243.769531 192.410156 C 243.875 191.921875 243.976562 191.429688 244.066406 190.9375 C 244.078125 190.921875 244.09375 190.90625 244.105469 190.886719 L 244.1875 191.222656 C 244.246094 190.996094 244.300781 190.765625 244.351562 190.539062 C 244.761719 189.886719 245.285156 188.671875 245.609375 186.503906 C 245.46875 186.375 245.316406 186.25 245.164062 186.128906 Z M 232.296875 205.164062 L 232.296875 193.566406 L 228.683594 195.277344 L 226.210938 197.75 L 225.070312 198.699219 C 214.03125 215.117188 195.21875 211.992188 186.960938 209.605469 C 187.308594 205.261719 187.832031 198.402344 187.710938 197.941406 L 178.5 209.535156 C 178.5 209.535156 179.257812 210.867188 179.832031 211.4375 C 180.023438 211.628906 180.195312 211.757812 180.386719 211.863281 L 179.765625 212.386719 C 179.839844 212.683594 179.980469 213.027344 180.179688 213.402344 L 180.132812 213.496094 C 179.425781 213.046875 179.070312 212.625 179.070312 212.625 L 160.0625 208.207031 L 159.046875 209.285156 L 159.238281 206.558594 L 158.109375 207.289062 C 158.207031 206.320312 158.347656 205.542969 158.347656 205.542969 C 139.910156 202.882812 133.449219 181.867188 133.449219 181.867188 L 133.449219 183.433594 L 131.433594 183.433594 C 129.355469 201.96875 148.589844 219.007812 148.589844 219.007812 C 148.589844 219.007812 150.171875 218.046875 151.78125 217.046875 L 153.144531 218.4375 L 151.632812 219.992188 L 151.507812 221.890625 C 151.507812 221.890625 147.1875 215.839844 152.394531 223.285156 C 157.597656 230.730469 188.765625 236.71875 190.539062 236.464844 C 192.3125 236.210938 192.820312 235.453125 193.960938 234.058594 C 194.472656 233.429688 194.894531 232.394531 195.203125 231.445312 C 195.523438 231.148438 195.820312 230.824219 196.082031 230.484375 C 201.019531 230.796875 202.570312 230.445312 205.683594 230.445312 C 207.613281 230.445312 209.273438 230.378906 211.347656 229.59375 C 235.457031 223.800781 241.695312 200.222656 241.695312 200.222656 C 240.261719 204.691406 232.296875 205.164062 232.296875 205.164062 Z M 165.382812 143.003906 C 152.265625 139.675781 140.789062 151.515625 140.789062 151.515625 L 140.789062 156.726562 C 143.324219 147.128906 165.382812 143.003906 165.382812 143.003906 Z M 138.484375 174.367188 L 139.238281 175.171875 L 138.582031 176.269531 C 138.582031 176.269531 149.414062 185.488281 149.824219 185.769531 C 150.234375 186.050781 153.503906 187.582031 153.503906 187.582031 C 153.503906 187.582031 156.492188 188.507812 157.789062 188.753906 L 165.574219 194.136719 C 165.574219 194.136719 165.574219 194.136719 168.042969 189.386719 C 170.515625 184.632812 168.996094 188.246094 170.707031 185.394531 C 172.417969 182.542969 170.707031 185.394531 170.707031 184.445312 C 170.707031 183.492188 171.65625 177.980469 171.65625 177.980469 L 158.453125 184.488281 L 141.636719 175.402344 C 142.054688 171.136719 142.972656 161.8125 143.082031 161.28125 C 143.230469 160.585938 141.050781 163.535156 140.386719 165.246094 C 139.722656 166.957031 138.484375 171.804688 138.582031 172.183594 C 138.675781 172.5625 138.675781 171.707031 138.582031 173.039062 C 138.484375 174.367188 138.484375 174.367188 138.484375 174.367188 Z M 138.484375 174.367188 " fill-opacity="1" fill-rule="nonzero"></path>
  </g>
  <path fill="#20282d" d="M 239.136719 186.59375 C 238.449219 183.398438 236.035156 172.378906 234.339844 166.992188 C 237.582031 157.074219 233.382812 146.710938 233.382812 146.710938 C 235.132812 151.652344 233.382812 164.453125 233.382812 164.453125 L 233.382812 164.457031 C 233.300781 164.304688 233.222656 164.183594 233.152344 164.105469 C 233.152344 164.105469 221.1875 165.257812 217.863281 166.1875 C 214.382812 161.546875 207.386719 153.386719 197.984375 148.304688 L 197.984375 134.539062 C 201.113281 133.859375 212.164062 131.730469 219.84375 133.765625 C 219.84375 133.765625 209.675781 130.171875 199.21875 132.074219 C 197.820312 132.328125 196.628906 132.5625 195.617188 132.777344 C 192.234375 132.164062 185.949219 131.074219 181.574219 130.613281 C 181.574219 130.609375 180.9375 128.253906 170.832031 126.3125 C 170.832031 126.3125 174.847656 128.058594 177.167969 130.492188 C 177.09375 130.507812 177.03125 130.527344 176.980469 130.550781 C 174.96875 131.464844 166.644531 139.132812 163.804688 143.191406 C 161.410156 142.777344 153.277344 142.339844 142.691406 152.136719 L 140.152344 150.070312 C 140.152344 150.070312 134.96875 154.980469 132.6875 164.675781 C 130.40625 174.371094 131.601562 185.769531 131.601562 185.769531 L 139.59375 177.449219 L 152.742188 189.863281 C 152.351562 194.851562 155.992188 205.984375 157.3125 209.820312 C 157.355469 209.949219 157.394531 210.0625 157.433594 210.175781 C 156.101562 211.617188 153.859375 213.867188 150.28125 216.976562 C 149.074219 216.90625 148.011719 216.402344 147.191406 215.839844 C 132.664062 203.253906 131.601562 185.769531 131.601562 185.769531 C 131.628906 186.722656 131.679688 187.65625 131.753906 188.570312 C 131.644531 187.613281 131.589844 186.671875 131.601562 185.769531 C 131.601562 185.769531 128.890625 197.496094 138.152344 208.941406 C 143.316406 217.773438 149.640625 222.214844 149.640625 222.214844 C 163.746094 238.507812 187.8125 237.285156 187.8125 237.285156 C 208.910156 238.898438 222.828125 225.523438 222.828125 225.523438 C 233.941406 219.863281 239.480469 207.421875 241.976562 199.519531 C 241.972656 199.519531 241.972656 199.519531 241.972656 199.515625 C 236.34375 214.472656 221.011719 223.671875 221.007812 223.675781 L 220.660156 223.324219 C 222.105469 220.828125 225.304688 214.101562 226.308594 202.128906 C 228.445312 200 237.183594 191.21875 239.183594 187.753906 C 240.292969 188.714844 243.234375 191.363281 243.632812 192.699219 C 243.683594 192.703125 243.730469 192.714844 243.773438 192.734375 C 244.195312 192.121094 245.550781 189.429688 239.136719 186.59375 Z M 197.527344 148.832031 C 200.636719 151.03125 212.238281 159.503906 217.199219 166.726562 L 212.144531 188.910156 C 212.144531 188.910156 212.238281 189 212.410156 189.164062 C 209.480469 189.882812 199.96875 191.921875 184.707031 192.433594 L 174.011719 183.351562 C 171.171875 172.710938 174.269531 160.222656 175.433594 156.203125 C 178.0625 155.402344 194.539062 150.375 197.527344 148.832031 Z M 156.460938 187.734375 C 153.785156 186.023438 143.566406 179.46875 139.847656 176.707031 L 144.664062 153.742188 L 144.421875 153.550781 C 144.421875 153.550781 152.480469 145.300781 163.601562 143.488281 C 163.5625 143.546875 163.519531 143.609375 163.480469 143.667969 L 175.023438 156.25 C 170.644531 164.296875 169.96875 177.648438 169.878906 180.066406 Z M 191.011719 233.316406 C 164.992188 236.296875 153.460938 219.640625 153.460938 219.640625 L 156.789062 213.414062 C 157.28125 212.777344 157.789062 212.117188 158.273438 211.492188 C 164.824219 215.769531 179.574219 215.46875 180.875 215.429688 C 183.128906 217.988281 190.554688 226.207031 194.535156 228.117188 C 193.464844 229.941406 192.175781 231.773438 191.011719 233.316406 Z M 196.792969 227.617188 L 198.507812 227.246094 C 197.875 227.386719 197.296875 227.511719 196.792969 227.617188 Z M 217.90625 220.585938 C 213.339844 223.609375 203.886719 226.035156 198.515625 227.242188 C 198.511719 227.242188 194.066406 226.179688 181.152344 214.988281 L 188.953125 196.039062 L 212.433594 189.1875 C 214.128906 190.808594 222.804688 199.121094 225.308594 201.964844 C 224.65625 204.257812 221.800781 213.847656 217.90625 220.585938 Z M 217.90625 220.585938 " fill-opacity="1" fill-rule="nonzero"></path>
  <g fill="#ededed" fill-opacity="1">
    <g transform="translate(111.971754, 263.522692)">
      <g>
        <path d="M 3.40625 -11.28125 L 3.40625 -7.53125 L 8.546875 -7.53125 L 8.546875 -5.984375 L 3.40625 -5.984375 L 3.40625 0 L 1.6875 0 L 1.6875 -12.828125 L 9.453125 -12.828125 L 9.453125 -11.28125 Z M 3.40625 -11.28125 "></path>
      </g>
    </g>
  </g>
  <g fill="#ededed" fill-opacity="1">
    <g transform="translate(123.052717, 263.522692)">
      <g>
        <path d="M 11.546875 -6.421875 C 11.546875 -4.109375 11.109375 -2.414062 10.234375 -1.34375 C 9.367188 -0.269531 8.066406 0.265625 6.328125 0.265625 C 4.554688 0.265625 3.242188 -0.28125 2.390625 -1.375 C 1.535156 -2.46875 1.109375 -4.148438 1.109375 -6.421875 C 1.109375 -8.660156 1.53125 -10.332031 2.375 -11.4375 C 3.21875 -12.539062 4.535156 -13.09375 6.328125 -13.09375 C 8.085938 -13.09375 9.394531 -12.550781 10.25 -11.46875 C 11.113281 -10.394531 11.546875 -8.710938 11.546875 -6.421875 Z M 9.75 -6.421875 C 9.75 -8.191406 9.476562 -9.492188 8.9375 -10.328125 C 8.40625 -11.160156 7.535156 -11.578125 6.328125 -11.578125 C 5.109375 -11.578125 4.234375 -11.160156 3.703125 -10.328125 C 3.171875 -9.492188 2.90625 -8.191406 2.90625 -6.421875 C 2.90625 -4.628906 3.175781 -3.316406 3.71875 -2.484375 C 4.257812 -1.660156 5.128906 -1.25 6.328125 -1.25 C 7.515625 -1.25 8.378906 -1.660156 8.921875 -2.484375 C 9.472656 -3.304688 9.75 -4.617188 9.75 -6.421875 Z M 9.75 -6.421875 "></path>
      </g>
    </g>
  </g>
  <g fill="#ededed" fill-opacity="1">
    <g transform="translate(136.505262, 263.522692)">
      <g>
        <path d="M 11.546875 -6.421875 C 11.546875 -4.109375 11.109375 -2.414062 10.234375 -1.34375 C 9.367188 -0.269531 8.066406 0.265625 6.328125 0.265625 C 4.554688 0.265625 3.242188 -0.28125 2.390625 -1.375 C 1.535156 -2.46875 1.109375 -4.148438 1.109375 -6.421875 C 1.109375 -8.660156 1.53125 -10.332031 2.375 -11.4375 C 3.21875 -12.539062 4.535156 -13.09375 6.328125 -13.09375 C 8.085938 -13.09375 9.394531 -12.550781 10.25 -11.46875 C 11.113281 -10.394531 11.546875 -8.710938 11.546875 -6.421875 Z M 9.75 -6.421875 C 9.75 -8.191406 9.476562 -9.492188 8.9375 -10.328125 C 8.40625 -11.160156 7.535156 -11.578125 6.328125 -11.578125 C 5.109375 -11.578125 4.234375 -11.160156 3.703125 -10.328125 C 3.171875 -9.492188 2.90625 -8.191406 2.90625 -6.421875 C 2.90625 -4.628906 3.175781 -3.316406 3.71875 -2.484375 C 4.257812 -1.660156 5.128906 -1.25 6.328125 -1.25 C 7.515625 -1.25 8.378906 -1.660156 8.921875 -2.484375 C 9.472656 -3.304688 9.75 -4.617188 9.75 -6.421875 Z M 9.75 -6.421875 "></path>
      </g>
    </g>
  </g>
  <g fill="#ededed" fill-opacity="1">
    <g transform="translate(149.957805, 263.522692)">
      <g>
        <path d="M 6.34375 -11.28125 L 6.34375 0 L 4.640625 0 L 4.640625 -11.28125 L 0.375 -11.28125 L 0.375 -12.828125 L 10.59375 -12.828125 L 10.59375 -11.28125 Z M 6.34375 -11.28125 "></path>
      </g>
    </g>
  </g>
  <g fill="#ededed" fill-opacity="1">
    <g transform="translate(161.742833, 263.522692)">
      <g>
        <path d="M 10.71875 -3.765625 C 10.71875 -2.441406 10.296875 -1.484375 9.453125 -0.890625 C 8.617188 -0.296875 7.425781 0 5.875 0 L 1.6875 0 L 1.6875 -12.828125 L 5.484375 -12.828125 C 7.054688 -12.828125 8.1875 -12.601562 8.875 -12.15625 C 9.570312 -11.707031 9.921875 -10.957031 9.921875 -9.90625 C 9.921875 -9.050781 9.726562 -8.394531 9.34375 -7.9375 C 8.96875 -7.488281 8.5 -7.179688 7.9375 -7.015625 C 8.78125 -6.890625 9.453125 -6.570312 9.953125 -6.0625 C 10.460938 -5.5625 10.71875 -4.796875 10.71875 -3.765625 Z M 8.171875 -9.53125 C 8.171875 -10.1875 7.960938 -10.644531 7.546875 -10.90625 C 7.140625 -11.175781 6.414062 -11.3125 5.375 -11.3125 L 3.40625 -11.3125 L 3.40625 -7.5 L 5.296875 -7.5 C 6.316406 -7.5 7.050781 -7.660156 7.5 -7.984375 C 7.945312 -8.316406 8.171875 -8.832031 8.171875 -9.53125 Z M 8.9375 -3.84375 C 8.9375 -4.375 8.832031 -4.789062 8.625 -5.09375 C 8.425781 -5.394531 8.109375 -5.617188 7.671875 -5.765625 C 7.242188 -5.910156 6.546875 -5.984375 5.578125 -5.984375 L 3.40625 -5.984375 L 3.40625 -1.5625 L 5.140625 -1.5625 C 6.234375 -1.5625 7.019531 -1.632812 7.5 -1.78125 C 7.988281 -1.925781 8.347656 -2.160156 8.578125 -2.484375 C 8.816406 -2.816406 8.9375 -3.269531 8.9375 -3.84375 Z M 8.9375 -3.84375 "></path>
      </g>
    </g>
  </g>
  <g fill="#ededed" fill-opacity="1">
    <g transform="translate(174.343092, 263.522692)">
      <g>
        <path d="M 0.46875 0 L 4.859375 -12.828125 L 7.078125 -12.828125 L 11.46875 0 L 9.65625 0 L 8.546875 -3.34375 L 3.3125 -3.34375 L 2.21875 0 Z M 3.84375 -4.890625 L 8.015625 -4.890625 L 5.921875 -11.140625 Z M 3.84375 -4.890625 "></path>
      </g>
    </g>
  </g>
  <g fill="#ededed" fill-opacity="1">
    <g transform="translate(187.091574, 263.522692)">
      <g>
        <path d="M 1.6875 0 L 1.6875 -12.828125 L 3.40625 -12.828125 L 3.40625 -1.5625 L 9.203125 -1.5625 L 9.203125 0 Z M 1.6875 0 "></path>
      </g>
    </g>
  </g>
  <g fill="#ededed" fill-opacity="1">
    <g transform="translate(197.524059, 263.522692)">
      <g>
        <path d="M 1.6875 0 L 1.6875 -12.828125 L 3.40625 -12.828125 L 3.40625 -1.5625 L 9.203125 -1.5625 L 9.203125 0 Z M 1.6875 0 "></path>
      </g>
    </g>
  </g>
  <g fill="#ededed" fill-opacity="1">
    <g transform="translate(207.956544, 263.522692)">
      <g></g>
    </g>
  </g>
  <g fill="#ededed" fill-opacity="1">
    <g transform="translate(213.895999, 263.522692)">
      <g>
        <path d="M 11.515625 -2.25 C 11.109375 -1.59375 10.691406 -1.09375 10.265625 -0.75 C 9.847656 -0.414062 9.359375 -0.164062 8.796875 0 C 8.234375 0.175781 7.570312 0.265625 6.8125 0.265625 C 4.894531 0.265625 3.476562 -0.285156 2.5625 -1.390625 C 1.65625 -2.503906 1.203125 -4.179688 1.203125 -6.421875 C 1.203125 -8.648438 1.648438 -10.316406 2.546875 -11.421875 C 3.453125 -12.535156 4.847656 -13.09375 6.734375 -13.09375 C 7.484375 -13.09375 8.148438 -13 8.734375 -12.8125 C 9.328125 -12.632812 9.828125 -12.378906 10.234375 -12.046875 C 10.640625 -11.722656 11.007812 -11.269531 11.34375 -10.6875 L 9.921875 -9.765625 C 9.648438 -10.222656 9.375 -10.566406 9.09375 -10.796875 C 8.820312 -11.035156 8.488281 -11.222656 8.09375 -11.359375 C 7.707031 -11.503906 7.253906 -11.578125 6.734375 -11.578125 C 5.453125 -11.578125 4.507812 -11.148438 3.90625 -10.296875 C 3.300781 -9.441406 3 -8.148438 3 -6.421875 C 3 -4.710938 3.296875 -3.421875 3.890625 -2.546875 C 4.484375 -1.679688 5.4375 -1.25 6.75 -1.25 C 7.476562 -1.25 8.113281 -1.390625 8.65625 -1.671875 C 9.195312 -1.960938 9.679688 -2.460938 10.109375 -3.171875 Z M 11.515625 -2.25 "></path>
      </g>
    </g>
  </g>
  <g fill="#ededed" fill-opacity="1">
    <g transform="translate(226.950193, 263.522692)">
      <g>
        <path d="M 1.6875 0 L 1.6875 -12.828125 L 3.40625 -12.828125 L 3.40625 -1.5625 L 9.203125 -1.5625 L 9.203125 0 Z M 1.6875 0 "></path>
      </g>
    </g>
  </g>
  <g fill="#ededed" fill-opacity="1">
    <g transform="translate(237.382673, 263.522692)">
      <g>
        <path d="M 11.34375 -5.359375 C 11.34375 -3.953125 11.179688 -2.84375 10.859375 -2.03125 C 10.546875 -1.226562 10.050781 -0.640625 9.375 -0.265625 C 8.695312 0.0976562 7.75 0.28125 6.53125 0.28125 C 5.320312 0.28125 4.367188 0.09375 3.671875 -0.28125 C 2.972656 -0.65625 2.46875 -1.25 2.15625 -2.0625 C 1.84375 -2.882812 1.6875 -3.984375 1.6875 -5.359375 L 1.6875 -12.828125 L 3.40625 -12.828125 L 3.40625 -5.546875 C 3.40625 -4.421875 3.503906 -3.550781 3.703125 -2.9375 C 3.910156 -2.332031 4.234375 -1.894531 4.671875 -1.625 C 5.117188 -1.363281 5.726562 -1.234375 6.5 -1.234375 C 7.289062 -1.234375 7.90625 -1.363281 8.34375 -1.625 C 8.789062 -1.882812 9.113281 -2.300781 9.3125 -2.875 C 9.519531 -3.457031 9.625 -4.332031 9.625 -5.5 L 9.625 -12.828125 L 11.34375 -12.828125 Z M 11.34375 -5.359375 "></path>
      </g>
    </g>
  </g>
  <g fill="#ededed" fill-opacity="1">
    <g transform="translate(251.215042, 263.522692)">
      <g>
        <path d="M 10.71875 -3.765625 C 10.71875 -2.441406 10.296875 -1.484375 9.453125 -0.890625 C 8.617188 -0.296875 7.425781 0 5.875 0 L 1.6875 0 L 1.6875 -12.828125 L 5.484375 -12.828125 C 7.054688 -12.828125 8.1875 -12.601562 8.875 -12.15625 C 9.570312 -11.707031 9.921875 -10.957031 9.921875 -9.90625 C 9.921875 -9.050781 9.726562 -8.394531 9.34375 -7.9375 C 8.96875 -7.488281 8.5 -7.179688 7.9375 -7.015625 C 8.78125 -6.890625 9.453125 -6.570312 9.953125 -6.0625 C 10.460938 -5.5625 10.71875 -4.796875 10.71875 -3.765625 Z M 8.171875 -9.53125 C 8.171875 -10.1875 7.960938 -10.644531 7.546875 -10.90625 C 7.140625 -11.175781 6.414062 -11.3125 5.375 -11.3125 L 3.40625 -11.3125 L 3.40625 -7.5 L 5.296875 -7.5 C 6.316406 -7.5 7.050781 -7.660156 7.5 -7.984375 C 7.945312 -8.316406 8.171875 -8.832031 8.171875 -9.53125 Z M 8.9375 -3.84375 C 8.9375 -4.375 8.832031 -4.789062 8.625 -5.09375 C 8.425781 -5.394531 8.109375 -5.617188 7.671875 -5.765625 C 7.242188 -5.910156 6.546875 -5.984375 5.578125 -5.984375 L 3.40625 -5.984375 L 3.40625 -1.5625 L 5.140625 -1.5625 C 6.234375 -1.5625 7.019531 -1.632812 7.5 -1.78125 C 7.988281 -1.925781 8.347656 -2.160156 8.578125 -2.484375 C 8.816406 -2.816406 8.9375 -3.269531 8.9375 -3.84375 Z M 8.9375 -3.84375 "></path>
      </g>
    </g>
  </g>
  <g fill="#ededed" fill-opacity="1">
    <g transform="translate(160.553915, 289.309258)">
      <g>
        <path d="M 1.359375 0 L 1.359375 -1.90625 C 2.953125 -3.257812 4.109375 -4.273438 4.828125 -4.953125 C 5.546875 -5.640625 6.140625 -6.242188 6.609375 -6.765625 C 7.078125 -7.296875 7.4375 -7.8125 7.6875 -8.3125 C 7.945312 -8.820312 8.078125 -9.378906 8.078125 -9.984375 C 8.078125 -10.648438 7.851562 -11.1875 7.40625 -11.59375 C 6.96875 -12 6.378906 -12.203125 5.640625 -12.203125 C 4.941406 -12.203125 4.375 -12.046875 3.9375 -11.734375 C 3.5 -11.429688 3.128906 -11.03125 2.828125 -10.53125 L 1.3125 -11.5 C 1.78125 -12.3125 2.382812 -12.894531 3.125 -13.25 C 3.863281 -13.613281 4.726562 -13.796875 5.71875 -13.796875 C 7.03125 -13.796875 8.066406 -13.472656 8.828125 -12.828125 C 9.597656 -12.179688 9.984375 -11.265625 9.984375 -10.078125 C 9.984375 -9.484375 9.894531 -8.921875 9.71875 -8.390625 C 9.550781 -7.867188 9.285156 -7.367188 8.921875 -6.890625 C 8.566406 -6.421875 8.082031 -5.878906 7.46875 -5.265625 C 6.863281 -4.648438 5.507812 -3.441406 3.40625 -1.640625 L 10.421875 -1.640625 L 10.421875 0 Z M 1.359375 0 "></path>
      </g>
    </g>
  </g>
  <g fill="#ededed" fill-opacity="1">
    <g transform="translate(174.150954, 289.309258)">
      <g>
        <path d="M 11.125 -6.734375 C 11.125 -4.316406 10.71875 -2.539062 9.90625 -1.40625 C 9.101562 -0.269531 7.851562 0.296875 6.15625 0.296875 C 4.46875 0.296875 3.222656 -0.265625 2.421875 -1.390625 C 1.617188 -2.523438 1.21875 -4.300781 1.21875 -6.71875 C 1.21875 -9.132812 1.617188 -10.90625 2.421875 -12.03125 C 3.222656 -13.164062 4.46875 -13.734375 6.15625 -13.734375 C 7.863281 -13.734375 9.117188 -13.171875 9.921875 -12.046875 C 10.722656 -10.921875 11.125 -9.148438 11.125 -6.734375 Z M 9.21875 -6.734375 C 9.21875 -8.617188 8.972656 -9.992188 8.484375 -10.859375 C 7.992188 -11.734375 7.21875 -12.171875 6.15625 -12.171875 C 5.113281 -12.171875 4.34375 -11.734375 3.84375 -10.859375 C 3.351562 -9.984375 3.109375 -8.601562 3.109375 -6.71875 C 3.109375 -4.832031 3.351562 -3.453125 3.84375 -2.578125 C 4.34375 -1.703125 5.113281 -1.265625 6.15625 -1.265625 C 7.21875 -1.265625 7.992188 -1.703125 8.484375 -2.578125 C 8.972656 -3.453125 9.21875 -4.835938 9.21875 -6.734375 Z M 9.21875 -6.734375 "></path>
      </g>
    </g>
  </g>
  <g fill="#ededed" fill-opacity="1">
    <g transform="translate(188.489891, 289.309258)">
      <g>
        <path d="M 1.359375 0 L 1.359375 -1.90625 C 2.953125 -3.257812 4.109375 -4.273438 4.828125 -4.953125 C 5.546875 -5.640625 6.140625 -6.242188 6.609375 -6.765625 C 7.078125 -7.296875 7.4375 -7.8125 7.6875 -8.3125 C 7.945312 -8.820312 8.078125 -9.378906 8.078125 -9.984375 C 8.078125 -10.648438 7.851562 -11.1875 7.40625 -11.59375 C 6.96875 -12 6.378906 -12.203125 5.640625 -12.203125 C 4.941406 -12.203125 4.375 -12.046875 3.9375 -11.734375 C 3.5 -11.429688 3.128906 -11.03125 2.828125 -10.53125 L 1.3125 -11.5 C 1.78125 -12.3125 2.382812 -12.894531 3.125 -13.25 C 3.863281 -13.613281 4.726562 -13.796875 5.71875 -13.796875 C 7.03125 -13.796875 8.066406 -13.472656 8.828125 -12.828125 C 9.597656 -12.179688 9.984375 -11.265625 9.984375 -10.078125 C 9.984375 -9.484375 9.894531 -8.921875 9.71875 -8.390625 C 9.550781 -7.867188 9.285156 -7.367188 8.921875 -6.890625 C 8.566406 -6.421875 8.082031 -5.878906 7.46875 -5.265625 C 6.863281 -4.648438 5.507812 -3.441406 3.40625 -1.640625 L 10.421875 -1.640625 L 10.421875 0 Z M 1.359375 0 "></path>
      </g>
    </g>
  </g>
  <g fill="#ededed" fill-opacity="1">
    <g transform="translate(202.08693, 289.309258)">
      <g>
        <path d="M 9.34375 -3 L 9.34375 0 L 7.59375 0 L 7.59375 -3 L 0.640625 -3 L 0.640625 -4.734375 L 7.671875 -13.515625 L 9.34375 -13.515625 L 9.34375 -4.5625 L 11.203125 -4.5625 L 11.203125 -3 Z M 7.59375 -10.9375 L 2.421875 -4.5625 L 7.59375 -4.5625 Z M 7.59375 -10.9375 "></path>
      </g>
    </g>
  </g>
</svg>
