<?xml version="1.0" encoding="UTF-8"?>
<svg xmlns="http://www.w3.org/2000/svg" id="Ebene_1" version="1.1" viewBox="0 0 400 400">
  <path d="M308.0565785,200.7844526c8.7195265,2.7700312,18.9046141,5.5852487,27.0830021,9.6288485,12.7848304,6.3211403,6.7798349,12.0777526,8.504549,22.757002.4242339,2.6268118,3.618954,5.8131946,4.6913601,8.3948706,2.3742229,5.7156281,4.1707132,19.75267.9647772,24.964319-3.9620844,6.4408625-7.3722903,2.8444249-10.7333025,4.5126282-1.8428511.9146799-3.772215,4.8257974-5.8660786,6.1434904l53.7949074,2.1807416c-6.5754485,1.2832708-13.3079346.5137568-19.9816263.7419693-96.478007,3.2991461-194.597637,2.2996703-291.5095678.689616-18.8227431-.3127132-37.6286155.5591487-56.369839-1.4314071l14.1431283-1.4766442c4.6894866-.1610318,33.9024246.7576704,35.2102514-.7742642.3203558-2.6794473-.2300956-5.4298898.2522964-8.1106734.475494-2.64245,2.2409607-3.3403891,2.7309313-5.6225506l-6.1899672,1.4372831-.3520279-1.4354458,140.3214761-18.9031822-.0179748-85.4413074c.4510341-3.8675096,1.8765573-3.9670274,5.1001357-5.0780437,24.7570565-8.5325964,72.3075871-2.7978421,90.130518,18.1993576,8.1139119,9.5590019,8.8540463,16.0860196,8.0930516,28.6233921ZM217.1056203,161.2343142v81.7889416l34.1659922-5.0816569-6.127902,5.8567678-3.4014971,7.1373795-38.4498366,5.1737403v15.2672691l41.4432993-3.6313601c-3.7637943-31.7432675,35.3470761-39.6142144,34.8892872-4.3621003,1.276642,1.2706825,30.8389826-.7006467,36.024686-.037533,2.1895169.279981,2.8887969,1.69972,4.4803828,2.0720137,3.4958082.8177175,8.5610721-1.4617296,12.2956654-1.9496115,6.5877091-.8606089,12.5541091,2.8254505,11.1801524-7.3586779h-52.3449226l-2.1773-6.5393902,54.5185735,1.4464805c.3230599-3.8633305-6.943548-2.5826848-7.2706187-2.9005581l-.1467379-26.3887632c-1.2958046-4.4430313-14.7270827-5.5018242-18.1911072-3.9462739-3.2021346,1.4379464-3.2639724,6.2693981-3.4987318,9.5810832-.4311134,6.0815961.7363904,12.0579685.652456,18.1062281-.3388308,1.1519652-1.340158,1.1960567-2.4362026,1.2545026-.6963929.0371347-1.3938593-.0097718-2.071284-.1769621l-1.2037269-.9780327v-24.7184357c0-.3007328-1.4782012-3.3968485-1.8492446-3.966858-5.0291884-7.7260104-28.3306954-11.597854-37.0352201-10.9236043-8.2337734.6377855-16.8189981,4.3285309-25.092663,5.0757893v-21.446878c7.8328082-3.6161881,17.2243616-4.7604728,25.800779-6.2308073l28.7246152,2.9555826c.0778439-1.0078178.0135884-1.9755877-.3255251-2.9418533-2.6726553-7.6154287-27.0877822-8.1393157-34.0891627-8.0775258-4.7680653-6.2537801-9.7705476-11.6792514-17.2172707-14.7712931-7.0004348-2.9067331-20.7612334-4.4368159-27.7818399-1.638612-1.2232747.4875607-2.4430289,1.5099821-3.4650955,2.3510091ZM260.5345057,248.9620774c-9.505859,1.9400722-8.905399,23.8001266,1.2847106,23.7666401,11.5612258-.0379922,10.8101347-26.2351043-1.2847106-23.7666401ZM187.8346873,254.7665193c-8.0428212,1.4609406-6.8985554,20.8304058,1.1701147,20.0910536,8.2838589-.7590705,8.3933404-21.8282102-1.1701147-20.0910536ZM168.9209929,256.9843117c-5.7263233,1.2910109-6.6308549,14.1416268-.783386,17.2062698,9.2248701,4.8347301,11.8815065-19.7083631.783386-17.2062698ZM102.7431392,263.4689594c-4.4770449,3.0701265-4.9547043,11.3670746.4591318,13.6161063,6.5835957-2.213091,6.9747564-12.9430514-.4591318-13.6161063ZM93.3318683,265.7416802c-4.7969344-5.2170316-9.7556346,5.7466218-5.2283053,10.684499,4.6205844,5.0395888,8.7388936-6.8664668,5.2283053-10.684499ZM75.4500091,265.6829124c-1.9231807,3.6403445-2.837771,8.8416503.6133346,11.8915583l2.3978665.2477408c5.1012584-3.1972728,3.910026-13.4389702-3.0112012-12.1392991ZM277.0841774,277.1928581c11.1422313-.8562266,23.2857396.6357198,34.5331087,0l-4.5246586-6.0632588c-4.9295769-.6403007-10.5401375-.7618056-15.5027851-.5144547-1.7686382.0881534-9.0715241.556361-10.0275427.8776565-.9835633.3305527-4.0721857,5.5647897-6.2923637,6.0668102.5725638,1.2041938,1.6353238-.3530042,1.8142413-.3667532Z"></path>
  <path d="M305.3948668,58.0332342c34.7692006,34.5513291,53.2782569,85.2752154,42.2170174,134.1065884-.7435664,3.2825766-1.6448515,7.5512975-3.6460417,10.1672068-.0818211-10.2067969-8.8406758-16.1760584-16.2757628-21.5568717,9.9596533-85.1842491-68.3740493-160.1585968-153.6138762-141.0626441-63.6469139,14.2585749-108.6056478,76.5679626-100.1410082,141.7849832l-8.7690135,5.9405159-8.7212774,13.43813c-1.6710715-5.8651014-3.3594547-11.8530879-4.2731196-17.9045173-9.0455134-59.9106803,25.4342784-121.9485894,77.9312367-150.1546403,57.9331695-31.1268687,128.8045579-20.9547387,175.2918453,25.2412492Z"></path>
  <path d="M199.6573127,236.1166341l-3.3559026,1.7331871-132.5992506,18.9792963c.5798261-14.1113776-1.1451313-28.8576749.916987-42.7068429l129.9246326-55.0888835c1.7024884-.5434317,3.903933-.8763549,5.1135335.7468975v76.3363455Z"></path>
  <path d="M10.633981,384.0637418l-.633981-70.0637047c.4518224-1.3197779,3.955758-1.7546661,5.3701121-1.900016,8.3939318-.8626252,26.9747114-.3084836,34.451302,3.3322686,9.9470955,4.8437733,14.3344466,19.0113472,6.9207838,27.861638-.922839,1.1016678-4.6805219,3.3967108-3.9393321,4.4092426,13.0847229,3.838446,13.8511682,22.0825725,4.7192091,30.5402364-1.8585675,1.7213326-10.1054625,5.8203352-12.3549852,5.8203352H10.633981ZM27.3552757,341.1699857c5.331082-.0951447,14.6140022,1.414004,14.6063524-6.1803751-.0073878-7.3343511-9.3107013-7.4308597-14.6063524-6.1788428v12.3592178ZM27.3552757,368.7964727h12.7227243c2.7048571,0,5.7019832-4.0729948,5.5222392-6.9128394-.1433438-2.264744-4.2974934-6.1733912-6.249252-6.1733912h-11.9957114v13.0862307Z"></path>
  <path d="M153.8555054,378.6111457c-28.348498,16.4512988-62.4628629.139014-58.7985455-34.8071694,2.6884326-25.6392797,35.8488117-42.110106,56.2491943-25.8935278,6.4983239,5.1656177-4.1519428,9.1970644-4.7302487,15.2626595-6.3800851-2.9130389-11.7385991-5.8909811-19.0544775-4.1602056-19.9299432,4.714985-18.9904086,35.8850494.1242408,38.7275624,9.1325852,1.3580941,10.4046728-2.1149834,9.4923025-10.5799514l-8.9557773.0293486c-.4808879-.1470382-1.2261628-1.6425673-1.2261628-1.8431263v-12.7227243c8.7228704-1.0058155,18.229469-1.321717,26.8994741,0v35.9871343Z"></path>
  <path d="M297.0770298,328.8107679v11.632205h22.1738908c3.813854,0,2.8283862,12.5838605,1.7139798,15.1659129-8.0414656-.0038889-15.8902654,1.3739161-23.8878706.1013562v13.0862307c9.7625227,1.3170067,20.9197834-3.2066336,29.8075254,1.0905192v13.0862307l-1.0905192,1.0905192h-45.0747945l-1.0905192-1.0905192v-70.1567366l45.2919503-.5806623c1.9606576.6927217,1.8357163,2.0815697,2.0060486,3.8102188.3539571,3.5922003.6592397,10.0762307-1.859698,12.7647254h-27.9899934Z"></path>
  <path d="M334.8816962,314.634018c.0716156-.4138921.6704212-1.1678887.9088783-1.648553,2.7058356-1.8667663,28.1498966-.8593609,32.8109981-.0827596,25.5518433,4.257276,28.9442824,37.1735541,6.2557081,46.7959824-1.4208534.6025967-7.2393836,2.5546695-8.3505271,2.5546695h-14.1767499v21.8103844h-15.6307755c-.1285189,0-1.817532-1.6890131-1.817532-1.817532v-67.6121917ZM352.3300037,346.2590754h11.9957114c3.4285696,0,7.474609-5.4742054,7.3800916-8.9755193-.2510258-9.2990311-12.4787637-10.3106419-19.375803-8.4727882v17.4483075Z"></path>
  <path d="M175.9242473,318.1640386c10.5372115-9.9610491,33.4771236-8.3002391,42.3125813,3.3124156l-9.5700915,13.120991c-5.2350442-3.677999-13.1085023-9.5507372-19.4437585-4.9522439-10.5643439,7.6682083,13.4613802,12.9912708,17.4683358,15.0324687,16.8131562,8.5648512,13.6083932,31.4142452-2.8966103,38.0708713-14.0910733,5.6830649-31.2743508.5377508-41.8103639-9.9468504l10.5095112-12.6765524c4.4990067,3.1782237,8.9017545,7.5997503,14.6154985,8.4972204,4.7140748.7404499,14.4867092.6744378,12.2289841-6.4043258-1.3194494-4.1369387-15.2574693-7.34383-19.7966736-10.0200551-12.807101-7.5508134-14.4483043-23.7952686-3.6174131-34.0339393Z"></path>
  <path d="M222.19471,312.816486c1.6038552-.1081186,3.0669274-.6394109,4.6973061-.7585877,11.7471774-.8586905,31.229594-.9006699,42.9472317.0035612,1.5576535.1202016,3.0811315.3732928,4.5382695.9117188,1.0171769.805787.1621154,1.8738175.1621154,2.3878525v13.4497371h-18.1753204v55.2529739h-15.6307755l-1.0905192-1.0905192v-54.1624547h-17.4483075v-15.9942819Z"></path>
  <rect x="70.9760446" y="312.054973" width="17.4483075" height="72.0087688"></rect>
  <path d="M334.1546834,246.2948135l-1.2033286.972986-14.6871864-.7110162c-1.4028109-.8794733-1.240071-25.1785602.3683177-26.1204557,2.4847309-.3963665,15.5221973-.1689063,15.5221973,2.5940758v23.2644101Z"></path>
  <path d="M293.0784594,233.5720892c3.7424886.7535918,9.4142743,7.7368087,10.53111,11.2829891.6603499,2.0967451-1.0231933.3492159-1.0799434.3492159h-14.9037627l-7.2701281-11.632205c3.7606147.5156946,9.2220915-.7048914,12.7227243,0Z"></path>
  <path d="M287.6204967,228.4920957l-2.4471114.6316878-18.6273852-2.0875697c7.204561-1.2100081,14.153819-.9919779,21.0744966,1.4558819Z"></path>
</svg>
