<?xml version="1.0" encoding="UTF-8"?>
<svg xmlns="http://www.w3.org/2000/svg" id="Ebene_1" version="1.1" viewBox="0 0 400 400">
  <g>
    <path d="M28.9105074,266.2005782c-.2589604-1.1438389.387439-1.1757477,1.0136561-1.7211141,4.3810855-3.8154449,18.2415242-9.7902434,24.1005233-12.3610986,17.6524298-7.7456641,37.6280743-14.5550365,56.4273163-18.9269878,8.0615697-1.8747985,16.5460129-3.8229973,24.8051296-4.0541881l-3.646001,4.2478046h12.457768c4.5107687,0,11.4140504-10.2822996,14.5567582-13.384625,5.7774928-5.7032546,13.5746557-10.8971396,21.8831593-11.5527535,20.912229-1.6501585,44.0918989,1.5858338,65.0687635.0452913,2.4157166-.1774104,5.8749379-.7920099,8.1641627-1.5589733,11.5234788-3.8607332,24.3286817-24.4392228,34.6940726-31.5447956,11.5430081-7.9128404,24.5657356,7.292246,15.1396515,18.1781356l-69.2566402,68.0826561c-1.6625444,1.3401419-6.8979125,4.5506485-8.8186635,4.5506485H28.9105074Z"></path>
    <path d="M246.4656758,266.2005782l36.7274444-36.5033849c32.6140875,6.7285015,67.9551173,17.0134069,96.7635581,33.9747589,1.0278687.6051714,3.005666,1.1599402,2.6329018,2.5286261h-136.1239043Z"></path>
    <g>
      <path d="M199.6730837,182.642378c-.199985-1.4106498-1.8902963-5.1013522-2.7742182-6.3412218-5.6850898-7.9744264-14.7840127-4.9285215-23.0465502-5.5151619-28.6495151-2.0341163-51.5759637-26.503513-57.62621-53.5821582-.8580434-3.8402821-3.7128121-17.6414504-1.0136168-20.2375045.9644676-.773783,2.1283667-.9775355,3.3309222-.9728083,18.2378937.0716932,40.2661073,6.5082586,54.9463758,17.4238797,16.8999711,12.5660972,26.5882886,31.9494744,31.9563847,51.9117971,4.2776921-12.7011055,8.9408271-25.5856815,17.068065-36.4153659,17.2760793-23.0206726,42.7820927-31.8515636,70.9982739-32.8489188,4.7214159.3985181,3.6728576,8.1600782,3.3821671,11.8211399-2.3775829,29.9441405-28.2813867,60.8064946-59.2156876,62.9311564-9.3417605.6416205-18.7975502-2.8717083-24.2923175,7.3078746-.6644472,1.2309521-2.1673644,5.2030764-2.1673644,6.3403796v11.242376c-1.5516577-.6955606-11.546224,1.8099823-11.546224-.303848-.4001138-3.9903391.5457645-8.9119133,0-12.761616ZM247.0733718,144.661378l21.4232352-21.4303223c1.4942903-3.434031-1.7120161-6.9806876-5.3301458-6.8451124-4.2035749.1575125-11.6724108,10.4304659-15.1844977,13.0800443.5867576-3.8081089.2847715-9.375149-4.8466261-9.1540572-8.6424025.3723673-3.5445188,14.4686618-5.5798865,19.3450194-2.1786888,2.6730443-9.5846985,6.8481831-9.9261012,10.2260181-.307419,3.0416009,1.7822837,4.6581974,4.611217,5.0534909,4.9003134.6847324,21.1235314.6877372,26.0199973.0005644,8.1517886-1.1440267,4.8384898-10.2756452.6628798-10.2756452h-11.850072ZM181.8604941,146.671698c-.7975482-.9004188-3.0776939-1.8725906-4.3520027-2.0270583-5.1400558-.6230612-19.1321745-.5716509-24.3235244.0173652-8.0983314.9188454-7.1062884,9.2916993-.5690982,10.2909803,4.8137996.7358419,19.1753901.5422913,24.2598432.0304534,4.6813288-.4712564,8.7925324-4.0128537,4.9847822-8.3117407Z"></path>
      <path d="M200.8884757,127.6458899c-1.4230912.366747-1.0171307-.3329826-1.3936293-.7719726-2.2302585-2.6004379-3.9360021-5.7657908-6.1954431-8.350595-6.6541337-7.6123402-14.9614043-14.7728863-24.0576951-19.2388905-8.1901289-26.9003225.7494422-54.2614674,18.8691156-74.65905,2.550222-2.8708224,14.1120844-14.5208779,17.3308127-14.6246454,3.3109577-.1067408,15.0660621,11.421294,17.6363967,14.3281799,18.0771127,20.4440718,27.7225639,47.8067195,18.8072353,74.7325742-9.0050257,4.3709137-16.2705728,11.0620242-23.078412,18.2449161l-8.1952447,10.9471793v-24.003992c6.3016494-6.6724723,12.6276202-13.2926574,18.8185342-20.0712512,2.272534-2.488257,6.4072381-4.4679473,6.1558468-8.4949619-.1996999-3.198974-5.0744355-6.0244657-7.779195-3.4579694l-17.195186,17.7433264v-48.9195281c0-1.1786256-3.1424448-3.8337224-4.5909151-3.9324773-1.677737-.114386-5.132221,1.6464216-5.132221,3.3247813v14.280856c-4.5591391-2.6165122-8.5390801-12.6879135-14.8228532-9.0485327-2.821641,1.6342134-2.2155701,5.2832286-.3745751,7.5347701l15.1974283,16.4023147v19.75012c-1.0195731.2204037-1.2298293-.3249175-1.8118009-.922989-4.3995672-4.5212784-8.883608-10.2719274-13.3541023-14.5997348-2.2381245-2.1666892-4.4466536-3.4744793-7.4841153-1.9567463-3.2674664,1.6326597-3.3738895,4.3915995-1.3781392,7.1742458,4.0957539,5.7106516,12.1095154,12.1602361,17.0481474,17.5890826,2.3939042,2.631526,4.65113,5.513904,6.9800103,8.2123897v22.7886Z"></path>
      <path d="M273.2011452,173.8339717l-5.0711083,5.8611001c-6.4230957,4.0834662-12.9205902,15.8313782-20.7486107,16.6190693-4.1823164.4208437-8.4031659-1.6910281-12.4560107.0011252l3.622417-4.5752443c1.6899074-1.8258342,10.3006508-10.7973218,11.7194134-11.3730339,3.7656058-1.5280253,9.0312292.8284821,12.578898-1.39811,3.4182897-2.145391,4.4513634-6.7044291,10.3550014-5.1349063Z"></path>
      <path d="M240.9964118,183.553922c1.4752889,1.4240728-8.4874584,10.5262699-9.7344714,11.8386828l-10.3138028.9225042c-.3994585-.4834595,3.3362094-4.7706161,3.9360238-5.4771414.9210816-1.0849481,6.6764373-7.2840456,7.3006584-7.2840456h8.811592Z"></path>
    </g>
  </g>
  <g>
    <path d="M179.0182254,328.1818888l8.0127999-22.362224c2.3562257-.1384552,4.8455369-1.4669805,7.0232572.0386355l7.7457075,22.3334345,7.5746255-21.6009252c2.028434-2.5428832,7.0012795-1.3630336,9.7479871-.8853144-3.9485993,11.1292819-7.2814122,22.6142613-11.7033986,33.5687577-2.0986287,5.19889-1.8824562,8.0106709-8.6637552,5.3254279l-7.5987287-21.2740207c-1.5774794-.284168-.9373364.2236838-1.2621407.8619913-1.5000218,2.9478521-6.3889702,20.3298498-7.3217949,20.9289419l-6.5171178.0024185-14.05724-39.4149928c3.0709575.7401477,7.1012954-1.8318416,9.3862457.6384084,2.7966084,3.0234013,5.6823913,17.3520987,7.6335531,21.8394614Z"></path>
    <path d="M261.4822898,325.5175664c0,11.3050542-9.1645572,20.4696114-20.4696114,20.4696114s-20.4696114-9.1645572-20.4696114-20.4696114,9.1645572-20.4696114,20.4696114-20.4696114,20.4696114,9.1645572,20.4696114,20.4696114ZM239.6401177,314.3252121c-8.91012,1.2306993-13.0650194,12.7538112-6.2351458,19.3248638,7.4523864,7.1699749,19.4084324.9594239,18.5370175-9.4109171-.4628422-5.5080893-6.7878238-10.6755677-12.3018718-9.9139466Z"></path>
    <path d="M318.1738039,320.8932183l15.5734855-15.1156814c1.9690759-1.2012058,9.3052324-1.2311459,9.2251316,1.5477552-.057015,1.9779943-13.717727,13.2286235-15.0993806,16.2499264.1481232,1.4683837,2.6191266,4.1772514,3.6864735,5.5054956,2.52929,3.147538,12.0131947,11.9367602,12.156855,15.2003978.0563164,1.2793818-.0073915.7914454-.9107697.9242173-.9184566.134988-8.410295.4973425-8.8110343.3136585l-13.0863312-14.8921562c-4.9086764,3.1761481-1.7136244,9.1735056-3.015411,13.9896053-2.5585024,1.6446026-5.9949754,1.6445981-8.5534791.0000017l-.1330118-37.2782138c.6354141-3.3348804,5.4455963-2.3005054,7.8970065-1.6353475.4124745.1917931,1.0704657,1.2399547,1.0704657,1.5171811v13.67316Z"></path>
    <path d="M75.3992515,305.7008183c2.4065688.6727558,2.1066537,8.507744-.607696,8.507744h-16.103944v7.292352h13.67316c.1296436,0,1.1912192.5872212,1.3600712.771555,4.1685818,12.1876347-8.5340814,5.1835267-14.966711,7.8005116l-.0665202,6.6203334h16.71164c2.368223,0,2.5205019,6.9671369.607696,8.507744h-25.5232321l-.911544-.911544v-37.0694561c0-.2009239.8049927-.9226186.607696-1.51924h25.219384Z"></path>
    <path d="M378.3327199,309.3581947l-4.8463498,7.0002421c-2.6001782-1.4249473-12.8594382-4.8929375-13.3879955-.0006344-.4754399,4.4006513,8.5264467,4.9903065,11.7670984,6.4479311,12.7778215,5.7473831,8.6987557,21.6161778-4.7795035,22.9961931-6.4774689.6632167-12.4878665-.9584308-17.6533394-4.8453925l4.8885455-7.1595693c3.8754077,2.1568382,10.4625263,5.4745992,14.5275088,2.2238263,5.6372533-4.5081203-7.9650366-6.9890281-10.1851675-7.9131496-13.707653-5.7057611-9.1240568-22.1437222,4.7595115-23.0333515,5.8148366-.3726023,10.1061607,1.3171907,14.9096917,4.2839046Z"></path>
    <path d="M139.5111796,330.0086583l-.6718983,15.1259574c-1.7603866-.1712676-7.7546556.9154447-8.3586778-.9299644l.6094073-38.4191007c3.9535031.7681463,22.1561662-1.3576413,24.4077699-.0072929,2.4975289,1.4978365.9724809,5.3356462.9293813,7.7165784-.4304471.1005839-1.2031415.7137263-1.4197343.7137263h-15.496248v7.292352h11.850072c4.7438148,0,4.5085545,5.315176,2.734632,8.507744h-14.584704Z"></path>
    <path d="M42.8875154,345.2010584h-24.611688l-.911544-.911544v-38.5886961c3.0439065.2153673,5.9523842-1.6465279,8.507744.911544v29.1694081l.911544.911544h15.1924c2.3826029,2.5408427,1.2152805,5.5280807.911544,8.507744Z"></path>
    <path d="M189.4239373,377.6203457c0,6.8370943-5.54256,12.3796543-12.3796543,12.3796543s-12.3796543-5.54256-12.3796543-12.3796543,5.54256-12.3796543,12.3796543-12.3796543,12.3796543,5.54256,12.3796543,12.3796543ZM183.6427562,377.6233904c0-3.6495935-2.9585801-6.6081736-6.6081736-6.6081736s-6.6081736,2.9585801-6.6081736,6.6081736,2.9585801,6.6081736,6.6081736,6.6081736,6.6081736-2.9585801,6.6081736-6.6081736Z"></path>
    <path d="M220.9592688,377.586071c0,6.8185911-5.5275602,12.3461513-12.3461513,12.3461513s-12.3461513-5.5275602-12.3461513-12.3461513,5.5275602-12.3461513,12.3461513-12.3461513,12.3461513,5.5275602,12.3461513,12.3461513ZM215.2203403,377.6064444c0-3.6315348-2.9439406-6.5754754-6.5754754-6.5754754s-6.5754754,2.9439406-6.5754754,6.5754754,2.9439406,6.5754754,6.5754754,6.5754754,6.5754754-2.9439406,6.5754754-6.5754754Z"></path>
    <path d="M251.3317506,387.1192028l2.8543934-4.163371c1.3606434-.3957882,10.551951,4.5859981,10.5419536-.3896263-.0062271-3.0991659-11.161436-2.1663764-12.1458854-7.9224403-1.7271499-10.0986245,12.8146368-12.3198952,17.5335894-5.5264545l-2.7795397,3.3811921c-1.2889935.3871481-8.3726261-4.2740687-8.7559827-.2496397-.2772125,2.9101417,6.5399951,3.100897,8.9739254,4.4293721,1.6083177.8778435,2.8796378,2.2655507,3.1813891,4.1050754,1.7662991,10.7676449-13.0346163,10.8589132-19.4038433,6.3358922Z"></path>
    <path d="M159.5651476,365.8627224c1.6637367,6.3494016-2.2761279,5.5833988-7.292352,5.469264v17.319336c-.7613547,1.3051708-4.5190315,1.3183012-5.2040252.3422964l-.2633104-17.6565754c-2.5198888-.1058171-8.0914968,1.0100161-8.2639488-2.7262571-.03056-.6620998.7946209-2.748064,1.2735164-2.748064h19.75012Z"></path>
    <path d="M234.3117558,384.0936024h10.026984c1.3987638,1.0559156.8844158,2.9347495.9341405,4.4579729-.3589145,1.5333116-14.1776548,1.4255695-16.2839225.252727-1.1089533-1.2853286-1.0626106-18.1431822-.4860104-20.5464786.7637841-3.1834874,3.4987695-3.2044755,5.8088083-1.4835573v17.319336Z"></path>
    <path d="M278.0658679,345.2010584c-1.8523955-.3734671-8.3972209.9395228-9.0305725-.9964108.7198737-11.3972408-1.2613609-24.6002588-.0842021-35.7788672.1562746-1.4840245.297004-3.0301484,2.0925952-3.0302155,8.9016612,1.3436603,19.9045945-2.4455395,26.4520157,5.4871052,5.5792404,6.759628,3.7691208,16.935306-4.2519559,20.659787.0712937,2.6624618,9.4745047,9.9308995,9.1299597,13.6586012h-10.026984c-5.0972669-4.217787-6.0447792-13.4609666-14.280856-11.546224v11.546224ZM278.0658679,324.5393943h10.026984c1.1076257,0,3.0820244-2.9098245,3.1800057-4.0417325.5208363-6.0168495-9.3242894-7.911911-13.2069897-5.3775555v9.419288Z"></path>
    <path d="M123.7110836,345.2010584h-9.723136l-2.9755168-6.9162179-15.4614275-.2783485-3.4401117,7.1945664h-9.723136l15.8579367-38.5308175c1.3477868-1.6886375,8.7348783-2.6582114,9.7951703.4198812,4.2932533,11.2705501,10.6641794,22.6179112,14.7463735,33.8692584.5053188,1.3927602,1.1100752,2.6963219.9238476,4.2416779ZM107.9109875,329.4009623c-.0304726-1.2181885-4.6628992-11.5484326-5.4619204-10.9370615l-4.2612157,10.9370615h9.723136Z"></path>
  </g>
</svg>
