<?xml version="1.0" encoding="UTF-8"?>
<svg xmlns="http://www.w3.org/2000/svg" id="Ebene_1" version="1.1" viewBox="0 0 400 400">
  <path d="M390,200c0,104.9341025-85.0658975,190-190,190S10,304.9341025,10,200,95.0658975,10,200,10s190,85.0658975,190,190ZM367.4428859,209.2367877c2.9868639-55.3079578-21.2976242-108.5846266-64.6214652-142.4679926-49.8543964-38.9908817-112.938031-47.382673-171.1037182-21.2145168-62.9607477,28.3254056-103.1196454,94.3778276-99.2333748,163.6825094h60.6115486v-10.633605c-5.0828232-.648783-10.7245512-.0843199-15.6898778-.5308417-.8209855-.0738296-2.600388-.188378-2.4267218-1.3213672l12.260194-22.8815593c.2625328-.8279609.0126414-.8242904-.6905747-.6974976-2.2239897.4009946-5.0134316,1.5303039-7.147276.573979-.5457984-.2446104-.8498433.0778039-.6672971-.9174181l9.5739029-17.8201446c-1.7943147.1557434-8.3734601,1.3300824-9.339531.026059l-.1450063-1.2364597,18.0604035-34.6139334,1.7756743-.8903588,19.3101719,35.5183249.0674264,1.6757312c-3.064734,1.5059613-6.1431631-.390697-9.2677756.0495182-.730112.1028628-.9208298-.3009052-.7807825.7887926l11.1610665,19.1376607c-.3762081,1.9523745-8.188295-.3008706-9.3093901-1.3144211-.4002631-.083944-.3404597.5127013-.2547514.7836825,1.9512468,6.1691966,9.8781046,14.6628269,11.9339629,20.507677.4856161,1.3806172.6068781,2.3133528-1.0440609,2.6291565-4.7721944.9128602-11.9336786-.7731048-17.015601.2077007l-.7939115.5915592v10.3677649h37.7492978v-10.1019248h-8.7727241c-.7938801,0-1.9357774-1.2028519-1.7871549-2.265283.4351923-3.1109815,6.6927243-9.6469133,7.3747623-13.414284-1.6844211-.1228767-3.3141447.5254454-5.0711566.2606212-.6899965-.1039992-.9489682.2969301-.7877101-.7948908.4710956-3.189619,6.3887173-9.5054953,6.3914214-11.6935382l-5.853827-.2743965.0979353-1.2085248c2.1159573-2.5808203,11.5938276-23.9942613,12.9343111-24.3082177.7367732-.1725606,1.1893628.6371056,1.5312703,1.1195394l12.0180412,24.3972344c-.1969054.1918289-4.1075004-.1245601-5.0587684.0017753-.7385095.0980795-.9199814-.2921521-.781905.7898696l7.4271852,11.7061199c-1.6559732,1.7161191-4.2054359.5464477-6.1297838.2821332-.698891-.0959946-1.0535867.0173398-.7645264.7708777,1.3603215,3.5461594,6.3974573,9.2035805,7.2014895,12.4945911.0679844.2782693.2440244.5331804.2396695.8351387l-.8022002,1.3012343h-10.3677649v10.1019248h43.5977806v-14.887047h-25.7864922c-1.7202796,0-1.6190911-2.383906-.9130814-3.5761598,4.3878431-7.0608006,9.2556265-13.9910442,13.3039948-21.2505445.7305817-1.3100731,2.5600669-4.4761407,2.7693035-5.7434098.1494319-.9050539.0587978-.8421159-.7007659-.7049026-2.1914044.3958718-11.2630677,3.2508236-12.0358404.6272465-.4176076-1.4177854,12.8923407-19.0276142,13.7847294-22.2650359.0852304-.8462933.1238974-.8946011-.7182758-.7239054-2.1343139.4325931-9.0023466,3.4830549-10.2058549,1.5473608l-.1534361-1.2216722,14.8112835-25.6474209c.1260841-1.098971-.0630401-.6866844-.7872579-.7940982-2.9069925-.4311561-11.9636154,2.1695957-13.4537033.9492852l-.3893033-1.5472222,27.1825375-51.4779507,2.4341015,2.2607251,26.4041031,51.8053862-.4012046,1.5091455c-2.0429779,2.4409672-11.7889434-1.7855813-14.9375103-1.1097497l15.9486711,29.26919-.5193229,1.0439611c-1.8599278,1.7808273-7.1514322-.5993813-9.7070336-.9494307-.6880756-.0942481-1.0546594-1.001813-.9346355.4050707,1.9848928,4.2712261,13.0402725,16.4521262,13.3163455,20.2380864.0304208.4171792.0774547.8430418-.0985317,1.2368402-1.3363197,2.0954959-11.8461977-1.7972149-14.2837826-1.2657199l17.4818438,26.1321134-.7373423,1.2528113h-27.3815329v14.887047h45.7245016v-10.1019248h-8.2410439c-.7784768,0-3.6391951-1.0291993-2.8322156-2.2817347l7.3489438-13.1340658c-1.88954-.329493-3.8657603.7093155-5.6250002.0634742-.5913997-.217111-.940838.2430926-.7270315-.8326269l6.8916739-12.2545161-5.8368786-.2950025.0711792-1.1932377,12.9433749-23.7778721c1.0268978-.0147649,1.4900681,1.049419,1.9588869,1.7633541,4.3259788,6.5877652,6.9379076,15.8124861,11.5436066,22.4917938.4183654.9273883-1.554418,1.127968-1.9714555,1.149245-1.4180131.0723463-2.6346654-.679619-3.8243861-.1463588.955958,1.543876,7.6604797,12.3011591,6.9075523,13.0261556l-6.3758801-.2658216c1.7773241,3.9827945,6.9712056,9.7848997,8.2720275,13.5290751.1836552.5286174.3439972,1.0389611.2138462,1.6026345-.6550026-.196995-1.5541135.555504-1.8425511.555504h-9.8360846v10.1019248h36.1542571v-10.633605c-5.1284058-1.2850762-11.2314548.2022909-16.1816119-.5663272-.8298312-.1288491-2.4597743-.6092504-2.3595423-1.7274035l11.6364041-21.3649102c.261752-1.689864-2.4525163.0905136-3.5068528.2208861-1.1415546.1411573-3.1209433.2035657-4.2242294.0438905-.7299005-.1056362-.9075008.3029232-.7917571-.7992188,1.0093087-3.048354,11.9169546-19.1937386,10.6371891-20.9995351-1.8935701.5203753-9.4361806,2.1448334-8.9552998-1.2060049l18.7966327-34.4067839,18.7769118,34.9374094.0850133,1.1880129c-2.8875882,1.518708-6.0744238-.3334386-8.7598565.0081141-.7557341.0961197-.9291652-.2637855-.7917757.7996789l10.3322976,17.8487689.2802521,2.0778959c-3.0602247,1.0923485-5.9347212-1.0616717-9.019934-.7810039l12.7633551,22.3746687c.0503393.4550831.045299.9416308-.2317575,1.3242697-.9447539,1.3047867-16.1120857-.2281302-18.9151279,1.0329304-.2574476.2018731.5316138.6746994.5316138.7921826v9.8360846h60.0798684ZM137.1154052,228.5332738c-31.6138745,2.9805037-29.2432661,54.7204525,3.0397627,54.1132383,34.3928652-.6468983,32.2452972-57.4398552-3.0397627-54.1132383ZM259.3154512,266.9682035c-2.2204091,1.7582542-4.3702647,3.615729-6.6844293,5.2636299,4.8019672,7.2585115,12.1932319,11.057126,20.9627081,10.3672594,16.0016487-1.2587985,21.7125197-19.946405,7.8774422-28.5958109-4.1183655-2.5747174-18.5007192-5.6754351-14.5414311-12.6285399,2.7729948-4.8697957,11.7047101-1.5002359,14.7464497,1.8191186l5.9385265-5.9509541c-4.6242535-7.8231455-13.4310433-10.4627033-21.9606826-7.7743507-12.6543983,3.988385-15.0198108,20.7917246-3.3078101,27.7092661,3.4940541,2.0637177,21.4001844,6.6155631,14.4541319,13.2109465-4.6259601,4.3924201-13.3129839.3171013-16.5105363-4.2482924l-.7449636.0206058c-.0284764.2548839-.044926.6610397-.2294055.8071218ZM112.2363654,228.9089569h-32.9641756v52.3705047l.7975204.7975204h10.8994451v-21.26721h15.9504075c-.2901696-.6785506.5316803-1.574984.5316803-1.8608809v-7.7093636l-16.4820878-.5316803v-11.6969655h21.26721v-10.1019248ZM191.1908827,228.9089569c-6.1634449-.7304474-13.6284325.5415644-19.9380094,0v53.1680251h10.8994451l.7975204-.7975204v-17.013768c0-.0677695-.9841446-1.168383.2740246-1.3274003.2890957-.0365382,1.0036765.469601,1.5808851.4201201,1.2541767-.1075136,2.6805359-1.0210523,3.7356135.1048254l9.4044402,18.5013231,12.1201966-.425004-11.1065463-21.0074394c13.9670507-9.0651878,8.7930331-29.6605173-7.7675698-31.6231616ZM247.8148295,239.0108817v-8.7727241c0-.1319585.4326072-.315738.4169999-.5316803l-.68284-.7975204h-31.6349749v52.3705047c.4666516.7586358,1.0597044.733729,1.8338109.8245904,5.5828105.6552872,11.4932678-.5118944,17.0153784-.5839733,4.5014784-.0587569,8.7672006,1.161354,13.0516258.0252231v-10.1019248h-20.7355298v-10.8994451l.7975204-.7975204h18.8746489v-9.5702445h-19.140489c-.4747055-3.6852926-.5263544-7.2417858-.0280882-10.9157798l20.2319378-.2495054ZM328.0985474,228.9089569h-36.1542571v10.1019248h10.8994451c.1757993,0,.8072442.7043143,1.3292006.5316803v42.5344201h10.8994451l.7975204-.7975204v-42.26858l11.3672374.5631804c.2296822-.0654372.8614083-1.7488641.8614083-1.892381v-8.7727241ZM107.9829234,299.6224303h-24.9889718l6.3705255,6.6460031-9.013626,9.5394433,5.5673419,5.6038064c.677002-.0000028,7.7771084-8.5378906,9.3088215-9.3264105.4095793-.2108498.6538596-.3547265,1.0545262,0l21.8068997,21.3456439-.3728324,1.3159977-7.0652288,7.144295,7.1764156,4.5271181,6.9014981-6.9176293,21.5563139,20.9784157,14.6123853,4.0629277c8.1778733-6.6955869,14.3576045-15.3808239,22.7773888-21.8150553.6308553.1101594,8.8060999,8.4126938,9.1233972,8.9893839.2059989.3744046.3720174.544582.251055,1.064156-2.1596864,1.2991719-4.5507651,3.6499837-6.3914394,5.5782895-2.1693987,2.2726803-5.9520805,5.9750717-7.698563,8.2517462-.4090361.53321-1.0312995.6741952-.7914511,1.5958329l10.0856397.8164162,11.4436247-10.9326366c2.7984449,1.5697102,9.2584638,11.0251681,12.2024701,11.1121792,2.5075618.0741118,6.1461307-1.0805895,8.8000074-.9983628-1.5330749-3.8458533-13.7365947-12.8288361-14.2451792-15.7740604-.1957006-1.1333067,7.8566455-9.4445087,8.7693143-9.6847976,1.7821421-.4692051,4.7998727,4.3101171,5.9935347,5.5400663,5.4054271,5.5697517,10.9469109,11.1186608,16.7484083,16.2552522l14.7963316-3.7446113,20.9127679-21.2589362,7.9779617,7.3517584,7.102128-4.2099579-7.938233-9.2210086,22.0275795-21.6253782c1.7126639.0036561,8.4322616,9.0675377,10.2086857,9.532409.9696358.2537434,5.2950802-3.8039229,5.7733664-4.7329438.2631282-.511099.2631084-.5434384-.0000016-1.0545276-.9488983-1.8432281-9.0818514-8.1479176-9.2975542-9.3815679l5.2783093-6.5732566h-23.393931l5.3071672,6.1147789-23.3745468,22.5961778-21.7993007-22.0658785,6.3708245-6.6450782h-24.4572915l5.8100283,6.5730256-11.392671,11.4944655-17.5164674-17.5647916-21.1890927-.3956013c-6.9274198,5.0556518-11.5648037,12.4586188-18.61622,17.3678071l-10.9606768-10.9018807,5.8100275-6.5730246h-24.9889718l5.8099322,6.5729572-21.494501,22.12818-22.5579548-22.1281115,5.8100283-6.5730256Z"></path>
  <path d="M233.9911429,95.4572139c-.2260651-1.7381982,1.5098044-2.8816816,2.6509502-3.9950535,8.6208054-8.4109872,21.6627876-19.9750323,31.1268561-27.3583448,3.5650836-2.7812697,4.0907007-1.282083,7.1692686,1.3057927,9.3868993,7.8907236,21.2190588,17.9915981,29.7878303,26.5703058.7289637.729809,1.1685292,1.6561913,1.8459841,2.4231178l-.5382154,1.0541821h-72.042674ZM287.6908483,87.4820102l-17.2795197-15.4103131-17.2796967,15.4103131h34.5592163Z"></path>
  <path d="M161.6826288,95.4572139h-62.7382696c-.0663746-1.5379965,1.6488032-3.3215907,2.6738956-4.5276155,7.3035321-8.5926308,17.0087723-17.698263,24.9592128-26.0582467.6888864-.7243723,2.6173891-2.9282793,3.4701984-2.9287393l1.3546864.793087c7.8241573,8.7662497,16.8163017,16.5954755,24.7050649,25.2705599,1.9197324,2.1110838,4.7028517,4.8833026,5.5752115,7.4509546ZM117.2873278,86.9503299c8.3048572-.3822124,17.1484921,0,25.520652,0,.0672554,0,1.4070818,1.0442529,1.3185723-.2658649-.0659172-.9757061-12.3115236-12.0085427-14.0788991-13.5765815-5.0014836,3.8926475-8.8782228,9.271814-13.5537747,13.5834365-.1285642,1.625699.5500374.2702125.7934495.25901Z"></path>
  <circle cx="343.2509337" cy="165.613469" r="6.0131602"></circle>
  <path d="M145.0760563,112.0421217c7.7080096-1.1213235,8.9547167,10.8498215,1.4029927,11.5865451-7.7375193.7548492-8.2893973-10.5847447-1.4029927-11.5865451Z"></path>
  <circle cx="259.3360237" cy="118.7131563" r="5.7064368"></circle>
  <circle cx="59.5719155" cy="146.1073613" r="5.6341818"></circle>
  <circle cx="168.7165251" cy="56.193589" r="5.5717827"></circle>
  <circle cx="232.896314" cy="56.0688956" r="5.3158655"></circle>
  <circle cx="321.2361082" cy="111.7581909" r="4.5381862"></circle>
  <circle cx="80.0872257" cy="111.8198196" r="4.5113758"></circle>
  <rect x="138.564047" y="317.7391539" width="31.1689599" height="34.66125" transform="translate(-191.8047641 207.2032647) rotate(-45.0106214)"></rect>
  <rect x="227.3439623" y="319.6641515" width="34.2799947" height="30.8746141" transform="translate(-165.3535714 271.0812101) rotate(-45.0078289)"></rect>
  <rect x="182.90435" y="307.1750229" width="32.9145376" height="32.3853653" transform="translate(-170.2764289 235.7352814) rotate(-45.0082341)"></rect>
  <path d="M137.6176797,239.1419255c17.3382521-2.6393432,21.63948,26.6805698,5.9721637,32.0204505-19.0863272,6.5051798-23.7710426-29.3109877-5.9721637-32.0204505Z"></path>
  <path d="M182.9498388,253.3662485v-14.3553668c16.7370393-2.3406987,16.4972079,17.3840623,0,14.3553668Z"></path>
</svg>
