<?xml version="1.0" encoding="UTF-8"?>
<svg xmlns="http://www.w3.org/2000/svg" xmlns:xlink="http://www.w3.org/1999/xlink" id="Ebene_1" version="1.1" viewBox="0 0 400 400">
  <defs>
    <clipPath id="clippath">
      <rect x="28.8942073" y="10" width="342.2116062" height="379.3528555" fill="none"></rect>
    </clipPath>
    <clipPath id="clippath-1">
      <rect x="27.6849768" y="10" width="344.6300465" height="380" fill="none"></rect>
    </clipPath>
    <clipPath id="clippath-2">
      <rect x="39.7772614" y="23.4715767" width="320.445498" height="352.7923371" fill="none"></rect>
    </clipPath>
    <clipPath id="clippath-3">
      <rect x="49.451085" y="31.5488435" width="301.0978301" height="334.6539136" fill="none"></rect>
    </clipPath>
    <clipPath id="clippath-4">
      <rect x="48.2418613" y="31.5488435" width="303.5162912" height="334.6539136" fill="none"></rect>
    </clipPath>
    <clipPath id="clippath-5">
      <rect x="55.4972307" y="38.6766771" width="289.0055524" height="318.6269159" fill="none"></rect>
    </clipPath>
    <clipPath id="clippath-6">
      <rect x="55.4972307" y="38.0673394" width="289.0055524" height="319.2362536" fill="none"></rect>
    </clipPath>
    <clipPath id="clippath-7">
      <rect x="49.451085" y="265.917114" width="301.0978301" height="100.2856431" fill="none"></rect>
    </clipPath>
    <clipPath id="clippath-8">
      <rect x="48.2418613" y="265.917114" width="303.5162912" height="100.2856431" fill="none"></rect>
    </clipPath>
    <clipPath id="clippath-9">
      <rect x="247.7739715" y="115.7177322" width="54.4058326" height="140.5727821" fill="none"></rect>
    </clipPath>
    <clipPath id="clippath-10">
      <rect x="97.8202235" y="115.7177322" width="54.3963671" height="140.5727821" fill="none"></rect>
    </clipPath>
    <clipPath id="clippath-11">
      <rect x="131.6786094" y="119.6949641" width="138.9053651" height="140.2704797" fill="none"></rect>
    </clipPath>
    <clipPath id="clippath-12">
      <rect x="131.6786094" y="123.3226488" width="138.9053651" height="135.4335575" fill="none"></rect>
    </clipPath>
  </defs>
  <g clip-path="url(#clippath)">
    <path d="M367.2844566,62.842341L200.0330716,10.8360783,32.7816866,62.842341S-7.9116788,323.7049988,200.0330716,388.767148C407.9022452,323.7049988,367.2844566,62.842341,367.2844566,62.842341Z" fill="#20282d"></path>
  </g>
  <g clip-path="url(#clippath-1)">
    <path d="M200.0330716,389.603216l-.2267303-.0755768c-47.603916-14.879176-86.0205313-41.3782798-114.2626244-78.6565201-22.5454943-29.8339287-38.6433456-66.578408-47.9062231-109.3217932-8.2000792-37.9631547-9.2628775-73.7204125-8.8046933-96.9508212.5290374-25.2048517,3.1128181-41.7561637,3.1128181-41.9073172l.0755768-.5337609L200.0330716,10.0000104l167.9362995,52.232993.0755768.5337609c0,.1511535,2.5837807,16.6268887,3.1128181,41.9073172.5337609,23.3059855-.6093377,58.9876665-8.8046933,96.9508212-9.1873007,42.6678084-25.3607288,79.4878645-47.9062231,109.3265168-28.2420931,37.2735167-66.6587083,63.7726206-114.2626244,78.6517965h-.1511535ZM33.5374543,63.4469551c-.4534606,2.9616646-2.5034804,18.525755-3.0372413,41.2271263-.5290374,23.2304087.6093377,58.7609362,8.7338401,96.5682138,9.1873007,42.5166549,25.2048517,79.0344039,47.5991925,108.6463259,27.939786,36.9712096,66.0540942,63.1632829,113.1998261,77.9668821,47.1457319-14.8035992,85.1844633-40.9956725,113.1951025-77.9668821,22.3990643-29.611922,38.4166153-66.2052477,47.603916-108.6463259,8.1245024-37.8072776,9.2628775-73.4133819,8.7338401-96.5682138-.5337609-22.7013713-2.5837807-38.2654618-3.0372413-41.2271263L200.0330716,11.6721463,33.5374543,63.4469551Z" fill="#20282d"></path>
  </g>
  <path d="M355.4189042,72.5634026L200.0330716,24.2462309,44.647239,72.5634026S6.8446849,314.9144762,200.0330716,375.361719c193.1175335-60.4472428,155.3858326-302.7983163,155.3858326-302.7983163Z" fill="#ededed"></path>
  <g clip-path="url(#clippath-2)">
    <path d="M200.0330716,376.1363808l-.2125597-.0708532c-44.2218557-13.8258248-79.9129838-38.440233-106.1522926-73.0732864-20.9489351-27.7177792-35.8989642-61.8548601-44.5052686-101.5657275-7.6190828-35.2660088-8.6063043-68.4867214-8.181185-90.0686119.491249-23.4193506,2.8908113-38.7944991,2.8908113-38.9362056l.0708532-.491249L200.0330716,23.471569l156.018788,48.5297314.0708532.491249c0,.1417064,2.3995623,15.4460017,2.8908113,38.9362056.4959725,21.6527437-.5621022,54.8026031-8.181185,90.0686119-8.5354511,39.6400142-23.5563335,73.8479483-44.5052686,101.5657275-26.2393087,34.6330534-61.9304369,59.2474617-106.1522926,73.0732864h-.1417064ZM45.3557712,73.1255049c-.4251193,2.7538284-2.3287091,17.2126086-2.8246817,38.3032501-.491249,21.5818905.5668258,54.5900434,8.1150553,89.7143458,8.5307276,39.4983078,23.4146271,73.4275525,44.2218557,100.9327721,25.9558959,34.3496405,61.3636111,58.6853594,105.1650711,72.440331,43.8014599-13.7549716,79.138322-38.0906905,105.1650711-72.440331,20.8072286-27.5052196,35.6911281-61.5053176,44.2218557-100.9327721,7.5482296-35.1243024,8.6063043-68.2033085,8.1150553-89.7143458-.4959725-21.0906415-2.3995623-35.5494217-2.8246817-38.3032501L200.0330716,25.0256163,45.3557712,73.1255049Z" fill="#ededed"></path>
  </g>
  <g clip-path="url(#clippath-3)">
    <path d="M347.4975143,78.1371892l-147.4691663-45.8514797L52.5639053,78.1371892s-35.8800701,230.0037192,147.4644427,287.3712088c183.2783831-57.3674896,147.4691663-287.3712088,147.4691663-287.3712088Z" fill="#20282d"></path>
  </g>
  <g clip-path="url(#clippath-4)">
    <path d="M200.028348,366.2452715l-.198389-.0661297c-41.9734469-13.1220161-75.8460091-36.4846842-100.7438302-69.3511307-19.8814132-26.3054384-34.0756747-58.7042536-42.2379656-96.3934426-7.2317519-33.4663371-8.1670144-64.9960195-7.7655128-85.4820468.4676312-22.224293,2.7443813-36.8153325,2.7443813-36.9475919l.0661297-.4676312L200.028348,31.548836l148.0690569,46.0545923.0661297.4676312c0,.1322593,2.2767501,14.6571692,2.7491049,36.9523154.4676312,20.5474335-.5384845,52.0109862-7.7655128,85.4773233-8.1008847,37.6230592-22.3612759,70.0880041-42.2426891,96.3934426-24.8978211,32.8664465-58.7703833,56.2291145-100.7391066,69.3511307h-.1369829ZM53.2299256,78.6709501c-.4015016,2.612122-2.2058969,16.3340287-2.6782517,36.3524248-.4676312,20.4813038.5384845,51.8078737,7.6993831,85.1466749,8.1008847,37.4860764,22.224293,69.681779,41.9734469,95.7888284,24.6333024,32.5972042,58.2366224,55.6906301,99.8038442,68.7465165,41.5719453-13.0558865,75.104412-36.1493123,99.8085677-68.7465165,19.7444303-26.1070494,33.8678386-58.3736053,41.9687233-95.7888284,7.1656222-33.3388013,8.1670144-64.7315008,7.6993831-85.1466749-.4676312-20.0183961-2.2767501-33.7403028-2.6782517-36.3524248l-146.7984225-45.6483672L53.2299256,78.6709501Z" fill="#20282d"></path>
  </g>
  <g clip-path="url(#clippath-5)">
    <path d="M340.8562059,82.5584301l-140.8278579-43.7872893L59.1957666,82.5584301s-34.2646167,219.6497022,140.8325814,274.4381346c175.0310684-54.7884324,140.8278579-274.4381346,140.8278579-274.4381346Z" fill="#ff3131"></path>
  </g>
  <g clip-path="url(#clippath-6)">
    <path d="M200.028348,357.7003733l-.1936655-.0661297c-40.0840277-12.5268491-72.4308839-34.8408895-96.2092242-66.2288655-18.9886627-25.1198279-32.5405217-56.0637903-40.3390993-92.052502-6.9011035-31.9642488-7.7985776-62.0721433-7.4159702-81.6323553.4487371-21.2276244,2.6215691-35.1620908,2.6215691-35.2896266l.0661297-.4487371,141.4702604-43.9148251,141.4041307,43.9809548.0614061.4440135c0,.1322593,2.1775556,14.0005961,2.6215691,35.2896266.4487371,19.6263416-.5101432,49.67283-7.4159702,81.6323553-7.732448,35.9273055-21.3504366,66.9326741-40.3343758,92.0572256-23.7830638,31.387976-56.12992,53.6972928-96.2092242,66.2288655h-.1275358ZM59.8334456,83.0685732c-.3826074,2.4940333-2.1067024,15.5971553-2.5554394,34.7133537-.4487371,19.560212.5101432,49.4791645,7.3498406,81.3158776,7.7371715,35.7997697,21.2276244,66.5453432,40.0840277,91.4762292,23.5232687,31.1329044,55.6150533,53.1871497,95.3164736,65.6525926,39.6966968-12.465443,71.7223517-34.5196883,95.3117501-65.6525926,18.8611269-24.930886,32.3468562-55.7425891,40.0840277-91.4762292,6.8396974-31.836713,7.7985776-61.8170717,7.3498406-81.3158776-.4487371-19.1161985-2.172832-32.2193204-2.5554394-34.7133537l-140.1901789-43.5983474L59.8334456,83.0685732Z" fill="#ff3131"></path>
  </g>
  <g clip-path="url(#clippath-7)">
    <path d="M347.4975143,78.1371892l-147.4691663-45.8514797L52.5639053,78.1371892s-35.8800701,230.0037192,147.4644427,287.3712088c183.2783831-57.3674896,147.4691663-287.3712088,147.4691663-287.3712088Z" fill="#20282d"></path>
  </g>
  <g clip-path="url(#clippath-8)">
    <path d="M200.028348,366.2452715l-.198389-.0661297c-41.9734469-13.1220161-75.8460091-36.4846842-100.7438302-69.3511307-19.8814132-26.3054384-34.0756747-58.7042536-42.2379656-96.3934426-7.2317519-33.4663371-8.1670144-64.9960195-7.7655128-85.4820468.4676312-22.224293,2.7443813-36.8153325,2.7443813-36.9475919l.0661297-.4676312L200.028348,31.548836l148.0690569,46.0545923.0661297.4676312c0,.1322593,2.2767501,14.6571692,2.7491049,36.9523154.4676312,20.5474335-.5384845,52.0109862-7.7655128,85.4773233-8.1008847,37.6230592-22.3612759,70.0880041-42.2426891,96.3934426-24.8978211,32.8664465-58.7703833,56.2291145-100.7391066,69.3511307h-.1369829ZM53.2299256,78.6709501c-.4015016,2.612122-2.2058969,16.3340287-2.6782517,36.3524248-.4676312,20.4813038.5384845,51.8078737,7.6993831,85.1466749,8.1008847,37.4860764,22.224293,69.681779,41.9734469,95.7888284,24.6333024,32.5972042,58.2366224,55.6906301,99.8038442,68.7465165,41.5719453-13.0558865,75.104412-36.1493123,99.8085677-68.7465165,19.7444303-26.1070494,33.8678386-58.3736053,41.9687233-95.7888284,7.1656222-33.3388013,8.1670144-64.7315008,7.6993831-85.1466749-.4676312-20.0183961-2.2767501-33.7403028-2.6782517-36.3524248l-146.7984225-45.6483672L53.2299256,78.6709501Z" fill="#20282d"></path>
  </g>
  <path d="M160.0057214,335.7783701h79.9885669" fill="none" stroke="#ededed" stroke-linecap="round" stroke-width="4"></path>
  <path d="M74.2856862,109.2489527l3.8166267,5.517104,9.4093075-6.4996019,3.15533,4.5912886-9.4093075,6.4996019,7.3687348,10.6563241-5.2147969,3.5898964-17.6282809-25.526053,16.4190526-11.336515,3.2875894,4.7613363-11.2042557,7.7466186Z" fill="#20282d"></path>
  <path d="M124.0027158,104.1419859c-.3164777,2.3806682-1.1336515,4.4165173-2.4562449,6.1028239-1.3131463,1.6910296-3.2309068,3.1647765-5.7627285,4.4212409-8.6157514,4.2606397-15.3090185,1.5634949-20.0845258-8.0867141-2.4562449-4.9361076-3.1742242-9.1258946-2.1539379-12.5646375s3.5851732-6.1784007,7.689936-8.2189734c2.7207636-1.3462112,5.1628373-1.9838901,7.3309464-1.9083134,2.1775556.0661297,4.0811454.6235083,5.7060459,1.6815831l-2.7207636,5.5926807c-1.1242033-.6424025-2.0594669-1.0439041-2.8152346-1.2092283-.7463211-.1747713-1.5068124-.198389-2.2861972-.0755768-.7841084.1275358-1.6532412.4251193-2.6073985.888027-2.2814739,1.1336515-3.6513023,2.7302107-4.1189338,4.7802305-.4770781,2.0405727.1275361,4.7566128,1.8138424,8.1433966,1.5587714,3.1742242,3.2923126,5.2714795,5.1959027,6.2917658,1.8988657,1.0108381,4.0716995.9069212,6.5184961-.3023071,1.6485182-.8171738,2.7774462-1.7666058,3.3820603-2.8530229.6046141-1.0816925,1.0202864-2.3287091,1.2470167-3.74105l6.1217181,1.0580747Z" fill="#20282d"></path>
  <path d="M162.5830443,89.0726646c.741597,3.0230707.2456245,5.4934862-1.4926411,7.4065231-1.7382656,1.9035904-4.4543057,3.3017603-8.1433966,4.1945106l-11.3176208,2.7774462-7.3687348-30.1362358,10.6374299-2.6073985c3.8638611-.9447096,6.7688442-1.0580747,8.7102224-.3400955,1.9508253.7179793,3.2214608,2.2956443,3.8166267,4.7235479.4534606,1.8799721.3637132,3.5095961-.2645187,4.8935957-.6187848,1.3745524-1.8421825,2.4940333-3.6654732,3.3631661,2.6073985-.2645187,4.6385241.0897474,6.1028239,1.0580747,1.4595763.973052,2.4562449,2.5270981,2.9852823,4.6668654ZM151.5488363,77.9628799c-.2786893-1.1430986-.8974753-1.8327366-1.8516308-2.0594669-.9447096-.2361774-2.3050914-.1369829-4.0811454.3023071l-3.9110977.9447096,1.5871121,6.4618136,3.74105-.9069212c1.8138424-.43929,3.0986474-1.0250099,3.8544151-1.7571598.7557677-.7274264.9730497-1.724095.6612967-2.9852823ZM156.1779133,90.0551626c-.3306472-1.3462112-1.0202864-2.182278-2.0783611-2.5129275-1.0580747-.3400955-2.843577-.2078361-5.3470563.396778l-4.1567222,1.0202864,1.8327366,7.5387825,3.0986474-.7557677c2.4042859-.5904429,4.0291864-1.1147573,4.8747015-1.5682179.8549622-.4534606,1.4217879-1.0061157,1.7004773-1.6626889.2881364-.6518508.3117553-1.473747.0755768-2.4562449Z" fill="#20282d"></path>
  <path d="M183.7655035,95.7593313l-14.8886231,1.6437947-.5290374-4.8180189,4.3078757-.4723548-2.3428798-21.1992831-4.3078757.4723548-.5290374-4.8180189,14.8886231-1.6437947.5290374,4.8180189-4.2700873.4723548,2.3428798,21.1992831,4.2700873-.4723548.5290374,4.8180189Z" fill="#20282d"></path>
  <path d="M210.3103985,73.4053991c-.7557677-1.2942521-1.7004773-2.267303-2.8341288-2.9097055-1.1242044-.6424025-2.5412699-.9872215-4.2511931-1.0391805-2.8246828-.0755768-4.8888721.784109-6.1972949,2.5696101-1.3131475,1.776054-2.0169555,4.4590292-2.1161495,8.0489257-.089748,3.5662787.4629071,6.1925719,1.6626889,7.8788779,1.2092283,1.6768601,3.1978419,2.5507159,5.9705646,2.6262926,2.087807.0519593,4.0291864-.3306478,5.819411-1.1525457l.1133652-4.8180189-6.0461413-.1511535.1511535-5.5926807,12.3756956.3212013-.3589896,13.7360774c-1.4501292,1.0344573-3.249801,1.8469075-5.4037388,2.4373507-2.1444908.6046141-4.3409405.8738561-6.5940729.8124502-4.8510837-.1275361-8.4645979-1.4784702-10.845266-4.0622512-2.3806682-2.5932272-3.504872-6.660202-3.3631661-12.2056478.2881361-10.9444605,5.2525853-16.2915168,14.8886231-16.0411688,2.8057875.0755768,5.2431382.6187848,7.3120522,1.6249005,2.0641904.9966686,3.6135142,2.413733,4.6479712,4.2511931l-4.931384,3.6654732Z" fill="#20282d"></path>
  <path d="M231.0789337,72.965205l-1.1714399,6.6129671,11.2609383,2.0027843-.9636038,5.4982098-11.2609383-2.0027843-2.267303,12.7535794-6.2350833-1.0958631,5.4037388-30.551908,19.6499594,3.4765313-1.0013922,5.6871517-13.4148761-2.3806682Z" fill="#20282d"></path>
  <path d="M273.284378,94.5058289c-1.7004773,5.1156027-4.0575277,8.5826863-7.0664277,10.4106996-3.0136236,1.8374596-6.5751787,2.0689134-10.6941125.6990851-4.3598347-1.4501295-7.1183873-3.8544151-8.275656-7.2175812-1.1478227-3.3726126-.9163689-7.4868229.6990851-12.3379072,1.6249005-4.8747015,3.9016494-8.3039973,6.8396974-10.2973345,2.9474939-1.9886137,6.5987965-2.2578559,10.9586312-.8124502,4.3834525,1.4642999,7.1420045,3.8685858,8.275656,7.2175812,1.1336515,3.3537179.888027,7.4632057-.7368735,12.3379072ZM267.1059773,92.446362c1.1714399-3.4859795,1.5209824-6.1878466,1.0580747-8.1056082-.4534606-1.9272076-1.8516308-3.2781434-4.1945106-4.0622512-2.3570504-.7935561-4.2984298-.5526551-5.819411.7179793-1.5115353,1.2611873-2.8530229,3.6371331-4.0244628,7.1231103-1.1619916,3.4907025-1.5068118,6.1972949-1.0391805,8.1245024.4770783,1.9272076,1.8799732,3.2828661,4.2134048,4.0622512,2.3428798.7793851,4.2700873.538485,5.7816227-.7179793,1.5209824-1.2706341,2.86247-3.6513023,4.0244628-7.1420045Z" fill="#20282d"></path>
  <path d="M302.267689,109.1561985c-2.5082039,4.7707828-5.3990153,7.8221954-8.672434,9.1447888-3.2639716,1.3225934-6.8160797.9730514-10.6563241-1.0391805-4.0716977-2.1303207-6.405131-4.945555-7.0097451-8.4457037-.6046141-3.5143197.2834129-7.5293348,2.664081-12.0544943,2.3806682-4.5582237,5.1770085-7.586018,8.3890211-9.0881062,3.2214597-1.4973647,6.8680387-1.180887,10.939737.9447096,4.0905925,2.1444896,6.4334723,4.9644489,7.0286393,8.4645979.5904435,3.4907025-.3023071,7.5151653-2.6829752,12.0733885ZM296.5049605,106.1331278c1.7004773-3.2592475,2.4751391-5.8808166,2.3239856-7.8599838-.1417064-1.9744419-1.3036992-3.5379374-3.4954255-4.6857595-2.2058969-1.1430974-4.1567222-1.2139518-5.8571994-.2078361-1.7004773,1.0108381-3.4009545,3.1458841-5.1014318,6.405131-1.7146479,3.249801-2.4940333,5.8713704-2.3428798,7.8599838.1606018,1.974443,1.327317,3.5332138,3.4954255,4.6668654,2.1917262,1.1430992,4.137828,1.2139515,5.8383052.2078361,1.7099243-1.0108398,3.4245722-3.1364358,5.1392201-6.3862368Z" fill="#20282d"></path>
  <path d="M324.7228999,113.1819617l-14.9453056,20.3490445-5.1014318-3.74105,14.9453056-20.3490445-7.689936-5.6493633,3.4198487-4.6479712,20.4813038,15.0397766-3.4198487,4.6479712-7.689936-5.6493633Z" fill="#20282d"></path>
  <g clip-path="url(#clippath-9)">
    <path d="M101.2353431,204.8935978h-.1228122v.1228122c.29286,3.5332138,1.8988663,6.7735677,4.5298825,9.163683,2.6357397,2.361774,6.0461413,3.6276848,9.5793552,3.5568316h.0236177c.8313444,2.6310162,1.7807776,5.2620324,2.8766407,7.8458131-.9494331-1.2659108-2.0972553-2.3145385-3.4340193-3.1931184-2.9758352-1.922484-6.5326668-2.6546339-10.0186452-2.0216785l-.1228122.0236177.0236177.1228122c.8313444,3.4387429,2.9285997,6.4098545,5.8997114,8.3370621,2.9758352,1.922484,6.5326668,2.6546339,10.0186452,2.0216785h.0236177c.14643.3164777.3164777.6093377.4629077.9258154,1.0958631,2.1444908,2.3145385,4.2889815,3.6560261,6.4334723-1.1478221-1.1194809-2.4893098-2.0216785-3.9488861-2.6546339-3.2403539-1.4406821-6.8491445-1.5871121-10.2123106-.4156722l-.0991945.0472355.051959.0991945c1.3651054,3.2639716,3.896927,5.8713701,7.1372809,7.3120522,3.2450774,1.4359586,6.8491445,1.5823886,10.2123106.4109487l.051959-.0236177c1.629624,2.2909207,3.3867839,4.534606,5.2147969,6.655479-1.3178699-.9258154-2.7774462-1.6343476-4.3409405-2.0500198-3.4104016-.9258154-7.0191922-.5101432-10.1367339,1.1714399l-.0991945.0472355.051959.0991945c1.8752485,3.0230707,4.775507,5.1911792,8.1859086,6.0933768,3.4151252.9258154,7.0191922.5101432,10.1414574-1.1714399l.0472355-.0236177c3.2403539,3.3159306,6.7263322,6.3626191,10.3587406,9.0928298l.094471.0708532,1.1242044-1.4879176-.0991945-.0708532c-3.5568316-2.6829752-6.9199977-5.6304691-10.0422629-8.8235875,2.2200675-2.7302107,3.3159306-6.16423,3.0703062-9.6738262-.2409009-3.5332138-1.7996718-6.801909-4.4070702-9.2109185l-.0755768-.0755768-.0708532.0991945c-2.2436853,2.7538284-3.3395484,6.1878478-3.0986474,9.7210616.1747713,2.3901153.9541567,4.6574183,2.2436853,6.6318613-2.3381562-2.5837807-4.534606-5.2903737-6.5326668-8.1150553,2.6073985-2.3664975,4.241746-5.5832336,4.534606-9.069212.3164777-3.5332138-.7321499-6.9955745-2.9238762-9.7966384l-.0755768-.094471-.0708532.0708532c-2.6546339,2.361774-4.2889815,5.6068514-4.5818415,9.1164475-.2220068,2.4373507.2172832,4.8227424,1.2186754,6.9908509-1.7807776-2.6782517-3.3867839-5.4556979-4.8510837-8.3087208-.1228122-.2692422-.2409009-.5101432-.3873309-.7793854,2.9474939-1.9035898,5.0683669-4.8510837,5.9186056-8.2614853.8549622-3.4387429.3920545-7.04281-1.3367641-10.1131161l-.051959-.0991945-.094471.0708532c-2.9758352,1.9272076-5.0967082,4.8510837-5.9705646,8.2898266-.5857199,2.3853917-.5384845,4.8463602.1417064,7.1656222-1.4595763-3.2450774-2.7254872-6.5326668-3.7741148-9.8722152,3.2167361-1.4359586,5.7768991-3.9961215,7.1420045-7.2364754,1.3887231-3.2686952,1.4595763-6.89638.2409009-10.2123106l-.0472355-.0991945-.0991945.0472355c-3.2403539,1.4170644-5.8005169,4.0008451-7.1892399,7.2648167-.9730509,2.2909207-1.2895286,4.7518892-.9730509,7.1892399-.9541567-3.4104016-1.6815831-6.89638-2.1964498-10.4295938,3.4151252-.9021977,6.3153836-3.0466884,8.1906321-6.0225236,1.8752485-2.9947294,2.5365452-6.5799023,1.8516308-10.0375393l-.0236177-.1228122-.1228122.0236177c-3.4340193.9021977-6.3626191,3.0466884-8.2378676,6.0461413-1.2659108,2.0216785-1.974443,4.336217-2.068914,6.6743732-.344819-3.1411594-.5148667-6.3342778-.5148667-9.5273962v-.8549622c3.4859784-.3637132,6.6790968-2.0216785,8.9700175-4.6763124,2.3381562-2.6829752,3.5332138-6.0933768,3.3867839-9.6265907v-.1228122h-.1228122c-3.5332138.3400955-6.74995,2.0216785-9.0644885,4.681036-1.5351531,1.776054-2.5837807,3.8496916-3.0703062,6.1169946.1700477-3.4387429.5337609-6.8255268,1.0958631-10.1886929.2456245.0236177.5101432.0236177.7557677.0236177,3.2403539,0,6.3626191-1.1194809,8.870823-3.2167361,2.706593-2.267303,4.4354115-5.4604214,4.8510837-8.9936353l.0236177-.1228122h-.1228122c-3.5332138-.1936655-6.9955745.9258154-9.6974439,3.2167361-1.8516308,1.5634944-3.2403539,3.5615551-4.0716983,5.7768991.7085322-3.4340193,1.6107298-6.7971855,2.7302107-10.1131161.9730509.2172832,1.9508253.3164777,2.9238762.3164777,2.4845862,0,4.9219369-.6565732,7.1183867-1.974443,3.0466884-1.828013,5.2384147-4.7046537,6.1878478-8.1150553l.0236177-.0991945-.1180887-.0236177c-3.4623606-.7557677-7.0475335-.1700477-10.0894984,1.6579653-2.0736375,1.2422931-3.7552206,2.9994529-4.9266605,5.0683669,1.2422931-3.2403539,2.6593575-6.4334723,4.2889815-9.5510139,3.2923129,1.2659108,6.8727622,1.2422931,10.1414574-.0755768,3.2875894-1.3131463,5.9186056-3.8260738,7.3829054-7.04281l.0472355-.094471-.094471-.051959c-3.2923129-1.2895286-6.9247213-1.2659108-10.2123106.051959-2.1681085.8738564-4.0197393,2.2389617-5.4840391,4.0197393,1.7288185-2.9758352,3.6087906-5.8241346,5.6068514-8.5307276,3.0466884,1.7524363,6.5799023,2.267303,9.9903039,1.4879176,3.4623606-.8077267,6.4334723-2.8530229,8.4079153-5.8005169l.0755768-.0991945-.0991945-.0472355c-3.0703062-1.7807776-6.655479-2.3381562-10.0894984-1.5351531-2.1917262.5101432-4.2181283,1.5351531-5.9233291,2.9947294,1.2942521-1.5823886,2.6593575-3.1411594,4.0197393-4.6054592,3.6560261-.29286,6.9719567-1.776054,9.6029729-4.2889815,2.9002584-2.7774462,4.6054592-6.5043255,4.8038482-10.5287883v-.1228122h-.1228122c-4.0197393.0283413-7.8221954,1.5871121-10.7224538,4.3645583-2.5365452,2.4373507-4.1425515,5.5312746-4.6574183,8.9936353-1.1194809,1.1950576-2.2389617,2.4373507-3.3395484,3.7268793.784109-1.5115353,1.2706344-3.1411594,1.4642999-4.8463602.3637132-3.5095961-.6093377-7.0191922-2.7538284-9.8485974l-.0708532-.0991945-.0991945.0755768c-2.706593,2.3145385-4.388176,5.5312746-4.7518892,9.0408707-.3684367,3.5095961.6093377,7.0191922,2.7538284,9.8485974l.0472355.0708532c-1.6815831,2.267303-3.2875894,4.629077-4.775507,7.04281.4865254-1.5587708.7038086-3.1931184.6093377-4.8227424-.1700477-3.5379374-1.6815831-6.8491445-4.2653638-9.2864952l-.0755768-.0755768-.0708532.0991945c-2.2909207,2.706593-3.4623606,6.1406123-3.2639716,9.6738262.1700477,3.5332138,1.6815831,6.8255268,4.2370225,9.2864952l.051959.0472355c-1.3178699,2.4893098-2.5129275,5.0447492-3.5615551,7.6049122.2220068-1.5823886.1747713-3.1695007-.1700477-4.7282715-.7321499-3.4576371-2.7302107-6.4807078-5.6540869-8.5023863l-.094471-.0755768-.051959.0991945c-1.8516308,3.0183471-2.4609685,6.60352-1.7288185,10.0658806.7321499,3.4576371,2.7302107,6.4807078,5.6540869,8.5023863l.0236177.0236177c-.9021977,2.6593575-1.6579653,5.3895682-2.3145385,8.1433966-.0236177-1.6107298-.3164777-3.1931184-.9021977-4.7046537-1.2659108-3.3159306-3.7268793-5.9705646-6.9199977-7.5057177l-.0991945-.051959-.0472355.0991945c-1.3414876,3.2923129-1.3887231,6.89638-.1228122,10.2123106s3.7268793,5.9705646,6.9199977,7.5057177l.051959.0236177c-.4629077,2.7774462-.8077267,5.6304691-1.0013922,8.4834921-.2692422-1.6343476-.8266209-3.1695007-1.6343476-4.6054592-1.7524363-3.0750297-4.6054592-5.3139914-7.9922431-6.3390013l-.0991945-.0236177-.0236177.1228122c-.8266209,3.4576371-.29286,7.04281,1.4642999,10.1131161,1.7524363,3.0703062,4.6054592,5.3139914,7.9922431,6.3342778l.0755768.0283413v.9966686c0,2.4609685.094471,4.973896.3164777,7.4820999-.5148667-1.5351531-1.2942521-2.9711116-2.3145385-4.241746-2.2200675-2.7538284-5.3895682-4.5298825-8.8991643-5.0211314l-.1180887-.0236177v.1228122c-.2692422,3.5332138.8030031,6.9955745,3.0466884,9.7494029,2.215344,2.7538284,5.3848446,4.534606,8.8944407,5.0211314h.0472355c.3920545,2.7538284.9258154,5.5076569,1.5823886,8.2142498-.7557677-1.3934466-1.7288185-2.6357397-2.9002584-3.7079851-2.5554394-2.2909207-5.8241346-3.5568316-9.2581539-3.5568316-.1228122-.0236177-.2456245-.0236177-.3400955-.0236177ZM261.6470308,120.0822948c2.5318217,2.4373507,4.1425515,5.5312746,4.6526947,8.9936353,1.1194809,1.1903341,2.2436853,2.4373507,3.3395484,3.7268793-.7793854-1.5115353-1.2659108-3.1458829-1.4642999-4.8510837-.3637132-3.5095961.6093377-7.0191922,2.7538284-9.8438739l.0755768-.0991945.094471.0755768c2.6829752,2.3145385,4.388176,5.5312746,4.7566128,9.0408707.3637132,3.5095961-.6093377,7.0191922-2.7538284,9.8438739l-.051959.0755768c1.6815831,2.267303,3.2923129,4.629077,4.7802305,7.04281-.491249-1.5587708-.7085322-3.1931184-.6093377-4.827466.1700477-3.5332138,1.6815831-6.8208032,4.2370225-9.2864952l.0755768-.0708532.0708532.0991945c2.2909207,2.7018694,3.4623606,6.1406123,3.2686952,9.6738262-.1747713,3.5332138-1.6815831,6.8255268-4.241746,9.2864952l-.0472355.0472355c1.3131463,2.4845862,2.5082039,5.0447492,3.5568316,7.6049122-.2220068-1.5871121-.1700477-3.1695007.1700477-4.7282715.7321499-3.4623606,2.7302107-6.4854313,5.6540869-8.5071098l.0991945-.0708532.0472355.094471c1.8516308,3.0230707,2.4609685,6.6082436,1.7288185,10.0658806-.7321499,3.4623606-2.7302107,6.4854313-5.6540869,8.5071098l-.0236177.0236177c.9021977,2.6546339,1.6579653,5.3848446,2.3145385,8.1386731.0236177-1.6060063.3164777-3.1931184.9021977-4.6999302,1.2659108-3.3159306,3.7316029-5.9752881,6.9199977-7.5104412l.0991945-.0472355.0472355.0991945c1.3414876,3.2639716,1.3887231,6.89638.1228122,10.2123106-1.2659108,3.3112071-3.7268793,5.9705646-6.9199977,7.5057177l-.0472355.0236177c.4629077,2.7774462.8030031,5.6304691.9966686,8.4787685.2692422-1.629624.8313444-3.1647771,1.6343476-4.6054592,1.7524363-3.0703062,4.6054592-5.3139914,7.9922431-6.3342778l.0991945-.0236177.0236177.1180887c.8266209,3.4623606.29286,7.0475335-1.4642999,10.1178397-1.7524363,3.0703062-4.6054592,5.3092679-7.9922431,6.3342778l-.0708532.0236177v1.0013922c0,2.4609685-.0991945,4.9691724-.3212013,7.4820999.5148667-1.5587708,1.2942521-2.9758352,2.319262-4.241746,2.2389617-2.7538284,5.3848446-4.534606,8.8944407-4.9975137l.1228122-.0236177v.1228122c.2645187,3.5332138-.8077267,6.9955745-3.0466884,9.7494029-2.2200675,2.7538284-5.3895682,4.5298825-8.8991643,5.0211314h-.0472355c-.3873309,2.7538284-.9258154,5.5076569-1.5823886,8.2095263.7557677-1.3887231,1.7288185-2.6310162,2.9002584-3.7032616,2.6310162-2.361774,6.0178001-3.6560261,9.5746316-3.5568316h.1228122v.1228122c-.29286,3.5332138-1.8988663,6.7735677-4.5298825,9.163683-2.6357397,2.361774-6.0225236,3.6276848-9.5793552,3.5568316h-.0236177c-.8313444,2.6310162-1.7807776,5.2620324-2.8766407,7.8458131.9494331-1.2659108,2.120873-2.3145385,3.4340193-3.1931184,2.9758352-1.922484,6.5326668-2.6546339,10.0186452-2.0216785l.1228122.0236177-.0236177.1228122c-.8313444,3.4387429-2.9285997,6.4098545-5.8997114,8.3370621-2.9711116,1.922484-6.5326668,2.6546339-10.0186452,2.0216785h-.0236177c-.14643.3164777-.29286.6093377-.4629077.9258154-1.0958631,2.1444908-2.3145385,4.3125993-3.6560261,6.4334723,1.1478221-1.1194809,2.4893098-2.0216785,3.9488861-2.6546339,3.2403539-1.4406821,6.8491445-1.5871121,10.2123106-.4156722l.0991945.0472355-.051959.0991945c-1.3651054,3.2639716-3.896927,5.8713701-7.1372809,7.3120522-3.2450774,1.4359586-6.8491445,1.5823886-10.2123106.4109487l-.051959-.0236177c-1.629624,2.2909207-3.3867839,4.534606-5.2147969,6.655479,1.3178699-.9258154,2.7774462-1.6343476,4.3409405-2.0500198,3.4104016-.9258154,7.0191922-.5101432,10.1367339,1.1714399l.0991945.0472355-.051959.0991945c-1.8752485,3.0230707-4.775507,5.1911792-8.1859086,6.0933768-3.4151252.9258154-7.0191922.5101432-10.1414574-1.1714399l-.0472355-.0236177c-3.2403539,3.3159306-6.7263322,6.3862368-10.3587406,9.0928298l-.094471.0708532-1.1242044-1.4879176.0991945-.0708532c3.5568316-2.6829752,6.9199977-5.6304691,10.0422629-8.8235875-2.2200675-2.7302107-3.3159306-6.16423-3.0703062-9.6738262.2409009-3.5332138,1.7996718-6.801909,4.4070702-9.2109185l.0755768-.0755768.0708532.0991945c2.2436853,2.7538284,3.3631661,6.1878478,3.0986474,9.7210616-.1700477,2.3901153-.9541567,4.6574183-2.2436853,6.6318613,2.3381562-2.5837807,4.534606-5.2903737,6.5562845-8.1150553-2.6073985-2.3664975-4.241746-5.5832336-4.534606-9.069212-.3164777-3.5332138.7321499-6.9955745,2.9238762-9.7966384l.0755768-.094471.0708532.0708532c2.6593575,2.361774,4.2889815,5.6068514,4.5818415,9.1164475.2220068,2.4373507-.2172832,4.8227424-1.2186754,6.9908509,1.7807776-2.6782517,3.3915074-5.4556979,4.8510837-8.3087208.1228122-.2692422.2456245-.5101432.3920545-.7793854-2.9522175-1.9035898-5.0730905-4.8510837-5.9233291-8.2614853-.8549622-3.4387429-.3920545-7.0191922,1.3651054-10.1131161l.0472355-.0991945.0991945.0708532c2.9711116,1.9272076,5.0919847,4.8510837,5.9705646,8.2898266.5857199,2.3853917.5337609,4.8463602-.1228122,7.1656222,1.4642999-3.2450774,2.7302107-6.5326668,3.7788383-9.8722152-3.2167361-1.4359586-5.7768991-3.9961215-7.1420045-7.2364754-1.3887231-3.2686952-1.4642999-6.89638-.2456245-10.2123106l.051959-.0991945.094471.0472355c3.2450774,1.4170644,5.8005169,4.0008451,7.1892399,7.2648167.9777744,2.2909207,1.2942521,4.7518892.9777744,7.1656222.9494331-3.4104016,1.6815831-6.89638,2.1917262-10.4295938-3.4104016-.9021977-6.31066-3.0466884-8.1859086-6.0225236-1.8799721-2.9947294-2.5365452-6.5799023-1.828013-10.0375393v-.1228122l.1180887.0236177c3.4387429.9021977,6.3626191,3.0466884,8.2378676,6.0414178,1.2706344,2.0264021,1.974443,4.3409405,2.0736375,6.6790968.3400955-3.1411594.5101432-6.31066.5101432-9.5273962v-.8549622c-3.4859784-.3637132-6.6743732-2.0216785-8.9936353-4.6763124-2.3145385-2.6829752-3.5332138-6.0933768-3.3867839-9.6265907v-.1228122h.1228122c3.5332138.3400955,6.74995,2.0216785,9.0644885,4.6763124,1.5351531,1.7807776,2.5837807,3.8544151,3.0703062,6.1169946-.1700477-3.4340193-.5337609-6.8208032-1.0958631-10.1839693-.2409009.0236177-.4865254.0236177-.7557677.0236177-3.2403539,0-6.3578955-1.1194809-8.870823-3.2167361-2.7018694-2.267303-4.4354115-5.4604214-4.8463602-8.9936353l-.0283413-.1228122h.1228122c3.5332138-.1936655,6.9955745.9258154,9.7021674,3.2167361,1.8516308,1.5587708,3.2403539,3.5615551,4.0669748,5.7768991-.7038086-3.4340193-1.6060063-6.7971855-2.7302107-10.1131161-.9730509.2172832-1.9461017.3164777-2.9238762.3164777-2.4845862,0-4.9219369-.6565732-7.1136632-1.974443-3.0466884-1.828013-5.2431382-4.7046537-6.1925713-8.1150553l-.0236177-.0991945.1228122-.0236177c3.4576371-.7557677,7.04281-.1700477,10.0894984,1.6579653,2.068914,1.2422931,3.7504971,2.9994529,4.9219369,5.0919847-1.2422931-3.2639716-2.6546339-6.4334723-4.2889815-9.5510139-3.2923129,1.2659108-6.8727622,1.2422931-10.1367339-.0755768-3.2923129-1.3131463-5.9233291-3.8260738-7.387629-7.04281l-.0472355-.094471.0991945-.051959c3.2875894-1.2895286,6.9199977-1.2659108,10.2075871.051959,2.172832.8738564,4.0244628,2.2389617,5.4840391,4.0197393-1.7052008-2.9758352-3.6040671-5.8241346-5.6021278-8.5307276-3.0466884,1.7524363-6.5799023,2.267303-9.9950274,1.4879176-3.4576371-.8077267-6.4334723-2.8530229-8.4079153-5.8005169l-.0708532-.0991945.094471-.0472355c3.0703062-1.7807776,6.655479-2.3428798,10.0894984-1.5351531,2.1964498.5101432,4.2181283,1.5351531,5.9233291,3.0230707-1.2895286-1.5871121-2.6546339-3.1458829-4.0197393-4.6101828-3.6560261-.29286-6.9719567-1.776054-9.6029729-4.2889815-2.9002584-2.7774462-4.6054592-6.5043255-4.7991247-10.5287883v-.1180887l.14643-.0755768c3.9961215.0236177,7.8221954,1.5823886,10.6988361,4.3645583Z" fill="#20282d"></path>
  </g>
  <g clip-path="url(#clippath-10)">
    <path d="M298.7552233,204.8935978h.1228122v.1228122c-.29286,3.5332138-1.8988663,6.7735677-4.534606,9.163683-2.6310162,2.361774-6.0414178,3.6276848-9.5746316,3.5568316h-.0283413c-.8266209,2.6310162-1.776054,5.2620324-2.8719171,7.8458131.9494331-1.2659108,2.0925317-2.3145385,3.4340193-3.1931184,2.9758352-1.922484,6.5326668-2.6546339,10.0186452-2.0216785l.1228122.0236177-.0283413.1228122c-.8266209,3.4387429-2.9238762,6.4098545-5.8949878,8.3370621-2.9758352,1.922484-6.5326668,2.6546339-10.0186452,2.0216785h-.0236177c-.14643.3164777-.3164777.6093377-.4629077.9258154-1.0958631,2.1444908-2.3145385,4.2889815-3.6560261,6.4334723,1.1478221-1.1194809,2.4845862-2.0216785,3.9488861-2.6546339,3.2403539-1.4406821,6.8491445-1.5871121,10.2123106-.4156722l.094471.0472355-.0472355.0991945c-1.3651054,3.2639716-3.896927,5.8713701-7.1420045,7.3120522-3.2403539,1.4359586-6.8444209,1.5823886-10.2123106.4109487l-.0472355-.0236177c-1.6343476,2.2909207-3.3867839,4.534606-5.2147969,6.655479,1.3178699-.9258154,2.7774462-1.6343476,4.336217-2.0500198,3.4151252-.9258154,7.0191922-.5101432,10.1414574,1.1714399l.094471.0472355-.0472355.0991945c-1.8752485,3.0230707-4.775507,5.1911792-8.1859086,6.0933768-3.4151252.9258154-7.0191922.5101432-10.1414574-1.1714399l-.0472355-.0236177c-3.2403539,3.3159306-6.7263322,6.3626191-10.3587406,9.0928298l-.0991945.0708532-1.1194809-1.4879176.0991945-.0708532c3.5568316-2.6829752,6.9199977-5.6304691,10.0375393-8.8235875-2.215344-2.7302107-3.3112071-6.16423-3.0703062-9.6738262.2456245-3.5332138,1.8043953-6.801909,4.4117938-9.2109185l.0755768-.0755768.0708532.0991945c2.2436853,2.7538284,3.3395484,6.1878478,3.0939239,9.7210616-.1700477,2.3901153-.9494331,4.6574183-2.2389617,6.6318613,2.3381562-2.5837807,4.5298825-5.2903737,6.5279432-8.1150553-2.6073985-2.3664975-4.2370225-5.5832336-4.5298825-9.069212-.3164777-3.5332138.7321499-6.9955745,2.9238762-9.7966384l.0708532-.094471.0755768.0708532c2.6546339,2.361774,4.2889815,5.6068514,4.5818415,9.1164475.2172832,2.4373507-.2220068,4.8227424-1.2186754,6.9908509,1.7807776-2.6782517,3.3867839-5.4556979,4.8510837-8.3087208.1180887-.2692422.2409009-.5101432.3873309-.7793854-2.9474939-1.9035898-5.0683669-4.8510837-5.9233291-8.2614853-.8502386-3.4387429-.3873309-7.04281,1.3414876-10.1131161l.051959-.0991945.094471.0708532c2.9758352,1.9272076,5.0967082,4.8510837,5.9705646,8.2898266.5857199,2.3853917.5384845,4.8463602-.14643,7.1656222,1.4642999-3.2450774,2.7302107-6.5326668,3.7788383-9.8722152-3.2167361-1.4359586-5.7768991-3.9961215-7.1420045-7.2364754-1.3887231-3.2686952-1.4595763-6.89638-.2409009-10.2123106l.0472355-.0991945.0991945.0472355c3.2403539,1.4170644,5.8005169,4.0008451,7.1892399,7.2648167.9730509,2.2909207,1.2895286,4.7518892.9730509,7.1892399.9494331-3.4104016,1.6815831-6.89638,2.1917262-10.4295938-3.4104016-.9021977-6.31066-3.0466884-8.1859086-6.0225236-1.8752485-2.9947294-2.5365452-6.5799023-1.8516308-10.0375393l.0236177-.1228122.1228122.0236177c3.4340193.9021977,6.3578955,3.0466884,8.2378676,6.0461413,1.2659108,2.0216785,1.974443,4.336217,2.068914,6.6743732.3400955-3.1411594.5148667-6.3342778.5148667-9.5273962v-.8549622c-3.4859784-.3637132-6.6790968-2.0216785-8.9700175-4.6763124-2.3381562-2.6829752-3.5332138-6.0933768-3.3867839-9.6265907v-.1228122h.1180887c3.5379374.3400955,6.7546735,2.0216785,9.069212,4.681036,1.5351531,1.776054,2.5837807,3.8496916,3.0703062,6.1169946-.1700477-3.4387429-.5384845-6.8255268-1.0958631-10.1886929-.2456245.0236177-.5148667.0236177-.7557677.0236177-3.2403539,0-6.3626191-1.1194809-8.870823-3.2167361-2.706593-2.267303-4.4354115-5.4604214-4.8510837-8.9936353l-.0236177-.1228122h.1228122c3.5332138-.1936655,6.9908509.9258154,9.6974439,3.2167361,1.8516308,1.5634944,3.2403539,3.5615551,4.0716983,5.7768991-.7085322-3.4340193-1.6107298-6.7971855-2.7302107-10.1131161-.9777744.2172832-1.9508253.3164777-2.9238762.3164777-2.4893098,0-4.9266605-.6565732-7.1183867-1.974443-3.0466884-1.828013-5.2384147-4.7046537-6.1878478-8.1150553l-.0283413-.0991945.1228122-.0236177c3.4623606-.7557677,7.04281-.1700477,10.0894984,1.6579653,2.0736375,1.2422931,3.7552206,2.9994529,4.9266605,5.0683669-1.2470167-3.2403539-2.6593575-6.4334723-4.2937051-9.5510139-3.2875894,1.2659108-6.8727622,1.2422931-10.1367339-.0755768-3.2875894-1.3131463-5.9233291-3.8260738-7.3829054-7.04281l-.051959-.094471.0991945-.051959c3.2923129-1.2895286,6.9199977-1.2659108,10.2123106.051959,2.1681085.8738564,4.0197393,2.2389617,5.4840391,4.0197393-1.7335421-2.9758352-3.6087906-5.8241346-5.6068514-8.5307276-3.0466884,1.7524363-6.5799023,2.267303-9.9903039,1.4879176-3.4623606-.8077267-6.4334723-2.8530229-8.4079153-5.8005169l-.0755768-.0991945.0991945-.0472355c3.0703062-1.7807776,6.6507555-2.3381562,10.0894984-1.5351531,2.1917262.5101432,4.2134048,1.5351531,5.9233291,2.9947294-1.2942521-1.5823886-2.6593575-3.1411594-4.0244628-4.6054592-3.6560261-.29286-6.9672332-1.776054-9.6029729-4.2889815-2.9002584-2.7774462-4.6054592-6.5043255-4.7991247-10.5287883v-.1228122h.1228122c4.0197393.0283413,7.8221954,1.5871121,10.7224538,4.3645583,2.5365452,2.4373507,4.1425515,5.5312746,4.6526947,8.9936353,1.1242044,1.1950576,2.2436853,2.4373507,3.3395484,3.7268793-.7793854-1.5115353-1.2659108-3.1411594-1.4595763-4.8463602-.3684367-3.5095961.6093377-7.0191922,2.7538284-9.8485974l.0708532-.0991945.0991945.0755768c2.706593,2.3145385,4.388176,5.5312746,4.7518892,9.0408707s-.6093377,7.0191922-2.7538284,9.8485974l-.0472355.0708532c1.6815831,2.267303,3.2875894,4.629077,4.775507,7.04281-.4865254-1.5587708-.7085322-3.1931184-.6093377-4.8227424.1700477-3.5379374,1.6815831-6.8491445,4.2653638-9.2864952l.0708532-.0755768.0755768.0991945c2.2909207,2.706593,3.4576371,6.1406123,3.2639716,9.6738262-.1700477,3.5332138-1.6815831,6.8255268-4.241746,9.2864952l-.0472355.0472355c1.3178699,2.4893098,2.5129275,5.0447492,3.5568316,7.6049122-.2172832-1.5823886-.1700477-3.1695007.1747713-4.7282715.7274264-3.4576371,2.7254872-6.4807078,5.6540869-8.5023863l.094471-.0755768.051959.0991945c1.8516308,3.0183471,2.4609685,6.60352,1.7288185,10.0658806-.7321499,3.4576371-2.7302107,6.4807078-5.6540869,8.5023863l-.0236177.0236177c.9021977,2.6593575,1.6579653,5.3895682,2.3145385,8.1433966.0236177-1.6107298.3164777-3.1931184.9021977-4.7046537,1.2659108-3.3159306,3.7268793-5.9705646,6.9199977-7.5057177l.0991945-.051959.0472355.0991945c1.3414876,3.2923129,1.3887231,6.89638.1228122,10.2123106-1.2706344,3.3159306-3.7316029,5.9705646-6.9247213,7.5057177l-.0472355.0236177c.4629077,2.7774462.8030031,5.6304691,1.0013922,8.4834921.2645187-1.6343476.8266209-3.1695007,1.629624-4.6054592,1.7571598-3.0750297,4.6101828-5.3139914,7.9969666-6.3390013l.094471-.0236177.0283413.1228122c.8266209,3.4576371.2881364,7.04281-1.4642999,10.1131161-1.7571598,3.0703062-4.6054592,5.3139914-7.9922431,6.3342778l-.0755768.0283413v.9966686c0,2.4609685-.0991945,4.973896-.3164777,7.4820999.5101432-1.5351531,1.2942521-2.9711116,2.3145385-4.241746,2.2200675-2.7538284,5.3848446-4.5298825,8.8944407-5.0211314l.1228122-.0236177v.1228122c.2692422,3.5332138-.8030031,6.9955745-3.0466884,9.7494029-2.215344,2.7538284-5.3848446,4.534606-8.8944407,5.0211314h-.0472355c-.3920545,2.7538284-.9258154,5.5076569-1.5871121,8.2142498.7557677-1.3934466,1.7335421-2.6357397,2.9002584-3.7079851,2.560163-2.2909207,5.8241346-3.5568316,9.2628775-3.5568316.1228122-.0236177.2456245-.0236177.3400955-.0236177ZM138.3435357,120.0822948c-2.5318217,2.4373507-4.1425515,5.5312746-4.6526947,8.9936353-1.1242044,1.1903341-2.2436853,2.4373507-3.3395484,3.7268793.7793854-1.5115353,1.2659108-3.1458829,1.4595763-4.8510837.3684367-3.5095961-.6093377-7.0191922-2.7538284-9.8438739l-.0708532-.0991945-.0991945.0755768c-2.6782517,2.3145385-4.3834525,5.5312746-4.7518892,9.0408707-.3637132,3.5095961.6093377,7.0191922,2.7538284,9.8438739l.051959.0755768c-1.6815831,2.267303-3.2923129,4.629077-4.7802305,7.04281.4865254-1.5587708.7085322-3.1931184.6093377-4.827466-.1700477-3.5332138-1.6815831-6.8208032-4.2370225-9.2864952l-.0755768-.0708532-.0708532.0991945c-2.2909207,2.7018694-3.4623606,6.1406123-3.2686952,9.6738262.1700477,3.5332138,1.6815831,6.8255268,4.241746,9.2864952l.0472355.0472355c-1.3131463,2.4845862-2.5082039,5.0447492-3.5568316,7.6049122.2172832-1.5871121.1700477-3.1695007-.1700477-4.7282715-.7321499-3.4623606-2.7302107-6.4854313-5.6540869-8.5071098l-.0991945-.0708532-.0472355.094471c-1.8516308,3.0230707-2.4609685,6.6082436-1.7288185,10.0658806.7274264,3.4623606,2.7254872,6.4854313,5.6540869,8.5071098l.0236177.0236177c-.9021977,2.6546339-1.6579653,5.3848446-2.3145385,8.1386731-.0283413-1.6060063-.3164777-3.1931184-.9021977-4.6999302-1.2706344-3.3159306-3.7316029-5.9752881-6.9247213-7.5104412l-.094471-.0472355-.051959.0991945c-1.3367641,3.2639716-1.3887231,6.89638-.1180887,10.2123106,1.2659108,3.3112071,3.7268793,5.9705646,6.9199977,7.5057177l.0472355.0236177c-.4629077,2.7774462-.8030031,5.6304691-.9966686,8.4787685-.2692422-1.629624-.8313444-3.1647771-1.6343476-4.6054592-1.7524363-3.0703062-4.6054592-5.3139914-7.9922431-6.3342778l-.0991945-.0236177-.0236177.1180887c-.8313444,3.4623606-.29286,7.0475335,1.4595763,10.1178397,1.7571598,3.0703062,4.6101828,5.3092679,7.9969666,6.3342778l.0708532.0236177v1.0013922c0,2.4609685.0991945,4.9691724.3164777,7.4820999-.5101432-1.5587708-1.2895286-2.9758352-2.3145385-4.241746-2.2389617-2.7538284-5.3848446-4.534606-8.8944407-4.9975137l-.1228122-.0236177v.1228122c-.2692422,3.5332138.8030031,6.9955745,3.0466884,9.7494029,2.2200675,2.7538284,5.3848446,4.5298825,8.8944407,5.0211314h.051959c.3873309,2.7538284.9258154,5.5076569,1.5823886,8.2095263-.7557677-1.3887231-1.7288185-2.6310162-2.9002584-3.7032616-2.6310162-2.361774-6.0178001-3.6560261-9.5793552-3.5568316h-.1180887v.1228122c.2881364,3.5332138,1.8988663,6.7735677,4.5298825,9.163683,2.6310162,2.361774,6.0225236,3.6276848,9.5793552,3.5568316h.0236177c.8266209,2.6310162,1.7807776,5.2620324,2.8766407,7.8458131-.9494331-1.2659108-2.120873-2.3145385-3.4387429-3.1931184-2.9711116-1.922484-6.5279432-2.6546339-10.0139216-2.0216785l-.1228122.0236177.0236177.1228122c.8313444,3.4387429,2.9238762,6.4098545,5.8997114,8.3370621,2.9711116,1.922484,6.5326668,2.6546339,10.0139216,2.0216785h.0283413c.1417064.3164777.2881364.6093377.4629077.9258154,1.0958631,2.1444908,2.3145385,4.3125993,3.6513025,6.4334723-1.1430986-1.1194809-2.4845862-2.0216785-3.9441625-2.6546339-3.2450774-1.4406821-6.8491445-1.5871121-10.2123106-.4156722l-.0991945.0472355.0472355.0991945c1.3651054,3.2639716,3.9016506,5.8713701,7.1420045,7.3120522,3.2403539,1.4359586,6.8491445,1.5823886,10.2123106.4109487l.0472355-.0236177c1.6343476,2.2909207,3.3915074,4.534606,5.2195205,6.655479-1.3178699-.9258154-2.7821697-1.6343476-4.3409405-2.0500198-3.4104016-.9258154-7.0191922-.5101432-10.1367339,1.1714399l-.0991945.0472355.0472355.0991945c1.8799721,3.0230707,4.7802305,5.1911792,8.1906321,6.0933768,3.4104016.9258154,7.0191922.5101432,10.1367339-1.1714399l.051959-.0236177c3.2403539,3.3159306,6.7263322,6.3862368,10.3587406,9.0928298l.094471.0708532,1.1242044-1.4879176-.0991945-.0708532c-3.5568316-2.6829752-6.9199977-5.6304691-10.0422629-8.8235875,2.2200675-2.7302107,3.3159306-6.16423,3.0703062-9.6738262-.2409009-3.5332138-1.8043953-6.801909-4.4117938-9.2109185l-.0708532-.0755768-.0755768.0991945c-2.2389617,2.7538284-3.3631661,6.1878478-3.0939239,9.7210616.1700477,2.3901153.9494331,4.6574183,2.2436853,6.6318613-2.3381562-2.5837807-4.534606-5.2903737-6.5562845-8.1150553,2.6073985-2.3664975,4.241746-5.5832336,4.534606-9.069212.3164777-3.5332138-.7321499-6.9955745-2.9285997-9.7966384l-.0708532-.094471-.0755768.0708532c-2.6546339,2.361774-4.2889815,5.6068514-4.5818415,9.1164475-.2172832,2.4373507.2220068,4.8227424,1.2186754,6.9908509-1.776054-2.6782517-3.3867839-5.4556979-4.8463602-8.3087208-.1228122-.2692422-.2456245-.5101432-.3920545-.7793854,2.9474939-1.9035898,5.0683669-4.8510837,5.9233291-8.2614853.8549622-3.4387429.3873309-7.0191922-1.3651054-10.1131161l-.0472355-.0991945-.0991945.0708532c-2.9711116,1.9272076-5.0919847,4.8510837-5.9705646,8.2898266-.5857199,2.3853917-.5384845,4.8463602.1228122,7.1656222-1.4642999-3.2450774-2.7302107-6.5326668-3.7788383-9.8722152,3.2167361-1.4359586,5.7768991-3.9961215,7.1420045-7.2364754,1.3887231-3.2686952,1.4595763-6.89638.2409009-10.2123106l-.0472355-.0991945-.0991945.0472355c-3.2403539,1.4170644-5.8005169,4.0008451-7.1892399,7.2648167-.9730509,2.2909207-1.2895286,4.7518892-.9730509,7.1656222-.9494331-3.4104016-1.6815831-6.89638-2.1917262-10.4295938,3.4104016-.9021977,6.31066-3.0466884,8.1859086-6.0225236,1.8752485-2.9947294,2.5365452-6.5799023,1.828013-10.0375393v-.1228122l-.1228122.0236177c-3.4340193.9021977-6.3578955,3.0466884-8.2378676,6.0414178-1.2659108,2.0264021-1.9697195,4.3409405-2.068914,6.6790968-.3400955-3.1411594-.5101432-6.31066-.5101432-9.5273962v-.8549622c3.4812548-.3637132,6.6743732-2.0216785,8.9889117-4.6763124,2.319262-2.6829752,3.5379374-6.0933768,3.3915074-9.6265907v-.1228122h-.1228122c-3.5332138.3400955-6.74995,2.0216785-9.069212,4.6763124-1.5351531,1.7807776-2.5790572,3.8544151-3.0703062,6.1169946.1700477-3.4340193.5384845-6.8208032,1.1005867-10.1839693.2409009.0236177.4865254.0236177.7510441.0236177,3.2450774,0,6.3626191-1.1194809,8.8755466-3.2167361,2.7018694-2.267303,4.4354115-5.4604214,4.8463602-8.9936353l.0236177-.1228122h-.1180887c-3.5332138-.1936655-6.9955745.9258154-9.7021674,3.2167361-1.8516308,1.5587708-3.2403539,3.5615551-4.0669748,5.7768991.7038086-3.4340193,1.6060063-6.7971855,2.7254872-10.1131161.9777744.2172832,1.9508253.3164777,2.9285997.3164777,2.4845862,0,4.9219369-.6565732,7.1136632-1.974443,3.0466884-1.828013,5.2384147-4.7046537,6.1925713-8.1150553l.0236177-.0991945-.1228122-.0236177c-3.4623606-.7557677-7.04281-.1700477-10.0894984,1.6579653-2.0736375,1.2422931-3.7552206,2.9994529-4.9219369,5.0919847,1.2422931-3.2639716,2.6546339-6.4334723,4.2889815-9.5510139,3.2875894,1.2659108,6.8727622,1.2422931,10.1367339-.0755768,3.2923129-1.3131463,5.9233291-3.8260738,7.3829054-7.04281l.051959-.094471-.0991945-.051959c-3.2875894-1.2895286-6.9199977-1.2659108-10.2123106.051959-2.1681085.8738564-4.0197393,2.2389617-5.4840391,4.0197393,1.7099243-2.9758352,3.6087906-5.8241346,5.6068514-8.5307276,3.0466884,1.7524363,6.5799023,2.267303,9.9950274,1.4879176,3.4576371-.8077267,6.4334723-2.8530229,8.4079153-5.8005169l.0708532-.0991945-.0991945-.0472355c-3.0703062-1.7807776-6.6507555-2.3428798-10.0894984-1.5351531-2.1917262.5101432-4.2134048,1.5351531-5.9186056,3.0230707,1.2895286-1.5871121,2.6546339-3.1458829,4.0197393-4.6101828,3.6560261-.29286,6.9719567-1.776054,9.6029729-4.2889815,2.9002584-2.7774462,4.6054592-6.5043255,4.7991247-10.5287883v-.1180887l-.14643-.0755768c-3.9961215.0236177-7.8221954,1.5823886-10.6988361,4.3645583Z" fill="#20282d"></path>
  </g>
  <g clip-path="url(#clippath-11)">
    <path d="M270.2675057,197.6949108c-.3920545,2.6215691-1.0297334,4.0905925-1.5209824,4.879425-.0614061.2739658-.1275358.5526551-.198389.8266209l-.0991945-.4062251c-.0141706.0236177-.0330648.0425119-.0472355.0661297-.1133652.5904435-.2314538,1.1856105-.3589896,1.776054-.0141706.0614061-.0283413.1228122-.0377884.1889419-.0141706.0708532-.0330648.1417064-.0472355.2125597-.0566826.250348-.1133652.5006961-.1700477.7463206l.2550716-.7557677s-2.1019788,11.6955047-5.370674,15.7955443l.7463206-2.1870027c-.0047235,0-.0047235.0047235-.0047235.0047235-.1417064.3164777-.29286.637679-.4440135.9541567-11.0247609,23.2398558-34.6991831,39.3093659-62.1288259,39.3093659-37.9584311,0-68.7323459-30.7739147-68.7323459-68.7276223,0-13.3676406,3.8213503-25.8425307,10.4248703-36.3949368-1.0486276-.7746619.9163683-3.2592481.9163683-3.2592481,11.1853615-19.8814132,31.8745014-25.1670634,33.1026239-25.8094659,1.2233989-.6424025,3.2923129,0,3.2923129,0l-.0094471.0047235c.1842184-.0566826.3731603-.1228122.5573787-.1794948.1842184-1.2233989,1.9035898-1.8374601,1.9035898-1.8374601,28.8939427-8.9889117,55.3930465,6.6838203,56.8053874,8.3512327,1.2470167,1.4690234.1417064,1.8610779-.1369829,1.9319311.2786893.1889419.5621022.3778838.8407915.5668258.0094471.0094471.0188942.0188942.0330648.0236177.9210918.0708532,2.9427704.7604912,7.2034106,3.8874799,6.8916564,5.0541963,8.2142498,9.456543,8.7810756,11.4687744h.0047235c.4676312-.4534606,1.4217879-.9210918,2.86247.4440135,1.6012827,1.5162589,9.9903039,15.8805681,11.3931976,34.1512515.7510441,6.5799023.6235083,11.0105902.1842184,13.9675312Z" fill="#fff"></path>
  </g>
  <g clip-path="url(#clippath-12)">
    <path d="M206.726339,136.8934019l.6046141.1558771s-15.1531418,7.1561751-.6046141-.1558771ZM180.2650235,201.8705272l1.9697195,2.5270981s2.3995623,4.2511931,11.7096753,3.6796438c9.310113-.5762728,38.5016392-7.6993831,38.5016392-7.6993831l2.758552-6.3248307c-7.586018,5.2903737-39.077912,5.6304691-39.077912,5.6304691l-.3637132.0330648c-1.9413782-1.3320405-4.2275754-3.3631661-6.8774858-6.4665371-.0803003-.094471-.1606006-.1936655-.2361774-.2881364-7.6993831-9.6454849-2.2909207-34.5385824-2.2909207-34.5385824-4.9408311,4.2559167-5.5785101,30.802256-5.5785101,30.802256l.4062251,4.827466-.8124502,5.2903737,7.8316425,1.0108393-8.7432872.7368735c.344819.3731603.8030031.7793854.8030031.7793854ZM192.4470536,133.1995874l14.2792854,3.6938145c.198389-.0991945.396778-.198389.6046141-.3070306,15.5735375-7.8127483,31.1565221-2.8199581,31.1565221-2.8199581,1.3320405-.7510441,1.1950576-2.465692,1.1950576-2.465692-18.1573182-4.2511931-29.0639904,0-29.0639904,0l-16.1025749-2.1822791c-4.7093773-4.827466-13.4290468-5.5123804-13.4290468-5.5123804l-1.2422931,1.3084228c2.2436853.2692422,10.8783309,5.809964,10.8783309,5.809964l1.724095,2.4751391ZM241.1798976,174.747915c-7.5387825-16.1592575-21.0386825-23.008402-26.5888513-25.233193-.3212013-3.5898964-1.9130369-14.6571692-1.9130369-14.6571692l-6.0933768,10.3492935c.4629077,1.034457,0,1.379276,0,1.379276,0,0,1.1950576,1.4028937,2.6168456,2.904982l-2.6168456.7746619c1.4926411.1275358,3.0892003.6046141,4.7424421,1.3462112.595167.5384845,1.0958631.741597,1.5162589.741597,11.2892795,5.9516704,24.4301899,22.3896172,24.4301899,22.3896172h3.9063741v.0047235ZM269.7290213,197.2414502c-.1511535-.1133652-.3070306-.2267303-.4676312-.3306484-.2456245-.1653242-.5006961-.3212013-.7652148-.4723548-.5904435-.3306484-1.2186754-.6187848-1.8516308-.8738564-3.0466884-1.2186754-6.2728716-1.5823886-6.2728716-1.5823886l-1.6060063,4.5535002c6.9861274-.8974741,8.8377582,4.8132953,9.2014714,6.3295542.0236177-.0094471.051959-.0188942.0755768-.0283413.1275358-.5904435.250348-1.1856105.3589896-1.7807776.0141706-.0188942.0330648-.0377884.0472355-.0614061l.0991945.4062251c.0708532-.2739658.1369829-.5526551.198389-.8266209.4959725-.7888325,1.128928-2.2578559,1.5209824-4.879425-.1700477-.1558771-.3542661-.3070306-.5384845-.4534606ZM254.1696544,220.2592992v-14.0242138l-4.3692818,2.068914-2.9900058,2.9900058-1.379276,1.1478221c-13.3487464,19.8530719-36.0973533,16.0742336-46.0829336,13.1881458.4203958-5.2525853,1.0533512-13.5471355.9069212-14.1045141l-11.138126,14.0194902s.9163683,1.6107298,1.6107298,2.3003678c.2314538.2314538.43929.3873309.6707438.5148667l-.7510441.6329554c.0897474.3589896.2597951.7746619.5006961,1.2281225l-.0566826.1133652c-.8549622-.543208-1.284805-1.0533512-1.284805-1.0533512l-22.9847842-5.3423327-1.2281225,1.3036992.2314538-3.2970365-1.3651054.8833035c.1180887-1.1714399.2881364-2.1114259.2881364-2.1114259-22.2951462-3.2167361-30.1078945-28.629424-30.1078945-28.629424v1.8941427h-2.4373507c-2.5129275,22.4132349,20.7458225,43.017351,20.7458225,43.017351,0,0,1.9130369-1.1619928,3.8591387-2.3712211l1.6485182,1.6815831-1.828013,1.8799721-.1511535,2.2956443s-5.224244-7.3167757,1.0722454,1.6863066c6.2917658,9.0030823,43.9809548,16.2442813,46.1254455,15.9372507s2.758552-1.2233989,4.137828-2.9097055c.6187848-.7604912,1.128928-2.0122314,1.5020882-3.1600536.3873309-.3589896.7463206-.7510441,1.0627983-1.1619928,5.9705646.3778838,7.8458131-.0472355,11.6104808-.0472355,2.3334327,0,4.3409405-.0803003,6.8491445-1.0297334,29.1537378-7.0050216,36.6972438-35.5163569,36.6972438-35.5163569-1.7335421,5.4037388-11.3648563,5.9752881-11.3648563,5.9752881ZM173.2552784,145.0934811c-15.8616739-4.0244628-29.7394577,10.2926109-29.7394577,10.2926109v6.3012129c3.0655826-11.6057573,29.7394577-16.5938239,29.7394577-16.5938239ZM140.7289274,183.0188474l.9116447.9730509-.7935561,1.327317s13.0983984,11.1475731,13.5943709,11.4876686,4.4495821,2.1917262,4.4495821,2.1917262c0,0,3.6135142,1.1194809,5.1817321,1.4170644l9.414031,6.509049,2.9852823-5.7438343c2.9900058-5.7485578,1.1525457-1.379276,3.2214597-4.827466s0,0,0-1.1478221c0-1.1525457,1.1478221-7.8174718,1.1478221-7.8174718l-15.965592,7.8694308-20.3348738-10.9869725c.5054196-5.1581143,1.6154534-16.4332232,1.7477127-17.0756258.1794948-.8407915-2.4562449,2.7254872-3.2592481,4.7944011s-2.3003678,7.930837-2.1822791,8.3890211c.1133652.4581841.1133652-.5762728,0,1.034457l-.1180887,1.6060063Z" fill="#ededed"></path>
  </g>
  <path d="M262.4405868,197.8035524c-.8313444-3.8638622-3.7504971-17.1889909-5.8005169-23.7027635,3.9205448-11.9930882-1.1572692-24.5246608-1.1572692-24.5246608,2.1161495,5.9752881,0,21.4543547,0,21.4543547v.0047235c-.0991945-.1842184-.1936655-.3306484-.2786893-.4251193,0,0-14.4682273,1.3934466-18.4879666,2.517651-4.2086812-5.6115749-12.6685555-15.4790666-24.0381354-21.6244024v-16.6457829c3.7835619-.8218973,17.146479-3.396231,26.4329742-.9352625,0,0-12.2953953-4.3456641-24.9403331-2.0452963-1.6910302.3070306-3.1317123.5904435-4.3551112.8502386-4.0905925-.741597-11.6907811-2.0594669-16.9811548-2.6168456,0-.0047235-.7699383-2.8530229-12.9897568-5.2006263,0,0,4.8558073,2.1114259,7.6615947,5.0541963-.0897474.0188942-.1653242.0425119-.2267303.0708532-2.4326272,1.1053102-12.4985078,10.3776348-15.9325272,15.2854011-2.8955349-.5006961-12.7299617-1.0297334-25.5307765,10.8169248l-3.0703062-2.4987569s-6.2681481,5.9374997-9.0267001,17.6613457-1.3131463,25.5071588-1.3131463,25.5071588l9.6643791-10.0611571,15.8994623,15.0114353c-.4723548,6.0319707,3.9299919,19.4940823,5.5265511,24.1326064.051959.1558771.0991945.29286.14643.4298429-1.6107298,1.7429892-4.3220464,4.4637528-8.6488163,8.2236969-1.4595763-.0850239-2.7443813-.6943615-3.7363264-1.3745524-17.5668747-15.2192714-18.8516798-36.3618719-18.8516798-36.3618719.0330648,1.1525457.094471,2.2814736.1842184,3.3867839-.1322593-1.1572692-.198389-2.2956443-.1842184-3.3867839,0,0-3.2781423,14.1800909,7.9213899,28.0200863,6.2445304,10.6799419,13.8919545,16.0506159,13.8919545,16.0506159,17.0567316,19.7019184,46.1585103,18.2234479,46.1585103,18.2234479,25.5118824,1.9508253,42.3418836-14.2226028,42.3418836-14.2226028,13.4384939-6.8444209,20.1364848-21.8889211,23.1548319-31.4446586q-.0047235,0-.0047235-.0047235c-6.8066326,18.086465-25.3465582,29.2104204-25.3512817,29.2151439l-.4203958-.4251193c1.7477127-3.0183471,5.6162985-11.1522967,6.8302503-25.6299711,2.5837807-2.5743336,13.1503574-13.1928694,15.568814-17.3826564,1.3414876,1.1619928,4.8983192,4.3645583,5.3801211,5.9800117.0614061.0047235.1180887.0188942.1700477.0425119.5101432-.741597,2.1492143-3.9961215-5.6068514-7.4254173ZM212.1253543,152.1410146c3.7599442,2.6593575,17.7888815,12.9047329,23.7877874,21.6385731l-6.112271,26.8250287s.1133652.1086416.3212013.3070306c-3.5426609.8691328-15.0445001,3.3348248-33.4994019,3.9536096l-12.9330742-10.9822489c-3.4340193-12.8669446.3117542-27.9681273,1.7193714-32.8286581,3.1789478-.9683273,23.1028729-7.0475335,26.7163871-8.9133349ZM162.4666949,199.1828284c-3.2356303-2.068914-15.5924317-9.9950274-20.0892493-13.3345758l5.8241346-27.7697383-.29286-.2314538s9.7446794-9.9761332,23.1926203-12.1678595c-.0472355.0708532-.0991945.14643-.14643.2172832l13.9580841,15.2145479c-5.2950972,9.7305087-6.112271,25.8755955-6.2209126,28.7994717l-16.2253871,9.2723246ZM204.2464763,254.3019091c-31.4635527,3.6040671-45.4074662-16.5371413-45.4074662-16.5371413l4.0244628-7.5293354c.595167-.7699383,1.2092283-1.5682179,1.7949482-2.3239856,7.9213899,5.172285,25.7575068,4.8085718,27.3304483,4.7613363,2.7254872,3.0939239,11.7049518,13.0322687,16.5182471,15.3420837-1.2942521,2.2058969-2.8530229,4.4212409-4.2606402,6.2870423ZM211.2373273,247.4102527l2.0736375-.4487371c-.7652148.1700477-1.4642999.3212013-2.0736375.4487371ZM236.7681038,238.9078665c-5.5218275,3.6560261-16.9528135,6.5893494-23.4476919,8.0489257-.0047235,0-5.3801211-1.284805-20.9961705-14.8177698l9.4329252-22.913931,28.3932466-8.2851031c2.0500198,1.9602724,12.5410197,12.0119824,15.568814,15.4507253-.7888325,2.7727226-4.241746,14.3690328-8.9511233,22.517153Z" fill="#20282d"></path>
  <path d="M112.7880579,277.1866129v4.534606h6.2161891v1.870525h-6.2161891v7.2364754h-2.0783611v-15.5121314h9.3904133v1.870525h-7.3120522Z" fill="#ededed"></path>
  <path d="M136.0313407,283.0627065c0,2.7963404-.5290374,4.8463607-1.5871121,6.1406123-1.0486265,1.298976-2.6215691,1.9461017-4.7235479,1.9461017-2.1444902,0-3.7316023-.6612967-4.7613363-1.9838901-1.0344573-1.3225934-1.5493237-3.3537196-1.5493237-6.1028239,0-2.706593.5101432-4.7282715,1.5304295-6.0650355,1.0202864-1.3320394,2.6121214-2.0027843,4.7802305-2.0027843,2.1255977,0,3.7079851.6565732,4.7424421,1.9649959,1.0439041,1.2989757,1.5682179,3.3348237,1.5682179,6.1028239ZM133.8585086,283.0627065c0-2.1397672-.3306495-3.7127098-.982498-4.7235479-.6424025-1.0061157-1.6957543-1.5115353-3.15533-1.5115353-1.473747,0-2.5318217.5054196-3.1742242,1.5115353-.6424025,1.0108381-.9636038,2.5837807-.9636038,4.7235479,0,2.1681091.3259245,3.7552209.982498,4.7613363.651849.9966689,1.7052002,1.4926411,3.15533,1.4926411,1.4359586,0,2.4798627-.4959722,3.1364358-1.4926411.6660203-.9919456,1.0013922-2.5790577,1.0013922-4.7613363Z" fill="#ededed"></path>
  <path d="M152.2985335,283.0627065c0,2.7963404-.5290374,4.8463607-1.5871121,6.1406123-1.0486265,1.298976-2.6215691,1.9461017-4.7235479,1.9461017-2.1444902,0-3.7316023-.6612967-4.7613363-1.9838901-1.0344573-1.3225934-1.5493237-3.3537196-1.5493237-6.1028239,0-2.706593.5101432-4.7282715,1.5304295-6.0650355,1.0202864-1.3320394,2.6121214-2.0027843,4.7802305-2.0027843,2.1255977,0,3.7079851.6565732,4.7424421,1.9649959,1.0439041,1.2989757,1.5682179,3.3348237,1.5682179,6.1028239ZM150.1257014,283.0627065c0-2.1397672-.3306495-3.7127098-.982498-4.7235479-.6424025-1.0061157-1.6957543-1.5115353-3.15533-1.5115353-1.473747,0-2.5318217.5054196-3.1742242,1.5115353-.6424025,1.0108381-.9636038,2.5837807-.9636038,4.7235479,0,2.1681091.3259245,3.7552209.982498,4.7613363.651849.9966689,1.7052002,1.4926411,3.15533,1.4926411,1.4359586,0,2.4798627-.4959722,3.1364358-1.4926411.6660203-.9919456,1.0013922-2.5790577,1.0013922-4.7613363Z" fill="#ededed"></path>
  <path d="M162.2739743,277.1866129v13.6416064h-2.0594669v-13.6416064h-5.1581143v-1.870525h12.3568014v1.870525h-5.1392201Z" fill="#ededed"></path>
  <path d="M181.8151164,286.2747191c0,1.601283-.5101432,2.758552-1.5304295,3.4765313-1.0108381.7179793-2.451522,1.0769689-4.3267699,1.0769689h-5.0636434v-15.5121314h4.5912886c1.8988668,0,3.2686952.2739669,4.1000396.8124502.8407904.543208,1.2659108,1.4501292,1.2659108,2.7207636,0,1.034457-.2361785,1.828013-.6990851,2.3806682-.4534606.5432086-1.0202864.9163677-1.7004773,1.1147573,1.0202864.1511535,1.8327366.538485,2.4373507,1.1525457.6140624.6046141.9258154,1.5304295.9258154,2.7774462ZM178.7353631,279.3027624c0-.7935561-.255071-1.3462112-.7557677-1.6626889-.491249-.3259248-1.3698295-.491249-2.6262926-.491249h-2.3806682v4.6101828h2.2861972c1.2328454,0,2.1208724-.1936649,2.664081-.5857199.5384839-.4015016.8124502-1.0250099.8124502-1.870525ZM179.6611785,286.1802482c0-.6424025-.1275358-1.143098-.3778838-1.5115353-.2409009-.3637126-.6235083-.632956-1.1525457-.8124502-.5195897-.1747707-1.3603818-.2645187-2.5318217-.2645187h-2.6262926v5.3470563h2.0972553c1.3225934,0,2.272026-.0850233,2.8530229-.2645187.5904429-.174771,1.0250099-.4581839,1.3036992-.8502386.2881364-.4015013.4345664-.9494328.4345664-1.6437947Z" fill="#ededed"></path>
  <path d="M184.6571234,290.8282193l5.3092679-15.5121314h2.6829752l5.3092679,15.5121314h-2.1917262l-1.3414876-4.043357h-6.3295542l-1.3225934,4.043357h-2.1161495ZM188.7382688,284.9143373h5.0447492l-2.5318217-7.5576767-2.5129275,7.5576767Z" fill="#ededed"></path>
  <path d="M201.5466898,290.8282193v-15.5121314h2.0783611v13.6227122h7.0097451v1.8894192h-9.0881062Z" fill="#ededed"></path>
  <path d="M214.1619528,290.8282193v-15.5121314h2.0783611v13.6227122h7.0097451v1.8894192h-9.0881062Z" fill="#ededed"></path>
  <path d="M245.8438122,288.1074557c-.491249.7935561-.9966686,1.3981702-1.5115353,1.8138424-.5054196.4062257-1.0958631.7085328-1.776054.9069212-.6801909.2125594-1.4831946.3212013-2.3995623.3212013-2.3192626,0-4.0339105-.66602-5.1392201-2.0027843-1.0958631-1.3462109-1.6437947-3.3726138-1.6437947-6.0839297,0-2.6924235.538485-4.7093773,1.6249005-6.0461413,1.0958631-1.3462112,2.7821692-2.0216785,5.0636434-2.0216785.9069212,0,1.7099255.1133652,2.4184565.3400955.7179793.2172844,1.3225934.5243138,1.8138424.9258154.491249.3920545.9352613.939986,1.3414876,1.6437947l-1.7193714,1.1147573c-.3306472-.5526551-.6612967-.9683273-1.0013922-1.2470167-.3306495-.2881364-.7321499-.5148667-1.2092283-.6801909-.4676318-.1747713-1.0155634-.2645187-1.6437947-.2645187-1.5493237,0-2.6924229.5195891-3.4198487,1.5493237-.7321502,1.034457-1.0958631,2.5979502-1.0958631,4.6857595,0,2.0689134.3589896,3.6276848,1.0769689,4.6857595.7179793,1.0486271,1.870525,1.5682179,3.4576371,1.5682179.8785793,0,1.6485182-.1700477,2.3050914-.5101432.6518485-.3495431,1.2375707-.9541573,1.7571598-1.8138424l1.7004773,1.1147573Z" fill="#ededed"></path>
  <path d="M249.7448811,290.8282193v-15.5121314h2.0783611v13.6227122h7.0097451v1.8894192h-9.0881062Z" fill="#ededed"></path>
  <path d="M274.0367408,284.3475116c0,1.7004773-.1983879,3.0419649-.5857199,4.0244628-.3778838.9730514-.9777744,1.6815831-1.7949482,2.1350437-.8218985.4392899-1.9649959.6612967-3.4387429.6612967-1.4643004,0-2.616845-.2267303-3.4576371-.6801909-.8455154-.4534606-1.4548528-1.1714399-1.8327366-2.1539379-.3778838-.9919445-.5668258-2.3239856-.5668258-3.9866745v-9.0314236h2.0783611v8.8046933c0,1.3603818.1180884,2.4137333.3589896,3.15533.2503478.7321502.6424025,1.2611876,1.1714399,1.5871121.538485.316478,1.2753574.4723548,2.2106204.4723548.9541561,0,1.7004773-.1558768,2.2295146-.4723548.5384833-.3117536.9305389-.8171735,1.1714399-1.5115353.250348-.7038084.3778838-1.7618828.3778838-3.1742242v-8.8613759h2.0783611v9.0314236Z" fill="#ededed"></path>
  <path d="M290.0074526,286.2747191c0,1.601283-.5101432,2.758552-1.5304295,3.4765313-1.0108381.7179793-2.451522,1.0769689-4.3267699,1.0769689h-5.0636434v-15.5121314h4.5912886c1.8988668,0,3.2686952.2739669,4.1000396.8124502.8407904.543208,1.2659108,1.4501292,1.2659108,2.7207636,0,1.034457-.2361785,1.828013-.6990851,2.3806682-.4534606.5432086-1.0202864.9163677-1.7004773,1.1147573,1.0202864.1511535,1.8327366.538485,2.4373507,1.1525457.6140624.6046141.9258154,1.5304295.9258154,2.7774462ZM286.9276993,279.3027624c0-.7935561-.255071-1.3462112-.7557677-1.6626889-.491249-.3259248-1.3698295-.491249-2.6262926-.491249h-2.3806682v4.6101828h2.2861972c1.2328454,0,2.1208724-.1936649,2.664081-.5857199.5384839-.4015016.8124502-1.0250099.8124502-1.870525ZM287.8535147,286.1802482c0-.6424025-.1275358-1.143098-.3778838-1.5115353-.2409009-.3637126-.6235083-.632956-1.1525457-.8124502-.5195897-.1747707-1.3603818-.2645187-2.5318217-.2645187h-2.6262926v5.3470563h2.0972553c1.3225934,0,2.272026-.0850233,2.8530229-.2645187.5904429-.174771,1.0250099-.4581839,1.3036992-.8502386.2881364-.4015013.4345664-.9494328.4345664-1.6437947Z" fill="#ededed"></path>
  <path d="M169.0598256,322.0100567v-2.3050914c1.9272076-1.634347,3.3253777-2.8624706,4.1945106-3.6843674.8691328-.8313444,1.5871121-1.5587714,2.1539379-2.1917262.5668258-.6424025,1.0013922-1.2659108,1.3036992-1.870525.3117536-.6140601.4723548-1.2895286.4723548-2.0216785,0-.8030043-.2739664-1.4548528-.8124502-1.9461017-.5290374-.491249-1.2422937-.7368735-2.1350437-.7368735-.8455157,0-1.5304295.1889419-2.0594669.5668258-.5290374.3684356-.9777747.8502386-1.3414876,1.4548528l-1.8327366-1.1714399c.5668258-.982498,1.2942516-1.6863066,2.1917262-2.1161495.8927503-.43929,1.9366541-.6612967,3.1364358-.6612967,1.5871121,0,2.8388523.3920545,3.7599442,1.1714399.9305389.7841078,1.3981702,1.8894192,1.3981702,3.3253777,0,.7179793-.1086416,1.3981702-.3212013,2.0405727-.2031126.6329548-.5243138,1.237569-.9636038,1.8138424-.4298429.5668258-1.0155628,1.2233995-1.7571598,1.9649959-.7321505.74632-2.3712216,2.2058972-4.9124898,4.3834525h8.4834921v1.9838901h-10.9586312Z" fill="#ededed"></path>
  <path d="M197.3106272,313.86666c0,2.9238767-.491249,5.0730911-1.473747,6.4429194-.973052,1.3745527-2.4845868,2.0594669-4.534606,2.0594669-2.0405727,0-3.5473848-.6801909-4.5157118-2.0405727-.9730503-1.3698295-1.4548528-3.5190426-1.4548528-6.4429194,0-2.9191515.4818025-5.0636434,1.4548528-6.4240252.968327-1.3698277,2.4751391-2.0594669,4.5157118-2.0594669,2.0641899,0,3.5804505.6801909,4.5535002,2.0405727.9683273,1.3603818,1.4548528,3.5048714,1.4548528,6.4240252ZM195.0055359,313.86666c0-2.2767513-.2975835-3.9394401-.888027-4.9880666-.5951665-1.0580747-1.5304295-1.5871121-2.8152346-1.5871121-1.2611879,0-2.1917262.5290374-2.7963404,1.5871121-.5951676,1.0580747-.888027,2.7302119-.888027,5.0069608,0,2.2814742.2928594,3.9488861.888027,5.0069608.6046141,1.0580747,1.5351525,1.5871121,2.7963404,1.5871121,1.284805,0,2.2200681-.5290374,2.8152346-1.5871121.5904435-1.0580747.888027-2.7302113.888027-5.025855Z" fill="#ededed"></path>
  <path d="M202.8407989,322.0100567v-2.3050914c1.9272076-1.634347,3.3253777-2.8624706,4.1945106-3.6843674.8691328-.8313444,1.5871121-1.5587714,2.1539379-2.1917262.5668258-.6424025,1.0013922-1.2659108,1.3036992-1.870525.3117536-.6140601.4723548-1.2895286.4723548-2.0216785,0-.8030043-.2739664-1.4548528-.8124502-1.9461017-.5290374-.491249-1.2422937-.7368735-2.1350437-.7368735-.8455157,0-1.5304295.1889419-2.0594669.5668258-.5290374.3684356-.9777747.8502386-1.3414876,1.4548528l-1.8327366-1.1714399c.5668258-.982498,1.2942516-1.6863066,2.1917262-2.1161495.8927503-.43929,1.9366541-.6612967,3.1364358-.6612967,1.5871121,0,2.8388523.3920545,3.7599442,1.1714399.9305389.7841078,1.3981702,1.8894192,1.3981702,3.3253777,0,.7179793-.1086416,1.3981702-.3212013,2.0405727-.2031126.6329548-.5243138,1.237569-.9636038,1.8138424-.4298429.5668258-1.0155628,1.2233995-1.7571598,1.9649959-.7321505.74632-2.3712216,2.2058972-4.9124898,4.3834525h8.4834921v1.9838901h-10.9586312Z" fill="#ededed"></path>
  <path d="M228.9376626,318.3823719v3.6276848h-2.1161495v-3.6276848h-8.4079153v-2.0972553l8.5023863-10.6185357h2.0216785v10.8263718h2.2484088v1.8894192h-2.2484088ZM226.8215132,308.7841225l-6.2539775,7.7088302h6.2539775v-7.7088302Z" fill="#ededed"></path>
</svg>
