<?xml version="1.0" encoding="UTF-8"?>
<svg xmlns="http://www.w3.org/2000/svg" id="Ebene_1" version="1.1" viewBox="0 0 400 400">
  <path d="M222.4531102,222.4977388c1.5519912.9676955,1.3751981,15.8133454-.3017726,18.2325567-3.368598,4.8595662-24.3287199,9.0278621-25.5894018,13.5177704.1392363,14.1389894-1.3592544,29.6096198-.3758477,43.621369.1105494,1.5751275.4558095,4.0602695.8489762,5.5470563.2851734,1.0784025-.6585857,1.3116815,1.193397,1.2360322,6.1739863-.2521933,19.6476435-11.1261131,25.1420906-8.4162153,2.3828773,1.1752509,2.1778199,15.8091604.8564966,17.6329815-.428697.59173-1.3070964.8816387-1.9067805,1.2870743-3.8950731,2.6333884-23.7293268,9.3811731-24.8766412,11.0542323-1.7866723,2.6053962-1.5373185,21.6813634-1.2583848,25.9561983.5566446,8.5309287,1.7325616,16.0620255,12.3419334,14.6664404,4.5414925-.5974,13.1089177-6.7728605,17.2457751-4.3255842,2.1535263,1.2739801,1.9524705,12.5115628,1.5401797,15.131048-1.0926708,6.942273-18.8875415,12.4876762-24.9815741,12.3591101-9.7620885-.2059512-22.5270701-8.2936294-25.0547797-18.124085-2.1981563-8.5487976-1.1325642-23.992162-1.0521694-33.3474571.2541077-29.5697272.7512535-59.5640071.8656514-89.4273061.0201603-5.26281-1.9823556-8.1968839,4.1980981-11.7038455,4.8545458-2.7546045,29.8506176-13.4371067,34.8793887-14.6225019,2.0891214-.4924532,4.1694456-.6535913,6.2853649-.2748744Z"></path>
  <path d="M243.3280155,233.5615058c-.5783211-.6470438-6.9498247,4.175019-9.1638474-.8173083-.9362739-2.1111733-.8281904-14.7496868.6155497-16.5230009,3.0315366-3.7235696,25.6114097-9.7973165,30.8915498-13.4880433l4.4496257,1.3071435c.1469906,5.3173096,2.571093,10.8965859.1539762,16.1455578-1.6174384,3.5124031-7.9821246,3.3837342-8.5855168,6.5853769l.6081328,110.4016076,1.2325342.8562064c5.2535329-.9065017,24.9176766-13.0698487,28.5921167-12.2576296,5.6035036,1.2386303,5.1589722,18.3013649,1.7019137,21.181667l-44.8999198,22.0064581c-2.4905184,1.0959287-5.5961149-.567337-5.5961149-3.252267v-132.1457683Z"></path>
  <path d="M124.3611364,143.3310899c.992813,1.0511081,10.0206529-5.6811505,11.8342088.5843435,1.253085,4.3291727-7.7282026,14.6294587-6.2908678,20.4425802,1.1137768,4.5045314,12.2291595-5.8064868,12.8462367.9372858.4541134,4.9628113-10.4116434,19.5691994-8.0100091,26.7474362l8.3370957-3.2307532c5.4744849,1.8351823,1.786138,6.942915.0600539,10.432677-2.4704287,4.9946629-5.8097653,9.6780227-8.2873301,14.8680754-3.4970167,7.325621-5.9986135,15.5505708-9.6538064,22.8669016-6.6721891,4.8906373-10.6758175-.7946101-10.4704727-7.817312.3269217-11.1805773,8.1723542-25.8216043,9.292252-37.1032747.1253103-1.2623554-.2754327-2.0414668-.469546-3.210108-3.4750163,2.4200708-6.7505399,5.2133191-9.5926692,8.36187-2.9640693,3.2836378-7.9765207,12.8375703-12.3552218,12.8398735-9.7782686.0051434-.5917625-16.7938673,1.6830673-21.1166364,3.7410965-7.1090577,12.6627691-17.5150915,15.0373297-24.0865398.4888887-1.3529689.5974141-2.5260826.4418575-3.9423597-1.5049888-.3477866-1.890561.853414-2.791789,1.5917913-4.8816562,3.9995474-16.3152857,20.8926048-18.7754586,21.938917-10.5701662,4.4954945-6.4881008-8.2315757-4.3665788-13.1426153,4.3783961-10.135401,13.2090232-24.7570046,19.7018188-33.795267,1.7466422-2.4314042,8.1906879-11.3890617,10.6729374-11.7558192,9.8293231-1.4523027-.7263549,15.5951082,1.1568917,17.5889337Z"></path>
  <path d="M160.1035695,246.5390072c1.2201657-.1418282,2.403166-.4935707,3.6358553-.0883931.8955524.3011178,1.5330579,1.2910744,1.7197775,2.1827499.2335522,1.1153233-.2144332,12.2796981-.4504931,14.0022233-1.1271238,8.2246062-11.2050021,18.8429004-12.515526,26.6092041-3.1761389,18.8221359,1.8186438,45.4548684-.1921629,65.2818406-.3827526,3.7740206-.9187992,5.7721673-5.1302735,5.1681849-3.3048885-.4739658-13.5517642-8.4635281-14.4538759-11.929079l-.5435057-53.7520365c-3.6861267-8.1843958-11.9620754-15.5379488-15.9613959-23.1636183-1.2144537-2.3156491-2.429944-5.0077707-.6950233-7.4089765,1.3937144-1.9289614,13.8349002-6.3432562,16.381435-5.9351016,3.4212032.548345,8.2400512,11.7064505,10.4139329,11.1854257,6.0448779-6.7500588,7.5883984-20.9664755,17.7912556-22.1524232Z"></path>
  <path d="M228.9674026,160.900331c1.9494448-2.5933321,8.7344887-6.8547816,10.207444-1.8348087,1.2854683,4.3809993.2823266,23.1269389-4.6408937,25.3738634-7.8370913,3.5767956-10.0295447-11.4097111-13.1027293-10.7334064-2.3785047.523429-11.7759463,18.5257769-14.4810211,21.4779662-8.2661865,9.0213206-9.6575405-13.9767192-16.2892898-16.3577867-5.4365739-1.951951-5.5799909,7.5284164-8.584049,10.0588379-5.1036655,4.298993-8.3773136-1.8994538-8.23796-6.7848342.15661-5.4903448,4.0190417-22.822003,9.6417522-24.7482867,10.2274636-3.5038255,15.7584668,9.5479277,21.9349978,14.6724311,5.4961213-6.4877641,17.2770625-28.7277616,23.5517489-11.1239758Z"></path>
  <path d="M279.8261684,177.0067474c2.9955327-.8869097,4.4726701,1.0797134,6.2253185,3.0518179,3.1692932,3.5661331,7.0329924,11.8386503,8.29433,16.4582566,3.6672826,13.4312974,4.0860447,54.9606374,2.3907526,69.2939457-1.3844936,11.7055775-14.6470909,14.6760829-15.8989954,4.0990915-2.0807696-17.5798408.7216602-40.6867782.0511731-59.1375036-.1861837-5.1234771-.4019658-11.6955264-.8439977-16.7222063-.3403869-3.8707977-5.0795617-15.604175-.2185811-17.0434018Z"></path>
  <path d="M278.2616763,132.282199c2.9999758-.5587833,6.2421368,3.7084102,8.0468509,5.9994067,5.8707716,7.4526583,22.2938783,35.9432907,23.3094681,44.5529197.4647056,3.9395267-.1223207,8.7187866-5.1486041,8.3998147-4.3468562-.2758549-11.755436-14.8843114-15.6080463-18.7762088-6.7381594-6.8068718-19.7569887-10.4597627-24.6843031-20.8212702-2.0838512-4.3820707-1.5399445-9.3606694,4.5241133-7.7928223,2.1733232.5619073,8.1277515,6.1579893,8.9304978,3.0153137-.7826045-3.9302476-5.6807203-13.401698.6300235-14.5771535Z"></path>
  <path d="M184.0268577,101.2764044c.1253745.0402475,1.30744,1.6961613,1.7982588,1.9239833l-2.3836122,10.5879025c7.4660751,1.4799704,13.9992709-3.2785114,21.1590607-3.2590375,6.7371606.0183244,12.4130322,4.8545478,19.5660183,3.2590323,1.7360286-1.730012-7.4625982-12.4053518,2.7751184-12.8505601,12.5894735-.5474794,12.3456215,19.6162171-1.8053804,23.806661-8.0130874,2.3728633-14.5038506-1.4041867-22.0412458-1.287464-8.6267147.1335917-15.8738017,5.2636121-24.7120735-.2132105-12.4041196-7.6864759-6.0840279-25.7321679,5.6438557-21.9673069Z"></path>
  <path d="M273.9462536,115.9105703c-1.9369201-2.178051-6.069783-7.2048509-6.5319752-9.9062013-.567428-3.3164166,1.6350554-5.9853687,5.0352328-5.8472457,5.6358435.2289409,19.6898858,13.4615839,23.5531565,18.0503176,3.9963342,4.7467844,15.9524288,20.8759144,10.4485374,26.3696071-5.9514034,5.9403754-12.3492702-7.8033724-15.6048964-11.6316818-5.1238012-6.0251071-11.8182622-11.3203607-16.9000551-17.0347958Z"></path>
  <path d="M110.265497,109.2818986c4.0581082-3.6841936,19.9207468-15.2077061,24.9155167-10.7118418,5.5672906,5.0111984-10.6671401,15.5952275-14.0291186,18.8038075-3.6659457,3.4986779-17.2373377,18.442689-20.5290876,19.4282445-5.2969494,1.5859157-6.6338546-4.0983121-5.193727-8.4274955,1.3793663-4.1465281,11.3444932-15.9225378,14.8364164-19.0927147Z"></path>
  <path d="M194.4594011,74.9041112c7.2021082-.8050428,25.7862385-2.4838801,26.9934468,6.9358854,1.8945671,14.7831797-32.8127231,14.0478416-35.9716583,4.7654991-2.8098099-8.2564588,1.8635308-10.9061142,8.9782115-11.7013845Z"></path>
  <path d="M148.5000903,115.1963617c-3.8918976-3.8961283,3.2396422-16.6861862,5.8719948-20.4947775,2.6464198-3.8289443,11.4873928-14.7154717,16.772426-10.5270987,1.975464,2.0430032,1.1887848,4.4752664.2417832,6.7864741-.7004339,1.7094461-13.8542734,21.7010734-15.2074521,23.1139219-1.9297638,2.0148586-5.5587183,3.2438183-7.6787519,1.1214801Z"></path>
  <path d="M244.3793788,84.8721039c3.5037342,3.7741314,7.8032366,7.1396687,8.9742807,12.904769,1.3337612,6.5661637-3.2770871,10.3104378-8.7692113,6.370134-1.8539209-5.3033767-11.4795166-15.0255728-12.2997451-19.7005834-1.3494349-7.6912987,7.9339034-5.0115797,11.8621124-1.3417918.6754328.6309987.0585932,1.5800762.2325633,1.7674721Z"></path>
  <path d="M159.7620393,62.9607111c-2.9576591,3.2654572-9.175147,14.9291781-11.9507163,16.3898541-5.6858332,2.9922367-6.6712993-.9982015-8.2766146-5.1012773-1.2409754-3.1718478-1.6093236.0387336-2.7515925,1.2324215-4.9493318,5.1721251-10.0007611,10.2478432-14.8574542,15.5118214-10.9643845,4.2048823-7.1129238-7.5849582-3.7990448-13.3742743,4.6562327-8.1343957,11.9030999-14.2112021,18.0750195-21.0955192-.3813522-5.9129048-3.1928557-11.3409417-3.7572999-17.4908869-.6264719-6.8257729-.0434456-15.7970255,2.264414-22.2824617,1.3142579-3.6932645,2.5863012-6.3289091,6.9159991-6.7198577,7.5085929-.6779859,25.849873,10.1085482,31.814006,15.1555804,2.1227061,1.796299,8.365331,9.4871951,9.2237777,9.9393549,4.1282014,2.1744001,12.0116318-.0426776,15.6673127,5.1230452,3.6623454-2.1500841,6.4221094-4.0392438,10.6583853-5.111113,3.6239327-.9169332,10.8016297-.7131041,12.7663282-1.606021,1.6213182-.7368572,6.3258392-6.6086554,8.4224761-8.3452649,5.7886511-4.7946438,22.8050869-15.863183,30.1435269-14.229445.9496697.2114225,1.869766.7637057,2.5920479,1.4075154,4.5242294,4.0326953,4.8900174,22.3993535,4.3566884,28.3556681-.2717745,3.0352267-2.7508987,9.6298431-2.234829,11.7803994.448026,1.8670055,6.7546434,8.2850196,8.4877431,10.736651,3.0811541,4.3585804,17.0758705,27.6206169,7.5674873,30.4674316-6.4241181,1.9233842-12.2554138-13.6805405-15.5521779-18.4904217-10.9838877-16.0251666-32.2140349-31.6566798-52.7416801-25.8888695-5.1455196,1.4457762-9.2512193,7.6592765-12.1785748,7.851949-3.977023.2617595-7.0385947-4.3938506-11.5390091-5.3125878-10.4885431-2.1411838-22.3792476,3.4374187-29.3162189,11.0963078ZM169.0660154,38.750898c-3.8482449-2.2698634-18.3902478-14.5029342-22.4032097-11.644305-4.0438483,2.8806311.9397351,17.4097707.9163219,21.6210174-.0216404,3.8923825-3.3159171,5.5421411-1.6542873,9.170445,4.4182472-3.6762121,8.1677161-8.0872383,12.8372899-11.5050406,1.6275737-1.1912704,11.5036617-5.9155815,10.3038852-7.6421169ZM253.7051102,42.7339998c-.1031177-2.6734805,2.4986424-13.2881312-.5100351-14.2933305-3.6196247-1.2093168-11.9378848,5.114877-13.8466817,8.3162512l11.7557331,5.7823478,2.6009837.1947315Z"></path>
</svg>
