<?xml version="1.0" encoding="UTF-8"?>
<svg xmlns="http://www.w3.org/2000/svg" id="Ebene_1" version="1.1" viewBox="0 0 400 400">
  <g>
    <path d="M215.4285583,90.04599c-1.7629547,1.2865143-1.9130096.9785538-4.1222382.5260239l-.5256805,2.5798264c-.9357147.2065277-.3247223-.8687973-.5142517-1.0284195-.1316681-.1108856-1.2220764.7685394-1.8740997.8926773-2.2158051.4218674-3.2593231.6469879-5.8441315,1.452446-.6522522.2032471-2.4845581.5893021-2.6027069,1.2633133l7.7230988-.5173035.0530396-1.5249176c.4674683.3708115,1.2047729.0390854,1.4203949.1450348.2447815.1202774-.2344055,1.102478.6039886.8648453-.069931-1.5656891,2.553772-1.4455948,3.7549133-2.0865402.4928589-.2629929.7669067-2.5872879,1.6425934.0140076l2.8635101-1.5328598,1.2970123,1.5527039.4781036-.9964905c1.2110901.5987091,4.35289.3161392,5.6328278-.049408.5035858-.1438217.3238068-.9813461.3686523-1.0110779.2946625-.1953278.7260742.7522202,1.2431335.7896805,1.0641022.077095,2.643692-.6127853,3.8990784-.2934341l-.5145111-1.5406265c3.3531647-.0949326,6.7336884.1036758,10.0904236.017067,1.4826813-.0382538,4.1128998-1.496727,3.859024.490036l.504715.0036163c-.2755737-.7733002.3762665-1.5865936,1.0425568-1.0273209.266861.223999-1.3191681.9666595.1854095.9353333,4.5825043-.0954132,7.7064667-.2629776,12.320282,1.2671356,5.1953125,1.7229614,5.8666687,4.8413773,4.5641479,9.9694977-.8941956.6470261-7.1313934-1.6603165-9.0788269-1.8399429-14.9704285-1.3808289-26.3311462,7.3753967-40.5241089,10.5837631-15.2845612,3.4551163-29.0912018,1.9706497-44.249054,7.9083099-7.9592896,3.1178284-24.0881042,13.51091-31.9523163,12.5089874-2.279541-.2904205-2.4594421-2.1304932-1.0333557-3.6674728,1.3202515-1.4229126,8.0110016-3.8962097,10.0919495-5.142807.113266-.9683838-1.0434418-.3992615-1.5688477-.2787781-4.6939697,1.0763779-11.5480652,4.8553238-7.7159882-3.8419647l1.0185394,2.056694c-.0261993-1.9395599,3.0534058-.1789932,2.5952454-3.0905991.9549255.1209946.1128693,1.6230087,1.7967682,1.0246353.853714-.3033676.2817078-1.4175873.3464355-1.4707336,1.2958374-1.0639801,4.6270447-.7657318,5.8221436-1.0711212.5585632-.1427307.0291443-1.1101074.6123047-1.625206,3.0470276-2.6914291,22.2282867-7.7884445,26.9537964-8.5749435,9.0388336-1.5044022,18.5756531-1.3054733,27.7444153-1.2171249,4.6612396.0449142,12.5811615,1.5126877,17.0058594.41539.0935822-.0232086,1.2937775-1.1018677,1.3027954-1.4216614-14.5845337.4847488-28.7148895-3.8418045-43.3733215-1.5598297l15.7581177-4.6322098c5.9208527-1.7481766,11.4203796-4.7939453,17.4098816-6.3418121,1.1634827-.3006821,3.0856323-1.4267807,3.488327.1235809h-.0000458ZM243.3261871,93.1530838l-.2607269-1.5428085-2.8405762,2.0566101c1.6817932-.8094559,4.3615417,2.4636917,4.6530304.0121384l1.2858582,1.0248947.4716187-.9881058,2.3634949.4699173-.7745972-2.0609741c-.5081024-.1811829.0357513.6981201-.5187073,1.0349579-1.3755646.8356628.367691-1.5252533-1.0343933-1.0460052-.6434174.2199249-1.1341248.491806-1.5470428,1.0421753l-.2559357-1.0278625c-1.595871-.4831161-.4973145.9634628-1.5420227,1.0250626Z"></path>
    <path d="M260.3633423,86.4398575c-4.135376.2691879-8.0384979-1.8004761-12.1427002-2.0529327-5.0962067-.3134766-10.3476868,1.3221207-15.5069275,1.0414505-3.7422333-.2035828-7.7102509-1.7675858-11.3485718-2.0762863-12.3390808-1.0469589-23.0440521,7.3675537-34.1954956,11.7483368-8.2722473,3.2497025-16.9871521,5.0250015-25.2006378,7.8495712-6.0742035,2.0888824-15.93367,8.3830338-21.8184662,8.6691589-4.616745.224472-.6997681-6.6889877.6794434-8.6359558,1.0539246-1.4877777.3746643.6191788,1.2687378.4962234.0596161-1.4246521,1.864151-1.9966278,3.1078491-2.0658493l-.5160828-2.5761185,1.486557.4516068c.50383-2.2060852,3.6873016-1.7399902,5.4813995-2.2862167,4.0920868-1.2458725,9.0069885-2.9141922,12.5227051-3.8061676,9.8349457-2.4952316,19.9346771-3.9890442,29.5606232-7.2772598.1326294-.8820038-1.2303619-.5517426-1.7942352-.5049286-12.0089569.9969482-23.9179535,1.7181702-35.383316,5.6703415,7.1202087-6.2546005,15.9736176-10.4028702,25.292511-12.1397552,1.0053711-.1873856,4.7833557-.9183502,5.4466095-.6510162.2964935.1195068.2019653.9508667.519516.9489288.6685181-.0040894,3.3363647-1.245903,4.2006226-1.3875198,1.8202667-.2982712,5.2518158.2066422,6.6332397-1.2259293l.2572479,1.0247498,1.0127411-.0116577c-.1877289-1.6965027,1.840744-.6311264,2.8671265-1.5186768l-.7830811,1.5341721h2.5768738l-1.0276031-1.5413361c15.0159454-1.1567078,29.4123688-6.3449173,44.406601-1.8080902,6.0099182,1.818428,11.614151,5.4713211,12.3967133,12.1311722v-.0000153Z"></path>
    <path d="M204.5106812,147.4897766l.0862579.9176178,1.0197754-1.0252075.3153534,1.0741272c8.9902191-1.5591736,18.6580353.970108,27.5758972,2.5434113-2.2406769,2.3966827-4.4546967,5.1099701-6.9565735,7.2372589-5.091095,4.3288116-3.9056854,2.6674042-9.8041382,2.5471497-19.9177856-.4060822-25.4146729,4.4507751-41.9128418,12.3526917-5.3495026,2.5621796-11.1663208,4.221405-16.5523529,6.6860657-2.0568848.9412384-13.8559418,7.7983704-14.5835876,7.2810974-.7240143-1.8582153-3.3406219-8.2068176-1.6038666-9.5270386.7652283-.5817108,5.7424011-1.1311035,7.2421417-1.5352783,7.7277069-2.0825958,15.9910126-5.5039215,22.2030792-10.5836639-8.1068878,3.3696899-18.149231,7.9251709-27.1302338,7.2416077-4.3746338-.332962-6.208725-1.9897919-6.4091644-6.548645-.1435547-3.2650909,4.6512604-.3627472,6.922699-.1599579,3.3522797.2992706,7.0614014-.3047485,10.3215485-1.081543l.2928772,1.0561523.8392792-1.060318,3.7984467.0247192-1.5423584-1.0205078c1.8652649-.629776,4.1643829-.7452698,5.9446259-1.1578369.2469177-.0572205.1882324-.8130798.6009369-.8958893,1.4943085-.2998505,3.7897797-.343399,5.3318634-.021225l-.523819-1.0244141,2.5902405-.5251465-.516571-1.5439148,2.0600739.516449.0056-1.5548248c3.4919586,1.7424164,3.0968781-3.1484528,6.7080841-1.5410767l.0565948-2.0109863c7.6509247-3.03125,15.2263184-6.2720337,23.620163-6.6608887l-.0000305.0000153Z"></path>
    <path d="M225.806427,131.8295593c2.9172058-1.1033173,5.9958649-.313446,8.7285309.8384399,1.2160645.5126038,11.2700195,6.8876648,11.6460266,7.4683075.6253815.9657135-.914566,1.9947052-1.5822906,2.5813446-7.9316406,6.9685059-23.5761871-.2240143-33.0450439-1.0113983-21.4116821-1.7804718-34.5892639,12.7759705-53.8502197,17.3980865-7.5210876,1.8048553-22.9780731,4.4843292-21.7904663-7.5943451l1.2936401,2.0609131,1.8027344-1.0235138-.5218658,1.0234985c1.5623322.7517395,2.1401978-.3438263,3.6114655-.5132141l.7948914,2.0667725,2.0518341-1.0229034.7795868,2.0569611c1.4375305.2882538,1.0047607-.529129,1.0285645-1.5499268,1.4939728-.5912628,1.4904938.9355927,1.8631744,1.0051575,1.4822235.2766571,3.5633698-.6140137,3.304657-2.55159l.5163269,1.5460815,1.034256-1.5451965.5150757,1.5427704c1.0437927-.0581512-.0527344-1.5108795,1.5383911-1.0219727l.2967987,1.0524292,2.2278595-.6174774.1155548-1.9308929c.6705933-.3068542,2.6030731-.2893066,2.9580078-.7004395.5358734-.6207428-.6791534-1.9600372,1.029007-1.0145416l.8684387-1.4436035.764389,1.0259552c-.2344208-1.6013489,5.5946198-1.9648743,6.2106323-2.5806885l-.520874-1.5413666,5.1598358-1.0423584-2.0588989-1.0206146c1.7854919-.1818542,2.493866.1542511,2.575119-2.0700836-.2174377-.2297516-6.2380676,1.9073334-6.1832733.2561951,2.7892456-2.0642853,6.0686646-1.9693451,9.2882538-2.333252l-.5211182-1.0193481,1.7781372.5410156.3961029-.9664612c1.3482208.1944885,1.1187592.7257385,1.7993469-.5937042,6.370285-.3027649,13.290451-3.4137421,19.5719299-3.6507263,1.8263397-.0689087.6821899.6612244,1.754837,1.048111l.260849-1.5576935c1.1433868-.0356903,1.9985504-.287735,1.8176117,1.0389252l.5002594-.0005951c.1407318-2.1999207,4.0982056-1.0908203,5.6399231-1.2809143.9681091-.1193695,3.6651611-1.1855011,4.4477539-1.104599.5248108.0542603.9611664,1.0244598,1.2633972.8282471.0449219-.0291595-.1629028-.7886047.3848267-.9996338,1.8225555-.702179,5.9339752-.7596588,7.8527222-.0761871l.5539856-.9716949.0492401.9717255h.0000763Z"></path>
    <path d="M191.6917267,257.3739929c.1242981.0908203,1.218277-1.0989075,2.7923126-1.0582886,9.0144958.2326355,16.6643372,4.2347412,27.4009094,3.6352234,2.6070404-.1455688,9.0181427-1.7789001,10.8210449-1.5541077.6965027.086853,1.2190247.4480286,1.5810394,1.039917.4332733.9197388.5890656,2.6589661-.592514,3.0288391l-28.1896515,3.3108826c-9.9279633,2.6436462-20.8613739,5.2931519-31.1329041,6.0485229-9.2489471.6801758-16.7781372-.4399414-17.8120575-11.0914001l1.032608.2594604c.1935425-1.5218506-2.2039337-1.0611877-.5242004-2.8566284l3.1101532-.241394-.5144653,1.5405884,2.574646-.5162048.7808075,2.0753174.5916443-1.0463257c2.3850861-.0332336,4.7444611-.2051086,7.0989685-.5583191,3.0857239-.4628906,5.2798615-2.4246216,8.3126221.054657l-.256134-1.5516968,1.8487854-.4003906.7459564,1.4269409.9432831-.2455444.0259857-1.0558777c.375473-.2153015,4.9062653-.8771362,5.3917389-.7736816.512558.1092224.0834198,1.4277954,1.1095276,1.0413513l.788681-2.0617676c1.9281616-.6188965,1.8178864,1.3647461,2.071228,1.5498657l-.0000153.000061Z"></path>
    <path d="M210.2181244,188.74263c1.4477386,2.1079102-4.053894,4.0221558-5.4897156,4.9928436-1.4982452,1.0128937-2.8415375,2.3610535-4.2668457,3.4792633l7.8983765-2.2517853c1.6159515.3877106,1.739502,3.5249329,1.3209076,4.762085-.35849,1.0595398-10.2037811,3.1677704-12.2025146,3.8018799-13.2560272,4.2054901-31.8041229,14.1130524-45.3151855,12.5456543-2.04245-.2369385-3.5501251-1.3484802-3.7734985-3.4996796-.2609253-2.5129852,1.793869-1.1496582,3.1509399-1.36203,3.160202-.4945679,6.6430511-1.249939,9.4245453-2.9006195l.9632263.9920044,2.3878021-.9919739-.5207977-1.5411072,1.3204498.4638977.5111542-1.0128479c2.1870117,1.4048615,3.8898621-1.8506927,4.8922729-2.777359.7268524-.6719513,2.4883881-.8094788,3.3328705-1.3462677,6.6193848-4.2076111,22.5495911-11.1322174,30.334137-13.0348206,1.2319336-.3010864,5.2742004-1.4223175,6.0318756-.3191376Z"></path>
    <path d="M159.1487579,127.2334061c.2798615-.7808304,1.9645538-1.2739182,2.7487488-1.6334991,15.3653717-7.0454941,29.3774567-8.397995,46.0750122-9.7436447.9194183-.0740967,1.7954407.0105133,2.6008759.4937134l.2195129-.9846497,1.0213165,1.0258255.3127594-1.0357819c.3575897.0241623.8088531.5328293,1.1500549.4042206,13.1257324-4.9476852,28.5337524-14.4800034,43.4982605-11.0124207,4.7397461,1.0982971,8.9582825,3.8682251,4.3066711,8.4312668-6.5630035-1.3537369-13.2685394-2.5608368-20.0220642-1.8856812-8.48703.8484573-14.9646606,6.713356-22.938446,8.5625381-13.8010406,3.2005615-24.8698273,2.853035-38.5717468,3.7738495-6.8837585.4626083-13.5808563,2.7790375-20.4009399,3.6042709l-.0000153-.0000076Z"></path>
    <path d="M145.2032013,190.7518311c3.7443085-2.7380981,8.725235-5.014679,13.0774384-6.7990417,10.5080109-4.308197,21.3844452-8.6465149,31.4612274-12.9679718,9.0080414-3.8631287,20.3778687-8.3008118,29.8123322-3.7276154-1.6649475,1.8117371-2.8976898,5.8250427-5.0321503,6.8787079-1.4872742.7341766-4.8314819.3379059-6.5318756.6576385-5.1968536.9771576-10.0634003,4.7964172-14.9260712,6.7612305-8.9159393,3.6026001-15.7004089,2.8615723-24.7379761,4.1809692-7.7119598,1.1258698-15.3199921,4.2915955-23.1229553,5.0160828h.0000305Z"></path>
    <path d="M177.2232056,275.4428711c.0625763-.7121887,2.3766327-.9360962,2.9284973-.9847717,3.5384827-.3121033,7.6170349-.1246033,11.2068481-.6244507,11.863678-1.651947,25.4944-6.7353821,37.2548828-7.1636963,9.353775-.3406677,5.3550415,6.0811462,2.8351135,11.6235046-2.2556458.5547791-4.5460358.0812378-6.8427887.3869324-4.7342529.630127-9.9944916,3.8829346-15.1643982,4.4596863-11.4116669,1.2730408-21.3931885-5.8077393-32.2181549-7.6972351v.0000305Z"></path>
    <path d="M176.7014313,279.0684204c.1321869.89505-1.2055359.5370789-1.7483063.4583435-2.6322021-.3818054-5.7838745-1.6637573-8.3468628-1.9978943-1.0175171-.1326294-.7821655.1697693-.7416077,1.0180054l21.8683624,4.0993958.3371735,1.5780334,1.1882935-.9755859c1.1825714.6781311,2.9569397.9371033,4.0621185,1.5502625.7936707.4403381,1.2352295,1.7741394,2.1816559,2.089447,2.0926361.6972046,5.8473206-.1847839,8.2514801,1.5055237.6056366.4258118.6985168,1.3718262,1.2058868,1.5170898,1.6681366.4776001,4.456192-.1404114,5.9434509.0928955.9183655.1440735,8.335144,2.6929321,8.5749969,3.0805054,1.2744293,2.0594177-3.3585968,3.8082581-4.9406738,4.4465332-8.2513123,3.328949-17.3749847,3.9566345-25.9584808,1.6690063-.4236603-1.7662048,2.5110168-.8829651,3.8135986-1.0923462,5.146286-.8272705,10.8832397-2.1663818,15.9785156-3.3488159.4328156-.1004333,1.2323761.8859558.8644257-.7171326-10.3087158-1.5229797-22.6975098,4.1734009-32.3647614.0889282-2.0886688-.8824768-4.3390198-2.0609436-4.8202667-4.5049744l.8622131-1.1869202,21.871048.6943359c-4.6036072-1.0840149-9.1701813-2.3442993-13.8400726-3.2066345-7.2121735-1.3318176-15.7098389.3269043-18.6914215-8.1644897-.1410828-1.6078796,1.517807.7332764,1.0215607-1.2792358l-1.0265961-.5127258,14.4542999,3.0984192-.0000305.0000305Z"></path>
    <path d="M212.3164978,213.4457703c-8.6556396,2.0931396-15.7788239,6.9922791-24.3743744,9.4638824-9.4560852,2.7190399-15.5470581,3.6823578-25.1806335,1.155365-1.8192139-.4772034-8.1530609-2.1064911-8.7745819-3.6218872-.4478912-1.0920105.7528992-.6697845,1.2649231-.780014,6.1397858-1.3217316,12.275177-.8168945,18.3586273-2.3061676,8.8280334-2.1611481,27.8340912-12.6081238,35.8878632-11.1067657,2.1520538.4011841,2.4566345,5.2860718,2.8181763,7.1955872Z"></path>
    <path d="M212.2725525,179.9769897c.309433,6.0562286-1.9801178,4.0347595-5.81987,4.6381531-9.5537872,1.5013428-28.1875153,9.0448608-36.8086243,13.7995148-5.0584564,2.7898102-15.7514038,11.4593048-21.8284607,7.5464935-1.405304-.9048309-2.8020935-7.4194946-2.5213318-8.7029114.2304382-1.0533905,4.3255157-1.8838806,5.3526154-1.8685455,1.9489899.0290985,5.0959778,2.6511841,6.6882324-.4994202l2.3089752,1.5431976c.229187-1.6588135,1.6896973-2.3151398,3.1141968-1.5375824l.0066681-1.5612335,1.5414886.5241699.7776642-2.5752563,2.3178101,1.5428009c-.0749512-3.5007935,2.8990936-1.5126495,5.1683655-1.558197l-1.5441437-1.0222321,2.3578949.4557953c4.532608-1.9149933,10.9299469-2.7298889,16.228714-4.3357849,5.5309906-1.6762848,11.2168732-4.7664185,16.5242157-6.1980591,2.1168213-.5709991,4.016098-1.2870178,6.1355896-.190918v.0000153Z"></path>
    <path d="M152.0048523,235.2486877c3.3386536-1.8356476,7.1403351-1.4458771,10.7614288-1.8878784l-11.0379333-2.2757111c-2.1512451-4.5596313.0803833-5.4777985,4.318222-4.6918945l-.5146179,1.5406342c1.525528.4721222.5951843-1.1574707,1.7548218-1.0462952,2.4452209.2344208,6.5261688,2.3943939,9.5007629,2.9632263,17.0223694,3.2551575,31.6345825-7.5677948,47.1140747-12.0249023,1.9640808.5153351,2.8020477,3.2872162,2.5145569,5.1314087l-.8117981.7637329-48.1690979,14.3140717c-2.5568085.4877014-14.068161,1.7818604-15.263031-.2783203l-.1674194-2.5080566.0000305-.0000153Z"></path>
    <path d="M186.0019531,251.1718445l30.2157898-8.2490692c2.8099976-.263031,11.421875-.1571045,13.4263916,1.5328217,1.5724335,1.3256531,4.4962921,7.4610291,2.8470001,9.0623627-15.6312256,6.2691498-30.8253021-1.1282043-46.4891815-2.3461151Z"></path>
    <path d="M189.0974121,128.7823486c-8.3770599,2.7619781-16.24086,6.7958527-24.5198517,9.8264008-7.1207733,2.6065826-21.0292358,8.5352783-27.5975494,2.7917633-1.1292725-.9874725-2.5490112-4.5220947-1.2792664-5.440094.9403839-.6798859,10.084259-2.5382538,11.9777832-2.8896942,6.9201813-1.2844086,13.9666748-1.8548126,20.9356079-2.8192444,4.5066528-.6236725,8.7026978-2.328476,13.2515869-1.4689484l-1.5441284-1.0222168c2.6077881.4619293,6.915741-1.11586,8.7758331,1.0220337h-.0000153Z"></path>
    <path d="M257.104248,125.8441086c1.9815063,2.3461227-3.9259491,8.9699478-6.8196564,9.1723404-5.4809723.3833618-11.7472229-7.5608063-19.1042023-8.2892914-12.6626129-1.2538376-26.2328949,4.2914886-38.9814453,4.6374969l4.1228485-1.8203278c1.4957428.1642914,4.0530396-.0205078,5.3555603-.7315674.9114532-.4975739-.6727448-2.4219055,2.1299896-1.0483475l-.2553101-1.037941,1.8444214.4725647.536911-1.0272064,2.0530853.5057144.4660797-.9281387c13.0842896-.6171265,29.7471466-9.6188965,42.5561371-3.8746796,1.0996857.4931564,5.4393921,3.1924591,6.0955505,3.9693604l.0000305.0000229Z"></path>
    <path d="M226.2780457,238.2653198c-18.6024475-3.2821503-33.907074,11.7007294-52.1559296,12.9064178,8.0761871-5.8051605,16.6878815-11.3814545,25.4729919-16.0926971,9.0644531-4.8610382,24.6194611-13.0773926,26.6829376,3.1862793Z"></path>
    <path d="M195.8111725,232.0749969c-6.8521271,4.6605072-13.344162,10.0442352-20.283783,14.5685883-3.8596649,2.5163422-8.9599304,6.016983-13.595932,6.5428772-7.5848541.8604126-7.9710236-1.8816833-8.4659119-8.7232208l4.4049988.4355316c.4182587-1.5037994,1.5082397-1.4017792,1.0220032.0839691l.7576141-.0197296.299469-1.0424957c2.2369995.9480896,5.127533-.1293793,7.4567413-.7503052,9.8224487-2.618454,18.4382629-8.8952332,28.4048004-11.0952148Z"></path>
    <path d="M235.0545654,67.341629l-51.1177826,7.7347794,4.8119354-2.6681442c14.2973328-6.4003525,30.9767609-9.8366432,46.3058472-5.0666351Z"></path>
    <path d="M226.7984161,117.9380417l4.8950043-2.0686417c8.1615448-2.4121323,16.9621735-2.9889297,25.1663513-.3621368,1.1693726.3744049,4.5158081,1.3644867,4.5360413,2.6715698l-1.8596191,3.3127899c-3.3522949-.6964188-5.9820557-3.0016708-9.0973206-4.2111282-8.6686707-3.3654785-14.9556427-.7887344-23.6404419.657547h-.0000153Z"></path>
    <path d="M209.2410736,286.2869873l15.3122101-4.0843201c2.3443604.052948,4.9780731.0380859,3.9140167,2.9133606-1.7983704,4.8594971-4.0382233,4.2518616-8.5027313,3.6188354-3.6327515-.5151062-7.0609131-2.0642395-10.7234955-2.447876Z"></path>
    <g>
      <path d="M246.6006927,59.4078255c-14.3913116-13.7310371-8.1482849-56.0956078,15.1963043-48.5047493,17.8263245,5.7965126,15.5163269,39.1502609,2.7028503,49.4666443-5.9157104,4.7628555-12.4618073,4.2259674-17.8991241-.961895h-.0000305Z"></path>
      <path d="M215.8157196,15.8197432c8.1884613-1.405057,12.7437744,5.8614683,13.4988556,13.1066484.7971497,7.6490402-1.8903503,25.2236023-13.2247467,21.4863892-10.5913849-3.4922218-13.0026093-32.4089546-.2741089-34.5930376Z"></path>
      <path d="M187.4203033,27.1801872c13.9624939-.7576065,16.5931702,28.7813759,3.9552307,29.2822227-12.120636.4803505-18.4238892-28.4971542-3.9552307-29.2822227Z"></path>
      <path d="M161.6085052,42.6466408c4.1963196-.5790596,8.5414429,2.87323,10.5495605,6.2543449,3.4915009,5.8787155,4.7229919,18.9434738-4.0980225,20.3746643-14.2732391,2.3158035-19.7947998-24.787735-6.4515381-26.6290092Z"></path>
      <path d="M139.4029083,62.7865868c10.1886139-1.4025841,17.0516663,18.5302238,7.2162476,24.8135262-14.0894775,9.0009918-21.6347351-22.8286514-7.2162476-24.8135262Z"></path>
    </g>
  </g>
  <path d="M223.1809692,374.8570557c.4044189-1.3071594,7.2948303-.8670959,8.695282-.4327087,4.8811493,1.5140076,4.5822754,7.0858154.7441101,9.7198486l2.9518433,5.4277954c-1.0061798-.1958923-3.3569641.3493347-4.0463867-.0819092-.8443909-.5281677-.8638763-5.1003723-4.4567108-5.0919495l-.7869415,5.1796875-3.1011963-.0031128v-14.7176819.0000305ZM231.9624786,381.3143921c-.0714417-1.0195312.3594971-2.7106934-.5080414-3.3700256l-4.6581726-.7653198-.0030823,4.1358032,5.1692963-.0004578Z"></path>
  <path d="M161.9864349,374.082428c.8141174.1759033,3.1368103,2.3877869,3.4802551,3.2294617,2.3128052,5.6678467-3.7887726,8.3590393-8.3813629,7.0990601l-.0020905,5.1664429-3.6175385-.002655v-14.7176819l.7746124-.7746277c2.2718658.3278503,5.6608887-.4505615,7.7461395,0h-.0000153ZM162.2399445,377.7021179l-5.1587372-.5230713-.0022888,4.651886,5.138092-.54422.0229187-3.5846252.0000153.0000305Z"></path>
  <path d="M142.1029205,389.5721436l-3.5578156-.0548096c-.0381927-4.2266541-4.3314056-3.2138062-7.3432922-2.7434998l-.4824524,2.7751465-3.5889206.0229492c.1426544-1.9642639,4.9419479-14.8010254,5.6683578-15.2379761.9311829-.5601196,3.0021057-.5230713,3.5813751.5675354l5.7227478,14.6706238v.0000305ZM136.4239502,383.3727112c-.7844543-1.509552-.9764404-3.7497253-2.5762939-4.6420288l-1.5545654,4.6420288h4.1308594Z"></path>
  <path d="M214.3995209,389.5718994l-3.647995-.2198486c-.3981781-3.4607544-2.8292236-3.3009949-5.9298706-2.901062-2.9474335.3801575-.6973419,4.2438965-5.3959808,3.1212463-.5792694-.5746765,4.970993-14.8175659,5.6697083-15.2390442,1.0447083-.630188,2.8323517-.4720764,3.5821381.5683289,2.1751251,3.01828,3.7040253,11.0527649,5.7220154,14.6703796h-.0000153ZM208.2030334,383.3752136c.397522-.3784485-1.4945068-5.0834961-2.0573578-4.6438293l-1.5552216,4.6413574,3.6125793.0024719Z"></path>
  <path d="M177.7369232,374.8570557c.405426-1.3102417,7.2902222-.8638306,8.6942902-.4317017,3.0038147.924469,4.4740906,4.581543,2.8788147,7.3605652-2.3506927,4.0950012-7.3710785,1.8478699-8.249054,3.1086121l-.2228851,4.6827087-3.1011658-.0025024v-14.7176819ZM181.3491364,381.3147888c2.8553162-.0281067,6.2369232.9180298,4.9398651-3.1349487l-4.9367981-1.0007935-.003067,4.1357422Z"></path>
  <path d="M271.2070618,374.082428v12.3938293h7.2297363v3.0984497h-10.328186c-1.1203003-5.1045837-.3135376-10.3509827-.0027466-15.4954224l3.1011963.0031433Z"></path>
  <path d="M246.9358063,374.082428c1.0529175.0600281,3.1417084-.4367676,3.5640259.8505554.5802765,1.7687988-1.633667,8.8135376.1054535,11.4867554l6.6612854.0543213c-.0379333.5920715.0950623,1.2358704.0203552,1.8214417-.0550537.4313354.0132446.933136-.2481689,1.3108521-.8087769,1.1685486-8.2147522-.7029419-10.1029358-.0316467v-15.4922791h-.0000153Z"></path>
  <path d="M166.892334,332.2532654v19.3653564c0,1.6307983-2.1894379,2.5562439-3.5074463,3.2084045-22.5944519,11.1799927-37.2365723-16.7549744-20.5169067-27.2327881,8.0930328-5.0717163,23.5450592-1.5363159,32.9893951-2.4985962l.6214294.4114685c.4786224.6846008.6111755,6.0080566-.5492859,6.7461243h-9.0371704l-.0000153.0000305ZM157.9546356,348.6178589c2.5417633-2.352478,2.1228027-12.159729.9368591-15.3352966-7.4376984-3.1421509-16.7121735.1114502-15.1120453,9.4344177.9910889,5.7745056,9.9645844,9.7978821,14.1751862,5.9008789Z"></path>
  <path d="M124.3043442,341.3679199c0,9.3034973-7.5419846,16.8454895-16.8454895,16.8454895s-16.8454895-7.5419922-16.8454895-16.8454895,7.5419846-16.8454895,16.8454895-16.8454895,16.8454895,7.5419922,16.8454895,16.8454895ZM105.8198471,332.3771973c-11.9212112,1.9294434-9.3613663,20.5602417,3.8931808,17.8331604,11.1013947-2.2840576,7.8954926-19.7411499-3.8931808-17.8331604Z"></path>
  <path d="M231.9599304,326.3145447c.1427307-.5100098,1.2150879-1.1617126,1.8208618-1.2775879,3.7289581-.7133484,13.9955139-.0965271,17.4799347,1.6003723,7.1591644,3.4864807,7.6450348,14.8904419.3106689,18.2798157l6.7254181,11.0909729h-8.262558c-1.2065582-1.5618286-4.5224609-8.3348999-5.683075-9.034729-1.177124-.7097778-3.7376251-.0468445-5.1615295-.2606506v8.7789612c-2.5092773,1.0080872-4.7029724.2703552-7.2297363,0v-29.1771545h.0000153ZM248.3623199,338.8454895c.6060333-.608551.7370605-2.3278198.6299591-3.1897583-.5475311-4.4058533-6.1355286-3.4100647-9.2395325-3.3486633-.3708191.2153625-1.0913086,6.7007141-.0795898,7.46698,1.0975494.7652283,7.6154022.1496277,8.6891479-.9285889l.0000153.0000305Z"></path>
  <path d="M304.7463074,357.530304l-6.6892395-.227478c-1.70755-.7983093-1.8548889-5.0677795-2.8618774-6.4338379-1.4795837-2.0071411-8.3024902-.665741-10.7294922-1.0767212l-3.0127869,6.647583-6.9247742-.3957214.0267639-2.6242065c2.077301-3.3764038,10.4730225-26.6142883,12.1379395-27.6282043.8653259-.526947,7.3796082-.6898804,8.224762.5671997l9.8287048,31.1714172v-.0000305ZM292.8960266,343.0927734l-3.0924683-7.7379456-3.1040649,7.7378845,6.1965332.000061Z"></path>
  <path d="M199.4261322,346.1963196v9.0371704c-1.8964081,1.68396-4.9852905.4967957-7.2297363.2582092v-29.6935425l.7746124-.7746277h15.4922791c.2739868,0,2.3105164,1.0479736,2.8085327,1.3227539,7.3086395,4.0326843,6.8389893,14.8157349-.533783,18.5099182-.5058136.2534485-3.5541229,1.3401184-3.8239746,1.3401184h-7.4879456.0000153ZM199.4261322,331.7368469v7.7461548c12.6644897,2.0332947,12.2879028-9.6537476,0-7.7461548Z"></path>
  <path d="M60.5119553,333.2861023v6.7133179h12.9102402c-.1354141,2.1087952.8595428,4.2835999-.3144073,6.2525024l-12.5977707.4579773c-.904541,3.8945007.6858139,7.5431213-.6386795,11.2356567-2.1926575,1.1253357-4.8400993.7518311-7.1055222.1282043v-30.7263794c0-.089386.7965546-.9108887,1.0406265-1.0250244l22.3712006-.696991c1.9548111.6542969,1.9128799,6.4423828.0848083,7.6607056h-15.7504921l-.0000038.0000305Z"></path>
  <path d="M336.2746582,333.2861023v24.013031c0,.1425171-.5296021,1.2053223-.8709106,1.3088989l-6.2460938-.6548157c.0655212-.6765747-.6291504-1.8322144-.6291504-2.2033386v-22.4638062h-8.520752c-2.0676575,0-2.1620789-5.0568237-1.7210999-6.3708191.8284302-2.4684753,5.6217346-.8730774,7.380127-.8378906,6.8077393.1361694,13.6433105-.3453064,20.4391479.2177124,3.9593506,10.277832-3.2671509,6.8455811-9.8312683,6.9910278Z"></path>
</svg>
