<?xml version="1.0" encoding="UTF-8"?>
<svg xmlns="http://www.w3.org/2000/svg" id="Ebene_1" version="1.1" viewBox="0 0 400 400">
  <path d="M305.7885802,154.3352804c0,58.78585-47.6553473,106.4411972-106.4411972,106.4411972s-106.4411972-47.6553473-106.4411972-106.4411972,47.6553473-106.4411972,106.4411972-106.4411972,106.4411972,47.6553473,106.4411972,106.4411972ZM146.1584836,229.5732804v-26.6969388c-14.961786-3.9441883-23.9659259-16.4319743-22.2420242-32.0325655,6.172336,1.420662,11.8281723,3.7362255,16.8506177,7.6123828l6.272236,8.3975727c-.0637476-2.6266289.3668283-6.7711196-.8958574-9.0967564-.5460376-1.0057018-2.3459136-1.4548361-3.4159449-3.0358013-7.9317228-11.7190761-5.1725309-25.4393342,2.1735435-36.7297641.6193066-.9518332,1.7787805-3.714052,3.0368259-3.2099379,8.6542926,9.6387518,16.7032616,20.492429,13.8452141,34.3295201-.8966593,4.3411302-5.246996,8.1566961-5.7944546,11.1143124-.519935,2.8089216.2603388,6.3695867-.0322353,9.2980955l5.9228414-9.6368595c5.5720865-4.9329113,11.9105322-7.1479374,18.9763796-9.0462121.8114269,15.7808584-7.9995425,30.959626-24.9043723,32.0407791,1.4018629,8.1707153-1.9698386,24.2585826.1694418,31.4132776.7593211,2.539504,11.3832008,6.1676363,14.2750428,7.0825083,7.0573353,2.2326802,14.6132462,3.9113609,22.0374396,4.2145502v-84.5403063c-19.486538-1.2269268-31.7606776-20.4825115-29.3625583-39.1573247,9.7589459,1.1942709,19.1817269,6.6702797,25.8014072,13.7968032l4.4420051,8.4479886c-.4671044-3.4720127.7788351-8.651906-.1705453-11.8295621-.5636566-1.8866059-6.2601739-7.3161981-7.6443853-11.0434815-5.8039707-15.6284252,2.5100051-34.5372718,13.1629817-46.1189733,1.2516629-.5206912,2.7418856,2.0401794,3.4072562,2.8526877,9.6965097,11.8407597,16.1204611,31.088844,9.4936008,45.6730993-1.5956779,3.5117346-5.4811647,6.3324605-6.439231,8.6890305-1.3129737,3.229541-1.081337,8.2920206-1.1128205,11.7771926l5.4859353-9.1838741c5.7404528-7.406236,16.1585325-11.0772146,24.7615584-13.9489944v12.9035204c0,8.1788396-9.6779004,20.3368458-16.8587985,24.0765077-4.1481358,2.1602626-8.7365208,2.3100321-12.5078342,4.400227v83.2054593c5.5468883,1.1384212,35.1639733-5.9949441,36.8033999-9.9990155l-.3565167-32.6791994c-16.3253665-1.3980307-25.690759-16.5551514-23.979529-32.0728136,8.0766323,2.7240791,15.7038001,5.2118664,21.3498706,12.0121322,1.3185137,1.5880503,1.5555656,4.0612933,3.5496251,4.895252,1.9583696-10.1200778-7.2801009-14.2166171-7.0411148-24.3327386.166986-7.0684069,7.8474305-24.4443191,14.1469887-27.7560775,2.118852-1.1139077,5.254761,5.4071992,6.1432002,7.2575057,5.2943173,11.0262023,6.6239192,22.3260804-1.1967057,32.4271788-.908945,1.173991-2.8488272,1.402161-3.4448458,2.824806-1.1841811,2.8265385-.3814398,6.5763078-.5807135,9.579325,2.7044352-2.9724409,3.9176186-6.5446507,7.1787339-9.2752379,4.4329128-3.7117531,11.2619988-6.1061537,16.8439864-7.1844128,1.6850549,16.2326304-7.0177109,29.1786255-23.0722171,32.55478.8891847,8.5065593-.5910751,17.1054208.8249297,25.7261207,1.5234098,1.820582,16.437579-13.0482139,17.8163936-14.6561505,43.6230099-50.8719808,18.3151699-132.5456383-46.1051618-149.7182581-91.583792-24.4136222-156.3189234,89.2195569-89.6509548,155.5034038l12.0373657,8.8752363Z"></path>
  <path d="M74.0940557,280.3046849l1.7677913.4397221,6.2281271,70.7491022-10.6746874-.0119845-3.5725019-40.0329969c-2.0548339-.5177666-1.4652727.3972569-2.0322187,1.1213895-6.093756,7.7832579-11.4320077,18.4829976-17.6833085,25.8731287-.6012704.7108068-.8276026,1.7729314-2.0731443,1.4874252l-20.9128445-29.3761718-3.5653045,40.9397275-11.5759644-.0019456,8.0227631-71.1936931,28.9129743,39.1383439,27.1583183-39.1320472Z"></path>
  <path d="M235.5932286,286.5267499c14.5860669,2.0680752,19.9991079,19.93562,9.3590862,29.8120415,13.0893867,7.1617655,14.0473746,24.5089672.6120803,31.7732067-9.8603061,5.331303-22.2026875.4407791-32.6561645,3.3841885.2777389-.8927068-.897298-1.9019809-.897298-2.2316304v-61.4029593l1.3348469-1.3348469c6.9362424.6986985,15.5537447-.9490621,22.247449,0ZM222.6897082,297.2055254v13.7934184c0,.2452037.9120017,2.076188,1.5006973,2.2554608,22.2594116,2.6865613,19.8993768-20.8798181-1.5006973-16.0488792ZM222.6897082,323.9024643v15.5732143c7.5966565,4.4699538,26.8909972-.4210236,19.9481752-11.9456025-3.2356158-5.3708865-14.5437324-5.2459833-19.9481752-3.6276119Z"></path>
  <path d="M361.5137901,321.2327704c10.2950965-6.1446825,13.6800513-18.953802,28.4746481-13.3377255l-17.6709315,18.0780726,17.6824934,24.1721646c-2.8831419,1.316577-7.6981311,2.1361704-10.6723323.8792238-4.3901127-1.8553343-12.390037-17.3282039-17.8138776-20.0028578v19.5777551l-10.6787755.889898v-63.6277042l1.4750769-1.1937826c.8080653-.2548708,1.6613112-.1147927,2.4836239-.1860539,2.2071486-.1912703,5.3474101-.4393642,6.7200747,1.3798365v33.3711735Z"></path>
  <path d="M132.6045818,328.7354153c0,12.7970641-10.3740702,23.1711343-23.1711343,23.1711343s-23.1711343-10.3740702-23.1711343-23.1711343,10.3740702-23.1711343,23.1711343-23.1711343,23.1711343,10.3740702,23.1711343,23.1711343ZM105.8686413,316.101381c-15.1745555,3.1576017-9.8737584,32.8081253,9.4903817,23.7216684,12.5660805-5.8965257,6.3978901-27.0277839-9.4903817-23.7216684Z"></path>
  <path d="M286.758245,351.4939121l-.4491368-4.4623415c-33.6205475,19.0848723-38.4041909-31.327812-1.3323628-22.2417736.6813229-12.4990525-12.6849649-9.4281933-20.4240442-6.2583606l-2.5819533-6.5238245c6.3830343-6.6177422,19.052058-7.9153758,26.8717143-3.0887686,11.9589415,7.381541,4.2858921,28.7285258,7.5900351,40.2813159-.5499545,2.2399129-7.6885491,2.520139-9.6742522,2.293753ZM272.2577645,332.9807379c-4.0277443,1.1840538-2.8635482,8.4925026.9146045,9.4730787,3.2500823.8435215,14.6110753-2.7048386,12.6297641-8.196888-.6745317-2.086559-11.4048698-1.9051487-13.5443686-1.2761907Z"></path>
  <path d="M304.5603206,306.994403l9.7939492-.0082123c-1.3193963,7.1348568,4.6549666.3875288,8.8416874-.4869637,25.9943641-5.4295179,20.0639276,28.4398297,20.3957468,43.9733512l-9.5367265.8905533c-4.0323341-8.5469296,5.3403562-36.6481312-10.3497867-35.523332-15.2098574,1.0903684-7.4487475,24.7732291-9.453433,34.6654241l-9.6914372.9840775v-44.494898Z"></path>
  <path d="M200.4325945,319.4520342c-2.8476906-2.8487365-15.5039896-7.6266998-15.9620173-1.3510377-.3342289,4.5794344,11.6502174,6.9170754,15.3781957,9.509598,9.5823261,6.6637719,6.5087899,18.692067-3.5979422,22.8024555-9.8662897,4.012601-15.6659578.205033-24.2849907-4.2822466l4.4648513-8.8803547c5.179681,2.6289827,12.4601739,7.8443973,18.0415688,3.6109204,5.9508229-4.5136874-11.9426354-9.8012691-14.795812-11.7663073-11.9657763-8.2410625-4.5088682-22.4886753,8.3068553-23.5136765,5.554162-.4442217,11.7414288,1.9629062,15.9693989,5.5385414l-3.5201079,8.3321075Z"></path>
  <path d="M167.4646874,310.6303647l-3.5178851,8.8223049c-4.5205401-2.078216-13.3422877-8.269704-16.0333687-1.3342373,4.787181,8.2131673,21.6042423,6.5435349,21.3113072,19.48188-.35255,15.5714163-24.0279935,17.1177004-33.6384068,8.4429632l3.4643412-8.7962392c4.4740993,2.41765,12.8152442,6.7930135,17.7361762,3.9674152,8.2890673-4.759581-9.5822528-9.5249344-12.1194345-10.926482-7.7455338-4.2786583-10.343897-11.4711842-4.3116433-18.8624982,7.1932729-8.8139095,18.6474787-6.024042,27.1089137-.7951067Z"></path>
</svg>
