<?xml version="1.0" encoding="UTF-8"?>
<svg xmlns="http://www.w3.org/2000/svg" id="Ebene_1" version="1.1" viewBox="0 0 400 400">
  <circle cx="200" cy="200" r="190" fill="#0c2038"></circle>
  <g>
    <path d="M49.7874319,192.420605c4.3379113-.0434423,13.3745016-1.0978607,12.4661746,5.5885236-.141217,1.0395282-1.2474231,2.2145007-1.1002374,2.9359819.2427423,1.1898845,2.6575852,1.6687953,1.5713026,5.3062583-.3312952,1.1093558-3.3150492,3.3879861-4.3278649,3.3879861h-8.609375v-17.21875ZM54.8821042,196.0261997c-2.774375,3.1764274.6839092,4.5870125,3.2150754,2.0266095.3170615-1.2764181-2.3929101-1.8850163-3.2150754-2.0266095ZM58.0366786,205.4237409l-.4949183-2.6484596-3.6003593-.2608807.5563917,3.3130194,3.5388859-.4036791Z" fill="#f8f9f9"></path>
    <path d="M35.4412182,192.5238452c.3792504,2.4973381,7.5032693,16.2304959,6.6291155,17.112884l-4.078727-.0732746-.7378097-2.8281266-7.6324053-.0426192-.5725764,2.6926184-4.1967383.2510261c-.6578114-.6122355,6.0389293-15.950772,6.8162885-16.630017.998124-.8721459,2.5365053-.7496585,3.7728527-.4824911Z" fill="#f8f9f9"></path>
    <path d="M363.4420603,204.1443638c3.6764079,3.8893646,6.061214-3.2270258,9.3636886,1.6188167,1.3234465,1.9419418-2.3876117,3.434833-4.0130553,3.7356805-11.2151154,2.0757652-15.1361235-12.4759121-5.9133727-16.5923934,3.5764392-1.5963074,8.5796653-.8674558,10.4591674,2.7001619l-2.7130043,2.693176c-4.9339134-5.1039051-10.8243856,1.9926929-7.1834237,5.8445582Z" fill="#f8f9f9"></path>
    <polygon points="352.0061819 192.420605 351.4140348 197.1737089 343.6915712 196.5806537 343.6911129 198.9491559 349.3826008 199.5079187 348.9717116 203.6339558 343.6906389 203.6987723 343.6967376 209.64242 338.9436819 209.639355 338.9436819 192.420605 352.0061819 192.420605" fill="#f8f9f9"></polygon>
    <g>
      <path d="M313.4124319,135.420605c.1314843,1.4531105-.7627356,2.4519586-1.53756,3.5120053-6.9797244,9.5490458-18.4722932,17.0204818-28.74369,22.6129947-1.4426733-1.2953618-4.706383-3.0657388-6.5425963-3.8478298-19.2765468-8.2103818-42.2666851-2.6724926-58.173143,10.0851768,2.8262814,1.0555697,5.8140141-.2247229,8.5818793-.3243344,10.5155255-.3784388,22.512287.3514005,32.5079508,3.7597716,3.4319796,1.1702535,8.0522856,2.6721285,9.3759092,6.3584658-1.8504527.1696092-2.5120395,2.0119654-3.9445841,2.8832985-7.13246,4.338258-26.7669305,3.0188714-36.0533187,4.3219237-34.8643559,4.8921154-69.6623359,37.815822-60.0534043,75.3304599,3.4988149,13.6598719,19.1031017,34.4410966,32.1430408,40.2944428,3.5322582,1.5855542,4.7747766.7835816,7.9395163,1.2636251,2.178677.3304726,8.8505861,4.7032093,12.1611358,5.9482392,2.657033.9992557,9.9760891,3.5485558,12.4088731,2.8868843,1.8488375-.5028491-.2088913-1.5562047.0479468-2.2938605.4375135-1.2565672,5.0832591-7.1381054,6.2749516-8.6014807,7.338726-9.0118134,17.9727338-17.7174041,27.9385558-23.7176942,4.4632586-2.6872692,10.2436482-6.4195611,15.3842766-6.584438-3.9673434,2.8358004-7.2734911,6.4290012-11.2782396,9.2060999-.1508354.104597-1.1927119-.0651662-2.0840627.5635425-10.590237,7.4697582-19.7484864,19.2819252-25.2284373,30.9052075-25.4693714,9.8440724-46.0078306.6082244-67.6875-13.0625l-12.1997184-11.2603488c-8.1778931-9.4222383-17.352694-19.2857586-21.0587868-31.4881796-.8530406-.8549961-1.0744102.0543252-1.179465.877818-.405015,3.1747889.9968537,6.3511732.0004702,9.2144604-9.8243581-14.9914555-16.6074258-34.2843385-15.4313218-52.5407164.2172149-3.3717737,1.7701333-7.7021355,1.8232334-10.6995855.0527832-2.9795644-.87413-6.0823363-.664959-9.5173409.5221034-8.5739791,4.697857-15.5203184,10.1167974-21.6486072.3915806-.0266111.7988542.0397421,1.1875,0v.59375c-2.1073427.4592253-3.0748095,4.627826-3.7321988,6.658245-2.4476338,7.5597859-4.4237885,18.4383949-2.7448879,26.2407098.7989498,3.7129405,2.764167,6.1489925,2.9145867,9.8510452l-4.1637041-7.1205931c-.9596247-.1621205-.6008451.7882225-.529221,1.4136891.816646,7.1314594,5.6096921,16.3837033,10.3251183,21.7465857.6488378.7379271,5.5851611,5.9883473,6.240479,5.3315532-7.8688979-27.3941153,5.8028732-55.4843959,27.6128694-71.8598743l6.819935,8.042538,6.526164,3.5615489c-9.1145952-9.2510622-13.0741597-20.7911767-6.0255879-32.7625229.5880662-.9987759,3.9806909-5.3998532,2.8423141-1.9102297-3.8808632,11.8965451,2.2856096,28.0419792,15.6612208,30.2103961-.0674117-1.9566505-2.3374411-2.4688731-3.5542137-3.8615907-8.3040229-9.5047827-9.719387-22.8794907-1.4838471-32.944883l-.3064315,16.3289189c1.3813562,7.922293,6.6306312,14.3422535,14.5452929,16.3296619l-5.5617157-8.0945093c-4.3077321-8.6028485-3.8682532-16.1054919,1.7191053-23.9684172l1.1809263.2961641c-.3396203,4.6389734-2.0236088,9.2600673-.8884704,13.9562006,10.1780154-4.132039,20.9290367-6.7198326,31.7444185-8.6306089,11.5303106-2.0370842,28.740418-5.1377238,40.1036301-5.6221501.5908382-.0251881,1.9678585-.3195014,1.4681183.8783685-.8388843,2.0107934-5.2197101,5.495142-5.0478231,8.605397,12.0354497-10.8172345,23.0096776-12.9326928,38.3026725-7.7068926Z" fill="#f8f9f9"></path>
      <path d="M268.8811819,177.576855c2.539257,7.0719179-6.950079,11.8562426-12.3111916,14.1106834-12.4970794,5.2552387-24.9753916,7.4321991-37.1512731,14.5049769-27.4895688,15.9682577-44.2130523,52.1722415-24.6463664,80.8212957,3.9956941,5.8503958,8.9540706,9.9773911,14.140081,14.656794-3.1647397-.4800435-4.407258.3219292-7.9395163-1.2636251-13.0399392-5.8533462-28.6442259-26.6345709-32.1430408-40.2944428-9.6089316-37.5146379,25.1890484-70.4383445,60.0534043-75.3304599,9.2863882-1.3030524,28.9208586.0163343,36.0533187-4.3219237,1.4325446-.871333,2.0941315-2.7136893,3.9445841-2.8832985Z" fill="#a4bccc"></path>
      <path d="M210.6937377,228.6333625c5.911432-7.4509092,14.4769884-12.949348,23.1649037-16.9071729l85.3149691-27.5307301,1.2724802.8957334.4218697,12.7079674-110.1742226,30.8342023Z" fill="#a4bccc"></path>
      <path d="M319.9403697,212.6108889c.4129608.4455226-.867574,10.6563383-2.5237802,11.4623333l-116.8136956,23.5630347,1.9160805-6.1225979,117.4213953-28.9027701Z" fill="#a4bccc"></path>
      <path d="M311.0344169,245.8612146l-4.2462397,9.4007104c-15.6002576.6946297-30.4760448,4.6389048-44.1988218,11.9608811-21.1375645-3.7664228-42.7657561-4.5008307-64.0105762-1.1333268l-.9516913-4.7947342,113.407329-15.4335305Z" fill="#a4bccc"></path>
      <path d="M108.5686819,223.295605h-27.90625l-2.1048562-14.8575759,1.1555952-.5502719c5.7480752,1.509207,22.7740213-.1415986,27.3300316,2.9802023,1.8964625,1.2994655.3600872,9.6952597,1.5254795,12.4276455Z" fill="#a4bccc"></path>
      <path d="M101.2117296,142.7715919c1.1273947,1.1305094,5.9455253,6.34949,5.5419822,7.7064151-9.8098847,7.1515503-16.9590538,16.7346659-24.5470384,25.9844533-.5040745.6144691-.0088731,1.4854443-1.5410684,1.1113735,2.3265766-13.9232621,7.8053528-27.0507013,14.851377-39.1811867.7911535-.5523559,4.8993241,3.5813237,5.6947475,4.3789447Z" fill="#608199"></path>
      <path d="M111.4539455,235.8484372l3.0546537,10.603091-25.1423339.4968373c-1.4850292-.5093227-3.8692641-7.9826928-3.9599432-9.7047203-.065255-1.2392143-.0133768-.7601753.8779784-.8888785l25.1696451-.5063295Z" fill="#a4bccc"></path>
      <path d="M316.8953459,169.7810496l-34.9479568,13.1371402c-.0103115-1.1591978-.2978213-2.27961.5828284-3.2706524,1.1979502-1.3481176,7.69258-3.9470267,9.6948136-5.1487082,7.5292873-4.5188559,14.5974132-9.7913967,20.930534-15.8958305,1.9259467-.4286707,4.3215487,9.3664036,3.7397808,11.1780509Z" fill="#608199"></path>
      <path d="M243.9435186,280.3015465c-.4066651.7904814-1.3687548,1.8832505-2.077445,2.3696103-2.4029102,1.6490688-11.0908718,1.8657333-14.7500298,2.4686852-4.1881563.6901196-12.485645,3.0168948-16.156128,2.9026446-2.0683717-.0643817-5.0504179-4.4930179-6.2135925-6.2556372-.122212-1.2216137.0539773-.7877553.887298-.9004419,5.104983-.6903266,10.8805009-.4040664,16.038402-.596836,1.1445174-.0427748,2.2809045-.5862034,3.544049-.6122071,6.2862599-.1294121,12.4723992.4007694,18.7274463.6241821Z" fill="#608199"></path>
      <path d="M142.4124319,264.264355c.9963834-2.8632872-.4054852-6.0396715-.0004702-9.2144604.1050548-.8234929.3264244-1.7328141,1.179465-.877818,3.7060928,12.2024211,12.8808937,22.0659414,21.0587868,31.4881796l12.1997184,11.2603488c-15.0377877-9.4824993-24.6353912-17.6987458-34.4375-32.65625Z" fill="#a4bccc"></path>
      <path d="M313.4124319,135.420605c.9425695.3220873,1.9591427.4862068,2.9450259.6195559,1.3486419,1.5408724-5.4748114,9.7887408-6.7958575,11.2639875-6.3571119,7.0991531-15.2003261,12.6793171-23.2437984,17.7367287l-.7940765.058525c-.2554835-1.1381758-1.5770485-2.8215726-2.3925434-3.5537972,10.2713968-5.5925129,21.7639656-13.0639489,28.74369-22.6129947.7748244-1.0600467,1.6690443-2.0588948,1.53756-3.5120053Z" fill="#a4bccc"></path>
      <path d="M139.4436819,170.451855c-4.2868507,12.2509133-6.7821696,24.4741176-3.1258294,37.2664544,1.0068938,3.5227915,2.7684094,6.7061212,3.7167938,10.2302578-.8214282.8593266-4.1096421-3.6681793-4.1534644-4.7467122-.1504197-3.7020527-2.1156369-6.1381047-2.9145867-9.8510452-1.6789006-7.8023149.2972541-18.6809239,2.7448879-26.2407098.6573893-2.030419,1.6248561-6.1990197,3.7321988-6.658245Z" fill="#a4bccc"></path>
      <path d="M264.7229563,126.5183329c-2.8274036,6.4196771-10.0294239,5.6440978-10.0166463-2.0343557.6560017-2.8576745,7.7202223,2.9952685,10.0166463,2.0343557Z" fill="#f8f9f9"></path>
      <path d="M249.8781782,131.2612699c-4.5774464-.1264087-7.2925634-3.8610648-6.5252244-8.3067271,2.8715597-.5395806,2.605578,2.745601,3.6447174,4.365199.4566337.7117073,3.5668772,3.3322804,2.880507,3.9415282Z" fill="#608199"></path>
      <polygon points="275.4120303 163.9233626 274.6637661 165.2818059 268.8843 168.6676219 268.8838481 162.7317143 275.4120303 163.9233626" fill="#f8f9f9"></polygon>
      <path d="M267.6935931,160.9578623c-.2303649.9794351-6.1042347,5.8614268-6.5281668,5.3348882l-.5935222-5.9317706c1.1952996-.2436494,1.5024594,1.078708,2.6275791,1.1372511,1.1495479.0598142,3.0214236-1.0199517,4.4941099-.5403687Z" fill="#f8f9f9"></path>
      <path d="M259.9709172,159.1756082l-4.7420173,4.451891-1.7811267.8852217-.5919338-4.7481331c2.5139318,1.4694662,4.645752-.0603767,7.1150777-.5889796Z" fill="#f8f9f9"></path>
      <path d="M248.3069273,162.3539056c-.3963137.3433272-.742356,1.539523-1.0967907,1.5555546l-2.0732727-4.1447331c1.8697188,1.0532645,3.9255193.5618007,5.6418975-.5810879.144591,1.7073286-1.4900916,2.3197813-2.4718341,3.1702664Z" fill="#f8f9f9"></path>
      <path d="M278.3608662,168.64115l-5.9052881,2.1134195c1.4064912-1.5138488,3.368531-2.7871705,3.5608992-5.053937,1.4465243.5975019,2.7585793,1.1252134,2.3443889,2.9405175Z" fill="#a4bccc"></path>
      <path d="M138.2561819,169.858105c.9877689-1.1170695,1.7251784-3.8445656,3.8534532-4.1621371.0401573,1.6592561-1.2249399,4.0147822-2.6659532,4.1621371-.3886458.0397421-.7959194-.0266111-1.1875,0Z" fill="#a4bccc"></path>
      <path d="M80.3655569,178.170605c.3855519.1979167.3855519.3958333,0,.59375v-.59375Z" fill="#608199"></path>
    </g>
    <polygon points="58.0366786 205.4237409 54.4977927 205.82742 53.941401 202.5144006 57.5417603 202.7752813 58.0366786 205.4237409" fill="#0c2038"></polygon>
    <path d="M54.8821042,196.0261997c.8221653.1415932,3.5321369.7501915,3.2150754,2.0266095-2.5311662,2.560403-5.9894504,1.1498179-3.2150754-2.0266095Z" fill="#0c2038"></path>
    <g>
      <path d="M379.3186819,176.983105h-49.875c-1.0703084-9.5165126-4.0807807-18.6203198-7.0988065-27.638905,2.7361634-4.3681425,5.8242628-9.0405905,7.2656803-14.0538302,1.1035621-3.8381813,2.2463494-7.3862565-1.9457903-9.6637043l2.3452886-.9274545-1.7595931-7.0928405c-8.324319,3.9890384-12.9111002-7.4024712-5.3106894-12.1431958,6.8906072-4.2979875,12.4317005,3.2487328,12.4458403,9.773381l7.7233842-2.0811072c1.9161199-1.4994461-2.5563143-9.7727025-3.9198145-11.5272181-7.7106068-9.9218024-23.0140754-7.0117645-27.6636976,4.2959951-2.6116098,6.3513667-1.3978575,7.2264497.0749763,13.205129.2011007.8163288-.0265597,1.0959915-.8480639.8449412-1.8111441-.5534825-9.4998847-4.0424755-10.9561302-5.0781499-2.085057-1.482882-4.6009735-5.3126435-6.8525286-7.3974714-32.074037-29.6989628-74.9740273-43.7676012-118.4743688-34.7242574-52.301975,10.8731271-94.8757214,51.0469992-104.4944369,104.2086881H20.6936819C28.9394811,94.4421986,99.3823013,27.4226147,181.374238,19.1167862c76.1344283-7.7124597,150.3363872,34.3692317,182.9296235,103.1155142,7.9816784,16.83511,13.7989173,36.0962936,15.0148203,54.7508047ZM197.0374319,61.201855h9.5l-14.0377814-30.3314224-7.6436638,1.2281025-8.5976322,30.8806047c4.0930262-.6074393,10.3157431.9684075,10.2024127-4.6397794l9.0808438-.7250742,1.4958208,3.5875688ZM227.2395998,32.1868024l-8.2987455-.3259175-4.0903258,29.932597,7.7581004.9443466,2.9226686-12.8141377,4.8894868,14.112476,7.5607801,1.9011193,5.9588284-30.2628681-7.7525825-.9342476c-.9012806.6420309-2.1281679,9.7725777-2.626595,11.635415-.1477282.552124-.1491447,1.3383702-.8921235,1.1664213l-5.4294919-15.3552043ZM148.3339978,38.63874l-8.236927,2.7154076,9.4979985,28.6999263,21.3192624-5.2938713-1.8242855-7.6710155-13.3130679,2.3697043-7.4429805-20.8201514ZM268.9133979,54.7028708l8.5079209,2.9066649c.8963585-1.3127413,3.8367215-5.9537458,3.0768057-7.1113469-.4111507-.6263175-6.4312484-3.6460417-7.6529416-4.2447099-1.906055-.934027-14.4728234-6.6620369-15.249259-6.1740322l-3.5580137,7.4571903c1.5916217.6548784,7.0947048,1.9864209,7.1283029,3.8414084l-8.9120903,19.9113947,7.6503835,2.9040571,9.0088916-19.4906263ZM124.0464523,55.9052259l6.4595028-3.3929612c.270132-.935671-3.2496633-6.7732753-4.3105019-6.6777831-5.5730232,2.8736884-11.2854742,5.6568371-16.6220367,8.9502334-1.1622256.7172538-5.7982145,3.3058158-5.7890835,4.3327426l4.2015685,6.8315028,8.2928302-4.7463039,11.0280234,20.2232533c1.2757201-.6522903,7.4987003-3.8972392,7.3270013-4.9898177-1.360275-2.6163693-11.4987048-19.2458239-10.587304-20.5308662ZM292.8390696,56.6371472l-18.1603018,25.6793157,7.4493676,5.2681608,18.1603018-25.6793157-7.4493676-5.2681608ZM96.6191762,64.2512872l-1.6903975.2282075c-4.022271,3.6708205-8.5231776,6.9558988-12.4933889,10.6671932-1.2934398,1.2090882-6.2349159,5.6046734-5.8660062,7.0140668.195629.7473865,4.825292,5.187049,5.5774214,5.1870507l6.5310942-5.9481093,15.3980159,16.5944025,6.2615386-6.1969325-14.7463457-16.1542709-.0026412-1.3026991,5.2506547-3.9782284-4.2199454-6.1106806ZM314.3851129,73.7141375l-19.6830821,21.3655341c-1.2432587,1.5583651,4.5726722,6.5142523,5.3522276,6.5204693l19.6128148-20.8149592c1.0030979-1.4560657-4.3767982-7.2306473-5.2819603-7.0710441ZM96.0985849,103.9590699l-30.6096066-6.5738964c-1.2610709.0422886-4.328878,2.1256868-4.4554078,3.3067345-.360159,3.361775,15.2877665,23.253237,16.6683998,28.1962037.8134922.5889127,5.313691-5.1727257,5.6471512-5.971862.5498081-1.3176133-.5648625-2.3979945-.0705516-4.132304.1134836-.3981618,3.9286275-6.8273012,4.2122334-7.1289285,1.1171678-1.1881567,1.9431322.0061617,3.0130352-.0341354,2.0500003-.0772117,3.9003119-6.1480043,5.5947463-7.661812ZM349.2047399,145.9344995c-.7580154-.6273357-2.3995207-6.4063126-3.7251832-5.1699741-.4046352,4.4785204-3.2538073,6.644296-7.7211919,5.9402446-.6089898,2.5476696,2.8425204,2.5768653,3.4402814,4.5749185.6277003,2.098127-.5660946,4.0554612-.4704944,6.1067948,2.0374518-.2964124,3.3529512-2.5111645,5.5927312-2.3656406,1.1997249.077949,4.9200204,2.5949746,5.0854899,2.3684804l-.4885211-6.1156316c.5043658-1.6346153,4.2302723-2.29031,4.0541024-4.5687186-1.7534301-.0907979-4.3421993.4088729-5.7672143-.7704735ZM55.1230114,141.359806c-1.3240041-.9681148-2.5784115,3.1911181-3.0411748,3.7770748-1.6806181,2.1280193-4.0060433,1.5307344-6.4476754,1.568095-.1708613,2.2818334,3.5301091,2.9194283,4.0443783,4.5629804.6425743,2.0536019-.5970153,4.093032-.4816281,6.1185366,1.9527247.0408717,3.2149722-2.2450462,5.0847427-2.3713,2.2443875-.1515493,3.4480078,2.3315472,5.5963091,2.3712884.3398864-2.6308729-2.3154061-5.302665.0334582-7.3904842,1.0996461-.977435,3.6939722-1.1671646,3.5292818-3.2910197-4.4966547.5939033-7.4134233-.7184475-8.3176918-5.3451712Z" fill="#f8f9f9"></path>
      <path d="M89.5686819,189.451855c-.8926472.6826822-1.8982914,1.2777983-2.7597579,1.9928726-1.536832,1.2756727-3.096858,5.3704347-6.1425864,4.2453711,16.0984558-24.910223,40.931621-41.5636542,63.5243883-59.9755863-9.6218825-3.732283-19.7564632-5.0428828-29.909933-6.3023867-.7154103-.0887443-3.2432566-.260476-3.3339864-1.1103482,13.520057-3.2993865,26.4739055-2.7613959,39.9367586.4953766,35.9299782-21.5046005,82.8353395-27.2337238,122.8730592-14.5801166,5.0545066,1.5974372,10.0908759,3.8178719,14.7183076,5.7660674l.8831438,2.3881584c-33.3816585-11.4578681-73.0229446-12.3412329-106.5480348-.8811744-35.5384008,12.1482791-64.1451765,41.2211879-91.6490239,65.6952847-.765971.6815937-1.6459483.9218426-1.5923351,2.2664813Z" fill="#f8f9f9"></path>
      <path d="M89.5686819,189.451855c-.0536131-1.3446386.8263641-1.5848876,1.5923351-2.2664813,27.5038473-24.4740969,56.1106231-53.5470057,91.6490239-65.6952847,33.5250902-11.4600585,73.1663763-10.5766937,106.5480348.8811744l-.8831438-2.3881584c2.6697863,1.124007,6.0133095,2.5490691,8.4357937,3.7382663,1.5355788.7538154,3.612802,1.798322,5.0487891,2.6482903.6534954.3868073,1.6428672.4297223.4618865,1.3396869-20.6243508-3.5459026-40.6599193-11.772876-61.749012-13.0643258-36.9333723-2.2617187-70.1762318,14.0680745-99.4444482,34.7316797,3.267369,1.108617,6.5054086-2.440079,9.788044-2.0877312l.2981058,1.1828647c-20.9740117,12.0962734-41.0390361,25.7344708-60.2731009,40.398428-.5479655.4177662-1.2830437.4368448-1.472308.5815911Z" fill="#a4bccc"></path>
      <path d="M238.9722862,86.9704208c5.8550553,1.9888912,12.3613559,4.7350799,18.0466348,7.76557,3.5656745,1.9006528,7.478871,4.3588187,10.6746191,6.8349343-23.0894904-5.9287192-46.2175612-5.8228588-69.5794242-1.5892609-14.0215854,2.5409684-29.5447366,6.970037-42.1621311,12.9294573-1.9914841.9406134-6.7334221,4.8575327-9.1594503,5.1148511-1.6931181.1795818-6.1235527-1.3073913-8.3135189-1.5313512-9.2561288-.9465906-17.870224-.0235171-26.9293572,2.0102767,11.2656765-11.7724498,25.3739466-21.4822446,40.3825978-27.8925937,28.5483885-12.1933101,57.5565307-13.6570703,87.04003-3.6418836Z" fill="#608199"></path>
      <path d="M227.2395998,32.1868024l5.4294919,15.3552043c.7429789.1719488.7443954-.6142973.8921235-1.1664213.4984271-1.8628374,1.7253144-10.9933841,2.626595-11.635415l7.7525825.9342476-5.9588284,30.2628681-7.5607801-1.9011193-4.8894868-14.112476-2.9226686,12.8141377-7.7581004-.9443466,4.0903258-29.932597,8.2987455.3259175Z" fill="#0c2038"></path>
      <path d="M124.0464523,55.9052259c-.9114007,1.2850424,9.2270291,17.9144969,10.587304,20.5308662.1716991,1.0925785-6.0512811,4.3375274-7.3270013,4.9898177l-11.0280234-20.2232533-8.2928302,4.7463039-4.2015685-6.8315028c-.009131-1.0269267,4.6268579-3.6154888,5.7890835-4.3327426,5.3365625-3.2933963,11.0490134-6.076545,16.6220367-8.9502334,1.0608386-.0954921,4.5806339,5.7421122,4.3105019,6.6777831l-6.4595028,3.3929612Z" fill="#0c2038"></path>
      <path d="M96.6191762,64.2512872l4.2199454,6.1106806-5.2506547,3.9782284.0026412,1.3026991,14.7463457,16.1542709-6.2615386,6.1969325-15.3980159-16.5944025-6.5310942,5.9481093c-.7521295-.0000017-5.3817925-4.4396642-5.5774214-5.1870507-.3689098-1.4093935,4.5725664-5.8049786,5.8660062-7.0140668,3.9702113-3.7112943,8.4711179-6.9963727,12.4933889-10.6671932l1.6903975-.2282075Z" fill="#0c2038"></path>
      <path d="M268.9133979,54.7028708l-9.0088916,19.4906263-7.6503835-2.9040571,8.9120903-19.9113947c-.0335981-1.8549875-5.5366812-3.18653-7.1283029-3.8414084l3.5580137-7.4571903c.7764356-.4880047,13.343204,5.2400053,15.249259,6.1740322,1.2216931.5986681,7.2417908,3.6183924,7.6529416,4.2447099.7599158,1.1576011-2.1804472,5.7986056-3.0768057,7.1113469l-8.5079209-2.9066649Z" fill="#0c2038"></path>
      <polygon points="148.3339978 38.63874 155.7769782 59.4588914 169.0900461 57.089187 170.9143316 64.7602025 149.5950692 70.0540738 140.0970707 41.3541475 148.3339978 38.63874" fill="#0c2038"></polygon>
      <path d="M314.3851129,73.7141375c.9051621-.1596032,6.2850582,5.6149784,5.2819603,7.0710441l-19.6128148,20.8149592c-.7795554-.0062169-6.5954863-4.9621042-5.3522276-6.5204693l19.6830821-21.3655341Z" fill="#0c2038"></path>
      <rect x="271.7576381" y="67.5489068" width="31.4519286" height="9.1239572" transform="translate(62.6151291 265.1936945) rotate(-54.7322137)" fill="#0c2038"></rect>
      <path d="M349.2047399,145.9344995c1.425015,1.1793465,4.0137842.6796757,5.7672143.7704735.17617,2.2784085-3.5497366,2.9341032-4.0541024,4.5687186l.4885211,6.1156316c-.1654695.2264942-3.885765-2.2905314-5.0854899-2.3684804-2.23978-.1455239-3.5552794,2.0692282-5.5927312,2.3656406-.0956001-2.0513336,1.0981947-4.0086678.4704944-6.1067948-.597761-1.9980532-4.0492712-2.0272489-3.4402814-4.5749185,4.4673846.7040513,7.3165567-1.4617242,7.7211919-5.9402446,1.3256625-1.2363385,2.9671678,4.5426384,3.7251832,5.1699741Z" fill="#0c2038"></path>
      <path d="M55.1230114,141.359806c.9042685,4.6267237,3.8210371,5.9390745,8.3176918,5.3451712.1646904,2.1238551-2.4296358,2.3135846-3.5292818,3.2910197-2.3488642,2.0878192.3064282,4.7596113-.0334582,7.3904842-2.1483013-.0397412-3.3519216-2.5228377-5.5963091-2.3712884-1.8697705.1262538-3.132018,2.4121717-5.0847427,2.3713-.1153872-2.0255046,1.1242024-4.0649347.4816281-6.1185366-.5142693-1.6435521-4.2152397-2.281147-4.0443783-4.5629804,2.441632-.0373606,4.7670573.5599243,6.4476754-1.568095.4627633-.5859566,1.7171707-4.7451896,3.0411748-3.7770748Z" fill="#0c2038"></path>
      <g>
        <path d="M197.0374319,61.201855l-1.4958208-3.5875688-9.0808438.7250742c.1133304,5.6081869-6.1093865,4.0323401-10.2024127,4.6397794l8.5976322-30.8806047,7.6436638-1.2281025,14.0377814,30.3314224h-9.5ZM190.4999512,43.9821624c-1.5317545-.1639187-.9460171-.005275-1.1987936.8661815-.4593392,1.5835893-.6863025,3.4508301-1.1677472,5.0683495l4.1518715.0009167-1.7853307-5.9354478Z" fill="#0c2038"></path>
        <path d="M190.4999512,43.9821624l1.7853307,5.9354478-4.1518715-.0009167c.4814447-1.6175194.708408-3.4847602,1.1677472-5.0683495.2527765-.8714566-.3329609-1.0301002,1.1987936-.8661815Z" fill="#f8f9f9"></path>
      </g>
      <g>
        <path d="M96.0985849,103.9590699c-1.6944345,1.5138077-3.544746,7.5846003-5.5947463,7.661812-1.0699031.0402971-1.8958675-1.1540213-3.0130352.0341354-.2836059.3016273-4.0987498,6.7307667-4.2122334,7.1289285-.4943109,1.7343095.6203598,2.8146907.0705516,4.132304-.3334602.7991363-4.8336589,6.5607746-5.6471512,5.971862-1.3806334-4.9429668-17.0285588-24.8344288-16.6683998-28.1962037.1265299-1.1810477,3.1943369-3.2644459,4.4554078-3.3067345l30.6096066,6.5738964ZM79.47755,108.7053083l-5.346334-.5911521,3.266192,4.7327085c.9744751-1.1870827,2.2404263-2.4727775,2.080142-4.1415564Z" fill="#0c2038"></path>
        <path d="M79.47755,108.7053083c.1602843,1.6687789-1.105667,2.9544737-2.080142,4.1415564l-3.266192-4.7327085,5.346334.5911521Z" fill="#f8f9f9"></path>
      </g>
    </g>
    <g>
      <path d="M70.8655569,226.264355c1.0773619.3438772,2.052188,6.1218617,2.5150618,7.5786882,34.60409,108.9112213,179.0844927,128.7734683,239.6885437,30.3749173,7.0723594-11.4828944,12.7122711-24.6400522,15.1870195-37.9536055h51.0625c-3.9551578,31.1555486-16.9307109,61.1800966-36.2436697,85.7719553-60.163114,76.6077747-167.5617141,92.2225317-247.756511,36.4313505-40.1539411-27.934927-67.8369163-73.671591-74.6248192-122.2033058h50.171875ZM63.4408692,263.6735661c-3.48614.5812488-3.5683707-1.1489335-5.0440491-3.5535848-1.5862376,2.2982391-1.6039636,3.9040817-5.044058,3.5537682,1.0938209,2.4067089,2.4303622,3.4941709,1.7815557,6.5251764,2.8079354-1.3207821,3.6911128-.9519295,6.5255996-.0006822-.04887-1.2071657-.9137541-2.5091102-.6237916-3.7359196.169218-.7159484,2.9111739-1.1257551,2.4047434-2.788758ZM343.2416416,262.9315532c-.5826104-.5626894-.5877695-2.266738-1.626098-2.8115719-1.4756687,2.4046177-1.5578988,4.1348483-5.0440466,3.5535812.9179102,2.8049688,3.5148766,2.9520301,1.7804337,6.5241796,2.9307656-.6440893,3.5913148-1.5023495,6.526127.0011742-.6488548-3.0310153.6877788-4.1185098,1.7815438-6.5251669-1.0074306-.0469387-2.6737197-.0234035-3.41796-.7421963ZM72.937542,277.3258464c-1.3900241-.2952125-.9506755.189869-1.3241117.7657547-2.5775616,3.9749252-1.6557607,5.8640945-8.1668237,5.7696768-.263684,2.1252045,3.6559037,3.3562984,4.0679993,4.55203l-.5051705,6.1294568c1.9710321-.131039,2.9052034-2.3909159,5.0322694-2.4176269,2.2742273-.0285591,3.6220148,2.0812173,5.6487234,2.4176259l-.6009-6.7004914,4.1626538-3.100571-6.2267513-2.0748541-2.0878889-5.3410008ZM337.1593521,283.8612138c-6.1407257,1.0235654-6.7183152-2.0775815-9.2000125-6.5224391-.7337512-.0008723-1.6607832,4.4620923-2.9268222,5.3738035-1.0454162.7528344-3.4387653.8380969-4.817047,1.1301123-.829715.175791-1.7143242-.5021401-1.4552048.8989095l4.6723507,3.6756771-1.111439,6.1247356c2.1931694-.1151958,3.2934326-2.4074466,5.6381289-2.4074417,2.3435244.0000049,3.4455732,2.2908477,5.637592,2.4079761-1.7749088-6.9688439-1.7394077-5.4148355,2.8109013-9.3230875.4246427-.3647248,1.1237982.0209268.7515526-1.3582459ZM296.1912874,308.8049164c-9.4954437-6.0047696-23.5829276,3.2845984-17.3399982,14.0671676,2.57226,4.4427175,7.2501975,4.1869279,11.6651654,3.1058285,1.4452401-.353898,5.5273873-2.9779083,6.2252494-.7843562.1903826,4.8953677-5.5228592,3.8290954-8.8837063,3.440623l-1.761264,7.470942c4.3464542.688896,7.9678419,1.2607477,12.1026558-.6631819,10.5935589-4.9291848,9.6805093-20.4440448-2.9217916-19.5586446-2.1988934.1544877-8.4643469,3.8486142-9.1736828,1.5143618-.8708011-2.8655952,5.9717804-3.6477252,7.640418-3.331182.524214-.8998091.3830358-2.2292282.7889006-3.093134.5718389-1.217191,2.1223799-.5230971,1.6580536-2.1684241ZM126.9735364,317.1009257c-1.9825248-2.5717365-4.4600234-6.1659387-7.2968902-7.8351654-9.6752839-5.6929856-20.8037977,3.0532564-14.5749766,12.793469.8673196,1.3562561,5.4550452,5.0334061,5.2456695,6.0238241-4.2318782,3.300316-8.4507704-3.7209134-8.9083029-7.4123472l-7.0109235,5.0387821c2.9396611,7.723226,15.7662724,16.322136,22.4600509,8.3275301,6.1609585-7.358241-1.2298511-11.8958541-5.3512954-17.2084318,3.0560317-3.4293302,6.7511124,1.9987164,8.6302182,4.4374964l6.8064499-4.1651572ZM271.2531922,316.5174583l-9.4508041,4.4962279-1.2368263,11.5288263c-1.682843.3043531-.9743527-.4040549-1.3350972-1.3023799-.6007209-1.4959135-1.8174485-6.7171305-2.8132497-7.3421647-1.2857803-.8070454-6.2241203,1.8210608-7.7717792,2.4900989l12.3001728,27.5801309,7.9376123-2.4311219-3.5615079-9.4884448,11.0347951,5.3474102,8.5565241-4.1689096c.2289078-1.0626375-.3194638-1.1688877-.9862577-1.6803715-2.3946415-1.8368798-10.0196231-5.7104774-13.0471813-7.1477961-.8305132-.3942821-1.6532458-.7057538-2.5902709-.6738329l2.9638702-17.2076728ZM144.7788089,334.9202663l-5.8873838-2.7463023,3.2716702-9.7310343c-1.423434-.8420435-6.2492609-3.473559-7.4742557-2.6972679l-11.1996722,27.5684502,7.3098154,3.0293688,3.9004436-10.0809604,6.4772146,2.7208235-3.5161764,10.3369548,8.3192135,2.122911,10.6839215-28.2364067-8.2248937-1.6941023-3.659897,9.4075656ZM243.9406221,327.7986406l-9.8139324,2.9455973-2.0641829,11.298245-2.9663674-10.0921498-8.31231,1.1882689,7.507672,29.6355154,7.2763649-1.1937444-1.1181329-10.0347348,10.5255753,7.6268197,9.6541494-2.2871585c.2265175-.9969066-.3243534-1.1987443-.9013995-1.7648859-1.8618126-1.8266297-13.5350939-9.4569938-13.8786641-10.5067057l4.0912276-16.8150671ZM177.3110675,333.2716682l-5.5273431-.7887934-18.0902895,26.1826898,8.4978581,1.6978115c2.3256643-.9846765,1.082591-3.5986831,3.5808082-3.4370875,2.6279121.1699849,6.3050734,1.8145662,9.1874658,1.851202l1.3785089,4.5609476,8.8215417.6725928-7.84855-30.7393629ZM218.4124319,364.608105c-1.0335165-4.1551051-4.7684103-7.6170055-6.5398666-11.5882376,5.3302926-5.5480558,5.2824169-15.2004667-2.9476634-17.8148575-.4660938-.1480607-3.673336-.8781549-3.8718451-.8781549h-12.171875v30.28125h8.3125v-8.90625c4.2928475-.2834429,5.2593394,6.374268,8.015625,8.90625h9.203125Z" fill="#f8f9f9"></path>
      <path d="M120.7405569,259.514355c.1569416.00113.553819-.5577253,1.099951-.4927395l5.1315504,7.611785c-7.5543678,1.2188831-15.5445064,3.7505197-23.1435545,3.2569945l-7.7285719-10.37604c8.2056361.0437868,16.4288437-.0591247,24.640625,0Z" fill="#a4bccc"></path>
      <polygon points="116.2880538 283.8645039 136.1708274 279.7016903 145.3781919 288.8962264 127.8813277 293.9612062 116.2880538 283.8645039" fill="#a4bccc"></polygon>
      <path d="M271.8499319,278.514355l-11.6560178,15.3596072-6.4834042,11.9228455c-2.7716459,2.0287804-6.0292479,2.9711872-9.173078,4.1862974,5.4799509-11.6232823,14.6382003-23.4354493,25.2284373-30.9052075.8913508-.6287088,1.9332273-.4589455,2.0840627-.5635425Z" fill="#a4bccc"></path>
      <path d="M172.691373,311.7604837l-6.1865887,1.7816251-6.275435-2.957778c3.9720964-.8301684,10.3290125-4.2551445,12.4620237,1.1761529Z" fill="#608199"></path>
      <path d="M144.7788089,334.9202663l3.659897-9.4075656,8.2248937,1.6941023-10.6839215,28.2364067-8.3192135-2.122911,3.5161764-10.3369548-6.4772146-2.7208235-3.9004436,10.0809604-7.3098154-3.0293688,11.1996722-27.5684502c1.2249949-.7762911,6.0508217,1.8552245,7.4742557,2.6972679l-3.2716702,9.7310343,5.8873838,2.7463023Z" fill="#0c2038"></path>
      <path d="M271.2531922,316.5174583l-2.9638702,17.2076728c.9370251-.0319209,1.7597578.2795508,2.5902709.6738329,3.0275583,1.4373187,10.6525399,5.3109163,13.0471813,7.1477961.6667939.5114838,1.2151655.6177341.9862577,1.6803715l-8.5565241,4.1689096-11.0347951-5.3474102,3.5615079,9.4884448-7.9376123,2.4311219-12.3001728-27.5801309c1.5476589-.6690381,6.4859989-3.2971443,7.7717792-2.4900989.9958012.6250343,2.2125288,5.8462513,2.8132497,7.3421647.3607445.898325-.3477458,1.606733,1.3350972,1.3023799l1.2368263-11.5288263,9.4508041-4.4962279Z" fill="#0c2038"></path>
      <path d="M243.9406221,327.7986406l-4.0912276,16.8150671c.3435702,1.0497119,12.0168515,8.680076,13.8786641,10.5067057.5770461.5661416,1.1279171.7679793.9013995,1.7648859l-9.6541494,2.2871585-10.5255753-7.6268197,1.1181329,10.0347348-7.2763649,1.1937444-7.507672-29.6355154,8.31231-1.1882689,2.9663674,10.0921498,2.0641829-11.298245,9.8139324-2.9455973Z" fill="#0c2038"></path>
      <path d="M296.1912874,308.8049164c.4643263,1.6453269-1.0862147.9512331-1.6580536,2.1684241-.4058648.8639058-.2646866,2.193325-.7889006,3.093134-1.6686376-.3165432-8.5112191.4655868-7.640418,3.331182.7093359,2.3342524,6.9747894-1.3598741,9.1736828-1.5143618,12.6023009-.8854002,13.5153504,14.6294598,2.9217916,19.5586446-4.1348139,1.9239297-7.7562016,1.3520779-12.1026558.6631819l1.761264-7.470942c3.3608471.3884724,9.0740889,1.4547447,8.8837063-3.440623-.6978621-2.1935521-4.7800093.4304582-6.2252494.7843562-4.4149679,1.0810994-9.0929054,1.336889-11.6651654-3.1058285-6.2429294-10.7825692,7.8445545-20.0719372,17.3399982-14.0671676Z" fill="#0c2038"></path>
      <path d="M126.9735364,317.1009257l-6.8064499,4.1651572c-1.8791059-2.43878-5.5741865-7.8668266-8.6302182-4.4374964,4.1214443,5.3125777,11.5122539,9.8501908,5.3512954,17.2084318-6.6937785,7.9946059-19.5203898-.6043041-22.4600509-8.3275301l7.0109235-5.0387821c.4575325,3.6914339,4.6764247,10.7126632,8.9083029,7.4123472.2093757-.990418-4.37835-4.667568-5.2456695-6.0238241-6.2288211-9.7402126,4.8996927-18.4864546,14.5749766-12.793469,2.8368669,1.6692267,5.3143655,5.2634289,7.2968902,7.8351654Z" fill="#0c2038"></path>
      <path d="M72.937542,277.3258464l2.0878889,5.3410008,6.2267513,2.0748541-4.1626538,3.100571.6009,6.7004914c-2.0267086-.3364086-3.3744962-2.446185-5.6487234-2.4176259-2.127066.0267111-3.0612373,2.2865879-5.0322694,2.4176269l.5051705-6.1294568c-.4120956-1.1957315-4.3316834-2.4268255-4.0679993-4.55203,6.511063.0944177,5.5892621-1.7947516,8.1668237-5.7696768.3734361-.5758856-.0659125-1.0609672,1.3241117-.7657547Z" fill="#0c2038"></path>
      <path d="M337.1593521,283.8612138c.3722455,1.3791727-.32691.9935211-.7515526,1.3582459-4.550309,3.9082521-4.5858101,2.3542437-2.8109013,9.3230875-2.1920188-.1171284-3.2940675-2.4079712-5.637592-2.4079761-2.3446963-.0000049-3.4449595,2.2922459-5.6381289,2.4074417l1.111439-6.1247356-4.6723507-3.6756771c-.2591193-1.4010496.6254898-.7231185,1.4552048-.8989095,1.3782817-.2920154,3.7716308-.3772779,4.817047-1.1301123,1.2660389-.9117112,2.193071-5.3746758,2.9268222-5.3738035,2.4816973,4.4448576,3.0592868,7.5460045,9.2000125,6.5224391Z" fill="#0c2038"></path>
      <path d="M343.2416416,262.9315532c.7442403.7187928,2.4105294.6952576,3.41796.7421963-1.093765,2.4066571-2.4303986,3.4941515-1.7815438,6.5251669-2.9348122-1.5035237-3.5953614-.6452635-6.526127-.0011742,1.7344429-3.5721496-.8625236-3.7192108-1.7804337-6.5241796,3.4861478.5812671,3.5683779-1.1489635,5.0440466-3.5535812,1.0383284.5448339,1.0434876,2.2488825,1.626098,2.8115719Z" fill="#0c2038"></path>
      <path d="M63.4408692,263.6735661c.5064306,1.6630028-2.2355254,2.0728096-2.4047434,2.788758-.2899625,1.2268094.5749215,2.5287539.6237916,3.7359196-2.8344868-.9512473-3.7176642-1.3200999-6.5255996.0006822.6488065-3.0310056-.6877348-4.1184675-1.7815557-6.5251764,3.4400943.3503136,3.4578204-1.2555291,5.044058-3.5537682,1.4756784,2.4046513,1.5579091,4.1348336,5.0440491,3.5535848Z" fill="#0c2038"></path>
      <g>
        <path d="M218.4124319,364.608105h-9.203125c-2.7562856-2.531982-3.7227775-9.1896929-8.015625-8.90625v8.90625h-8.3125v-30.28125h12.171875c.1985091,0,3.4057512.7300943,3.8718451.8781549,8.2300803,2.6143908,8.277956,12.2668016,2.9476634,17.8148575,1.7714562,3.9712321,5.5063501,7.4331325,6.5398666,11.5882376ZM201.1909627,347.9858796c3.7019016.3190365,7.2303983-.2101077,5.6472067-4.7611205-1.5024948-1.5024041-3.7117265-1.2046423-5.6472067-1.1819285v5.943049Z" fill="#0c2038"></path>
        <path d="M201.1909627,347.9858796v-5.943049c1.9354802-.0227138,4.1447119-.3204757,5.6472067,1.1819285,1.5831917,4.5510128-1.9453051,5.080157-5.6472067,4.7611205Z" fill="#f8f9f9"></path>
      </g>
      <g>
        <path d="M177.3110675,333.2716682l7.84855,30.7393629-8.8215417-.6725928-1.3785089-4.5609476c-2.8823924-.0366358-6.5595536-1.6812171-9.1874658-1.851202-2.4982171-.1615956-1.2551439,2.452411-3.5808082,3.4370875l-8.4978581-1.6978115,18.0902895-26.1826898,5.5273431.7887934ZM173.283295,350.9498569c.2838753-.8029131-.8766058-5.9625588-1.7695373-5.3402645-.305427,1.7445255-2.123659,2.8332781-1.7919336,4.7449545l3.5614708.59531Z" fill="#0c2038"></path>
        <path d="M173.283295,350.9498569l-3.5614708-.59531c-.3317255-1.9116765,1.4865066-3.0004291,1.7919336-4.7449545.8929314-.6222943,2.0534126,4.5373515,1.7695373,5.3402645Z" fill="#f8f9f9"></path>
      </g>
    </g>
  </g>
</svg>
