<?xml version="1.0" encoding="UTF-8"?>
<svg xmlns="http://www.w3.org/2000/svg" id="Ebene_1" version="1.1" viewBox="0 0 400 400">
  <rect x="188.1214908" y="223.9322479" width="5.8063963" height="23.2255851" fill="#f5f7f8"></rect>
  <g>
    <path d="M347.5334611,232.9057694l23.7495217,10.0358566c.1428479.8796414-1.2889519.5782562-1.8598519.5422882-4.2767732-.2694463-8.5691479-.9246001-12.9161484-.5489149-7.5577473-4.2303321-21.8443978-1.9699834-30.3768635-2.6645177l-11.3236188,5.3037887h30.3516169c.5857525,0,3.9683649.7742491,4.7800012,1.0263951,17.2191203,5.3493577,13.8129952,31.0918447,17.6538026,44.8969208h-12.1406467c3.058924,2.7583479,5.5061753,5.2150423,6.8314979,9.2680554,1.0264052,3.138884,3.1889656,14.9971155,3.0423568,18.0328409-.050223,1.0399333-.8599077,1.6386263-.8709122,2.5316477-.0106485.8641339,1.8273276,5.2317063,2.0352066,6.3720916,2.165011,11.8768468,5.3427901,31.5649493-11.2422974,33.4155107l-47.9875266-9.452797c-4.170008,6.8935482-8.4036242,11.9020633-16.3336318,14.3969273-11.7118256,3.6846638-27.0434149,6.0585064-39.3532832,8.6814496-16.4241443,3.4995985-32.9242506,6.7635511-49.4677693,9.6925523-22.9689547-4.7849099-46.2478437-8.6828634-68.9903138-14.4418766-5.7609836-1.458838-14.7561063-3.1859731-19.5988844-6.2659717-4.6766746-2.9743571-7.2206473-8.3274962-10.6882155-12.490068-6.8433596.9930519-13.6074336,2.4236738-20.3880818,3.7548397-8.4474088,1.6583816-20.6968338,5.4753052-28.7244201,6.139192-2.131315.1762612-4.6839104.107145-4.9768817-2.3030974-.5478441-4.5070517.2766884-12.1028295.5346568-16.943869.8039499-15.0869367,2.0770294-30.2977173,3.1957581-45.3672396.5145221-6.930727,1.7848165-13.8833366,1.5779899-20.8558139h-11.0849383c.6245867-10.3068358-5.5106072-19.8857284-8.4454492-29.5545936l53.3091579-1.054344-11.3126929-4.7050045-43.0523915,1.0034187c-.2156977-2.0329244-.0132708-1.2742745,1.2328115-1.647972,6.5134247-1.9533625,12.8656966-4.3245693,19.3535026-6.2698411,1.6364046-.4906515,12.0279599-2.6401601,12.1035519-3.4206816-2.5997378-6.8488524-5.7989376-13.4550761-8.0213896-20.4560135C24.9396324,105.0082219,118.7717003-.980275,226.2454902,17.6866838c87.2529753,15.1548364,149.6012825,101.742225,121.9564685,189.2309458-2.4853936,7.865631-5.9346108,15.4554053-9.0993557,23.0516877l8.4308581,2.9364521ZM227.1921559,39.7080538c3.418458-.7220882.8105792-5.3236382-.5506313-7.109643-7.8584961-10.310905-20.5707061-9.8052629-32.4411931-8.7143897-6.7214029.617683-14.6752069,5.3055403-17.4470841,11.5823004-.4200406.9511582-1.5908535,4.1732076.5375424,3.7133109.4015236-.0867599,4.6112523-4.8786923,5.8278185-5.7910204,7.7315605-5.7980568,18.0930073-6.3181754,27.3797006-5.2332889,6.5224031.7619577,13.9738039,5.5169181,16.693847,11.5527308ZM175.452958,27.048007c-42.6603374,7.6978409-78.6650738,37.1021054-99.5118087,74.4107423-6.538403,11.70154-10.5851434,22.5533831-13.2929702,35.797471-4.4534563,21.7820309-4.0492173,48.7108033,3.1649585,69.8947975.9407943,2.762586,3.0027762,5.5972544,3.8167942,8.3364441.2118347.7128286-.3690202,1.561983-.0319426,2.0984767.4628103.7366103,2.581699,1.2237696,2.4413457,3.1470487l4.7191632-1.305077c-11.7316011-24.1920469-15.1865919-50.3822108-10.4178365-76.895645,8.3059854-46.1798056,45.4746092-89.382526,89.4510903-105.3271118,3.6790019-1.3338985,13.01494-3.218375,15.4036424-4.6548175,1.5359561-.9236448,3.0567767-4.0547569,4.2575638-5.5023291ZM333.2744025,221.2930652c18.9952779-37.4605056,16.7971901-82.6066532-2.8848835-119.3064585-20.9033201-38.9769794-57.8093633-65.8739407-101.0953537-74.9386204l4.0599522,5.6999469c67.6849029,15.0345222,120.3584777,85.5898465,106.0984786,155.3911039-.8194157,4.0109571-2.3849397,11.4633741-4.0072645,15.0060881-.5186713,1.1326363-1.5762389,1.2340659-1.8191437,1.9146302-.2576059.7217534.2046994,2.0738728-.1610695,3.4571314-.9194371,3.4771123-3.4664319,7.566935-4.9290352,10.9345967l4.7383194,1.8415817ZM219.7927432,38.6554215c-4.5216491-5.8640658-14.9173784-6.4540755-21.4708897-4.315628-4.3849013,1.4308179-7.6355351,4.5875807-11.3884297,7.0864558-.979324.6520856-1.0906465.6641598-.9206897,1.9771317.7152373.7119866,4.6566332-2.5439865,5.6790473-3.0251584,5.4668128-2.5728091,9.6796232-2.0882343,15.4324607-2.2506553,2.2234999.6336602,3.8325095,1.6331858,5.8063963,2.639271l-.5278542,1.5835626c-6.447891-2.4144683-15.0523402-1.4013032-19.5306056,4.2228337l-1.5864855.7664258c-3.6927755,4.6485743-5.8947157,10.0983867-5.2702601,16.122251l4.5280187-8.3963924c5.0412086-6.3541903,15.6586288-9.8830769,22.9124378-5.5864977-8.9191481,1.0214265-19.8421964,5.9355654-20.0733379,16.3476389-.0248898,1.1211936-.434419,2.1833025,1.0675926,1.86171,1.6891963-6.8115336,7.5823349-10.5681151,14.2280142-11.9078708,3.5839295-.7225131,7.6592077-.4330901,11.2385839-1.4323813,3.1414041-.877018,5.5206306-4.1892489,5.1081151-7.4642696-.2833452-2.2495187-3.1490819-7.8096929-5.2321143-8.228427ZM174.9225611,40.7696835c-.3289335-.2806429-7.7047919.8352717-8.5794092,1.0848048-3.7638964,1.0738602-9.9831341,4.3938694-13.9433468,6.2107821-35.7512334,16.4023687-60.3340602,44.957186-74.5972786,81.3782547,1.1827249.2049551,1.6413741-.2875574,2.3969233-1.0287874,1.5971607-1.5668913,4.1501803-6.8976759,6.0576844-9.2500451,9.6416935-11.8903137,23.8235982-18.7306197,39.2843541-17.669424.92995.0638299,1.7239676.9851241,2.5793322.9172939.7835934-.0621387,5.344078-2.5073982,6.983742-3.0214868,12.4209078-3.8943629,21.0547218-1.264129,32.9282547,2.5865814.4358541-2.9705263,3.3664135-7.9693885,3.176259-10.7735383-.1769676-2.6096864-4.3156031-8.2059016-4.720243-13.2312974-.2780618-3.4533682.8997199-5.5204085.9616935-7.8923426.1937568-7.4157038-1.3855248-15.4545453,2.5273467-22.384155l4.9446877-6.9266403ZM327.4733448,128.9158545c-10.3465304-28.4048467-28.8030562-53.5597559-54.4119686-69.8934041-9.8512473-6.2832347-28.7686003-15.7896726-40.0478009-18.0161714-1.6027797-.3163865-3.157938-.2902909-4.7725086-.2366726.6788004,1.8711839,2.4664158,2.7375319,3.5938297,4.582311,2.0962162,3.4300231,3.4671097,9.1029793,3.7850055,13.106506.3698351,4.6576413.3143382,9.8154669.5105255,14.2731665.2719371,6.1788607-.5179109,13.7485526-5.2921526,18.0006973l3.7298048,11.035892c.8384227.5263109,11.441333-3.3153974,13.7103545-3.7476019,5.7687169-1.0988284,10.6859971-.8248,16.3866746.5415387,5.9682885,1.4304798,6.1847398,2.934896,12.9064752,2.884447,20.9781355-.1574483,33.8467738,7.3948462,45.0507423,24.6686271,1.6971264,2.6165541.4169392,3.3179328,4.8510185,2.8006645ZM221.90416,94.6079674c2.5885398-6.5920671,2.5133285-4.7542775,6.3208394-9.7787139,2.6676666-3.5202844,3.2372976-8.5885932,3.1777715-12.9163588l-3.6869483,2.6364794.5198095-15.832848c-1.9333406.7527815-3.6881253,1.8481736-5.6891052,2.4871867-1.4202473.4535561-6.5956607,1.1045246-6.8929279,1.2904726-.2183355.1365743-.421705,1.4490897-.8937599,1.9984215-3.2274781,3.7558265-8.7794734,4.3055904-12.3955054,7.6725788-2.0338378,1.8937632-1.6296007,2.1006854-2.1021962,4.4957387-1.2452389,6.3107105-.1699581,13.1915036-.5342151,19.682663,1.0232158,1.1750486,2.2475242,1.3763416,3.7013403,1.4315053,1.8548174.0703793,2.7806335-.2948837,4.4354305-1.0231374l3.4785792,4.7139086c-4.4577487-1.501827-10.5825806-.3575097-11.6065643,4.752255,3.7372676.0891927,8.3194134-.6891777,11.0719078,2.3832061l-11.604149.26044c-.449282,1.0982667.4068828,2.0175961.5298164,2.6375371.919435,4.6366123-.363088,7.4088652-2.1114168,11.6127925h8.7095944c8.549783,0,15.3274977-10.5310777,16.0944247-18.2161042.2973256-2.9793648.231053-7.4174486-.5227257-10.288023ZM317.4457714,136.8363039c-5.3943065-16.8433415-20.4430403-24.4822542-37.2814785-25.7970747-2.4454118-.1909487-8.0315622.623737-9.3109778.3565949-.8909908-.186039-3.9216559-2.3419419-5.5485322-2.9162936-8.7015975-3.0720085-16.4267039-2.3013206-24.9218238.9149766l4.6287628,1.9811206c.5519865.218455,1.14238.0722827,1.7015858.1236743,1.655805,1.6763427,6.9824218,2.7690307,6.8569311,5.4822338-.0426252.9215893-.8473268,2.6044377-1.1846175,3.6206556-2.8300048,8.5264793-9.4606915,15.286524-16.7477029,20.192374,3.2053702,3.1191466,6.6247343,6.0534294,9.2141424,9.6948802,6.1780772-3.1981488,10.9694701-7.5239121,15.5854562-12.5974332,5.5890426-6.1430268,10.6400052-13.0516392,11.6223664-21.6347865l8.6407446.487278c4.2113648,9.8184785,5.1392921,21.6575345-.5113243,31.1339923-5.9031957,9.90005-15.0369043,9.7062432-25.0303287,12.1833928-1.1964689.2965783-2.5875411.765707-3.6923232,1.3169787,6.5437996,5.4865028,14.3781059,7.8438198,22.6950746,5.0172717-9.7290596,19.6008368-29.7972591,33.1066959-46.4511702,46.4511702l-3.1644769,2.1060482,13.978491-.5299783c22.6561184-2.0141713,41.8509568-11.422817,53.4813749-31.5026567,8.6164862-14.8763064,10.920462-31.7412953,5.3866777-48.1957599,4.2324978,3.8744317,8.4600036,10.082286,10.7974861,15.3259099,7.6066455,17.0638234.1369039,33.5445404-13.4314934,44.5906571,11.2616418-4.3052678,20.571718-8.9356311,22.6871557-21.9111399,1.593866.2947079,1.0219444-.8077091,1.0558315-1.8235379.1469785-4.4059655.552521-11.7686087.0374644-15.8888968-.1191519-.953177-.925184-.7734795-1.0573546-1.1632244-.6757719-1.9927186-.9482785-3.7580039-2.152272-5.6646119l2.6441848.2589775c.0889023.1699935.4373604.3245183.5278542.5278542.1361963.3060277-.2131593,1.2406027.0508226,1.5415407.1910817.2178322.8604266-.0482766,1.0048858.0420219,2.7420606,1.7140056,5.5450442,11.7283127,5.798564,15.0521984.4607025,6.0402482-.9593215,9.4936712-2.4025246,15.0079049-.134757.5148835-.6267399,1.215579.2913109,1.0785086-.1048531-.7447061.1228145-.8621159.72941-1.1416361,1.4892303-.6862396,3.6584695-1.731606,5.091172-2.2775134,1.4150441-.539179,2.6585954-.9569806,4.2153195-.8006442.5788597-9.8647884,1.0261816-19.8899484.015466-29.7299113-5.1320483-2.1815043-10.5625169-4.8073557-14.5518612-8.7842107-.586693-.5848563-.7211414-1.5192411-1.2982733-2.1289057ZM85.7177748,137.3641581c-1.8409924,1.7274475-2.9023931,3.0550946-5.1120844,4.6532216-2.9089967,2.1038894-6.1457169,3.8024256-9.1644049,5.7251166l-.4502504,29.1591143c3.6609544.2195132,6.0526449,3.3209836,9.4459922,4.2712391-2.6275966-8.6751028-2.9574779-17.5694816.6049424-26.0506928,2.1156465-5.0368129,6.572333-10.5436661,10.7447131-14.0642688.5921483-.4996474.8595394-1.2794125,1.8487147-1.0492633l-2.092548,1.9995955c-6.186947,12.2062322-10.4286446,27.7925633-2.3508136,40.1803365,2.7425375,4.2058237,9.877711,8.8233078,14.4742571,10.8710706.7424316.3307535,1.4568049.0479157,1.5795517-.5427381.1690342-.8133872-4.1904269-4.5953788-4.9676981-5.578817-13.6409778-17.259172-9.5396253-37.5250163,4.7114938-52.7304676-12.1401948,34.8807007,13.4582841,70.7775991,47.7597972,78.3815992,8.7841991,1.9472917,17.939567,2.352227,26.923733,2.3641585l-4.1967548-1.8904386c-.8686375-2.111489-1.0712598-.7118783-1.6069885-.7434684-1.5653104-1.741303-3.7452702-3.2063185-5.6238833-4.668141-14.6085758-11.3675057-30.8318915-24.5637715-39.7715785-41.2551749,7.7875113,2.8612404,16.0187293.4841162,21.6418682-5.273249-2.4765359-.3212728-4.9719583-.9843578-7.3898046-1.5888557-4.0317237-1.0079915-8.2034884-1.7698626-11.9747245-3.5969482-13.935121-6.7512768-15.0976603-25.5410071-10.0709534-38.5060588l9.9001382-1.1762206c.7348422,8.2113997,5.7209119,16.0925736,11.6176856,21.6372051,3.3760031,4.8439172,9.8849884,9.3674704,15.0724896,12.1570128l9.2084781-8.7321906c.2570587-1.0300209-3.8361746-3.3806962-4.7565808-4.2103847-3.95192-3.5624085-8.0245071-8.6262262-10.310663-13.4427788-.8897451-1.8745458-3.2573317-6.6268888-1.829036-8.213322.2805023-.3115589,6.5054922-3.5711445,7.3952299-3.951047.9043039-.386122,2.915861-.629597,3.9662811-1.0552841.6056858-.2454566,1.001612.408381.7830149-1.0486295-9.1073122-3.560676-17.9865909-3.5454847-27.0681325.1074302-1.3060437.5253366-2.3185559,1.848206-3.3103733,2.0085458-1.6476737.2663671-4.7573646-.7008006-7.2991401-.4733496-4.7477944.4248567-12.362739,2.0634922-16.8276889,3.7545962-10.2752114,3.8917459-17.7875788,12.3358895-21.504279,22.5715472ZM233.4307656,112.1107291l-4.6617104-2.1923588c.5567046,7.5531111-1.6620249,15.1637648-5.7431226,21.4733785l4.5040018,3.8091164c1.5865173.2376831,3.9534137-7.2733703,4.361031-8.7001428.7354824-2.57439,2.7004295-12.5550973,1.5398001-14.3899933ZM238.2674743,159.5288162c-11.0038443-27.9048054-52.449642-31.1901913-69.5875589-7.5596852-1.3409973,1.8490254-3.7236588,4.9932142-3.5227372,7.034366,4.8186021-2.8814903,7.9041379-7.960314,11.6154715-12.1272879l.8136206,2.6052765,9.7180404-.0020781c7.3976774-5.815993,9.6017751-7.7902257,19.5807395-6.861448,4.7625221.4432648,7.4450878,6.2818179,10.5437542,6.8754162.9541992.1827919,7.6731617.1898679,8.3699237-.052212l1.6406775-2.0432357c3.3830988,3.2462791,5.9326307,7.5615046,9.1373425,10.9236718.5160626.5414181.5260829,1.4925219,1.6907263,1.2072163ZM186.4066238,176.8185354c.3997017-.3855584,4.7760321-8.6838961,5.2548296-9.7853689.3151413-.7249821,1.0174613-1.9945225,1.1182738-2.6252536.4022546-2.5166956-4.2818958-8.6582407-5.1784169-11.4797293-2.8535985-.078291-6.9731485-1.4688782-9.6652086-.6754269-1.1295639.3329249-9.4153712,9.5864748-9.747489,10.8434895-.5603829,2.1209631,2.9097325,15.0139028,4.407226,15.3493631,2.6602493-1.3919885,12.4025092-.2686292,13.8107852-1.6270739ZM232.4429306,178.5212041c.7504518-4.393942,4.1203907-13.081088,2.0643788-17.0738663-.4590865-.8915467-7.2105637-8.7342343-7.862176-9.0300686-2.4532804-1.1137982-6.764635.3551775-9.4295026.3195195l-3.6257459,10.1421212,8.6627182,14.5176519,10.1903274,1.1246424ZM196.1212292,191.6485396l15.2324468.3551301,7.2621599-13.644349-8.3208993-13.8142298c-4.5875958-.7803602-9.1854127.0443768-13.7371132.5220781-.6122439.3735321-6.6345085,11.2008189-7.1184414,12.4529246-.2179092.5638083-.3826701.9709994-.0544293,1.5519694l6.7362766,12.5764766ZM241.4319793,165.3377917l-3.1003748.5929044c.437625,4.4889275-2.7781118,10.0627162-3.117588,14.0472544-.2324726,2.7286034,1.0495096,6.9915265.9768617,9.9109812-.065317,2.6248535-1.3124488,5.0800886-1.6129102,7.6505258,8.1952769-8.3872318,9.7225303-21.1701388,6.8540113-32.2016657ZM165.4260985,165.8651233l-4.202308.0274549c-2.6350914,10.9853572-.7717808,23.4561942,7.3618203,31.6468353-.5991051-2.9037552-1.1897514-5.1621133-1.0698884-8.20536.1091648-2.7716261,1.5960192-6.9951159,1.4287439-9.4110872-.261085-3.7708741-4.12253-9.752556-3.5183678-14.0578431ZM306.8886872,197.0116834c-.7770875.251732-1.9760657,1.2883922-2.8949046,1.5943733l-5.0201606,4.2092694c5.9064138-1.386681,12.2042644-4.1081166,18.2722748-4.6838817,2.889067-.27413,8.0907554.5114294,10.3881139-.168954,1.8771699-.5559407,1.6500176-4.148238,1.9524073-5.7014949.0449082-.2306759.8640617-.7783257.5301114-1.5805028-8.2597634-2.2533632-17.1252895.560261-23.2278423,6.3311906ZM75.1606907,192.7888498c.2090182.7766501,1.4701391,4.6459138,1.9465661,4.7639349,8.3609379.2523865,16.3385507,2.728487,24.4435723,4.2067412.8911134-.827385-3.5138264-3.0597712-4.2202617-3.1642799.0356188-1.1745144-.7045361-1.4154695-1.4137556-2.0167875-5.2689878-4.4673572-14.3699418-8.4233809-21.0684866-5.390484-.4930273.6557993.1883806,1.1401835.3123656,1.6008752ZM293.9562592,194.9002666v.5278542c.3427625-.1759514.3427625-.3519028,0-.5278542ZM210.7133637,195.5381351l-14.8298585-.0018859-7.7617606,8.5826878c7.8781389,6.4279636,20.0724244,7.2966936,28.0102075.5158365l-5.4185884-9.0966383ZM175.716917,202.8180797v.5278542c.3427625-.1759514.3427625-.3519028,0-.5278542ZM176.5127535,204.3916334c3.8555739,1.6682632,7.3716156,4.319131,11.5981644,5.0298122-1.3609729-.9198303-3.5144366-4.185764-4.7547253-4.7412638-1.6590981-.743076-4.7341345-.407168-6.5774796-1.341053l-.2659594,1.0525047ZM226.6546989,203.8790391c-4.0991623.2911236-7.9002092.9811887-9.4985153,5.2706178.391685.3808918,8.9206135-3.9574487,9.4985153-5.2706178ZM109.9990683,214.4308722c2.7591365-1.0548732,5.8470852-1.8234349,7.9177412-4.2175011-5.477087,1.1905789-10.3504876,1.8525139-15.9635977.9144782-7.217368-1.2061315-14.2160406-5.3304072-22.0392591-3.0284423-.4193582,1.0607728.9912783,1.3746456,1.0531342,1.5807773.4640548,1.5464384-.488204,2.9174493,1.5962231,4.4738655,5.0118865,3.7423142,19.3342858,3.1741238,25.2281094,1.4936005,1.1056725-.3152636,1.6800467-1.0150653,2.2076488-1.2167782ZM324.8357303,209.6801844c.0841632-.2357157,1.4682755-.5047352,1.0531822-1.5809383-10.4868084-2.2912366-20.1844356,2.8757616-30.4056909,3.6407893l-10.2339277-1.5266081,4.893762,3.2851362c.9517006.6114638,2.098684.2568473,3.021422.4044547-.2935497,1.3070934.9506272,1.3172534,1.8198884,1.5913981,4.8483892,1.5290686,10.2630141,1.8611376,15.3299509,1.5702688,2.7680146-.1588986,11.1712669-1.1289611,12.9605078-2.8752624,1.4927776-1.4569528,1.0947997-3.2038164,1.5609053-4.5092381ZM178.6201151,223.9322479h-19.0027514l-.0027353,4.7534055,6.86484-.0027176v18.4748972l5.8037674-.002771c.3125377-.7374704-.5252254-1.5763778-.5252254-1.8447187v-16.6274075l6.86484.0027176-.0027353-4.7534055ZM188.1214908,223.9322479v23.2255851h5.8063963v-23.2255851h-5.8063963ZM203.957117,247.157833h11.3488654c1.0633781,0,4.4603331-1.7153067,5.3033322-2.6144809,3.4692786-3.7004612,3.3890895-14.6399529-.2705618-18.2539157-.5603941-.5533979-3.4152052-2.3571885-3.977062-2.3571885h-12.4045738v23.2255851ZM244.0004473,224.0056707l-6.7149153.0000153-7.4613279,23.1489294,5.2984819-.2386662,1.5022479-4.1951258,7.6411035-.2416857,1.9935155,4.6047837,5.2056259.0715342-7.4647315-23.1497849ZM264.6603507,223.9322479h-5.8063963v23.2255851h15.8356262v-5.2785421h-10.0292299v-17.947043ZM132.6892677,224.4614538c-1.1920617-.2187201-.8386929.0607503-1.1726252.6711633-.725372,1.3259469-1.7637449,6.5282253-2.4945818,7.0302381l-7.4100605.2203373,5.7644515,5.092647-2.0668358,7.5679417,6.6734839-4.1597738,7.0452558,4.159687-2.103514-7.8946832,6.3247587-3.7256534-.260833-1.0486138-7.6315767-.0073644-2.6679229-7.9059258ZM104.1852665,232.3794981c-2.6628018.814465-1.6289594,4.2505108-5.7964058,3.1682519-.2228286,1.4424973,1.7561461,1.9204476,2.0309537,3.007919.3204059,1.2679136-1.2635232,2.9566978-.9725381,4.3792264,3.447108-2.5015974,4.4600946-2.5017691,7.9071446.0000653-.6427081-3.8238889-.7597963-4.687275,2.1166385-7.3846364-3.4840509.1775178-4.6065113.5925848-5.2857928-3.1708261ZM295.2707055,232.3803081c-2.6419114.655763-1.8630308,4.684804-5.801208,3.6977222l2.560936,2.9756142-.972008,3.8813174c.1356622.1800736,3.3172739-1.9342655,4.0421147-1.9984009,1.3204396-.1168351,2.3112949,1.8548972,3.8681168,1.4673936.0801622-1.2915436-1.2803757-2.5648272-.9739801-3.8491099.2544676-1.066622,2.2633379-1.5796775,2.0293527-3.0071348-2.8910792.1494322-4.6067325.0742025-4.7533241-3.1674018ZM358.6183995,283.5797732c-1.6660839-8.4979202-.4347717-25.433608-9.7523985-29.5727399-5.3865368-2.3928396-23.0871663-2.0120345-29.5948197-1.5927381-6.2727018.4041582-12.8352699,1.7087178-13.2538569,9.3369492-.2691435,4.9048086.7007286,15.4122299,1.4073063,20.500804.8433429,6.0735186,1.3981524,7.5255124,6.3718203,11.0473685,8.0149051,5.6753573,18.2571682,9.7679015,26.6020663,15.098416l2.9069491,24.2720816-13.8938384-2.5978695c-1.3102775-.8247695-1.531916-13.4634998-1.9340498-15.8799008l-17.9468518-1.5777615c.8782366,6.3574599.8073978,12.8967888,1.584823,19.2600218.9082561,7.4340847,1.8330515,11.387251,9.5008112,13.7247739,6.1982526,1.8895424,14.9889988,3.2296799,21.5282693,4.3365868,8.0556056,1.363578,19.1284209,5.4022012,19.1543311-6.9748425.0206091-9.8447458-4.4122432-22.8827515-4.328966-33.1875246-.9411731-4.9642764-1.5089927-7.0546416-5.5677375-10.2678887-3.9291417-3.1106422-25.0882595-12.9521357-25.922765-15.2498631l-1.7316836-15.7096389c.0014944-.7360203.3719918-.9129142.913045-1.2433339,1.5068565-.9202333,13.261769-1.0247956,14.3032872.0370595l2.2350697,16.24004h17.4191888ZM97.8584216,267.2162928c.2208845-4.0429971,1.1280834-8.0110436,1.4698493-12.0399969.0505863-.596343.2425203-1.0230462-.3894742-1.4436387l-52.8078601-.7652065,4.7484606,14.248842h12.668501l-6.0633005,84.4642725,19.8119459-4.576763,4.7262519-79.8875094h15.8356262ZM123.7232777,254.5477919h-17.4191888l-4.753042,89.2096963,17.5999777-1.5630373c.5183998-.1176888.6593136-1.0332626.7348356-1.4604601,1.0450544-5.911454.3697197-15.2396478.6485251-21.5458258.5963997-13.4897062,1.5389026-27.1401304,2.1278325-40.6283582.3496141-8.0071904.4705093-16.0251534,1.0610599-24.0120149ZM263.6046423,255.6035003h-14.7799178l5.5089098,82.9066698,16.1356683,1.5517807-3.6879096-41.976616,1.037939-.2515874,21.1827194,43.7472339c1.2690202-.2684857,15.2972622,2.4283319,15.254793,1.375499l-9.0541422-87.80767c-5.0132331-1.2499442-10.1015833.4946319-15.2372505-.0758713l3.1644625,40.6474112-19.525272-40.1168499ZM129.5296739,255.0756461v13.1963552h13.1963552l-2.6399205,72.3152053,17.9502459-1.5801195,2.1088634-70.7350859h13.7242094l.0027338-12.6712352-44.3424871-.5251199ZM196.5671581,256.1313545l-16.3662129-.5305888c-.6060039,17.8525414-.304614,35.6997954-.5033517,53.6017065-.0152435,1.3731044-.5529255,2.6701105-.5747764,4.1759114-.1162297,8.0096662.1405084,16.0412527.0224185,24.0452524l17.4219226-.530588v-80.7616936ZM203.957117,336.8930481h13.4602823l.7102009-.8733635,1.1618231-8.6016263,12.6743715.2071364,2.1355561,9.7393195,13.6676769.5807742-16.8919195-81.8119533c-1.9396903.6966896-12.241843-1.4038372-12.6755324.3659103l-14.2424587,80.3938026ZM140.0045506,349.6476431c.7611062,4.1102192,5.6703673,3.1604696,2.7150679-.8732563-3.5149174-4.7975556-11.0521097-1.314448-6.8550842,4.7450229,1.5693926,2.2658162,5.2465542,2.8764555,4.7510457,6.0689778l-2.5669565-.0769948c-1.305323-5.6492188-5.9281998-.7086353-1.3108923,2.1091014,5.4800757,3.3442457,9.194503-2.0520885,5.6849675-6.2127374-1.4404668-1.7077122-5.0405666-2.8511307-4.4446094-5.8435877l2.0264613.0834741ZM260.9653713,347.1862051v14.5159907l3.1696743.0024626-.5277313-6.3339687c3.2969314.6520737,1.2358745,6.8070403,5.2484521,5.7783796l1.6169102-6.8336162c.7786263-.0432476.9248153,1.885086.9861155,2.4344677.1644224,1.4735799.0341107,2.956043.0609026,4.4269771l2.6420317-.0025564v-13.9881365c-.7267163-1.0869643-3.1891508-1.1982388-3.9671427-.2704364l-2.6310348,8.4575576-2.9764298-8.9026715c-.9528062-.2480432-3.3164221-.2656564-3.6217478.7155503ZM253.5777352,346.9191588l-4.1744072.055204-3.2202837,15.7853707,2.6175755-.0278822c-.2336541-3.3300759,1.9918372-3.4073714,4.7515929-3.1155472l.7922291,2.4838098,2.396806-.4028298-3.1635126-14.7781253ZM233.5169526,347.9779864v15.8356262c2.0386806-.2494854,9.3009762.5055213,9.004938-2.3724324l-.8912847-1.2808159-4.9447155.4824731.5239765-4.2222769,4.2340968-.3003491-.0116362-2.8645411c-7.1488539,1.8951939-6.2253116-3.9595872.532853-2.635613l-.0009431-3.1724756-8.4472848.5304046ZM149.2128436,363.1280397c1.8332611,1.549712,6.5574156,1.9107099,7.6327094-.7657368,1.0959247-2.7277979.1337061-4.3522684.0835588-6.730309-.0257477-1.2209819.7089676-2.3231022.4964405-3.5687222-.5239138-3.0706567-6.4779094-5.6719335-8.7343276-2.8774412-1.2148796,1.5045844-1.1973678,12.4890968.5216189,13.9422092ZM224.0155769,352.7286743v13.1963552c1.0288016-.0164368,2.6927768.3515536,3.1028759-.8679216l-.4662627-12.8589182,3.1415522-.0289954.5638972-2.8647575-9.9844167.8339099.4429937,2.3585185,3.1993605.2318091ZM164.3680515,361.4382687c-.3600092-2.1932395,0-6.0074343,0-8.4456673,0-.4459697,1.1743449-.9758811,1.8281891-.7730568.7853393.2436144,1.1080384,4.2793671,4.5134935,2.3496447.5904972-4.055685-6.0844203-6.6855397-8.4566618-4.2195006-1.5828707,1.6454568-1.5203937,11.9192143-.015348,13.7468489.9028841,1.0964067,3.4888151,1.8940543,4.8899701,1.7292255,3.3260345-.3912672,5.2482748-5.375863.7259308-5.2166677l-.9152715,2.0761213c-1.2453593.3958689-2.3465372.1162676-2.5703022-1.2469481ZM177.0365525,363.0218313c-.5513895-1.9867941.403278-6.1550242,0-8.4456673l2.3261886-.7516986.8607855,2.5779765,3.1496453.0211076c.2887927-6.5860642-8.7450836-8.9925132-9.5242054-.8116859-.4616772,4.8476391-.2204859,13.4196022,7.0385951,11.2574418,1.8731576-.5579311,4.1914543-4.977103.6427503-5.1904296-.4334027-.0260535-.8813727-.0134953-1.307689.0404493.771078,2.9984808-2.6260279,3.3204791-3.1860704,1.3025062ZM187.0657824,351.6729658v15.8356262l8.4534798.2571057-.5646073-2.8645825-5.2575163-.3030645.5337031-3.9546575,4.2275558.0058713.0000003-2.644826-4.2281844.0056279-.0000087-3.1728304,4.7561032.0056246-.0063177-3.1680379c-2.7294831,1.1568711-5.0940993-.2891256-7.9142079-.0018569ZM198.678575,352.2008201v15.8356262l3.1647164.5287637.007696-6.8629055c2.5029052.622743,2.0853305,4.2269951,3.2348438,6.2609225l3.0928379.0704984c.5140648-.4744409-1.5411648-4.5880198-1.5765282-5.5999884-.0482865-1.3817827,1.6146599-2.9071045,1.6179347-5.2187392.0087462-6.1738725-5.0177695-5.0154601-9.5415006-5.0141777Z" fill="#101f31"></path>
    <path d="M54.0465224,233.4336236c.7289323-2.8541875,2.6093598-3.9296888,4.2794332-6.0591834-12.01871-28.2495311-15.791246-58.6885951-10.4579135-89.0627307,1.3044858-7.4292443,4.8895299-15.4279988,6.0705015-21.9275016.1610512-.886349-.5600294-1.7582266-.3755226-2.4502239.0562413-.2109345,1.6766978-1.6621706,2.3339132-3.5122652,4.6470846-13.0817772,13.994495-27.9339428,22.7371167-39.5248828,2.420833-3.2095327,4.9836245-6.2626825,7.6436083-8.7198721,12.1733525-11.24527,19.5067589-19.9768518,34.3225316-29.0199731,8.762951-5.3486531,20.6513461-11.5695005,30.0704183-14.2695333,14.4522485-4.1428227,28.5590546-8.1776553,43.4960249-8.7612516,107.0388443-4.1820711,192.5933792,96.2414536,158.7858464,201.5419455-1.1938788,3.7185801-5.4202385,12.1682423-5.8575026,14.7723402-.3383301,2.0149025,1.7462117,4.2410248.4384834,6.465278l-8.4308581-2.9364521c3.1647449-7.5962824,6.6139621-15.1860567,9.0993557-23.0516877,27.6448139-87.4887207-34.7034933-174.0761094-121.9564685-189.2309458C118.7717003-.980275,24.9396324,105.0082219,58.1286848,209.5569285c2.222452,7.0009374,5.4216518,13.6071611,8.0213896,20.4560135-.075592.7805215-10.4671474,2.9300301-12.1035519,3.4206816Z" fill="#f5f7f8"></path>
    <g>
      <path d="M327.4733448,128.9158545c-4.4340793.5172683-3.1538921-.1841104-4.8510185-2.8006645-11.2039685-17.2737809-24.0726068-24.8260754-45.0507423-24.6686271-6.7217354.050449-6.9381868-1.4539673-12.9064752-2.884447-5.7006775-1.3663388-10.6179578-1.6403671-16.3866746-.5415387-2.2690215.4322045-12.8719318,4.2739128-13.7103545,3.7476019l-3.7298048-11.035892c4.7742417-4.2521447,5.5640898-11.8218365,5.2921526-18.0006973-.1961873-4.4576996-.1406904-9.6155252-.5105255-14.2731665-.3178958-4.0035267-1.6887892-9.6764828-3.7850055-13.106506-1.127414-1.8447791-2.9150293-2.7111271-3.5938297-4.582311,1.6145706-.0536184,3.1697289-.0797139,4.7725086.2366726,11.2792006,2.2264987,30.1965535,11.7329366,40.0478009,18.0161714,25.6089124,16.3336482,44.0654382,41.4885574,54.4119686,69.8934041Z" fill="#f5f7f8"></path>
      <path d="M174.9225611,40.7696835l-4.9446877,6.9266403c-3.9128715,6.9296097-2.3335899,14.9684512-2.5273467,22.384155-.0619737,2.3719342-1.2397553,4.4389745-.9616935,7.8923426.4046399,5.0253958,4.5432754,10.6216111,4.720243,13.2312974.1901545,2.8041498-2.7404049,7.803012-3.176259,10.7735383-11.8735329-3.8507104-20.507347-6.4809443-32.9282547-2.5865814-1.6396641.5140886-6.2001486,2.9593481-6.983742,3.0214868-.8553645.0678302-1.6493822-.853464-2.5793322-.9172939-15.4607559-1.0611957-29.6426606,5.7791103-39.2843541,17.669424-1.9075041,2.3523692-4.4605237,7.6831538-6.0576844,9.2500451-.7555492.74123-1.2141984,1.2337424-2.3969233,1.0287874,14.2632184-36.4210687,38.8460452-64.975886,74.5972786-81.3782547,3.9602128-1.8169127,10.1794504-5.1369219,13.9433468-6.2107821.8746174-.2495331,8.2504758-1.3654477,8.5794092-1.0848048Z" fill="#f5f7f8"></path>
    </g>
    <path d="M333.2744025,221.2930652l-4.7383194-1.8415817c1.4626033-3.3676617,4.0095982-7.4574844,4.9290352-10.9345967.3657688-1.3832586-.0965364-2.735378.1610695-3.4571314.2429048-.6805643,1.3004725-.7819939,1.8191437-1.9146302,1.6223248-3.542714,3.1878489-10.995131,4.0072645-15.0060881,14.2599991-69.8012573-38.4135757-140.3565817-106.0984786-155.3911039l-4.0599522-5.6999469c43.2859904,9.0646797,80.1920336,35.961641,101.0953537,74.9386204,19.6820736,36.6998053,21.8801614,81.8459529,2.8848835,119.3064585Z" fill="#f5f7f8"></path>
    <path d="M175.452958,27.048007c-1.2007872,1.4475722-2.7216077,4.5786842-4.2575638,5.5023291-2.3887023,1.4364425-11.7246405,3.320919-15.4036424,4.6548175-43.9764811,15.9445859-81.1451049,59.1473063-89.4510903,105.3271118-4.7687554,26.5134342-1.3137646,52.7035982,10.4178365,76.895645l-4.7191632,1.305077c.1403533-1.9232791-1.9785353-2.4104384-2.4413457-3.1470487-.3370776-.5364937.2437772-1.3856481.0319426-2.0984767-.814018-2.7391897-2.8759999-5.5738581-3.8167942-8.3364441-7.2141758-21.1839942-7.6184147-48.1127666-3.1649585-69.8947975,2.7078268-13.2440879,6.7545672-24.095931,13.2929702-35.797471,20.8467349-37.3086369,56.8514713-66.7129014,99.5118087-74.4107423Z" fill="#f5f7f8"></path>
    <path d="M178.6201151,223.9322479l.0027353,4.7534055-6.86484-.0027176v16.6274075c0,.2683409.837763,1.1072482.5252254,1.8447187l-5.8037674.002771v-18.4748972l-6.86484.0027176.0027353-4.7534055h19.0027514Z" fill="#f5f7f8"></path>
    <path d="M132.6892677,224.4614538l2.6679229,7.9059258,7.6315767.0073644.260833,1.0486138-6.3247587,3.7256534,2.103514,7.8946832-7.0452558-4.159687-6.6734839,4.1597738,2.0668358-7.5679417-5.7644515-5.092647,7.4100605-.2203373c.7308369-.5020128,1.7692097-5.7042913,2.4945818-7.0302381.3339323-.610413-.0194365-.8898834,1.1726252-.6711633Z" fill="#f5f7f8"></path>
    <path d="M104.1852665,232.3794981c.6792814,3.763411,1.8017419,3.348344,5.2857928,3.1708261-2.8764348,2.6973614-2.7593466,3.5607475-2.1166385,7.3846364-3.4470499-2.5018344-4.4600366-2.5016628-7.9071446-.0000653-.2909851-1.4225286,1.292944-3.1113128.9725381-4.3792264-.2748075-1.0874713-2.2537823-1.5654217-2.0309537-3.007919,4.1674464,1.0822589,3.133604-2.3537869,5.7964058-3.1682519Z" fill="#f5f7f8"></path>
    <path d="M295.2707055,232.3803081c.1465916,3.2416043,1.8622449,3.316834,4.7533241,3.1674018.2339852,1.4274573-1.7748851,1.9405128-2.0293527,3.0071348-.3063956,1.2842828,1.0541423,2.5575663.9739801,3.8491099-1.556822.3875036-2.5476773-1.5842287-3.8681168-1.4673936-.7248408.0641353-3.9064525,2.1784745-4.0421147,1.9984009l.972008-3.8813174-2.560936-2.9756142c3.9381772.9870818,3.1592966-3.0419592,5.801208-3.6977222Z" fill="#f5f7f8"></path>
    <g>
      <path d="M85.7177748,137.3641581c4.2080309-3.9484967,7.6608619-8.7108909,13.0184643-12.0546107,2.4740187-1.5440536,18.8347138-8.7852991,20.2337975-7.4730948-7.5428951,21.9549967-.2565293,47.7536715,14.268942,65.172769,6.9948356,8.3882802,17.6339278,16.9137904,26.9508668,22.6674286,3.1239609,1.9291895,10.3076093,6.4439713,13.6795819,6.6428051.5357286.0315901.738351-1.3680206,1.6069885.7434684l4.1967548,1.8904386c-8.984166-.0119315-18.1395339-.4168669-26.923733-2.3641585-34.3015131-7.6040001-59.899992-43.5008985-47.7597972-78.3815992-14.2511191,15.2054513-18.3524716,35.4712956-4.7114938,52.7304676.7772713.9834382,5.1367323,4.7654298,4.9676981,5.578817-.1227468.5906538-.8371201.8734916-1.5795517.5427381-4.5965461-2.0477628-11.7317195-6.6652469-14.4742571-10.8710706-8.077831-12.3877733-3.8361334-27.9741044,2.3508136-40.1803365l2.092548-1.9995955c-.9891753-.2301492-1.2565664.5496158-1.8487147,1.0492633-4.17238,3.5206027-8.6290666,9.0274558-10.7447131,14.0642688-3.5624203,8.4812112-3.232539,17.37559-.6049424,26.0506928-3.3933473-.9502555-5.7850378-4.0517259-9.4459922-4.2712391l.4502504-29.1591143c3.018688-1.9226911,6.2554081-3.6212272,9.1644049-5.7251166,2.2096912-1.5981269,3.271092-2.9257741,5.1120844-4.6532216Z" fill="#275262"></path>
      <path d="M317.4457714,136.8363039c-4.6065738-4.8662444-8.5408845-9.3097239-14.4252371-12.7592545-6.2421628-3.6592865-13.2224732-5.9401191-20.4105387-6.7685006,12.847761,35.8477983-8.7036922,69.8353268-38.901288,88.0473999-4.7917033,2.8898609-10.6676083,6.1460371-15.9981512,7.491361,16.6539111-13.3444743,36.7221106-26.8503334,46.4511702-46.4511702.418611-.8433627,3.1064769-5.9167702,2.6371875-6.3308885-6.2008757.8258834-12.4700279,1.4598799-18.7586374,1.0769225-1.0935097-.0665914-2.189362-.0091883-2.8813015-1.0802846,9.9934245-2.4771497,19.1271331-2.2833428,25.0303287-12.1833928,5.6506164-9.4764578,4.7226891-21.3155138.5113243-31.1339923l-8.6407446-.487278c-.9823612,8.5831473-6.0333238,15.4917597-11.6223664,21.6347865l6.2091867-12.0017835c1.0522953-3.4370705,2.74364-6.906761,2.1474519-10.6116593-7.1487865-4.6210035-14.4287529-3.0760319-22.0808479-3.7792675-.5592058-.0513916-1.1495992.0947807-1.7015858-.1236743l-4.6287628-1.9811206c8.4951198-3.2162972,16.2202263-3.9869851,24.9218238-.9149766,1.6268763.5743518,4.6575414,2.7302547,5.5485322,2.9162936,1.2794155.2671421,6.865566-.5475436,9.3109778-.3565949,16.8384382,1.3148205,31.887172,8.9537332,37.2814785,25.7970747Z" fill="#f5f7f8"></path>
      <path d="M85.7177748,137.3641581c3.7167002-10.2356577,11.2290677-18.6798012,21.504279-22.5715472,4.46495-1.691104,12.0798945-3.3297395,16.8276889-3.7545962,2.5417755-.2274509,5.6514663.7397168,7.2991401.4733496.9918174-.1603397,2.0043296-1.4832091,3.3103733-2.0085458,9.0815416-3.652915,17.9608203-3.6681062,27.0681325-.1074302.2185971,1.4570106-.1773291.8031729-.7830149,1.0486295-1.0504202.425687-3.0619772.669162-3.9662811,1.0552841-6.6699594-.0418847-13.8199712-.4022264-20.0491047,2.3846897-2.7553455,1.2327424-3.3797746,1.4310729-3.1188056,4.6694393.3955508,4.9083932,5.5052696,15.2024264,8.3879926,19.3385813-5.8967737-5.5446315-10.8828435-13.4258054-11.6176856-21.6372051l-9.9001382,1.1762206c-5.0267069,12.9650516-3.8641675,31.754782,10.0709534,38.5060588,3.7712361,1.8270856,7.9430008,2.5889567,11.9747245,3.5969482.0082769,1.4305714-.6264151,1.4794863-1.8211667,1.6117009-5.0106119.5544884-10.7524544-.3356436-15.594549-1.609742-.7376659.8042469,2.606843,5.8205202,3.1636522,6.8601458,8.939687,16.6914034,25.1630027,29.8876693,39.7715785,41.2551749,1.8786131,1.4618225,4.0585729,2.9268381,5.6238833,4.668141-3.3719725-.1988337-10.5556209-4.7136155-13.6795819-6.6428051-9.316939-5.7536382-19.9560312-14.2791484-26.9508668-22.6674286-14.5254713-17.4190976-21.8118371-43.2177724-14.268942-65.172769-1.3990837-1.3122044-17.7597787,5.9290412-20.2337975,7.4730948-5.3576024,3.3437198-8.8104335,8.106114-13.0184643,12.0546107Z" fill="#f5f7f8"></path>
      <path d="M200.2621376,76.6609244c.4725955-2.3950533.0683584-2.6019755,2.1021962-4.4957387,3.616032-3.3669884,9.1680273-3.9167523,12.3955054-7.6725788.4720549-.5493318.6754244-1.8618472.8937599-1.9984215.2972672-.185948,5.4726805-.8369164,6.8929279-1.2904726,2.0009799-.6390131,3.7557646-1.7344052,5.6891052-2.4871867l-.5198095,15.832848,3.6869483-2.6364794c.0595262,4.3277656-.5101049,9.3960744-3.1777715,12.9163588-3.8075109,5.0244363-3.7322997,3.1866467-6.3208394,9.7787139-1.9720959,5.0222092-5.2104547,15.6163661-9.5367616,18.7038214-5.3793151,3.8389312-7.1573509-.8938742-12.6331151-1.8124868-.1229336-.619941-.9790983-1.5392703-.5298164-2.6375371l11.604149-.26044c-2.7524944-3.0723838-7.3346402-2.2940134-11.0719078-2.3832061,1.0239836-5.1097647,7.1488156-6.2540821,11.6065643-4.752255l-3.4785792-4.7139086c-1.654797.7282537-2.5806131,1.0935167-4.4354305,1.0231374-.1701431-5.6164727.4664414-11.3215002-.5518786-16.8638074l-2.6184799-.0248548.0032333-4.2255061ZM222.9598238,76.6662938l-17.9434855,4.4778889,2.156731,4.4519698c6.2017732-1.3355594,12.9766725-2.4125193,15.7867545-8.9298587Z" fill="#f5f7f8"></path>
      <path d="M246.7133077,111.499302c7.652095.7032357,14.9320614-.841736,22.0808479,3.7792675.596188,3.7048983-1.0951566,7.1745888-2.1474519,10.6116593l-6.2091867,12.0017835c-4.615986,5.0735212-9.407379,9.3992845-15.5854562,12.5974332-2.5894081-3.6414508-6.0087722-6.5757336-9.2141424-9.6948802,7.2870114-4.90585,13.917698-11.6658947,16.7477029-20.192374.3372906-1.0162179,1.1419922-2.6990663,1.1846175-3.6206556.1254907-2.713203-5.2011261-3.805891-6.8569311-5.4822338Z" fill="#275262"></path>
      <path d="M156.9780927,111.499302c-.8897377.3799025-7.1147276,3.6394881-7.3952299,3.951047-1.4282957,1.5864332.939291,6.3387762,1.829036,8.213322,2.2861559,4.8165526,6.358743,9.8803704,10.310663,13.4427788.9204062.8296886,5.0136395,3.1803639,4.7565808,4.2103847l-9.2084781,8.7321906c-5.1875013-2.7895423-11.6964865-7.3130956-15.0724896-12.1570128-2.882723-4.1361549-7.9924418-14.4301881-8.3879926-19.3385813-.260969-3.2383664.3634601-3.436697,3.1188056-4.6694393,6.2291336-2.7869161,13.3791453-2.4265744,20.0491047-2.3846897Z" fill="#275262"></path>
      <path d="M219.7927432,38.6554215c2.0830324.4187341,4.9487691,5.9789083,5.2321143,8.228427.4125155,3.2750207-1.966711,6.5872516-5.1081151,7.4642696-3.5793762.9992912-7.6546544.7098682-11.2385839,1.4323813-6.6456793,1.3397557-12.5388179,5.0963372-14.2280142,11.9078708-1.5020116.3215925-1.0924824-.7405164-1.0675926-1.86171.2311415-10.4120735,11.1541898-15.3262123,20.0733379-16.3476389-7.2538091-4.2965793-17.8712293-.7676926-22.9124378,5.5864977l-4.5280187,8.3963924c-.6244556-6.0238643,1.5774846-11.4736766,5.2702601-16.122251l1.5864855-.7664258c3.6490574-.7820144,7.0246142-3.0750855,10.8518437-3.1836502,3.7028402-.1050362,7.9911072,1.6381422,11.8458872,1.0722334,1.7386453,1.063623,3.6544932,1.5405595,5.0171865,3.6923754.3013844-1.5634818-2.326027-4.147047-3.7105632-5.26284-1.4894066-1.2003077-2.4708549-1.3726909-3.9458944-2.1245149-1.9738868-1.0060853-3.5828963-2.0056108-5.8063963-2.639271,4.7693378-.1346536,7.7205239-.4667951,12.668501.5278542Z" fill="#275262"></path>
      <path d="M227.1921559,39.7080538c-2.7200431-6.0358126-10.1714439-10.7907731-16.693847-11.5527308-9.2866933-1.0848865-19.6481401-.5647679-27.3797006,5.2332889-1.2165662.9123281-5.4262949,5.7042606-5.8278185,5.7910204-2.1283959.4598967-.9575829-2.7621527-.5375424-3.7133109,2.7718772-6.2767601,10.7256812-10.9646174,17.4470841-11.5823004,11.870487-1.0908731,24.582697-1.5965152,32.4411931,8.7143897,1.3612105,1.7860048,3.9690893,6.3875548.5506313,7.109643Z" fill="#f5f7f8"></path>
      <path d="M221.90416,94.6079674c.7537787,2.8705744.8200513,7.3086582.5227257,10.288023-.766927,7.6850265-7.5446418,18.2161042-16.0944247,18.2161042h-8.7095944c1.7483289-4.2039273,3.0308518-6.9761803,2.1114168-11.6127925,5.4757642.9186126,7.2538,5.651418,12.6331151,1.8124868,4.3263069-3.0874552,7.5646657-13.6816122,9.5367616-18.7038214Z" fill="#275262"></path>
      <path d="M233.4307656,112.1107291c1.1606294,1.834896-.8043177,11.8156032-1.5398001,14.3899933-.4076174,1.4267725-2.7745137,8.9378259-4.361031,8.7001428l-4.5040018-3.8091164c4.0810977-6.3096137,6.2998272-13.9202674,5.7431226-21.4733785l4.6617104,2.1923588Z" fill="#275262"></path>
      <path d="M324.8357303,209.6801844c-.4661056,1.3054217-.0681276,3.0522853-1.5609053,4.5092381-1.7892409,1.7463012-10.1924932,2.7163637-12.9605078,2.8752624-5.0669369.2908689-10.4815617-.0412001-15.3299509-1.5702688-.8692612-.2741447-2.1134381-.2843047-1.8198884-1.5913981,7.2387862,1.1579645,13.4583479-1.7531546,20.4769198-3.0125922,3.6813142-.6605882,7.4590374-1.0258191,11.1943326-1.2102415Z" fill="#275262"></path>
      <path d="M142.7260291,159.5340348c2.4178463.6044979,4.9132687,1.2675829,7.3898046,1.5888557-5.6231389,5.7573652-13.8543569,8.1344894-21.6418682,5.273249-.5568092-1.0396255-3.9013181-6.0558989-3.1636522-6.8601458,4.8420947,1.2740984,10.5839371,2.1642304,15.594549,1.609742,1.1947517-.1322146,1.8294436-.1811295,1.8211667-1.6117009Z" fill="#275262"></path>
      <path d="M255.158975,160.061889c.6919395,1.0710963,1.7877917,1.0136931,2.8813015,1.0802846,6.2886095.3829573,12.5577617-.2510392,18.7586374-1.0769225.4692894.4141183-2.2185764,5.4875258-2.6371875,6.3308885-8.3169687,2.826548-16.151275.4692311-22.6950746-5.0172717,1.1047821-.5512717,2.4958543-1.0204005,3.6923232-1.3169787Z" fill="#275262"></path>
      <path d="M109.9990683,214.4308722c-.5276021.2017128-1.1019763.9015145-2.2076488,1.2167782-5.8938237,1.6805232-20.2162229,2.2487137-25.2281094-1.4936005-2.0844271-1.5564162-1.1321683-2.9274271-1.5962231-4.4738655,7.4346113-.4882793,14.3887398,2.5453036,21.5133337,4.0881227l7.5186477.6625652Z" fill="#275262"></path>
      <path d="M329.5864181,192.2609955c-.3023897,1.5532569-.0752374,5.1455542-1.9524073,5.7014949-2.2973585.6803833-7.499047-.105176-10.3881139.168954-6.0680104.575765-12.3658611,3.2972007-18.2722748,4.6838817l5.0201606-4.2092694c.918839-.3059811,2.1178172-1.3426413,2.8949046-1.5943733.5611047-.1817659,1.7018417.1067226,2.6483631-.2388065,6.6192384-2.4163633,12.6753686-5.3709918,20.0493677-4.5118814Z" fill="#275262"></path>
      <path d="M219.7927432,38.6554215c-4.9479771-.9946493-7.8991632-.6625078-12.668501-.5278542-5.7528375.162421-9.9656479-.3221538-15.4324607,2.2506553-1.0224141.4811718-4.9638101,3.7371449-5.6790473,3.0251584-.1699568-1.3129719-.0586344-1.3250461.9206897-1.9771317,3.7528946-2.4988751,7.0035284-5.6556379,11.3884297-7.0864558,6.5535112-2.1384475,16.9492406-1.5484377,21.4708897,4.315628Z" fill="#f5f7f8"></path>
      <path d="M293.1644779,213.903018c-.922738-.1476073-2.0697214.2070092-3.021422-.4044547l-4.893762-3.2851362,10.2339277,1.5266081c10.2212553-.7650276,19.9188825-5.9320258,30.4056909-3.6407893.4150933,1.0762032-.9690191,1.3452226-1.0531822,1.5809383-3.7352953.1844224-7.5130184.5496533-11.1943326,1.2102415-7.0185718,1.2594376-13.2381335,4.1705567-20.4769198,3.0125922Z" fill="#f5f7f8"></path>
      <path d="M80.967087,209.6801844c-.0618559-.2061316-1.4724924-.5200045-1.0531342-1.5807773,7.8232185-2.301965,14.8218911,1.8223108,22.0392591,3.0284423,5.6131101.9380357,10.4865107.2761007,15.9635977-.9144782-2.070656,2.3940661-5.1586047,3.1626279-7.9177412,4.2175011l-7.5186477-.6625652c-7.1245939-1.5428191-14.0787224-4.576402-21.5133337-4.0881227Z" fill="#f5f7f8"></path>
      <path d="M75.1606907,192.7888498c3.1668743-.035716,6.649102.7970364,9.7257546,1.6231102,4.325328,1.16134,8.9244334,3.6625903,12.444122,4.1832861.7064353.1045086,5.1113751,2.3368949,4.2202617,3.1642799-8.1050216-1.4782542-16.0826343-3.9543547-24.4435723-4.2067412-.476427-.1180212-1.7375479-3.9872848-1.9465661-4.7639349Z" fill="#275262"></path>
      <path d="M97.3305673,198.595246c-3.5196886-.5206958-8.118794-3.0219461-12.444122-4.1832861-3.0766527-.8260737-6.5588803-1.6588261-9.7257546-1.6231102-.123985-.4606917-.8053928-.945076-.3123656-1.6008752,6.6985448-3.032897,15.7994987.9231267,21.0684866,5.390484.7092195.601318,1.4493744.8422731,1.4137556,2.0167875Z" fill="#f5f7f8"></path>
      <path d="M200.2621376,76.6609244l-.0032333,4.2255061,2.6184799.0248548c1.01832,5.5423072.3817355,11.2473347.5518786,16.8638074-1.4538161-.0551637-2.6781245-.2564567-3.7013403-1.4315053.364257-6.4911594-.7110239-13.3719524.5342151-19.682663Z" fill="#275262"></path>
      <path d="M306.8886872,197.0116834c6.1025528-5.7709296,14.9680789-8.5845538,23.2278423-6.3311906.3339503.8021771-.4852032,1.3498269-.5301114,1.5805028-7.3739991-.8591104-13.4301293,2.0955181-20.0493677,4.5118814-.9465214.3455291-2.0872585.0570406-2.6483631.2388065Z" fill="#f5f7f8"></path>
      <path d="M212.4027843,42.350401c1.1578708.4335747,2.2102129,1.526022,3.1671252,2.1114168-3.8547799.5659088-8.143047-1.1772696-11.8458872-1.0722334-3.8272295.1085647-7.2027863,2.4016358-10.8518437,3.1836502,4.4782654-5.6241369,13.0827146-6.6373019,19.5306056-4.2228337Z" fill="#f5f7f8"></path>
      <path d="M317.4457714,172.7303899c1.9565297-12.0008113-.9553272-23.0998675-7.9229979-32.9856698l7.6975779,7.106131c.5975986.3858789.5290334,1.1694657.7532742,1.5982453l-2.6441848-.2589775c1.2039935,1.906608,1.4765001,3.6718933,2.152272,5.6646119.1321705.389745.9382027.2100474,1.0573546,1.1632244.5150566,4.120288.1095141,11.4829313-.0374644,15.8888968-.033887,1.0158288.5380345,2.1182458-1.0558315,1.8235379Z" fill="#1c3b4d"></path>
      <path d="M212.9306385,40.7668383c1.4750394.751824,2.4564878.9242072,3.9458944,2.1245149,1.3845362,1.115793,4.0119476,3.6993582,3.7105632,5.26284-1.3626933-2.151816-3.2785412-2.6287524-5.0171865-3.6923754-.9569123-.5853948-2.0092544-1.6778421-3.1671252-2.1114168l.5278542-1.5835626Z" fill="#1c3b4d"></path>
      <path d="M319.5571882,150.5605133c-.1444592-.0902985-.8138041.1758103-1.0048858-.0420219-.2639819-.3009381.0853737-1.2355131-.0508226-1.5415407.7310611.2700717,1.0539904.8064657,1.0557084,1.5835626Z" fill="#1c3b4d"></path>
      <path d="M317.4457714,136.8363039c.5771319.6096646.7115803,1.5440494,1.2982733,2.1289057,3.9893443,3.976855,9.4198129,6.6027064,14.5518612,8.7842107,1.0107156,9.8399629.5633937,19.8651229-.015466,29.7299113-1.5567241-.1563364-2.8002754.2614653-4.2153195.8006442-1.4327024.5459074-3.6019416,1.5912737-5.091172,2.2775134-.6065955.2795201-.8342631.39693-.72941,1.1416361-.9180508.1370703-.4260679-.5636252-.2913109-1.0785086,1.4432031-5.5142337,2.8632271-8.9676567,2.4025246-15.0079049-.2535198-3.3238858-3.0565033-13.3381928-5.798564-15.0521984-.001718-.7770969-.3246473-1.3134909-1.0557084-1.5835626-.0904938-.203336-.4389519-.3578607-.5278542-.5278542-.2242408-.4287795-.1556756-1.2123664-.7532742-1.5982453l-7.6975779-7.106131c6.9676707,9.8858023,9.8795276,20.9848584,7.9229979,32.9856698-2.1154377,12.9755088-11.4255139,17.6058721-22.6871557,21.9111399,13.5683973-11.0461167,21.0381389-27.5268337,13.4314934-44.5906571-2.3374825-5.2436239-6.5649883-11.4514783-10.7974861-15.3259099,5.5337843,16.4544646,3.2298085,33.3194536-5.3866777,48.1957599-11.630418,20.0798397-30.8252565,29.4884855-53.4813749,31.5026567l-13.978491.5299783,3.1644769-2.1060482c5.3305429-1.3453239,11.2064479-4.6015001,15.9981512-7.491361,30.1975958-18.2120731,51.749049-52.1996017,38.901288-88.0473999,7.1880656.8283815,14.1683759,3.1092142,20.4105387,6.7685006,5.8843526,3.4495306,9.8186633,7.8930101,14.4252371,12.7592545ZM297.1233844,133.6691787v.5278542c.3427625-.1759514.3427625-.3519028,0-.5278542Z" fill="#275262"></path>
      <path d="M293.9562592,194.9002666c.3427625.1759514.3427625.3519028,0,.5278542v-.5278542Z" fill="#275262"></path>
      <path d="M297.1233844,133.6691787c.3427625.1759514.3427625.3519028,0,.5278542v-.5278542Z" fill="#101f31"></path>
      <path d="M222.9598238,76.6662938c-2.8100821,6.5173394-9.5849813,7.5942993-15.7867545,8.9298587l-2.156731-4.4519698,17.9434855-4.4778889Z" fill="#101f31"></path>
      <g>
        <path d="M196.1212292,191.6485396l-6.7362766-12.5764766c-.3282409-.58097-.1634799-.9881611.0544293-1.5519694.4839329-1.2521058,6.5061975-12.0793925,7.1184414-12.4529246,4.5517005-.4777013,9.1495174-1.3024383,13.7371132-.5220781l8.3208993,13.8142298-7.2621599,13.644349-15.2324468-.3551301Z" fill="#f5f7f8"></path>
        <path d="M186.4066238,176.8185354c-1.408276,1.3584448-11.1505358.2350854-13.8107852,1.6270739-1.4974935-.3354603-4.9676089-13.2284-4.407226-15.3493631.3321178-1.2570147,8.6179251-10.5105646,9.747489-10.8434895,2.6920602-.7934514,6.8116101.5971359,9.6652086.6754269.8965211,2.8214887,5.5806715,8.9630337,5.1784169,11.4797293-.1008126.6307311-.8031325,1.9002715-1.1182738,2.6252536-.4787974,1.1014727-4.8551279,9.3998105-5.2548296,9.7853689Z" fill="#f5f7f8"></path>
        <path d="M238.2674743,159.5288162c-1.1646434.2853056-1.1746636-.6657983-1.6907263-1.2072163-3.2047118-3.3621671-5.7542437-7.6773927-9.1373425-10.9236718l-1.6406775,2.0432357c-.696762.2420799-7.4157245.2350038-8.3699237.052212-3.0986664-.5935983-5.7812321-6.4321513-10.5437542-6.8754162-9.9789644-.9287777-12.1830621,1.045455-19.5807395,6.861448l-9.7180404.0020781-.8136206-2.6052765c-3.7113335,4.1669739-6.7968693,9.2457975-11.6154715,12.1272879-.2009215-2.0411518,2.18174-5.1853406,3.5227372-7.034366,17.137917-23.6305061,58.5837146-20.3451202,69.5875589,7.5596852Z" fill="#f5f7f8"></path>
        <path d="M232.4429306,178.5212041l-10.1903274-1.1246424-8.6627182-14.5176519,3.6257459-10.1421212c2.6648676.035658,6.9762222-1.4333177,9.4295026-.3195195.6516122.2958343,7.4030894,8.1385219,7.862176,9.0300686,2.0560119,3.9927783-1.313927,12.6799243-2.0643788,17.0738663Z" fill="#f5f7f8"></path>
        <path d="M210.7133637,195.5381351l5.4185884,9.0966383c-7.9377831,6.7808571-20.1320687,5.9121271-28.0102075-.5158365l7.7617606-8.5826878,14.8298585.0018859Z" fill="#f5f7f8"></path>
        <path d="M165.4260985,165.8651233c-.6041622,4.3052871,3.2572828,10.286969,3.5183678,14.0578431.1672753,2.4159713-1.3195791,6.6394611-1.4287439,9.4110872-.119863,3.0432466.4707833,5.3016048,1.0698884,8.20536-8.133601-8.1906411-9.9969116-20.6614781-7.3618203-31.6468353l4.202308-.0274549Z" fill="#f5f7f8"></path>
        <path d="M241.4319793,165.3377917c2.868519,11.031527,1.3412656,23.814434-6.8540113,32.2016657.3004614-2.5704372,1.5475932-5.0256723,1.6129102-7.6505258.0726479-2.9194547-1.2093344-7.1823778-.9768617-9.9109812.3394763-3.9845382,3.5552131-9.5583269,3.117588-14.0472544l3.1003748-.5929044Z" fill="#f5f7f8"></path>
        <path d="M176.5127535,204.3916334l.2659594-1.0525047c1.8433451.933885,4.9183816.597977,6.5774796,1.341053,1.2402887.5554999,3.3937524,3.8214335,4.7547253,4.7412638-4.2265488-.7106812-7.7425905-3.3615489-11.5981644-5.0298122Z" fill="#f5f7f8"></path>
        <path d="M226.6546989,203.8790391c-.5779019,1.3131691-9.1068303,5.6515095-9.4985153,5.2706178,1.5983061-4.289429,5.399353-4.9794942,9.4985153-5.2706178Z" fill="#f5f7f8"></path>
        <path d="M175.716917,202.8180797c.3427625.1759514.3427625.3519028,0,.5278542v-.5278542Z" fill="#f5f7f8"></path>
      </g>
    </g>
  </g>
  <g>
    <path d="M203.957117,247.157833v-23.2255851h12.4045738c.5618568,0,3.4166679,1.8037906,3.977062,2.3571885,3.6596514,3.6139628,3.7398404,14.5534545.2705618,18.2539157-.8429991.8991741-4.2399542,2.6144809-5.3033322,2.6144809h-11.3488654ZM209.766391,242.4046453c7.0684515-.2756525,8.8518824-1.8440582,7.7772954-9.0971492-.8292029-5.596833-3.4713385-4.6473089-8.3107879-4.6273001l.5334925,13.7244493Z" fill="#f5f7f8"></path>
    <path d="M209.766391,242.4046453l-.5334925-13.7244493c4.8394494-.0200087,7.481585-.9695329,8.3107879,4.6273001,1.074587,7.253091-.7088439,8.8214967-7.7772954,9.0971492Z" fill="#101f31"></path>
  </g>
  <g>
    <path d="M33.4602084,241.3514367l43.0523915-1.0034187,11.3126929,4.7050045-53.3091579,1.054344c2.934842,9.6688652,9.0700359,19.2477578,8.4454492,29.5545936h11.0849383c.2068267,6.9724773-1.0634677,13.9250869-1.5779899,20.8558139-1.1187286,15.0695223-2.3918082,30.2803029-3.1957581,45.3672396-.2579684,4.8410395-1.0825009,12.4368173-.5346568,16.943869.2929713,2.4102424,2.8455667,2.4793586,4.9768817,2.3030974,8.0275863-.6638868,20.2770113-4.4808104,28.7244201-6.139192,6.7806482-1.3311659,13.5447222-2.7617878,20.3880818-3.7548397,3.4675682,4.1625718,6.0115408,9.5157109,10.6882155,12.490068,4.8427781,3.0799986,13.8379008,4.8071337,19.5988844,6.2659717,22.7424701,5.7590132,46.0213591,9.6569667,68.9903138,14.4418766,16.5435187-2.9290012,33.0436249-6.1929538,49.4677693-9.6925523,12.3098683-2.6229431,27.6414577-4.9967858,39.3532832-8.6814496,7.9300076-2.494864,12.1636238-7.5033791,16.3336318-14.3969273l47.9875266,9.452797c16.5850874-1.8505614,13.4073084-21.5386638,11.2422974-33.4155107-.207879-1.1403853-2.0458551-5.5079577-2.0352066-6.3720916.0110045-.8930214.8206892-1.4917144.8709122-2.5316477.1466088-3.0357254-2.0159516-14.8939569-3.0423568-18.0328409-1.3253226-4.0530131-3.7725739-6.5097075-6.8314979-9.2680554h12.1406467c-3.8408074-13.8050761-.4346823-39.5475632-17.6538026-44.8969208-.8116363-.252146-4.1942487-1.0263951-4.7800012-1.0263951h-30.3516169l11.3236188-5.3037887c8.5324657.6945342,22.8191162-1.5658144,30.3768635,2.6645177,2.229368,1.2478542,8.0514948,7.5014942,9.3453574,9.6515609,3.0609276,5.086474,5.7557032,30.6171295,6.9553545,38.1820107.3335568,2.103376-.0308698,3.9274703,1.1192026,6.0027361l-2.8526996.578377-.8364544-1.0969948c-.1929779,1.7519593-2.8794844,1.7611785-2.6942489,3.9507244,1.6588522,11.967452,4.0989142,23.9298281,5.261339,35.9634828.4330562,4.4830844.9568846,9.4404508.5934839,13.9225067-.2777201,3.4253024-2.007125,6.1634622-2.3554487,9.5213074-2.3543539.7838508-3.8593433,2.8644948-5.9211566,4.1080368-3.7953386,2.2890837-6.8984459,2.7222166-11.2540002,2.7341362-1.288891.0035272-3.4650647-.192732-4.7506879-.5278542-4.5625639-1.1893194-9.1076003-2.2118083-13.7242094-3.1671252-.8780374-.1816927-1.7623313-.3457917-2.639271-.5278542-.8784387-.1823737-1.7595557-.3413904-2.639271-.5278542-6.7348743-1.4275186-13.4063668-3.2737498-20.2461501-4.266317-3.0582869,6.8830678-8.9728548,11.351291-16.0615822,13.6179736-16.994068,5.4340019-40.1717394,9.0464188-58.0772634,12.6552002-10.863594,2.1895107-21.7171036,4.4716797-32.6526192,6.2909474-17.7378933-3.163423-35.4766073-6.591168-53.0604289-10.514929-10.4280904-2.3269876-23.7053702-4.6667187-33.570022-8.1304603-7.075343-2.4843411-12.9995125-7.3514667-15.7541971-14.4461773-12.3369627,2.8019563-24.7972131,5.0439039-37.1730596,7.668266-3.6007789.7635638-7.2419736,2.5469597-11.320216,2.4472936-3.1646434-.0773391-6.2828244-2.2142461-9.1510144-3.2942273l4.1897445-61.9707171c-1.7114178-2.2670329.075665-3.0841846.429762-5.8196605.639809-4.9426626-.2427023-10.5965584,1.0989123-15.5231233l-12.141603-.0055086c.0005023-3.9106591,1.3971709-8.1081721.495885-11.8445569-1.2373634-5.129633-5.35411-14.1244316-7.4621476-19.4539203-.8568836-2.1663518-2.4062628-4.908336-3.58517-6.9721744,1.4601862-.8762217,3.1471597-.6800871,4.7478345-.7886678h2.639271Z" fill="#f5f7f8"></path>
    <path d="M358.6183995,283.5797732h-17.4191888l-2.2350697-16.24004c-1.0415181-1.0618551-12.7964306-.9572928-14.3032872-.0370595-.5410532.3304198-.9115506.5073137-.913045,1.2433339l1.7316836,15.7096389c.8345055,2.2977274,21.9936234,12.1392209,25.922765,15.2498631,4.0587449,3.2132471,4.6265645,5.3036122,5.5677375,10.2678887-.0832772,10.304773,4.3495751,23.3427788,4.328966,33.1875246-.0259103,12.3770436-11.0987255,8.3384204-19.1543311,6.9748425-6.5392705-1.1069069-15.3300167-2.4470444-21.5282693-4.3365868-7.6677597-2.3375228-8.592555-6.2906892-9.5008112-13.7247739-.7774253-6.3632329-.7065864-12.9025619-1.584823-19.2600218l17.9468518,1.5777615c.4021338,2.416401.6237724,15.0551312,1.9340498,15.8799008l13.8938384,2.5978695-2.9069491-24.2720816c-8.3448981-5.3305145-18.5871611-9.4230587-26.6020663-15.098416-4.9736679-3.5218561-5.5284774-4.9738499-6.3718203-11.0473685-.7065777-5.0885741-1.6764499-15.5959954-1.4073063-20.500804.418587-7.6282315,6.9811551-8.9327911,13.2538569-9.3369492,6.5076534-.4192964,24.2082828-.8001015,29.5948197,1.5927381,9.3176268,4.1391319,8.0863146,21.0748197,9.7523985,29.5727399Z" fill="#f5f7f8"></path>
    <path d="M263.6046423,255.6035003l19.525272,40.1168499-3.1644625-40.6474112c5.1356672.5705032,10.2240174-1.1740729,15.2372505.0758713l9.0541422,87.80767c.0424692,1.0528329-13.9857728-1.6439847-15.254793-1.375499l-21.1827194-43.7472339-1.037939.2515874,3.6879096,41.976616-16.1356683-1.5517807-5.5089098-82.9066698h14.7799178Z" fill="#f5f7f8"></path>
    <path d="M97.8584216,267.2162928h-15.8356262l-4.7262519,79.8875094-19.8119459,4.576763,6.0633005-84.4642725h-12.668501l-4.7484606-14.248842,52.8078601.7652065c.6319945.4205925.4400604.8472956.3894742,1.4436387-.3417658,4.0289533-1.2489648,7.9969998-1.4698493,12.0399969Z" fill="#f5f7f8"></path>
    <polygon points="129.5296739 255.0756461 173.872161 255.600766 173.8694273 268.2720013 160.1452179 268.2720013 158.0363545 339.0070871 140.0861086 340.5872066 142.7260291 268.2720013 129.5296739 268.2720013 129.5296739 255.0756461" fill="#f5f7f8"></polygon>
    <path d="M123.7232777,254.5477919c-.5905506,7.9868615-.7114458,16.0048245-1.0610599,24.0120149-.5889299,13.4882278-1.5314328,27.1386519-2.1278325,40.6283582-.2788054,6.306178.3965293,15.6343718-.6485251,21.5458258-.075522.4271975-.2164357,1.3427713-.7348356,1.4604601l-17.5999777,1.5630373,4.753042-89.2096963h17.4191888Z" fill="#f5f7f8"></path>
    <path d="M196.5671581,256.1313545v80.7616936l-17.4219226.530588c.1180899-8.0039998-.1386482-16.0355862-.0224185-24.0452524.021851-1.505801.559533-2.802807.5747764-4.1759114.1987376-17.9019112-.1026523-35.7491652.5033517-53.6017065l16.3662129.5305888Z" fill="#f5f7f8"></path>
    <path d="M244.0004473,224.0056707l7.4647315,23.1497849-5.2056259-.0715342-1.9935155-4.6047837-7.6411035.2416857-1.5022479,4.1951258-5.2984819.2386662,7.4613279-23.1489294,6.7149153-.0000153ZM243.0194214,238.1818995c.3522976-.3531345-1.141639-5.293452-1.443452-6.2095584-.2119021-.643196-.3940961-2.2266079-1.1902717-2.2297756l-2.1162782,8.4389994,4.7500019.0003346Z" fill="#f5f7f8"></path>
    <polygon points="264.6603507 223.9322479 264.6603507 241.8792909 274.6895807 241.8792909 274.6895807 247.157833 258.8539545 247.157833 258.8539545 223.9322479 264.6603507 223.9322479" fill="#f5f7f8"></polygon>
    <path d="M260.9653713,347.1862051c.3053257-.9812067,2.6689416-.9635936,3.6217478-.7155503l2.9764298,8.9026715,2.6310348-8.4575576c.7779919-.9278023,3.2404264-.8165279,3.9671427.2704364v13.9881365l-2.6420317.0025564c-.026792-1.4709341.1035197-2.9533972-.0609026-4.4269771-.0613001-.5493817-.2074892-2.4777154-.9861155-2.4344677l-1.6169102,6.8336162c-4.0125776,1.0286607-1.9515207-5.1263059-5.2484521-5.7783796l.5277313,6.3339687-3.1696743-.0024626v-14.5159907Z" fill="#f5f7f8"></path>
    <path d="M198.678575,352.2008201c4.5237311-.0012824,9.5502468-1.1596948,9.5415006,5.0141777-.0032748,2.3116346-1.6662212,3.8369564-1.6179347,5.2187392.0353633,1.0119686,2.090593,5.1255475,1.5765282,5.5999884l-3.0928379-.0704984c-1.1495133-2.0339274-.7319385-5.6381795-3.2348438-6.2609225l-.007696,6.8629055-3.1647164-.5287637v-15.8356262ZM205.0151837,359.0651395l-.2323098-3.7314705-2.9370357-.4959748-.0029906,4.2279298,3.1723361-.0004846Z" fill="#f5f7f8"></path>
    <path d="M149.2128436,363.1280397c-1.7189868-1.4531123-1.7364985-12.4376248-.5216189-13.9422092,2.2564182-2.7944923,8.2104138-.1932155,8.7343276,2.8774412.212527,1.2456199-.5221882,2.3477403-.4964405,3.5687222.0501473,2.3780406,1.0123659,4.0025111-.0835588,6.730309-1.0752938,2.6764467-5.7994483,2.3154488-7.6327094.7657368ZM154.3388216,360.9104145v-8.4456673c0-.1914587-.5360285-.8534991-.617368-1.2322935l-2.4737243-.0099958c-.782651.4760627-1.6738385,11.1180406,1.7678939,10.5153712l1.3231984-.8274146Z" fill="#f5f7f8"></path>
    <path d="M233.5169526,347.9779864l8.4472848-.5304046.0009431,3.1724756c-6.7581646-1.3239742-7.6817069,4.5308069-.532853,2.635613l.0116362,2.8645411-4.2340968.3003491-.5239765,4.2222769,4.9447155-.4824731.8912847,1.2808159c.2960382,2.8779537-6.9662574,2.122947-9.004938,2.3724324v-15.8356262Z" fill="#f5f7f8"></path>
    <path d="M253.5777352,346.9191588l3.1635126,14.7781253-2.396806.4028298-.7922291-2.4838098c-2.7597557-.2918242-4.9852471-.2145287-4.7515929,3.1155472l-2.6175755.0278822,3.2202837-15.7853707,4.1744072-.055204ZM252.516919,357.4787634c.3768831-.364337-.5732715-6.0970513-2.1033613-6.3335004l-.0029249,6.3365375,2.1062862-.0030371Z" fill="#f5f7f8"></path>
    <path d="M140.0045506,349.6476431l-2.0264613-.0834741c-.5959572,2.992457,3.0041425,4.1358755,4.4446094,5.8435877,3.5095355,4.1606489-.2048918,9.5569831-5.6849675,6.2127374-4.6173075-2.8177367.0055693-7.7583202,1.3108923-2.1091014l2.5669565.0769948c.4955084-3.1925223-3.1816532-3.8031616-4.7510457-6.0689778-4.1970255-6.0594709,3.3401667-9.5425785,6.8550842-4.7450229,2.9552994,4.0337259-1.9539618,4.9834754-2.7150679.8732563Z" fill="#f5f7f8"></path>
    <path d="M177.0365525,363.0218313c.5600425,2.0179729,3.9571483,1.6959747,3.1860704-1.3025062.4263163-.0539446.8742863-.0665029,1.307689-.0404493,3.548704.2133266,1.2304074,4.6324985-.6427503,5.1904296-7.259081,2.1621604-7.5002723-6.4098027-7.0385951-11.2574418.7791218-8.1808274,9.8129981-5.7743783,9.5242054.8116859l-3.1496453-.0211076-.8607855-2.5779765-2.3261886.7516986c.403278,2.2906431-.5513895,6.4588732,0,8.4456673Z" fill="#f5f7f8"></path>
    <path d="M187.0657824,351.6729658c2.8201086-.2872688,5.1847249,1.158728,7.9142079.0018569l.0063177,3.1680379-4.7561032-.0056246.0000087,3.1728304,4.2281844-.0056279-.0000003,2.644826-4.2275558-.0058713-.5337031,3.9546575,5.2575163.3030645.5646073,2.8645825-8.4534798-.2571057v-15.8356262Z" fill="#f5f7f8"></path>
    <path d="M164.3680515,361.4382687c.223765,1.3632157,1.324943,1.642817,2.5703022,1.2469481l.9152715-2.0761213c4.522344-.1591954,2.6001037,4.8254004-.7259308,5.2166677-1.401155.1648287-3.9870861-.6328188-4.8899701-1.7292255-1.5050457-1.8276346-1.5675227-12.1013921.015348-13.7468489,2.3722415-2.4660391,9.047159.1638156,8.4566618,4.2195006-3.4054552,1.9297224-3.7281542-2.1060303-4.5134935-2.3496447-.6538442-.2028243-1.8281891.3270871-1.8281891.7730568,0,2.438233-.3600092,6.2524278,0,8.4456673Z" fill="#f5f7f8"></path>
    <path d="M224.0155769,352.7286743l-3.1993605-.2318091-.4429937-2.3585185,9.9844167-.8339099-.5638972,2.8647575-3.1415522.0289954.4662627,12.8589182c-.4100991,1.2194753-2.0740743.8514848-3.1028759.8679216v-13.1963552Z" fill="#f5f7f8"></path>
    <g>
      <path d="M203.957117,336.8930481l14.2424587-80.3938026c.4336894-1.7697475,10.7358421.3307793,12.6755324-.3659103l16.8919195,81.8119533-13.6676769-.5807742-2.1355561-9.7393195-12.6743715-.2071364-1.1618231,8.6016263-.7102009.8733635h-13.4602823ZM220.87894,316.2797384c2.2317336.7285114,4.0725474.261144,6.1294954.2197369,1.2801473-.0257698,2.9676612,1.0911044,3.8010609-.498477l-5.2170629-28.7222441-4.7134933,29.0009842Z" fill="#f5f7f8"></path>
      <path d="M220.87894,316.2797384l4.7134933-29.0009842,5.2170629,28.7222441c-.8333997,1.5895814-2.5209136.4727071-3.8010609.498477-2.056948.0414071-3.8977618.5087745-6.1294954-.2197369Z" fill="#101f31"></path>
    </g>
    <path d="M243.0194214,238.1818995l-4.7500019-.0003346,2.1162782-8.4389994c.7961757.0031677.9783696,1.5865796,1.1902717,2.2297756.3018129.9161064,1.7957496,5.8564239,1.443452,6.2095584Z" fill="#1c3b4d"></path>
    <polygon points="205.0151837 359.0651395 201.8428477 359.0656241 201.8458383 354.8376943 204.7828739 355.333669 205.0151837 359.0651395" fill="#101f31"></polygon>
    <path d="M154.3388216,360.9104145l-1.3231984.8274146c-3.4417324.6026694-2.5505449-10.0393085-1.7678939-10.5153712l2.4737243.0099958c.0813395.3787944.617368,1.0408348.617368,1.2322935v8.4456673Z" fill="#101f31"></path>
    <path d="M252.516919,357.4787634l-2.1062862.0030371.0029249-6.3365375c1.5300898.2364491,2.4802444,5.9691634,2.1033613,6.3335004Z" fill="#275262"></path>
  </g>
</svg>
